<svg xmlns="http://www.w3.org/2000/svg" viewBox="0 0 500 500"><defs><style>.cls-1{fill:#4b4b4b;}</style></defs><title>字z</title><g id="_2018年" data-name="2018年"><g id="台湾-11" data-name="台湾"><path id="翻" class="cls-1" d="M153.51,205.18c-17.85,25.73-41.51,51.46-63.92,68.48H244.4V433H219.5V413.94h-110V438H85.44V276.56c-2.49,1.66-4.56,3.32-7,5a143.75,143.75,0,0,0-12.45-27c25.73-15.36,57.27-44.41,76.78-72.22H71.33V158.28h82.18V98.1c-24.91,2.49-49.81,4.57-72.63,5.4-1.25-6.23-4.57-15.36-7.06-21.17,54-3.74,120.36-10.79,157.71-20.34l16.6,21.58A590.2,590.2,0,0,1,180.07,95.2v63.08h13.28c8.3-16.19,17.85-40.26,23.24-56.44l23.66,7.88c-7.47,16.6-15.36,34.45-22.83,48.56h32.79v24.07H183.8c20.34,13.28,62.26,43.16,72.22,51.46l-15.36,24.08c-10.79-11.63-39.84-36.11-60.59-53.13v61H153.51Zm-40.26-97.95a385.41,385.41,0,0,1,17,43.58l-22,7.47C105,146.66,97.89,127.15,92.08,113Zm-3.74,190.91v33.62h45.66V298.14Zm45.66,91.72v-36.1H109.51v36.1Zm64.33-91.72H177.58v33.62H219.5Zm0,91.72v-36.1H177.58v36.1Zm123.26,12.87c0,15.36-2.91,23.66-12.45,28.22-9.13,5-23.66,5.4-45.66,5.4-.83-7.47-5-19.51-9.13-27,15.78.42,31.13.42,35.28,0,5,0,6.23-1.24,6.23-6.64V291.5c-16.6,18.68-33.62,37.36-49,53.13l-14.11-21.17C269.71,307.69,293.37,282,317,255.4V105.16h-55.2V78.59h80.93Zm-61.43-256.9C293,172.39,305.82,206.42,310,226.76l-22,7.88c-4.15-21.16-15.77-56.85-27-82.59Zm152.73,256.9c0,15.77-2.9,24.07-12.86,28.64-9.55,5-24.49,5.81-47.31,5.81-1.25-7.89-5.4-20.34-8.72-28.22,16.19.83,32,.83,36.52.41,4.57,0,6.23-1.66,6.23-7.06V290.67c-15.36,17.43-31.13,34.45-44.83,49.39l-14.52-21.17c14.94-14.52,36.94-38.59,59.35-63.08V105.57h-55.2V79h81.34Zm-60.59-256.9c11.62,25.73,24.07,59.35,28.22,79.27l-21.16,7.05c-4.57-20.75-16.19-55.61-27.4-80.93Z"/></g></g></svg>