<svg viewBox="0 0 500 500" fill="none" xmlns="http://www.w3.org/2000/svg">
<path d="M335.696 258.856V288.52H162.656V258.856H335.696ZM335.696 236.608H162.656V207.356H335.696V236.608ZM226.928 344.552C279.664 372.156 348.468 414.18 382.252 439.312L404.5 418.712C386.784 405.94 360.828 389.46 333.224 373.392C359.18 358.972 388.02 341.256 411.092 323.54L388.02 305.824C367.832 322.716 335.696 343.728 308.092 359.384C287.08 347.436 266.068 336.312 247.116 326.836L226.928 344.552ZM130.52 438.076C139.996 432.72 154.828 429.424 264.008 408.824C263.596 402.644 263.596 390.696 264.832 382.456L162.656 399.76V312.004H366.596V183.872H132.168V384.104C132.168 401.408 123.104 410.06 116.512 414.18C121.044 419.536 128.46 431.484 130.52 438.076ZM249.176 101.884C264.42 116.716 282.96 130.724 302.736 143.908H198.912C217.04 131.136 233.932 117.128 249.176 101.884ZM246.292 59.036C208.8 112.184 134.228 155.032 61.716 176.868C68.72 184.284 76.96 195.408 81.492 202.824C121.044 189.228 159.36 170.688 193.556 147.616V166.156H309.328V148.028C345.584 171.512 385.96 190.876 422.628 202.824C427.16 194.996 436.224 183.048 443.228 176.456C381.016 159.152 308.092 122.072 266.892 82.52L274.308 73.044L246.292 59.036Z" fill="black"/>
</svg>
