<svg viewBox="0 0 500 500" fill="none" xmlns="http://www.w3.org/2000/svg">
<path d="M335.696 95.704V338.784H362.888V95.704H335.696ZM395.024 73.456V395.228C395.024 402.644 392.552 404.704 385.548 405.116C378.132 405.528 355.472 405.528 329.104 404.704C333.636 412.12 338.58 424.892 340.228 432.72C372.776 432.72 392.964 431.896 405.736 426.952C418.096 422.42 423.04 414.18 423.04 395.228V73.456H395.024ZM254.944 148.44C262.36 159.152 269.776 171.1 276.78 183.048L198.5 193.348C212.92 171.512 226.928 144.32 237.64 117.952H316.744V91.172H165.128V117.952H206.328C195.616 147.204 180.784 174.396 175.428 182.224C170.072 192.112 164.304 198.704 158.536 200.352C162.244 207.356 166.364 220.952 168.012 227.132C176.664 223.012 189.848 220.128 289.14 205.296C294.496 215.596 299.028 225.072 301.912 232.9L325.396 221.364C316.744 199.528 296.144 164.92 277.192 138.964L254.944 148.44ZM135.876 63.568C116.924 127.016 86.024 190.464 51.828 232.076C57.184 239.904 65.012 256.384 67.484 263.8C79.844 248.556 91.792 230.84 103.328 211.064V440.96H132.168V155.032C144.528 128.252 155.24 99.824 163.892 71.396L135.876 63.568ZM147.412 380.808L152.768 408.824C198.088 399.348 260.712 386.576 320.452 373.804L318.392 348.672L247.116 362.68V304.176H311.8V277.396H247.116V231.664H218.276V277.396H158.536V304.176H218.276V368.036L147.412 380.808Z" fill="black"/>
</svg>
