<svg viewBox="0 0 500 500" fill="none" xmlns="http://www.w3.org/2000/svg">
<path d="M348.056 262.152L345.996 295.112H265.244C266.068 286.048 266.48 276.984 266.48 269.156V262.152H348.056ZM134.64 238.668C133.404 255.972 131.344 275.336 128.872 295.112H60.892V319.42H125.988C123.104 341.668 119.808 363.092 116.924 379.572H206.328C194.792 396.464 178.724 413.356 157.3 428.188C164.716 431.896 176.252 439.724 181.608 444.668C208.8 425.304 227.34 402.644 240.112 379.572H336.52C333.224 396.464 329.928 405.94 325.808 410.06C322.1 414.592 317.98 415.416 310.976 415.004C303.148 415.004 284.196 415.004 263.184 412.944C266.892 419.124 269.776 429.012 270.188 435.604C291.612 437.252 312.212 437.664 323.748 436.84C335.696 436.016 343.936 433.132 351.352 424.48C357.532 417.476 362.476 404.292 366.596 379.572H410.268V355.676H370.304L373.6 319.42H439.52V295.112H375.66L378.544 251.852C378.956 247.732 379.368 238.668 379.368 238.668H134.64ZM162.244 262.152H237.64V268.744C237.64 276.572 237.228 285.636 236.404 295.112H158.536L162.244 262.152ZM343.936 319.42L340.228 355.676H251.236C256.18 343.316 259.476 331.368 261.948 319.42H343.936ZM155.652 319.42H232.284C229.812 331.368 225.692 343.316 219.924 355.676H151.12L155.652 319.42ZM233.52 61.92V94.468H89.732V117.54H233.52V143.084H113.628V165.744H233.52V193.348H72.428V216.832H428.396V193.348H264.42V165.744H390.08V143.084H264.42V117.54H416.036V94.468H264.42V61.92H233.52Z" fill="black"/>
</svg>
