<svg viewBox="0 0 500 500" fill="none" xmlns="http://www.w3.org/2000/svg">
<path d="M230.224 218.068V274.924H256.18V241.964H315.096V281.928H244.232V408.824H271.012V307.06H315.096V439.312H343.112V307.06H389.256V377.924C389.256 381.632 388.02 382.868 384.312 382.868C380.604 383.28 369.48 383.28 356.296 382.456C359.592 389.46 362.888 398.936 363.712 405.94C383.9 405.94 397.496 405.94 406.148 401.82C414.8 397.7 416.448 391.108 416.448 378.336V281.928H343.112V241.964H404.088V274.924H430.868V218.068H230.224ZM81.08 253.5V276.984H133.816V385.752L104.564 390.696V299.644H79.844V394.404L59.656 397.7L63.776 426.54C107.448 419.124 167.6 408 224.456 398.112L223.22 370.92L160.184 381.632V338.372H217.04V313.24H160.184V276.984H212.096V195.82H107.448V175.22H210.86V96.528H145.352L157.712 66.452L126.4 61.508C124.752 71.396 121.044 84.992 117.336 96.528H81.08V253.5ZM222.808 125.368V148.028H376.484V173.984H250.824V197.056H404.912V148.028H439.932V125.368H404.912V76.752H251.648V99.824H376.484V125.368H222.808ZM107.448 119.6H184.492V152.56H107.448V119.6ZM107.448 219.716H186.14V253.5H107.448V219.716Z" fill="black"/>
</svg>
