<svg viewBox="0 0 500 500" fill="none" xmlns="http://www.w3.org/2000/svg">
<path d="M200.148 312.828C199.324 382.868 190.672 406.352 121.868 420.36C128.048 425.304 135.464 436.016 137.524 442.608C216.216 425.716 228.164 393.168 229.4 312.828H200.148ZM301.5 312.828V398.112C301.5 426.128 310.152 433.956 344.76 433.956C351.764 433.956 392.964 433.956 400.792 433.956C430.456 433.956 438.696 420.772 441.58 366.8C433.34 364.74 421.392 360.62 415.212 355.676C413.564 403.056 411.092 409.236 397.496 409.236C388.432 409.236 355.06 409.236 348.468 409.236C333.224 409.236 330.752 407.588 330.752 397.7V312.828H301.5ZM102.504 146.38V263.8C102.504 313.24 97.972 376.276 57.184 421.184C63.776 424.068 75.724 433.544 80.668 438.488C124.752 390.696 131.344 317.772 131.344 264.212V171.924H385.96C381.84 184.284 377.308 195.82 373.6 204.884L399.556 211.476C407.384 196.232 416.448 171.512 423.864 150.5L402.44 145.144L397.496 146.38H247.528V119.188H390.492V94.056H247.528V61.92H216.628V146.38H102.504ZM216.628 177.692V213.124L149.06 220.128L151.944 244.436L216.628 237.844V246.908C216.628 278.22 226.516 289.756 262.36 289.756C271.424 289.756 338.992 289.756 353 289.756C368.656 289.756 386.372 289.756 393.788 287.696C392.552 280.692 391.728 269.98 390.492 261.74C381.84 263.8 362.888 264.212 350.94 264.212C337.756 264.212 275.956 264.212 263.184 264.212C249.176 264.212 246.704 260.092 246.704 247.732V234.548L355.06 223.424L352.176 199.528L246.704 210.24V177.692H216.628Z" fill="black"/>
</svg>
