<svg viewBox="0 0 500 500" fill="none" xmlns="http://www.w3.org/2000/svg">
<path d="M327.456 217.244C350.94 236.608 378.544 264.212 390.904 282.752L413.564 266.272C400.792 247.32 372.364 220.54 348.468 202.412L327.456 217.244ZM136.288 205.708C128.46 229.604 113.216 253.5 90.968 267.096L112.804 283.988C137.524 268.332 151.532 241.14 160.184 215.596L136.288 205.708ZM355.06 96.94C346.408 114.656 329.928 141.024 317.156 157.916H240.524L266.068 148.44C263.184 135.668 253.708 117.128 242.996 103.12C302.736 98.588 359.592 91.996 402.028 83.344L381.428 61.508C315.096 75.104 190.672 83.756 89.732 86.228C92.616 92.408 95.5 103.12 96.324 110.124L149.472 108.476L127.224 117.54C137.112 129.488 146.588 145.556 151.944 157.916H76.548V230.016H105.8V183.048H223.632L211.272 196.232C233.52 205.708 259.476 220.952 273.072 232.488L289.14 213.536C277.192 203.648 255.356 192.112 235.992 183.048H392.964V232.9H423.864V157.916H348.468C360.416 143.084 373.6 124.956 385.136 108.064L355.06 96.94ZM217.452 111.36C227.34 125.78 236.404 144.732 239.288 157.916H164.716L179.96 151.324C175.428 138.964 164.304 120.836 153.18 108.064C182.02 106.828 211.272 105.18 239.7 103.12L217.452 111.36ZM177.9 206.944V246.496C177.9 265.86 182.844 274.512 200.148 277.808C187.376 292.64 170.896 306.648 152.356 319.42C142.056 309.944 132.58 300.056 124.752 289.344L100.444 300.056C109.096 312.004 118.984 323.128 129.696 333.428C111.156 344.14 91.38 353.204 71.604 360.62C78.196 365.152 88.908 375.864 93.44 381.22C111.98 372.98 131.344 362.68 149.884 351.144C169.248 365.976 190.672 379.16 214.156 390.284C169.66 403.468 118.984 411.708 67.484 415.828C72.84 422.008 80.668 434.78 83.14 442.196C142.468 435.192 200.56 424.068 251.236 405.528C300.264 423.244 357.12 434.78 418.096 440.136C421.804 431.896 429.22 419.124 435.4 411.708C383.488 408 334.872 400.172 291.2 388.224C326.22 370.508 355.472 347.848 375.66 319.008L356.296 305.412L350.94 306.648H208.8C217.452 298.82 224.868 290.58 231.872 281.928L224.868 279.456H291.2C318.392 279.456 326.22 271.628 329.104 237.844C321.688 236.608 310.564 233.312 304.796 229.192C303.148 253.5 300.676 256.384 287.904 256.384C276.78 256.384 235.168 256.384 227.34 256.384C210.036 256.384 206.74 255.148 206.74 246.496V206.944H177.9ZM253.708 376.276C223.22 365.152 196.44 351.968 173.368 335.9L180.372 330.544H327.456C308.504 349.084 283.372 364.328 253.708 376.276Z" fill="black"/>
</svg>
