<svg viewBox="0 0 500 500" fill="none" xmlns="http://www.w3.org/2000/svg">
<path d="M95.912 139.788C103.74 157.916 109.92 182.224 111.98 197.468L138.348 190.464C136.288 175.22 129.284 151.736 121.044 134.02L95.912 139.788ZM196.44 325.6C209.212 346.2 223.632 374.628 230.224 392.756L252.472 379.984C245.88 362.268 231.048 335.076 217.864 314.476L196.44 325.6ZM101.68 316.948C92.616 344.14 78.608 372.568 62.128 392.344C68.72 395.64 79.432 403.056 83.964 407.176C99.62 386.164 116.512 354.028 126.4 323.952L101.68 316.948ZM278.016 101.472V244.436C278.016 299.232 274.72 370.508 239.7 420.36C246.292 423.656 258.652 433.132 263.596 438.9C301.5 384.928 306.856 303.764 306.856 244.436V230.016H363.3V438.9H393.376V230.016H439.108V201.176H306.856V122.072C350.528 115.48 397.908 104.768 432.104 91.996L406.972 69.336C377.308 81.696 324.16 94.056 278.016 101.472ZM132.168 67.276C138.348 78.812 144.94 92.82 149.884 105.18H69.132V131.136H251.236V105.18H185.316C180.372 91.172 170.896 73.456 163.068 59.448L132.168 67.276ZM199.324 133.196C194.38 152.148 184.904 180.164 177.076 199.116H62.952V225.484H147.412V268.332H64.6V295.524H147.412V439.312H177.488V295.524H252.884V268.332H177.488V225.484H257.828V199.116H205.092C212.92 181.812 220.748 159.564 228.164 139.376L199.324 133.196Z" fill="black"/>
</svg>
