<svg viewBox="0 0 500 500" fill="none" xmlns="http://www.w3.org/2000/svg">
<path d="M311.8 101.06H381.428V140.612H311.8V101.06ZM214.98 101.06H283.372V140.612H214.98V101.06ZM120.22 101.06H186.552V140.612H120.22V101.06ZM388.02 177.692C375.248 190.052 361.24 202 345.584 213.536V192.112H252.472V163.684H412.328V77.988H90.9681V163.684H222.396V192.112H108.684V216.832H222.396V248.144H67.0721V274.1H235.992C179.96 297.996 118.572 316.948 58.0081 329.72C63.3641 335.9 70.7801 349.908 73.6641 356.5C100.444 349.908 127.224 342.08 154.004 333.428V440.548H182.432V426.952H365.772V439.312H395.848V301.704H239.7C259.888 293.052 279.252 283.988 298.204 274.1H433.752V248.144H342.7C368.656 231.664 392.14 213.124 412.74 193.348L388.02 177.692ZM289.552 248.144H252.472V216.832H340.64C324.984 227.956 307.68 238.256 289.552 248.144ZM182.432 373.804H365.772V403.88H182.432V373.804ZM182.432 351.968V324.776H365.772V351.968H182.432Z" fill="black"/>
</svg>
