<svg viewBox="0 0 500 500" fill="none" xmlns="http://www.w3.org/2000/svg">
<path d="M400.38 86.64C388.844 117.54 371.54 152.972 356.296 177.692C363.3 180.576 376.072 186.756 381.84 190.876C396.672 165.744 415.212 127.428 428.808 94.468L400.38 86.64ZM217.864 98.588C234.756 126.604 255.356 164.096 264.832 187.58L291.2 175.22C281.724 152.148 260.712 116.304 242.996 88.288L217.864 98.588ZM122.28 330.132C127.636 359.796 132.58 398.112 133.404 423.244L158.124 418.3C156.476 393.168 151.12 355.264 145.764 326.012L122.28 330.132ZM78.6081 326.836C74.4881 361.856 68.3081 400.172 58.0081 426.952C65.4241 428.6 77.7841 432.72 83.1401 436.016C92.2041 409.648 100.032 368.86 104.976 331.368L78.6081 326.836ZM163.892 323.128C172.956 348.672 182.844 382.044 186.964 404.292L210.448 396.464C205.916 375.04 195.616 341.668 185.728 316.124L163.892 323.128ZM309.328 61.92V200.352H219.512V230.84H309.328V291.816H212.096V322.716H309.328V440.548H340.228V322.716H438.696V291.816H340.228V230.84H426.336V200.352H340.228V61.92H309.328ZM71.1921 309.12C78.6081 305 90.9681 302.116 175.428 288.932C177.488 297.996 179.136 306.236 180.372 312.828L205.504 305C201.796 283.164 190.26 246.908 179.136 218.892L155.652 225.072C160.184 237.432 165.128 251.852 168.836 265.448L108.684 273.688C141.232 236.196 173.78 188.816 200.148 141.848L172.956 126.192C164.304 144.32 153.592 162.86 143.292 179.752L99.6201 183.46C122.692 152.148 145.352 111.772 163.068 72.632L135.052 60.684C118.572 105.592 90.1441 153.384 81.0801 165.332C72.8401 178.104 65.4241 186.344 58.4201 187.992C61.7161 195.82 66.2481 209.828 67.8961 216.008C73.6641 213.536 82.7281 211.476 125.988 206.12C111.156 228.368 97.9721 245.672 91.3801 252.676C79.0201 267.92 69.9561 277.808 61.3041 279.868C64.6001 288.108 69.5441 302.94 71.1921 309.12Z" fill="black"/>
</svg>
