<svg viewBox="0 0 500 500" fill="none" xmlns="http://www.w3.org/2000/svg">
<path d="M125.576 318.184C141.232 341.668 157.3 374.216 163.892 393.992L190.672 382.456C184.08 362.268 167.188 330.956 151.12 308.296L125.576 318.184ZM345.996 307.884C335.696 330.956 317.156 363.916 302.736 384.516L326.22 394.404C341.052 375.452 360.004 345.376 375.248 319.42L345.996 307.884ZM249.588 58.212C210.448 119.6 134.228 167.804 56.3601 192.936C64.6001 200.352 72.8401 212.3 77.7841 221.364C100.032 213.124 122.28 203.236 143.292 191.288V214.36H232.696V270.392H90.5561V298.82H232.696V400.584H72.0161V429.012H428.808V400.584H265.244V298.82H409.856V270.392H265.244V214.36H356.296V188.404C378.544 201.176 401.204 211.888 422.628 219.716C427.572 211.476 437.048 199.528 444.464 192.936C381.84 173.16 308.504 130.312 268.128 85.816L278.428 70.984L249.588 58.212ZM351.352 185.52H153.592C189.848 164.096 223.22 137.728 250.412 107.652C278.016 136.08 313.86 163.684 351.352 185.52Z" fill="black"/>
</svg>
