<svg viewBox="0 0 500 500" fill="none" xmlns="http://www.w3.org/2000/svg">
<path d="M74.076 164.096V312.004H128.048V344.14H61.716V370.92H128.048V440.548H155.652V370.92H216.216V344.14H155.652V312.004H208.388V190.464C215.392 196.232 222.396 204.884 226.516 211.476C236.816 203.236 247.528 194.172 258.24 183.872V200.352H390.904V179.752C401.616 190.052 412.74 199.528 424.276 208.592C428.808 200.352 437.46 190.464 444.876 184.696C406.56 157.092 369.892 124.132 336.932 83.756L345.172 68.924L322.1 59.036C296.556 107.24 251.236 157.504 208.388 187.168V164.096H155.652V132.784H216.628V105.592H155.652V61.92H127.636V105.592H65.836V132.784H127.636V164.096H74.076ZM268.128 173.984C287.492 153.796 306.444 130.724 322.512 106.416C342.7 131.548 363.3 153.796 384.724 173.984H268.128ZM228.164 235.784V440.136H253.296V344.552H286.256V433.544H309.328V344.552H341.464V433.544H364.536V344.552H396.26V408C396.26 412.12 395.436 412.944 392.552 412.944C389.668 412.944 381.016 412.944 371.128 412.944C374.424 419.948 378.544 431.484 379.368 438.9C395.024 438.9 404.912 438.488 412.328 433.544C420.156 429.012 421.804 421.184 421.804 408.824V235.784H228.164ZM253.296 318.596V262.152H286.256V318.596H253.296ZM396.26 262.152V318.596H364.536V262.152H396.26ZM309.328 262.152H341.464V318.596H309.328V262.152ZM97.972 248.968H130.52V288.52H97.972V248.968ZM153.18 248.968H184.08V288.52H153.18V248.968ZM97.972 187.168H130.52V226.72H97.972V187.168ZM153.18 187.168H184.08V226.72H153.18V187.168Z" fill="black"/>
</svg>
