<svg viewBox="0 0 500 500" fill="none" xmlns="http://www.w3.org/2000/svg">
<path d="M258.24 171.924H387.608V247.732H258.24V171.924ZM228.576 144.32V275.748H273.072C267.716 339.196 252.884 390.696 187.376 418.3C193.968 423.656 203.032 434.78 206.74 442.196C278.84 409.648 296.144 349.908 303.148 275.748H337.344V396.052C337.344 426.54 343.936 435.192 372.364 435.192C377.72 435.192 402.028 435.192 407.796 435.192C432.516 435.192 439.932 421.596 442.404 368.036C434.576 365.976 422.216 361.032 416.448 356.088C415.212 401.408 413.564 408 404.912 408C399.556 408 380.192 408 376.484 408C367.42 408 366.184 406.352 366.184 396.052V275.748H418.096V144.32H373.188C384.724 123.308 397.084 96.5279 407.384 72.6319L376.072 61.9199C368.656 86.6399 353.824 120.836 341.876 144.32H283.372L307.268 133.196C301.088 114.244 285.432 85.4039 269.776 63.1559L244.232 74.2799C258.652 96.1159 273.072 124.956 279.252 144.32H228.576ZM193.968 65.2159C163.48 78.3999 110.744 90.3479 65.836 98.1759C69.544 105.18 73.664 115.48 74.9 122.072C92.616 119.6 112.392 116.304 131.344 112.596V180.164H63.776V209.004H126.4C109.92 255.972 81.904 309.532 55.536 338.784C60.892 346.612 68.72 359.384 72.016 367.624C93.028 342.08 114.452 300.88 131.344 258.856V440.96H161.832V248.968C175.84 266.684 193.556 290.168 200.148 302.116L218.276 277.396C210.036 267.508 172.956 229.604 161.832 219.304V209.004H216.628V180.164H161.832V105.592C180.372 101.06 198.088 95.7039 212.508 89.9359L193.968 65.2159Z" fill="black"/>
</svg>
