<svg viewBox="0 0 500 500" fill="none" xmlns="http://www.w3.org/2000/svg">
<path d="M58.0081 405.94L72.4281 436.84C119.808 417.476 184.08 391.108 243.82 365.564L238.464 338.372L207.152 350.32V69.3359H175.428V166.568H70.3681V197.468H175.428V362.68C130.52 379.572 88.0841 395.64 58.0081 405.94ZM276.78 69.7479V369.272C276.78 412.532 287.492 424.48 323.748 424.48C331.576 424.48 371.54 424.48 379.368 424.48C419.332 424.48 426.748 395.228 430.044 309.944C421.392 307.884 408.62 301.704 400.38 294.7C397.908 374.216 395.436 393.992 376.896 393.992C368.244 393.992 334.872 393.992 327.456 393.992C311.8 393.992 308.916 390.284 308.916 369.684V197.056H424.688V166.156H308.916V69.7479H276.78Z" fill="black"/>
</svg>
