<svg viewBox="0 0 500 500" fill="none" xmlns="http://www.w3.org/2000/svg">
<path d="M141.232 61.9199C128.048 81.2839 102.916 112.184 79.8441 136.904C108.272 164.92 134.64 196.644 148.236 218.48L177.076 205.708C164.716 187.168 139.584 158.74 116.512 136.492C134.64 116.304 156.476 92.4079 172.132 70.9839L141.232 61.9199ZM259.476 61.9199C245.468 80.8719 219.512 110.536 195.616 134.432C225.28 161.624 252.884 192.524 266.892 213.948L295.732 200.764C282.548 183.048 257.004 155.856 233.52 134.02C252.06 114.656 273.896 91.5839 290.376 71.3959L259.476 61.9199ZM380.192 61.9199C364.948 81.6959 336.932 113.008 310.976 137.728C343.524 165.744 374.424 198.292 389.668 220.54L418.92 206.944C404.088 187.992 375.66 159.564 349.704 137.316C369.892 117.128 393.788 92.8199 411.092 71.8079L380.192 61.9199ZM380.604 240.728C367.832 267.508 344.348 303.764 326.22 326.424L352.588 335.9C371.54 314.064 394.612 280.28 412.74 250.204L380.604 240.728ZM97.5601 250.204C114.04 279.044 134.228 318.184 143.704 341.256L172.956 327.248C163.068 305 142.056 266.684 125.164 238.256L97.5601 250.204ZM230.636 218.892C223.22 319.832 206.74 384.928 61.7161 413.768C67.8961 420.36 76.1361 433.132 79.0201 441.372C186.964 418.3 230.224 374.216 249.588 310.356C275.132 386.988 323.748 427.364 423.864 442.608C427.572 433.544 435.4 420.772 441.992 413.768C321.688 399.76 278.428 346.2 262.36 239.492L264.42 218.892H230.636Z" fill="black"/>
</svg>
