<svg viewBox="0 0 500 500" fill="none" xmlns="http://www.w3.org/2000/svg">
<path d="M168.424 180.164V209.004H324.16V180.164H168.424ZM115.688 242.376V272.452H336.108C310.564 298.408 277.604 330.544 247.94 358.972C227.34 344.14 205.916 329.72 187.376 318.184L165.952 340.432C210.448 369.272 267.304 412.12 294.084 439.724L317.156 414.18C306.444 403.88 291.2 391.108 274.308 378.336C315.92 337.548 362.888 289.756 395.436 254.324L372.364 240.728L367.008 242.376H115.688ZM244.232 59.448C203.444 114.656 129.696 168.628 60.48 199.94C68.72 207.356 78.196 218.068 83.552 226.308C141.644 197.468 201.796 153.796 246.704 105.592C292.436 152.972 360.416 199.94 415.212 224.66C420.156 216.008 430.868 203.236 438.696 196.232C380.192 173.572 307.68 127.428 265.656 83.344L272.66 74.692L244.232 59.448Z" fill="black"/>
</svg>
