<svg viewBox="0 0 500 500" fill="none" xmlns="http://www.w3.org/2000/svg">
<path d="M261.124 201.176V268.332H369.892V201.176H261.124ZM330.752 77.5759L352.588 63.5679C384.724 97.3519 422.216 144.732 438.284 175.22L414.8 192.112C399.144 161.212 362.476 113.008 330.752 77.5759ZM270.188 68.0999L299.44 77.1639C283.784 112.184 260.3 146.792 235.58 173.572H400.38V296.348H362.064V396.876C362.064 407.176 363.712 408.412 372.364 408.412C376.072 408.412 394.612 408.412 399.144 408.412C408.208 408.412 409.444 402.644 410.68 359.384C416.448 364.74 429.22 369.684 437.46 371.332C434.576 423.656 426.748 436.84 402.852 436.84C396.672 436.84 373.6 436.84 367.832 436.84C338.58 436.84 331.988 427.776 331.988 396.876V296.348H294.908C287.904 362.68 268.54 413.768 200.56 442.196C197.264 435.192 188.612 424.48 182.02 419.124C242.996 395.64 258.652 351.556 264.832 296.348H231.872V177.692L217.04 192.112C212.508 186.344 200.56 175.22 193.556 169.864C224.456 145.144 253.296 106.828 270.188 68.0999ZM182.844 64.3919L202.62 89.5238C188.2 95.7039 170.896 101.472 152.356 106.004V180.164H198.5V209.004H152.356V217.656C163.068 229.192 195.616 269.98 203.032 279.868L183.668 305.412C177.9 293.464 164.304 270.392 152.356 251.852V441.372H123.516V258.444C109.096 300.88 89.7321 343.316 70.7801 369.272C67.4841 360.208 60.068 347.024 54.3 339.196C77.784 309.532 102.092 255.56 116.512 209.004H61.7161V180.164H123.516V113.008C107.036 116.716 90.144 120.012 74.488 122.484C73.252 115.892 68.72 105.18 65.424 98.1759C106.624 90.3479 154.828 77.9879 182.844 64.3919Z" fill="black"/>
</svg>
