<svg viewBox="0 0 500 500" fill="none" xmlns="http://www.w3.org/2000/svg">
<path d="M149.06 288.52H355.884V314.064H149.06V288.52ZM149.06 333.428H355.884V359.384H149.06V333.428ZM149.06 244.024H355.884V269.568H149.06V244.024ZM118.984 224.248V379.572H387.196V224.248H118.984ZM283.372 400.172C328.692 413.356 373.188 429.424 398.732 440.96L434.164 425.304C404.5 413.356 354.648 396.876 309.328 384.516L283.372 400.172ZM188.612 383.28C158.536 398.112 108.684 411.296 66.248 419.124C73.252 424.48 83.964 436.016 88.496 442.196C130.108 431.896 182.432 414.592 216.216 396.052L188.612 383.28ZM151.532 106.416H234.344V136.904H151.532V106.416ZM265.244 106.416H353V136.904H265.244V106.416ZM66.66 179.34V203.648H434.164V179.34H265.244V157.504H383.488V85.404H265.244V61.92H234.344V85.404H122.28V157.504H234.344V179.34H66.66Z" fill="black"/>
</svg>
