<svg viewBox="0 0 500 500" fill="none" xmlns="http://www.w3.org/2000/svg">
<path d="M106.624 106.416H174.604V178.928H106.624V106.416ZM58.42 390.696L65.836 419.948C106.212 408.824 159.772 393.58 211.272 378.748L207.152 351.968L162.244 363.916V290.58H205.504V263.388H162.244V205.708H203.444V79.636H79.432V205.708H134.228V371.332L105.388 379.16V244.848H79.844V385.34L58.42 390.696ZM310.152 63.98V136.08H268.128C271.836 119.188 275.132 101.472 277.604 83.344L248.764 78.812C242.172 127.428 230.636 176.044 210.86 207.768C218.276 211.476 230.636 218.892 236.404 223.424C245.88 206.944 253.708 186.756 260.3 164.508H310.152V195.82C310.152 211.888 309.74 229.604 308.092 247.32H214.568V276.572H304.384C294.084 328.484 267.716 380.808 198.088 419.124C205.504 424.892 215.392 435.604 219.512 442.196C280.076 406.764 310.152 360.62 325.396 313.24C345.172 370.096 375.66 414.592 421.392 439.312C425.924 431.072 435.4 419.948 442.816 413.768C392.14 390.284 359.18 338.784 341.876 276.572H434.164V247.32H338.168C339.816 229.604 340.228 212.712 340.228 196.232V164.508H426.336V136.08H340.228V63.98H310.152Z" fill="black"/>
</svg>
