<svg viewBox="0 0 500 500" fill="none" xmlns="http://www.w3.org/2000/svg">
<path d="M58.0081 340.844L70.3681 371.744C106.212 356.088 152.768 335.076 196.44 314.888L189.436 287.284L144.528 306.236V190.464H189.024V161.212H144.528V66.8639H115.276V161.212H65.4241V190.464H115.276V318.184C93.4401 327.248 73.6641 335.076 58.0081 340.844ZM220.748 100.236V213.124L176.252 231.664L187.788 259.268L220.748 245.26V375.452C220.748 420.36 234.344 431.484 281.724 431.484C292.436 431.484 371.952 431.484 383.488 431.484C426.336 431.484 436.636 413.356 441.168 356.5C432.928 355.264 420.568 350.32 413.564 344.964C410.68 392.344 406.56 403.468 382.252 403.468C365.772 403.468 296.556 403.468 282.96 403.468C255.356 403.468 250.412 398.936 250.412 376.276V232.488L305.62 209.004V349.084H334.872V196.644L388.844 173.572C385.548 226.308 379.78 287.696 373.188 325.6L398.32 333.016C409.032 285.636 416.036 209.828 420.156 151.324L421.804 145.968L398.32 138.14L334.872 164.92V61.9199H305.62V177.28L250.412 200.352V100.236H220.748Z" fill="black"/>
</svg>
