<svg viewBox="0 0 500 500" fill="none" xmlns="http://www.w3.org/2000/svg">
<path d="M66.248 94.056C76.96 122.896 86.848 160.8 88.496 185.52L113.216 179.34C110.332 154.62 100.856 117.128 88.908 88.288L66.248 94.056ZM196.852 87.052C191.084 114.656 178.724 155.856 169.248 180.164L189.848 186.756C200.972 163.272 213.744 124.956 224.456 94.056L196.852 87.052ZM100.444 253.5C92.616 290.58 73.664 336.312 55.124 360.208C60.48 368.86 67.484 383.28 70.78 393.168C93.44 363.916 112.804 306.236 121.868 260.916L100.444 253.5ZM178.724 253.912L161.832 265.86C170.896 282.34 193.144 333.016 200.56 353.616L221.984 330.956C215.392 318.184 186.14 265.448 178.724 253.912ZM265.244 85.404C256.592 136.08 239.7 182.224 213.332 214.36V200.352H156.888V62.332H128.048V200.352H63.364V229.192H128.048V440.96H156.888V229.192H213.332V225.484C219.512 230.428 226.928 237.02 230.224 241.14C261.536 205.296 282.96 151.324 294.496 90.348L265.244 85.404ZM306.856 75.104V103.944H357.12C366.596 152.972 384.312 199.116 407.796 230.84H240.112V259.68H285.02C278.016 334.664 257.828 387.812 209.212 419.948C215.392 425.304 225.692 436.428 229.4 442.196C282.548 403.88 305.62 344.964 314.272 259.68H380.604C376.072 358.148 370.304 395.64 362.064 405.116C358.356 409.648 354.648 410.06 348.468 410.06C341.464 410.06 325.396 409.648 307.68 408.412C312.212 415.828 315.096 427.776 315.508 436.016C333.636 437.252 351.764 437.664 362.064 436.428C373.188 435.604 380.604 432.308 388.02 423.244C399.968 408.824 405.324 365.976 411.092 244.436L411.504 235.372L419.332 244.436C425.1 237.02 436.636 226.72 443.64 221.776C412.328 192.524 390.08 136.492 381.016 75.104H306.856Z" fill="black"/>
</svg>
