<svg viewBox="0 0 500 500" fill="none" xmlns="http://www.w3.org/2000/svg">
<path d="M162.656 256.384C153.592 270.392 139.172 290.58 126.812 302.528L147.824 316.948C160.596 303.352 174.192 282.752 184.08 268.332L162.656 256.384ZM330.34 267.92C346.82 283.164 368.656 304.588 378.956 317.772L398.732 303.764C387.196 290.992 365.36 270.392 348.88 255.972L330.34 267.92ZM244.232 63.98C247.116 71.808 250.412 80.872 252.884 89.524H92.616V215.596C92.616 277.396 89.732 362.68 56.36 423.656C62.54 426.54 75.312 435.192 80.256 440.548C110.332 386.988 118.572 311.592 120.632 249.792H242.172L233.932 259.68C250.412 267.92 273.072 281.516 285.432 290.168L299.44 272.04C290.376 266.272 275.132 257.208 260.712 249.792H404.088C399.144 260.916 393.376 272.04 388.02 279.868L412.74 286.048C421.804 272.864 432.104 251.852 441.168 232.9L420.98 227.544L416.036 228.368H121.044V215.596V209.416H415.624V139.376H316.332V114.244H432.928V89.524H286.256C282.96 79.636 278.428 67.688 274.308 58.624L244.232 63.98ZM191.496 159.564V188.816H121.044V159.564H191.496ZM191.496 139.376H121.044V114.244H191.496V139.376ZM218.688 159.564H288.316V188.816H218.688V159.564ZM218.688 139.376V114.244H288.316V139.376H218.688ZM316.332 159.564H386.784V188.816H316.332V159.564ZM208.8 353.616H334.048C317.156 366.388 295.32 377.512 270.6 386.164C245.88 378.336 223.22 368.448 203.856 356.912L208.8 353.616ZM194.38 262.152V287.696C194.38 306.648 199.736 314.064 219.512 316.124C210.036 325.188 197.676 334.252 183.256 343.316C174.192 336.312 166.364 328.896 159.36 321.068L135.052 331.78C142.468 340.432 151.12 348.672 160.184 356.088C146.176 363.504 130.52 370.096 113.628 376.276C119.396 380.396 127.636 388.636 130.932 394.816C149.06 387.4 165.54 379.572 180.372 371.332C196.028 381.632 213.332 390.696 231.872 398.524C193.144 408.824 151.12 415.416 110.744 419.124C115.276 425.304 121.044 435.192 123.516 441.784C171.72 436.016 222.396 426.952 267.716 411.708C311.8 426.128 362.064 435.192 414.388 440.136C417.684 432.72 424.276 421.184 430.044 415.416C386.784 412.12 344.76 405.94 306.856 396.464C336.52 382.868 362.064 365.976 380.192 344.964L362.064 333.016L356.708 333.84H234.756C241.348 328.484 247.528 322.716 252.884 316.948H303.972C327.456 316.948 335.284 309.944 337.756 283.164C330.752 281.928 321.276 279.044 315.92 275.748C314.684 294.288 312.212 297.172 300.264 297.172C289.964 297.172 247.528 297.172 239.7 297.172C222.808 297.172 219.512 295.524 219.512 287.696V262.152H194.38Z" fill="black"/>
</svg>
