<svg viewBox="0 0 500 500" fill="none" xmlns="http://www.w3.org/2000/svg">
<path d="M171.308 155.856H326.632V177.692H171.308V155.856ZM142.88 139.788V194.172H356.296V139.788H142.88ZM313.036 231.664C308.092 240.728 296.968 255.148 289.552 264.624L304.796 272.452C313.448 264.212 323.748 253.088 334.048 241.14L313.036 231.664ZM186.552 390.284C190.672 405.94 193.556 426.128 194.792 438.488L224.044 435.192C222.808 423.244 218.688 403.468 214.568 388.636L186.552 390.284ZM271.012 390.696C278.428 405.528 285.844 425.304 288.728 437.664L318.392 432.308C315.508 419.948 307.68 400.584 299.852 386.576L271.012 390.696ZM351.352 389.46C369.892 405.116 392.14 427.364 402.028 441.784L432.516 431.896C420.98 417.064 398.732 395.228 380.192 380.396L351.352 389.46ZM121.044 379.984C109.508 399.76 89.32 418.712 69.132 429.424L95.912 441.372C116.924 429.424 136.7 408.412 149.06 388.636L121.044 379.984ZM109.508 211.476V291.404H233.52V309.944H98.384V329.72H233.52V350.732H68.72V371.332H431.692V350.732H263.596V329.72H406.56V309.944H263.596V291.404H393.376V211.476H109.508ZM76.548 99.412V164.096H105.8V120.836H392.552V164.096H423.04V99.412H349.292C357.12 91.172 365.36 81.284 372.776 70.9841L341.052 63.98C334.872 74.28 324.572 88.7 315.92 99.412H264.832V61.5081H233.52V99.412H184.492C179.136 88.7 169.248 74.6921 160.184 64.804L131.756 70.9841C138.348 79.636 145.352 90.348 150.708 99.412H76.548ZM163.068 242.788C171.72 252.264 180.784 264.624 185.316 273.276H137.936V229.192H233.52V273.276H186.552L204.68 262.564C200.56 253.912 190.26 241.552 181.608 232.9L163.068 242.788ZM263.596 229.192H363.3V273.276H263.596V229.192Z" fill="black"/>
</svg>
