<svg xmlns="http://www.w3.org/2000/svg" viewBox="0 0 500 500"><defs><style>.cls-1{fill:#4b4b4b;}</style></defs><title>字z</title><g id="_2008年" data-name="2008年"><g id="日本-3" data-name="日本"><path id="变" class="cls-1" d="M383.35,281.29c-23.94,41.16-60.06,73.08-102.9,97.86,45.36,18.9,99.12,31.08,157.92,37.8-6.72,6.72-13.86,18.9-17.64,27.3-65.1-8.4-123.48-24.36-173-48.72C196,419.47,136.81,434.59,77.17,444.25c-2.94-8-10.08-21-15.54-27.72,54.6-7.14,108.36-19.32,155-37.8-35.7-22.26-65.1-49.56-87.36-82.32h-34V268.69h262.5l5.46-1.68ZM184.69,130.09H69.61V102.37H241.39A274.71,274.71,0,0,0,220,63.31l30.24-7.56c9.66,14.28,20.58,33.6,26.46,46.62h151.2v27.72H311.53V256.51H280.45V130.09H215.77V256.93H184.69Zm-23.52,25.2c-13.86,33.6-37.38,67.2-60.06,89-5.46-5-17.22-13-24.36-16.8,23.1-20.16,44.1-49.56,56.28-79.8Zm1.68,141.12c21.42,27.3,50.4,50,85.68,68,36.12-17.64,65.94-39.9,87.78-68ZM351.43,150.25c26.88,23.52,57.54,57.12,72.24,78.54l-24.36,16c-15.12-22.68-45.78-57.54-71.4-81.06Z"/></g></g></svg>