<svg viewBox="0 0 500 500" fill="none" xmlns="http://www.w3.org/2000/svg">
<path d="M124.34 64.392V205.296C124.34 280.692 117.748 359.796 60.8918 420.36C67.8958 425.304 77.7838 435.604 82.7278 442.608C146.588 375.864 153.592 289.756 153.592 205.296V64.392H124.34ZM77.7838 146.38C76.1358 178.928 69.9558 221.364 59.6558 247.32L83.5518 256.796C94.2638 227.544 100.032 182.636 101.268 149.676L77.7838 146.38ZM190.672 134.432C184.08 159.976 170.896 197.468 160.596 220.128L179.548 229.192C191.084 207.356 204.68 172.336 216.216 144.32L190.672 134.432ZM147 291.404L127.636 307.06C142.056 322.716 177.9 365.152 191.084 384.104L211.684 361.032C201.796 349.496 158.948 302.528 147 291.404ZM247.116 131.96C240.524 177.28 230.224 225.072 214.98 256.384C221.984 259.268 235.168 265.448 241.348 269.156C255.768 236.196 268.54 185.52 275.956 137.316L247.116 131.96ZM362.888 135.668C382.664 170.688 401.616 218.068 409.032 248.556L437.46 238.668C429.632 207.768 410.268 162.036 389.668 126.604L362.888 135.668ZM389.668 263.8C359.18 344.552 294.908 391.108 192.32 412.532C198.912 419.536 205.504 431.484 208.8 440.136C317.156 413.768 385.96 362.268 418.508 272.452L389.668 263.8ZM304.796 62.332V316.948H334.048V62.332H304.796Z" fill="black"/>
</svg>
