<svg viewBox="0 0 500 500" fill="none" xmlns="http://www.w3.org/2000/svg">
<path d="M101.68 75.104C112.804 93.232 127.224 117.54 132.992 133.608L158.124 119.188C151.12 104.356 137.112 80.872 125.164 63.568L101.68 75.104ZM60.4799 134.844V163.272H157.3C134.64 216.008 93.8519 270.392 56.3599 301.292C60.8919 306.648 68.3079 321.48 70.7799 329.72C86.0239 315.712 102.092 298.408 117.336 279.044V440.548H146.176V274.512C160.184 293.876 175.84 318.184 183.256 330.956L200.148 307.06L170.896 269.568C182.844 259.268 196.852 244.436 210.036 230.84L190.672 213.536C182.844 225.072 169.66 241.964 158.536 254.324L146.176 239.492V238.256C164.716 209.004 180.784 177.28 192.32 145.556L176.664 133.608L172.132 134.844H60.4799ZM218.688 122.896V230.428C218.688 287.696 214.156 364.328 170.484 418.3C177.076 422.008 188.612 431.896 193.144 438.076C234.756 386.164 245.056 310.768 246.704 251.028H250.412C264.42 294.288 284.608 332.192 310.976 363.092C284.608 386.988 254.12 404.704 221.984 415.416C227.752 421.596 235.168 433.132 238.876 440.548C272.248 427.776 303.56 409.236 331.164 384.104C356.708 408.412 387.608 426.952 423.04 439.312C427.572 431.072 436.224 419.124 442.404 412.944C407.384 402.644 376.896 385.752 351.764 363.504C382.252 328.896 406.148 284.812 419.332 229.604L400.792 222.188L395.024 223.836H336.108V151.736H399.968C395.024 171.1 389.256 190.464 384.312 204.06L410.268 210.24C418.92 189.64 428.808 155.856 437.048 127.016L415.212 121.66L410.68 122.896H336.108V61.92H307.268V122.896H218.688ZM307.268 151.736V223.836H247.116V151.736H307.268ZM383.488 251.028C371.952 286.872 353.824 317.36 331.164 342.904C308.092 316.948 290.376 286.048 278.016 251.028H383.488Z" fill="black"/>
</svg>
