<svg viewBox="0 0 500 500" fill="none" xmlns="http://www.w3.org/2000/svg">
<path d="M330.34 180.164C356.296 203.648 391.316 237.02 408.208 255.972L428.396 235.784C410.268 217.244 375.248 185.52 349.292 163.272L330.34 180.164ZM274.72 163.684C255.356 190.876 225.28 218.48 196.44 237.02C202.208 242.376 212.096 254.736 215.804 260.504C245.468 239.08 279.664 205.708 301.912 173.572L274.72 163.684ZM111.568 61.508V141.848H61.7161V171.1H111.568V269.568C90.9681 276.572 72.0161 282.34 57.1841 286.872L64.1881 317.772L111.568 300.468V401.408C111.568 407.176 109.508 408.824 104.564 408.824C99.6201 409.236 83.5521 409.236 65.8361 408.824C69.9561 417.064 73.6641 429.836 74.4881 437.252C100.444 437.664 116.924 436.428 126.4 431.896C136.7 426.952 140.408 418.3 140.408 401.408V290.168L184.904 274.1L179.96 245.672L140.408 259.68V171.1H183.256V141.848H140.408V61.508H111.568ZM180.784 399.76V427.364H441.168V399.76H327.868V296.348H411.916V268.744H214.156V296.348H296.556V399.76H180.784ZM286.256 68.924C292.024 81.696 299.028 98.176 303.972 111.772H195.204V183.872H223.22V138.964H407.384V179.752H437.048V111.772H337.344C332.4 97.352 323.336 77.576 315.096 61.508L286.256 68.924Z" fill="black"/>
</svg>
