<svg viewBox="0 0 500 500" fill="none" xmlns="http://www.w3.org/2000/svg">
<path d="M227.34 227.544C198.088 262.152 137.112 297.584 82.316 318.184C89.32 323.128 100.032 333.016 105.388 339.608C137.936 326.424 172.544 307.884 202.62 286.872H342.7C323.748 314.888 297.38 337.548 265.656 356.088C243.82 341.668 212.096 324.776 186.964 313.652L163.068 330.544C186.552 341.668 214.98 357.736 235.58 371.744C188.612 392.756 132.992 406.352 75.724 414.18C81.904 421.184 89.732 434.78 92.204 443.02C217.452 422.008 335.284 375.04 388.432 273.276L367.832 259.268L361.652 260.504H236.404C244.644 253.5 251.648 246.496 258.24 239.492L227.34 227.544ZM141.644 61.92V104.768H67.072V131.96H131.756C113.628 161.624 85.2 191.7 58.832 206.944C65.424 212.3 74.076 221.776 79.02 228.78C100.444 213.124 123.516 187.168 141.644 159.564V241.14H170.072V157.504C187.376 173.572 210.448 195.82 219.512 206.532L235.992 181.4C226.928 173.16 189.436 143.908 172.956 131.96H238.052V104.768H170.072V61.92H141.644ZM320.452 61.92V104.768H251.236V131.96H311.388C292.436 161.624 262.36 190.052 234.756 204.884C241.348 210.24 250 220.128 254.944 227.132C278.016 212.3 301.912 187.58 320.452 160.388V241.14H349.292V154.208C369.892 184.696 397.908 213.124 423.04 230.016C427.984 222.6 437.048 212.3 443.64 207.356C414.8 192.112 382.664 162.036 362.476 131.96H434.988V104.768H349.292V61.92H320.452Z" fill="black"/>
</svg>
