<svg viewBox="0 0 500 500" fill="none" xmlns="http://www.w3.org/2000/svg">
<path d="M251.648 210.652C260.3 224.248 271.012 243.2 276.368 255.148H144.528V280.692H222.808C216.216 344.552 198.912 391.932 125.576 417.064C131.756 422.42 139.996 433.132 143.292 440.136C199.736 419.536 227.34 386.164 241.348 342.492H364.124C360.004 384.516 355.472 402.644 348.468 408.824C345.172 411.708 341.052 412.12 333.224 412.12C324.984 412.12 301.912 411.708 279.252 409.648C283.784 417.064 287.08 427.776 287.904 435.604C310.976 436.84 333.636 437.252 345.172 436.428C357.944 435.604 366.184 433.544 373.6 426.54C384.724 416.24 390.492 391.108 395.848 330.132C396.26 326.012 396.672 317.772 396.672 317.772H247.528C250 306.236 251.648 293.464 253.296 280.692H422.628V255.148H281.312L304.796 245.672C299.44 233.724 287.904 215.184 278.016 201.176L251.648 210.652ZM226.516 70.16C231.46 80.048 236.404 91.9961 240.524 103.12H100.032V201.176C100.032 265.86 96.3241 359.384 57.1841 425.304C65.4241 428.188 79.0201 435.192 85.2001 440.136C125.164 371.332 131.344 269.568 131.344 201.176V199.528H408.62V103.12H274.72C270.188 90.348 263.184 74.6921 256.592 61.5081L226.516 70.16ZM131.344 129.488H377.72V173.16H131.344V129.488Z" fill="black"/>
</svg>
