<svg viewBox="0 0 500 500" fill="none" xmlns="http://www.w3.org/2000/svg">
<path d="M193.556 137.316C199.736 146.792 206.328 158.328 211.684 168.216H139.584V192.112H221.16V218.892H154.416V240.728H221.16V269.156H133.816V290.992H221.16V321.892H151.12V343.728H210.86C187.788 372.156 151.12 398.936 118.16 412.12C124.34 417.476 132.58 427.364 137.112 434.368C166.364 419.536 198.088 393.58 221.16 365.152V438.076H248.764V343.728H295.32V438.076H323.336V361.444C346.408 391.52 379.368 419.536 409.444 434.78C413.976 427.364 423.04 417.064 429.22 411.296C396.26 398.112 359.592 371.744 336.932 343.728H401.204V291.404H439.932V267.508H401.204V218.892H323.336V192.112H428.396V168.216H342.288C348.88 158.74 355.884 148.028 362.064 136.904L332.812 129.9C327.456 141.024 318.392 156.268 310.152 168.216H243.82C237.64 156.68 228.576 142.26 220.336 131.136L193.556 137.316ZM248.764 290.992H295.32V321.892H248.764V290.992ZM248.764 269.156V240.728H295.32V269.156H248.764ZM323.336 290.992H373.6V321.892H323.336V290.992ZM323.336 269.156V240.728H373.6V269.156H323.336ZM248.764 192.112H295.32V218.892H248.764V192.112ZM241.348 67.276C245.88 76.752 250.824 88.288 254.532 98.588H90.5559V226.308C90.5559 285.636 87.6719 367.212 56.3599 425.304C63.7759 428.188 76.5479 437.252 81.9039 442.608C114.864 381.22 119.808 289.756 119.808 226.308V126.192H434.988V98.588H288.728C284.608 86.64 277.604 71.808 271.836 60.272L241.348 67.276Z" fill="black"/>
</svg>
