<svg viewBox="0 0 500 500" fill="none" xmlns="http://www.w3.org/2000/svg">
<path d="M240.112 82.1081V301.292H269.776V109.3H383.488V301.292H414.388V82.1081H240.112ZM129.696 66.04V130.312H70.78V159.152H129.696V199.94L129.284 225.896H61.716V255.148H128.048C123.928 311.18 109.096 373.804 58.832 415.004C66.248 420.36 76.548 430.66 81.08 436.84C120.22 401.82 139.996 356.088 149.472 309.532C167.6 332.192 191.908 363.916 201.796 380.396L223.22 357.324C213.332 344.552 171.72 294.7 154.828 277.808L157.3 255.148H220.336V225.896H158.536L158.948 199.528V159.152H215.392V130.312H158.948V66.04H129.696ZM312.624 144.32V223.424C312.624 287.284 299.44 365.152 195.616 418.3C201.796 422.832 211.272 434.368 214.98 440.548C278.016 408 310.564 363.504 326.632 318.596V396.876C326.632 424.48 336.932 432.308 363.712 432.308H397.084C430.868 432.308 435.812 415.828 439.108 351.556C431.692 349.908 421.392 345.376 413.976 339.608C412.328 396.876 410.268 407.588 397.084 407.588H367.832C357.532 407.588 354.236 404.704 354.236 393.58V288.52H335.284C339.816 266.272 341.464 244.024 341.464 223.836V144.32H312.624Z" fill="black"/>
</svg>
