<svg viewBox="0 0 500 500" fill="none" xmlns="http://www.w3.org/2000/svg">
<path d="M238.464 61.9199C234.756 79.2239 230.224 97.3519 223.22 115.48H79.4318V143.496H210.036C186.14 185.52 142.88 223.836 58.0078 245.26C64.1878 251.44 71.6038 262.976 74.4878 269.98C91.7918 265.448 107.448 260.092 121.456 253.912V440.136H151.532V415.828H346.408V440.136H377.308V253.912C391.316 259.68 405.736 264.624 420.98 268.744C425.512 260.504 434.576 248.556 441.58 241.964C372.776 227.132 317.156 192.112 285.844 143.496H426.748V115.48H255.356C261.536 97.7639 265.656 79.6359 269.364 61.9199H238.464ZM243.408 143.496H254.532C274.308 181.4 303.972 212.3 341.052 234.96H159.36C201.384 209.416 226.928 177.692 243.408 143.496ZM151.532 390.284V337.548H233.932V390.284H151.532ZM346.408 390.284H264.008V337.548H346.408V390.284ZM151.532 312.004V261.74H233.932V312.004H151.532ZM346.408 312.004H264.008V261.74H346.408V312.004Z" fill="black"/>
</svg>
