<svg viewBox="0 0 500 500" fill="none" xmlns="http://www.w3.org/2000/svg">
<path d="M246.292 330.956V398.936C246.292 426.952 254.944 434.368 289.552 434.368C296.968 434.368 341.052 434.368 348.468 434.368C376.484 434.368 384.724 423.244 387.608 378.748C379.78 376.688 368.244 372.568 362.064 368.448C360.828 404.704 358.356 409.236 345.584 409.236C336.108 409.236 299.852 409.236 292.848 409.236C276.78 409.236 274.308 407.588 274.308 398.524V330.956H246.292ZM287.08 319.832C302.736 335.9 320.864 358.148 329.516 372.568L352.176 358.56C343.112 344.552 324.16 323.128 308.916 307.472L287.08 319.832ZM377.72 335.9C392.14 361.444 408.208 396.464 414.388 417.064L440.756 407.588C433.34 386.988 416.86 353.204 402.028 328.072L377.72 335.9ZM209.212 330.956C200.972 353.616 186.552 386.988 172.956 407.588L197.264 420.772C210.448 398.524 223.632 365.152 233.108 342.08L209.212 330.956ZM264.008 59.8599C250.824 90.3479 225.28 127.016 187.788 153.796C193.968 157.916 202.208 167.392 206.328 173.984L218.688 164.096V180.576H379.368V214.772H224.456V239.492H379.368V274.924H213.332V300.88H407.796V154.62H353.824C366.184 138.14 378.956 118.364 388.02 100.648L369.068 88.2879L364.124 89.9359H279.664C284.608 81.6959 289.14 73.0439 292.848 64.8038L264.008 59.8599ZM228.988 154.62C242.172 141.848 253.708 128.664 263.596 114.656H348.468C341.052 128.252 331.164 143.084 322.1 154.62H228.988ZM181.196 65.2159C154.828 77.9879 110.332 89.9359 71.1919 97.7639C74.8999 104.768 79.4319 115.068 80.6679 121.66C95.0879 119.188 109.92 116.304 125.164 113.008V180.164H67.0719V209.004H120.632C106.212 255.56 81.4919 309.532 57.5959 339.196C63.3639 347.024 71.1919 360.208 74.4879 369.272C92.2039 344.552 110.744 305.824 125.164 265.86V441.372H154.004V255.972C165.128 274.924 177.076 297.584 182.432 309.944L202.208 283.988C195.204 273.688 165.128 231.252 154.004 218.48V209.004H201.384V180.164H154.004V106.004C171.308 101.472 187.376 96.1159 200.972 89.9359L181.196 65.2159Z" fill="black"/>
</svg>
