<svg viewBox="0 0 500 500" fill="none" xmlns="http://www.w3.org/2000/svg">
<path d="M86.4361 89.112C112.392 102.296 147 122.484 164.304 135.256L182.02 109.712C164.304 97.7641 129.284 78.812 103.74 66.864L86.4361 89.112ZM60.8921 202.412C86.4361 215.596 120.22 234.96 137.112 246.908L154.416 221.776C137.112 209.416 102.504 191.288 77.7841 179.34L60.8921 202.412ZM71.1921 414.592L97.5601 435.604C121.868 397.288 150.296 345.788 172.132 302.116L149.884 281.928C125.988 328.484 93.8521 382.868 71.1921 414.592ZM196.44 274.924V441.372H226.516V423.244H374.424V440.136H405.736V274.924H196.44ZM226.516 394.404V304.176H374.424V394.404H226.516ZM181.196 241.552C193.968 236.608 213.744 235.372 391.728 223.012C397.908 232.488 402.852 241.552 406.56 249.38L434.164 233.312C417.684 200.764 381.016 151.736 347.644 115.48L321.276 128.664C338.992 148.852 357.944 172.748 374.012 196.232L220.336 204.472C250 166.98 279.252 119.188 304.384 70.9841L272.248 61.5081C248.764 115.068 211.272 170.688 198.912 185.108C188.2 200.352 179.136 210.24 170.896 212.3C174.192 220.54 179.548 235.372 181.196 241.552Z" fill="black"/>
</svg>
