<svg viewBox="0 0 500 500" fill="none" xmlns="http://www.w3.org/2000/svg">
<path d="M260.712 150.088H417.684V177.28H260.712V150.088ZM271.012 441.372C268.128 435.192 260.3 423.656 255.356 418.712C261.536 414.18 269.776 403.468 269.776 384.516V247.732H240.936C240.112 309.532 233.932 388.224 203.856 441.784C198.5 436.84 185.316 428.6 177.9 425.304C208.8 369.684 211.272 291.816 211.272 232.488V81.6959H428.808V110.124H240.936V220.54H434.576V247.732H349.292C353.824 267.92 359.592 287.284 367.008 305.412C382.664 292.228 400.38 275.748 411.092 262.976L432.104 281.928C414.8 298.408 393.788 314.888 376.484 327.66C392.552 361.856 414.388 389.872 441.58 406.764C434.988 412.532 425.512 423.244 420.98 430.66C372.364 396.052 341.876 327.248 325.808 247.732H298.204V395.228L353.824 372.98C354.236 380.808 356.296 392.344 357.944 398.524C288.316 429.424 277.604 435.192 271.012 441.372ZM113.628 61.9199H143.704V145.144H185.316V173.984H143.704V257.62L186.14 245.26L189.848 273.276L143.704 287.696V404.292C143.704 420.36 139.996 429.012 130.52 433.544C121.044 438.488 106.624 439.312 84.3761 439.312C83.1401 431.896 79.4321 419.124 75.3121 410.884C89.7321 411.296 102.916 411.296 107.448 410.884C111.98 410.884 113.628 409.648 113.628 404.292V296.76L66.6601 311.18L59.2441 281.104C74.4881 277.396 93.0281 272.452 113.628 266.684V173.984H66.2481V145.144H113.628V61.9199Z" fill="black"/>
</svg>
