<svg viewBox="0 0 500 500" fill="none" xmlns="http://www.w3.org/2000/svg">
<path d="M247.116 90.348H413.976V119.6H247.116V90.348ZM401.616 90.348H430.868C430.868 90.348 430.868 91.4467 430.868 93.644C430.868 95.8413 430.868 98.3133 430.868 101.06C430.868 103.807 430.731 105.867 430.456 107.24C429.632 162.448 428.533 209.004 427.16 246.908C426.061 284.812 424.688 315.575 423.04 339.196C421.392 362.817 419.332 380.945 416.86 393.58C414.388 406.215 411.367 415.141 407.796 420.36C403.951 426.403 399.693 430.523 395.024 432.72C390.355 435.192 384.861 436.84 378.544 437.664C372.227 438.763 364.536 439.175 355.472 438.9C346.408 438.9 337.069 438.625 327.456 438.076C327.181 433.681 326.22 428.463 324.572 422.42C322.924 416.652 320.864 411.708 318.392 407.588C328.555 408.412 337.893 408.824 346.408 408.824C355.197 409.099 361.789 409.236 366.184 409.236C369.205 409.236 371.815 408.824 374.012 408C376.484 406.901 378.681 404.841 380.604 401.82C383.625 397.975 386.235 390.009 388.432 377.924C390.629 365.564 392.415 347.711 393.788 324.364C395.436 301.017 396.809 270.804 397.908 233.724C399.281 196.644 400.517 151.599 401.616 98.588V90.348ZM325.808 102.296L356.296 103.12C356.021 128.664 355.197 154.62 353.824 180.988C352.725 207.356 350.116 233.312 345.996 258.856C341.876 284.125 335.696 308.296 327.456 331.368C319.216 354.165 308.092 375.04 294.084 393.992C280.076 412.944 262.497 429.149 241.348 442.608C239.975 440.685 237.915 438.351 235.168 435.604C232.696 432.857 230.087 429.973 227.34 426.952C224.868 424.205 222.533 422.008 220.336 420.36C240.387 407.725 257.004 392.481 270.188 374.628C283.372 356.775 293.672 337.136 301.088 315.712C308.779 294.288 314.272 271.765 317.568 248.144C321.139 224.248 323.336 200.077 324.16 175.632C325.259 150.912 325.808 126.467 325.808 102.296ZM268.128 158.74L292.848 162.036C292.024 176.868 290.513 192.387 288.316 208.592C286.393 224.523 283.509 239.904 279.664 254.736C275.819 269.293 271.012 282.065 265.244 293.052L240.524 281.104C246.017 271.491 250.687 259.817 254.532 246.084C258.377 232.351 261.399 217.931 263.596 202.824C265.793 187.443 267.304 172.748 268.128 158.74ZM61.304 267.508H213.744V294.288H61.304V267.508ZM65.424 117.128H229.4V143.908H65.424V117.128ZM73.664 190.876H223.22V217.656H73.664V190.876ZM131.344 65.628H160.596V440.548H131.344V65.628ZM205.092 267.508H231.872C231.872 267.508 231.872 268.881 231.872 271.628C231.872 274.375 231.872 276.709 231.872 278.632C231.048 300.056 230.224 317.497 229.4 330.956C228.576 344.14 227.477 354.303 226.104 361.444C224.731 368.585 222.945 373.529 220.748 376.276C218.276 379.297 215.667 381.495 212.92 382.868C210.173 384.241 206.877 385.065 203.032 385.34C200.011 386.164 196.165 386.576 191.496 386.576C186.827 386.576 182.02 386.439 177.076 386.164C176.801 382.319 176.115 378.199 175.016 373.804C174.192 369.135 172.819 365.152 170.896 361.856C175.016 362.131 178.724 362.405 182.02 362.68C185.591 362.68 188.2 362.68 189.848 362.68C193.419 363.229 196.028 362.131 197.676 359.384C199.049 357.461 200.148 353.616 200.972 347.848C201.796 341.805 202.483 332.741 203.032 320.656C203.856 308.296 204.543 291.953 205.092 271.628V267.508Z" fill="black"/>
</svg>
