<svg xmlns="http://www.w3.org/2000/svg" viewBox="0 0 500 500"><defs><style>.cls-1{fill:#4b4b4b;}</style></defs><title>字z</title><g id="_2007年" data-name="2007年"><g id="中国国际字-2" data-name="中国国际字"><path id="油" class="cls-1" d="M145.21,246.85C128,233,93.13,213.25,66.67,201.07L83.89,178c25.62,11.34,60.9,29.4,78.54,42.42ZM80.53,415.27c19.74-28.56,47.46-76,68.88-118l23.1,19.32c-19.32,39.06-43.68,84.42-64.68,118.86Zm25.2-351.54c26.46,11.34,63,30.66,81.06,44.94l-18.06,25.62C150.67,120,115,99.43,88.09,86.41Zm327.6,82.32V438.37H403.09V416.11H231.73v24.78H201.91V146.05h98.7V59.11h30.66v86.94Zm-201.6,29.82v88.62h68.88V175.87Zm0,210.42h68.88v-92H231.73Zm99.54-210.42v88.62h71.82V175.87Zm71.82,210.42v-92H331.27v92Z"/></g></g></svg>