<svg xmlns="http://www.w3.org/2000/svg" viewBox="0 0 500 500"><defs><style>.cls-1{fill:#4b4b4b;}</style></defs><title>字z</title><g id="_2008年" data-name="2008年"><g id="中国国际字-3" data-name="中国国际字"><path id="爭-繁体" class="cls-1" d="M439.87,275.94H388.41v70.14H263.9v55.2c0,19.92-5.39,28.63-19.92,33.61-14.52,4.57-39.43,5-77.19,5a122.17,122.17,0,0,0-12-29.88c30.3.83,59.35.83,67.65.42,7.89-.42,10.38-2.49,10.38-9.55V346.08H101.21V320.76H232.78V275.94H60.13V250.21H232.78V207H108.27V181.31H339.85l-25.31-9.13c16.6-19.09,38.18-50.63,49.8-72.21l32,10.79c-17,24.9-37.77,51.88-54.79,70.55h46.9v68.9h51.46ZM405.43,83.78c-80.52,15.36-206.69,24.49-311.69,27.39-.83-7.47-5.39-17.43-8.71-24.48C189.2,83,314.54,74.24,384.26,60.13ZM148.11,174.26c-4.56-14.11-15.36-35.28-27-50.64l28.64-9.13c12,14.94,23.66,35.7,28.22,49Zm93-1.25c-2.49-15.35-11.62-38.18-20.75-55.61l27.8-7.47c10,17,19.51,39.84,22.83,54.37Zm22.82,77.2h93.8V207H263.9Zm93.8,25.73H263.9v44.82h93.8Z"/></g></g></svg>