<svg xmlns="http://www.w3.org/2000/svg" viewBox="0 0 500 500"><defs><style>.cls-1{fill:#4b4b4b;}</style></defs><title>字z</title><g id="_2011年" data-name="2011年"><g id="中国国际字-6" data-name="中国国际字"><path id="债" class="cls-1" d="M174.61,67.3A794.22,794.22,0,0,1,141,153.4V440.68H111.19V208.84a499.85,499.85,0,0,1-32.76,47.88c-3.36-7.14-13-23.52-18.9-30.66,35.28-41.16,66.36-103.74,85.68-166.74ZM314.89,331.06c0,34.86-14.7,81.06-133.56,110.88-3.36-6.72-12.18-17.22-18.48-22.68,113.82-23.52,122.64-61.74,122.64-89v-35.7h29.4Zm-26-212.1H183.43V94.18H288.85V58.06h29V94.18h99.54V119H317.83v26.46h88.62V168.1H317.83v30.24h117.6v23.52H172.51V198.34H288.85V168.1H196V145.42h92.82Zm93.66,246.12V269.32H223.75v95.76H195.19v-118H411.91v118ZM329.59,368c36.54,12.6,85.26,33.18,110.88,48.3l-16.38,22.26c-24.78-15.12-72.66-37-110-50.82Z"/></g></g></svg>