<svg xmlns="http://www.w3.org/2000/svg" viewBox="0 0 500 500"><defs><style>.cls-1{fill:#4b4b4b;}</style></defs><title>字z</title><g id="_2012年" data-name="2012年"><g id="中国国际字-7" data-name="中国国际字"><path id="衡" class="cls-1" d="M178,187.75c-2.07,2.07-3.73,4.56-5.81,6.64a74.14,74.14,0,0,0-20.33-17c-5,10-10.38,19.92-16.19,29.47V439.67H107.44V249.59a318.94,318.94,0,0,1-30.3,37.35c-2.9-6.23-12-20.75-17.84-26.56,29.05-29.89,58.93-74.29,77.61-117.46l27.39,9.13a185.78,185.78,0,0,1-10,20.34c29.88-33.2,49-75.53,58.1-109.57l27.81,3.74c-2.91,9.54-6.23,19.09-10,29.05h51.46L286.31,94l18.27,12a341,341,0,0,1-24.08,51.46h44.83V296.07H178ZM156,71.12c-18.68,33.21-48.15,71.8-75.54,96.7C76.73,162,69.26,150.39,63.86,145c24.49-22,50.63-56.86,64.33-84.67ZM266,302.29c-.83,7.89-1.66,14.94-2.91,22H335.7V350H266.81c24.07,17.85,49,39.84,62.25,55.62l-18.67,19.09c-12.87-15.36-36.53-37.77-59.77-56-13.28,30.29-36.52,52.71-77.19,67.23-3.32-6.22-10.38-15.77-15.77-20.75,40.25-13.7,60.59-35.28,71-65.16H164.3V324.29h71.38c1.25-7.06,2.08-14.11,2.91-22ZM220.33,120.1c-6.23,12.45-12.87,25.31-20.76,37.35h52.71c5.81-10.38,12-24.49,17-37.35Zm20.33,95.45V179.86h-39v35.69Zm-39,21.58v36.53h39V237.13Zm99.19-57.27H263.9v35.69h36.94Zm0,57.27H263.9v36.53h36.94ZM440.7,219.29h-34V403.56c0,15.77-2.49,23.66-12.86,28.64-9.55,5-24.49,5.39-47.32,5.39-1.24-7.88-4.56-19.92-8.71-28.22,16.18.42,30.71.42,35.28,0,4.56,0,5.81-1.24,5.81-5.81V219.29H337.78V190.65H440.7Zm-8.3-102.1H347.32V89.38H432.4Z"/></g></g></svg>