<svg xmlns="http://www.w3.org/2000/svg" viewBox="0 0 500 500"><defs><style>.cls-1{fill:#4b4b4b;}</style></defs><title>字z</title><g id="_2014年" data-name="2014年"><g id="中国国际字-9" data-name="中国国际字"><path id="失" class="cls-1" d="M274.07,276.35c28.64,69.73,83,115.8,167.26,134.47-7.06,6.64-15.77,19.51-20.75,28.22-85.91-22.41-140.28-72.62-172.24-149.82C229.25,348.57,183.6,402.94,77.76,439.46c-2.9-7.47-12.45-20.34-19.09-26.56,100-33.62,142.36-83,159.79-136.55H63.65V245.64H225.51c3.32-19.09,4.15-38.18,4.15-57.27v-24.9h-93c-12.45,24.9-26.15,47.31-40.67,65.16-6.65-5-21.59-12.87-29.89-16.19,32-35.28,57.69-90.06,72.63-146.09l32.37,7.06a477.82,477.82,0,0,1-20.75,59.34h79.27V60.54h31.55v72.21H396.5v30.72H261.21v24.9a441.75,441.75,0,0,1-3.32,57.27H431.78v30.71Z"/></g></g></svg>