<svg xmlns="http://www.w3.org/2000/svg" viewBox="0 0 500 500"><defs><style>.cls-1{fill:#4b4b4b;}</style></defs><title>字z</title><g id="_2015年" data-name="2015年"><g id="中国国际字-10" data-name="中国国际字"><path id="恐" class="cls-1" d="M58.47,228.42c19.09-5,43.16-10.79,69.3-17.85V109.31h-61V81.5H214.52v27.81H156.41v93.38l58.52-16.19,3.74,25.73C165.54,228.42,109.51,245,67.18,257.47Zm1.24,171.4c19.09-26.14,35.69-67.64,44-100l27,9.55c-10,33.62-24.49,76.36-43.58,104.17Zm239.89-2.07c19.92,0,23.24-6.64,25.73-52.29,6.64,4.56,19.5,9.54,28.22,11.62-4.15,55.2-14.11,69.31-52.29,69.31H217.42c-44.41,0-56.44-9.13-56.44-43.17V284.45h30.29v98.77c0,12.45,4.57,14.53,28.23,14.53ZM268.05,145c0,44-10.37,99.19-74.29,134.88-4.15-6.64-12.45-16.6-19.09-21.16C233.19,229.66,239,180.28,239,145V73.61H380.53V231.32c0,8.72.41,13.7,2.07,15.36a13.72,13.72,0,0,0,7.06,1.66h12a26.77,26.77,0,0,0,9.13-1.25c1.66-1.24,3.74-4.15,4.15-9.13,1.25-5.39,1.66-17.84,2.08-34,5.81,5,15.35,10,23.24,12.45-.42,15.36-2.08,33.21-4.15,39.85-2.49,6.64-6.23,11.2-11.62,14.11-5,2.49-13.28,3.73-19.92,3.73H383c-8.3,0-17.43-2.07-23.25-7.47-6.22-5.39-8.3-11.62-8.3-37.35V101H268.05ZM249,267.85c20.75,20.33,45.24,49.8,56.45,68.89l-25.32,14.94c-10.38-19.09-34.45-49-55.2-71Zm74.29-56.45c-10-17-33.62-42.33-53.54-59.76l22.42-14.11c19.92,16.6,44.4,41.09,55.19,58.1Zm48.15,80.93c26.14,30.71,56,72.63,70.13,99.61l-27.39,13.7c-12.45-27-41.91-70.14-68.06-101.27Z"/></g></g></svg>