<svg xmlns="http://www.w3.org/2000/svg" viewBox="0 0 500 500"><defs><style>.cls-1{fill:#4b4b4b;}</style></defs><title>字z</title><g id="_2019年" data-name="2019年"><g id="中国国际字-14" data-name="中国国际字"><path id="难" class="cls-1" d="M210.36,111.59c-7.47,62.25-21.16,117-39.42,163.1,18.26,27.81,33.61,54,43.58,74.29l-23.66,21.17c-8.3-17.85-20.34-39.43-34.86-62.67-20.75,41.5-46.07,74.29-75.12,98.36-5-7.88-14.11-18.67-21.58-24.07,30.29-22.41,56.44-58.52,77.61-104.59-22-34.44-46.9-70.14-69.73-100l21.17-17c19.92,25.31,41.91,55.2,62.25,84.66,11.62-33.62,21.58-70.55,27-110.39H70.92V106.61h115l5.39-1.25ZM440.7,408.33H272.2v30.3h-29V202.89a451.37,451.37,0,0,1-31.54,43.58c-3.32-7.88-10.79-20.75-15.77-27.8,35.28-41.51,64.74-106.25,80.1-157.3l30.3,8.3c-7.06,20.75-15.77,42.33-25.32,63.91h154.8v28.23h-73V214.1h63.91v28.22H362.68v53.13h64.74v27.8H362.68V379.7h78ZM334.46,161.81H272.2V214.1h62.26Zm0,80.51H272.2v53.13h62.26ZM272.2,379.7h62.26V323.25H272.2Zm75.54-248.19c-5.4-15.77-17.85-41.09-28.64-59.76l27-10.38c11.2,18.26,23.66,41.92,29.05,58.1Z"/></g></g></svg>