<svg xmlns="http://www.w3.org/2000/svg" viewBox="0 0 500 500"><defs><style>.cls-1{fill:#4b4b4b;}</style></defs><title>字z</title><g id="_2018年" data-name="2018年"><g id="中国国内字-13" data-name="中国国内字"><path id="奋" class="cls-1" d="M285.9,142.51c31.13,49,87.16,83.42,155.63,98.77-7,6.23-15.77,18.68-19.92,27a290.07,290.07,0,0,1-44-15.35V439.25H346.49V414.77H151.85v24.48H122V252.91a320.81,320.81,0,0,1-47.72,16.18c-2.91-7-9.55-18.67-15.77-24.49C143.13,223,186.29,184.84,210.36,142.51H80.05V114.29h144C230.7,96.44,235.27,78.18,239,60.75h31.13a427.79,427.79,0,0,1-14.53,53.54H427v28.22ZM234.44,260.79H151.85V311h82.59ZM151.85,389.45h82.59V336.74H151.85ZM341.51,234.23c-36.93-22.83-66.82-53.95-86.74-91.72H244c-17,34.45-42.33,66-84.25,91.72Zm5,26.56H264.32V311h82.17Zm0,128.66V336.74H264.32v52.71Z"/></g></g></svg>