<svg viewBox="0 0 500 500" fill="none" xmlns="http://www.w3.org/2000/svg">
<path d="M310.152 72.632V385.752C310.152 425.304 318.392 435.604 350.94 435.604C357.12 435.604 392.552 435.604 399.144 435.604C430.868 435.604 437.872 412.944 440.756 344.964C432.928 343.316 421.392 337.96 414.388 332.192C412.74 394.404 411.092 409.648 397.084 409.648C389.256 409.648 360.416 409.648 354.648 409.648C341.052 409.648 338.58 406.352 338.58 386.576V72.632H310.152ZM261.948 61.096C219.1 75.104 141.232 85.404 76.136 90.76C79.02 96.94 81.904 106.828 82.728 113.42C148.648 108.476 227.34 98.588 278.016 82.52L261.948 61.096ZM97.148 124.132C104.152 134.02 110.744 148.852 112.804 157.916L135.052 149.264C132.168 139.376 125.576 126.192 118.572 116.304L97.148 124.132ZM159.772 115.068C166.364 126.192 172.544 142.26 174.604 152.972L196.852 143.908C193.968 133.608 187.788 118.364 181.196 107.652L159.772 115.068ZM245.056 98.176C238.876 113.008 227.752 134.432 219.1 148.028L238.464 157.092C247.528 145.144 258.24 126.604 268.54 109.3L245.056 98.176ZM130.52 314.888C137.112 312.416 147.412 310.356 216.216 304.588L224.456 316.948L240.112 307.472C233.52 295.524 218.276 277.396 204.68 264.624L189.848 272.864C194.38 277.396 198.912 282.34 203.032 287.696L158.536 290.58C167.188 282.34 175.84 271.628 182.844 260.092L170.072 255.972H252.06V407.588C252.06 411.708 250.824 412.532 246.704 412.944C242.584 413.356 229.812 413.356 215.392 412.944C219.1 419.124 223.632 429.836 224.868 436.428C245.88 436.428 258.652 436.016 267.304 431.896C276.368 427.364 278.84 420.36 278.84 408V230.84H213.744L219.924 223.836C215.804 220.952 210.448 217.656 204.268 213.948C227.34 202 251.236 186.756 268.952 170.276L252.06 157.504L246.292 158.74H100.444V179.752H220.336C209.212 187.992 196.028 196.232 183.256 203.236C171.308 197.468 158.948 192.524 147.824 188.816L133.404 204.06C151.532 211.064 172.544 221.364 188.612 230.84H83.552V440.548H109.92V255.972H159.36C152.356 270.392 139.172 284.4 135.464 287.696C131.756 291.404 128.048 293.052 123.516 294.288C125.988 299.644 129.284 310.356 130.52 314.888ZM136.7 369.684C147 373.392 158.536 378.336 169.248 383.28C154.828 396.052 137.936 406.352 121.868 412.944C125.988 416.652 132.58 423.244 135.464 427.776C153.592 419.948 172.132 408 188.2 392.756C200.148 399.348 211.272 405.94 218.688 412.12L230.224 394.816C223.22 389.46 213.332 383.692 202.62 377.924C214.156 364.328 224.044 348.26 230.636 330.544L216.628 324.364L213.332 325.6H133.816V344.14H202.208C197.264 352.792 191.084 361.444 184.08 368.86C171.72 363.092 158.948 358.148 147.412 354.028L136.7 369.684Z" fill="black"/>
</svg>
