<svg viewBox="0 0 500 500" fill="none" xmlns="http://www.w3.org/2000/svg">
<path d="M82.316 89.524C109.508 102.296 144.528 122.896 161.832 136.904L180.372 110.948C162.244 97.352 126.812 78.4 100.032 66.864L82.316 89.524ZM61.304 202.412C87.672 214.772 121.868 234.548 138.76 248.144L156.064 222.188C138.76 209.004 104.152 190.876 78.196 179.752L61.304 202.412ZM75.312 414.592L102.092 434.78C123.104 400.172 147.412 355.676 166.364 317.36L142.88 297.584C121.868 339.196 94.264 386.576 75.312 414.592ZM292.436 385.752H224.456V295.112H292.436V385.752ZM322.512 385.752V295.112H393.376V385.752H322.512ZM195.204 148.028V439.724H224.456V415.416H393.376V437.252H423.452V148.028H322.512V62.744H292.436V148.028H195.204ZM292.436 265.036H224.456V178.104H292.436V265.036ZM322.512 265.036V178.104H393.376V265.036H322.512Z" fill="black"/>
</svg>
