<svg viewBox="0 0 500 500" fill="none" xmlns="http://www.w3.org/2000/svg">
<path d="M402.852 61.92C351.352 76.34 258.24 86.228 180.784 90.76C184.08 97.764 188.2 108.888 188.612 116.716C267.716 112.596 362.064 103.12 422.628 86.64L402.852 61.92ZM193.968 134.432C205.504 154.62 218.688 182.224 224.044 199.94L250.412 188.816C244.644 171.512 231.46 144.732 219.512 124.544L193.968 134.432ZM270.188 126.192C278.428 147.616 287.904 176.456 292.024 194.996L319.628 185.52C315.508 166.98 305.62 138.964 296.556 117.54L270.188 126.192ZM383.076 109.3C374.012 134.02 356.296 168.628 342.288 190.052L366.596 200.352C380.604 179.752 397.908 148.44 411.916 121.66L383.076 109.3ZM80.668 87.876C104.976 101.884 137.936 122.072 154.416 134.844L172.544 109.3C155.24 97.764 122.28 78.812 98.384 66.04L80.668 87.876ZM59.656 199.528C84.376 212.712 117.748 232.076 135.052 243.612L152.356 218.068C135.052 206.532 101.268 188.816 76.548 177.28L59.656 199.528ZM70.368 415.828L97.148 435.192C119.808 396.464 146.176 344.552 166.364 300.468L142.468 281.516C120.632 328.896 90.968 383.692 70.368 415.828ZM287.492 279.456V302.116H172.132V330.544H287.492V407.588C287.492 412.532 285.844 413.768 279.252 413.768C273.896 414.18 252.06 414.18 230.636 413.356C234.756 421.184 240.112 432.72 241.348 440.548C269.776 440.548 288.728 440.548 301.088 436.428C313.86 431.896 317.568 424.48 317.568 408V330.544H430.044V302.116H317.568V289.344C346.408 270.392 377.72 243.612 399.144 219.304L378.956 203.648L372.364 205.296H195.204V233.312H345.172C328.28 250.204 306.856 267.92 287.492 279.456Z" fill="black"/>
</svg>
