<svg viewBox="0 0 500 500" fill="none" xmlns="http://www.w3.org/2000/svg">
<path d="M125.576 61.92C112.392 89.112 86.024 123.72 61.716 145.968C66.66 151.736 74.488 162.86 78.196 169.04C105.8 143.908 135.464 105.592 154.004 72.22L125.576 61.92ZM345.172 90.348V118.776H430.456V90.348H345.172ZM235.992 303.764C235.168 311.592 234.344 319.008 233.108 326.012H161.42V351.556H226.104C215.804 380.808 195.616 403.056 155.24 416.652C160.596 421.596 168.012 431.484 170.896 437.664C211.684 422.832 234.756 400.172 247.94 370.096C271.012 388.636 295.32 410.472 307.68 426.54L326.632 407.176C313.448 391.52 288.316 369.272 264.42 351.556H333.636V326.012H260.712L263.596 303.764H235.992ZM217.864 121.248H267.304C262.36 134.02 256.592 148.028 250.412 158.74H197.264C205.092 146.38 211.684 134.02 217.864 121.248ZM134.228 144.32C115.688 187.58 86.024 231.664 56.772 261.328C62.54 267.92 72.016 281.928 75.312 288.108C85.2 277.396 95.088 265.036 104.976 251.44V440.96H133.404V208.18C139.172 198.704 144.528 188.816 149.884 178.928C156.476 182.224 165.54 189.64 169.66 195.408L175.84 188.404V297.172H323.336V158.74H278.428C287.492 142.672 296.144 124.132 302.736 107.24L284.196 95.292L280.076 96.528H228.164C232.284 86.64 235.58 77.164 238.464 67.688L210.448 63.568C200.56 97.352 181.608 140.2 152.356 173.16L161.832 153.796L134.228 144.32ZM199.324 238.256H238.464V274.512H199.324V238.256ZM261.948 238.256H298.616V274.512H261.948V238.256ZM199.324 181.4H238.464V216.832H199.324V181.4ZM261.948 181.4H298.616V216.832H261.948V181.4ZM335.696 191.7V220.54H376.484V405.116C376.484 409.236 375.66 410.472 370.716 410.884C366.184 411.296 351.764 411.296 335.696 410.884C339.404 419.124 343.112 431.072 343.936 439.312C366.596 439.312 382.252 438.488 391.728 433.956C402.028 429.012 404.5 420.772 404.5 405.116V220.54H438.696V191.7H335.696Z" fill="black"/>
</svg>
