<svg viewBox="0 0 500 500" fill="none" xmlns="http://www.w3.org/2000/svg">
<path d="M157.712 312.828V395.228C157.712 428.6 170.072 437.252 217.04 437.252C226.928 437.252 297.792 437.252 308.504 437.252C347.232 437.252 357.532 424.892 361.652 372.568C353 370.508 340.228 365.976 333.224 361.032C330.752 403.056 327.456 409.648 306.032 409.648C289.964 409.648 230.224 409.648 218.688 409.648C192.732 409.648 188.2 407.176 188.2 394.816V312.828H157.712ZM206.328 294.288C232.284 315.712 265.656 346.2 282.136 364.74L304.384 344.14C287.08 325.6 252.884 296.348 227.752 276.16L206.328 294.288ZM351.764 323.54C374.012 356.5 402.44 401.82 416.036 428.188L444.052 411.708C429.632 386.164 400.792 342.492 378.132 309.944L351.764 323.54ZM113.216 315.712C101.268 346.612 81.08 387.4 58.832 413.356L87.672 427.776C107.448 400.172 126.812 358.148 140.408 327.248L113.216 315.712ZM60.48 251.852L66.66 281.104C107.448 272.452 162.656 261.74 215.804 251.028L213.744 225.484L159.36 235.372V107.652H212.92V80.872H70.78V107.652H128.048V240.728L60.48 251.852ZM219.512 160.8C235.168 169.452 252.884 179.34 269.776 189.64C262.36 214.36 247.94 239.492 221.16 260.504C227.752 264.624 238.464 274.512 242.996 280.28C269.776 258.856 285.844 232.076 295.32 205.296C313.036 216.42 329.104 226.72 340.228 235.372L355.884 211.476C342.7 202 323.336 190.464 302.324 178.104C305.208 161.624 306.444 145.556 306.444 131.136V101.884H360.416V234.96C360.416 262.564 362.064 269.568 368.244 274.924C373.6 280.28 382.664 282.34 390.08 282.34C394.612 282.34 403.676 282.34 408.62 282.34C415.624 282.34 422.628 281.104 427.16 278.22C432.516 275.336 436.636 270.804 439.108 262.976C441.168 255.972 442.404 236.196 442.816 219.304C434.988 216.832 425.1 211.888 418.92 206.532C418.508 224.66 418.096 238.668 417.684 244.848C416.448 250.616 415.212 253.912 413.976 255.148C412.328 256.384 409.444 256.796 406.56 256.796C403.676 256.796 399.556 256.796 397.084 256.796C394.2 256.796 392.14 256.384 391.316 254.736C389.256 253.5 389.256 246.908 389.256 237.432V75.516H233.932V101.884H278.016V130.312C278.016 140.612 277.604 151.736 275.956 163.272L234.344 141.024L219.512 160.8Z" fill="black"/>
</svg>
