<svg viewBox="0 0 500 500" fill="none" xmlns="http://www.w3.org/2000/svg">
<path d="M193.968 134.844V153.384H304.384V134.844H193.968ZM193.968 171.924V190.876H304.384V171.924H193.968ZM216.216 230.84H281.312V267.508H216.216V230.84ZM195.616 211.888V286.46H302.324V211.888H195.616ZM111.156 233.724C114.864 252.676 118.16 276.572 118.572 292.64L139.584 288.108C138.76 272.452 135.052 248.556 130.52 230.016L111.156 233.724ZM75.312 230.428C72.84 251.852 69.544 274.924 62.54 292.64C67.896 295.112 76.96 300.88 80.668 303.764C87.26 285.636 93.028 258.444 95.912 234.136L75.312 230.428ZM149.472 231.664C154.828 248.144 160.596 269.568 162.656 283.988L181.608 277.808C179.548 264.212 173.368 242.788 167.6 226.72L149.472 231.664ZM361.652 232.076C366.184 250.616 369.068 274.924 369.48 290.992L389.668 286.872C389.256 271.216 385.548 246.908 381.428 228.78L361.652 232.076ZM324.572 228.368C322.1 248.144 318.804 269.98 313.448 286.872C318.392 289.344 327.456 294.288 331.988 297.996C337.344 280.692 343.112 254.736 345.996 233.312L324.572 228.368ZM400.38 227.544C406.56 246.908 413.152 272.04 415.624 288.108L434.988 282.752C432.516 266.684 425.924 241.964 418.92 223.012L400.38 227.544ZM225.692 68.1C230.636 77.164 235.58 87.464 239.288 96.94H184.904V116.304H313.448V96.94H267.304C263.596 85.816 255.768 70.984 248.764 60.272L225.692 68.1ZM73.664 221.364C79.432 218.48 90.556 216.008 163.068 205.708L167.188 222.6L186.552 216.42C183.668 201.588 174.604 176.456 165.54 157.916L147 162.86C150.708 170.688 154.004 179.34 157.3 188.404L108.272 194.172C132.58 170.688 157.712 140.612 179.96 109.3L157.712 99C151.12 110.124 143.292 120.836 135.464 131.136L101.68 132.784C116.1 115.48 130.932 92.82 143.292 69.336L120.22 61.096C108.684 87.876 88.084 115.892 82.316 122.896C76.548 129.488 71.192 134.02 65.836 135.256C68.308 141.024 72.428 152.56 73.664 157.916C77.784 155.856 85.612 154.208 118.572 151.736C106.624 166.156 95.912 177.28 90.968 182.224C81.08 191.288 73.252 197.88 65.836 198.704C68.72 205.296 72.016 216.42 73.664 221.364ZM321.688 219.304C327.868 216.008 338.992 213.536 412.328 203.648C413.976 210.24 415.624 216.832 416.448 222.188L436.224 216.008C433.752 200.352 425.1 174.396 415.624 155.032L396.26 159.976C399.968 167.804 403.264 176.868 406.56 185.52L356.708 191.7C380.192 168.628 404.5 138.552 425.924 108.064L404.5 98.176C397.496 109.3 389.668 120.424 381.84 130.724L348.056 132.372C362.888 115.068 377.72 92.408 390.08 69.336L367.008 60.684C355.472 87.876 335.284 115.068 329.516 122.072C323.336 128.664 317.98 133.196 313.036 134.432C315.508 140.2 319.216 151.736 320.452 156.68C324.984 154.62 332.812 153.384 365.772 150.5C354.236 164.92 343.936 175.632 338.992 180.164C329.516 189.64 321.276 196.232 314.272 197.056C317.156 203.236 320.452 213.948 321.688 219.304ZM330.752 335.488C310.976 353.616 285.02 368.036 254.532 379.572C219.924 367.624 190.672 352.792 168.836 335.488H330.752ZM174.604 284.4C152.356 318.596 109.096 346.612 65.424 363.504C71.192 369.272 80.256 381.22 83.552 386.988C105.388 377.1 127.636 364.328 147.412 349.084C167.188 365.564 191.084 379.572 218.276 391.52C170.072 405.116 114.864 412.944 59.244 417.476C64.188 424.068 71.604 436.428 74.076 443.432C137.524 436.016 200.56 425.304 254.944 405.94C306.856 424.068 365.772 435.604 424.688 441.784C427.984 434.368 434.576 422.832 440.756 416.652C389.256 412.532 337.344 403.88 291.612 391.108C322.512 376.688 348.88 358.56 369.068 335.488H424.276V311.592H187.788C193.144 305.412 197.676 299.232 201.796 292.64L174.604 284.4Z" fill="black"/>
</svg>
