<svg viewBox="0 0 500 500" fill="none" xmlns="http://www.w3.org/2000/svg">
<path d="M297.38 123.308H383.076V211.064H297.38V123.308ZM268.54 95.292V239.08H413.152V95.292H268.54ZM154.828 359.384H346.82V400.172H154.828V359.384ZM154.828 335.076V296.348H346.82V335.076H154.828ZM124.34 270.804V440.96H154.828V425.716H346.82V440.136H378.132V270.804H124.34ZM110.744 60.684C101.68 91.584 85.2 122.484 64.6 143.496C71.604 146.792 83.552 154.208 89.32 158.74C98.384 148.44 107.036 135.668 115.276 121.248H150.296V145.556L149.472 160.388H64.6V185.932H144.116C135.052 211.064 113.216 238.256 60.48 258.856C67.484 264.212 76.548 273.688 80.668 280.28C123.928 260.916 148.648 237.432 162.656 213.536C183.256 227.544 214.156 249.792 226.516 259.68L247.94 238.668C235.992 230.428 189.024 201.588 172.132 192.524L174.192 185.932H251.236V160.388H179.136L179.548 145.556V121.248H240.524V96.116H128.048C132.168 86.64 135.876 76.34 139.172 66.452L110.744 60.684Z" fill="black"/>
</svg>
