<svg viewBox="0 0 500 500" fill="none" xmlns="http://www.w3.org/2000/svg">
<path d="M80.2559 75.9279C98.7959 96.1159 121.456 124.956 132.58 141.848L156.476 125.368C145.352 108.476 122.28 82.1079 103.328 61.9199L80.2559 75.9279ZM359.18 168.628V209.004H239.7V168.628H359.18ZM359.18 145.556H239.7V106.828H359.18V145.556ZM208.388 384.516C216.628 378.748 228.988 373.804 316.744 347.024C315.508 340.432 314.272 328.484 314.272 320.244L239.7 341.256V234.96H388.432V80.8719H210.448V333.84C210.448 350.32 202.208 357.324 196.028 360.208C200.972 365.976 206.74 377.512 208.388 384.516ZM273.484 265.86C318.804 299.232 373.188 348.26 398.32 379.984L421.804 361.856C407.384 344.552 384.724 323.128 360.004 301.704C382.252 288.932 408.62 271.628 429.632 254.736L406.56 235.372C390.08 250.616 362.476 270.804 340.228 285.224C324.572 272.864 308.916 260.916 294.496 250.204L273.484 265.86ZM70.3679 290.992C73.6639 287.696 84.3759 284.812 95.0879 284.812H143.292C128.46 350.32 97.1479 395.64 55.5359 420.772C61.7159 424.892 72.0159 435.604 76.1359 442.196C97.9719 428.188 117.336 408.412 133.404 382.868C165.54 426.952 217.04 434.78 297.792 434.78C342.7 434.78 394.2 433.956 432.516 431.484C434.164 422.832 438.284 408.412 443.228 401.82C401.204 405.528 341.052 407.588 298.204 407.588C224.044 407.176 173.78 401.408 146.176 359.796C158.948 333.428 168.836 301.704 175.016 265.036L159.36 259.268L154.004 259.68H104.564C128.46 232.076 160.184 188.816 177.9 164.508L156.888 154.62L151.12 157.092H63.3639V183.048H130.932C112.804 208.18 88.4959 239.904 79.0199 249.38C71.6039 257.208 65.0119 260.092 58.4199 262.152C62.1279 268.332 68.3079 283.164 70.3679 290.992Z" fill="black"/>
</svg>
