<svg viewBox="0 0 500 500" fill="none" xmlns="http://www.w3.org/2000/svg">
<path d="M179.136 116.304C169.248 131.136 158.536 145.556 146.176 159.976H258.24C267.304 146.792 276.78 130.724 283.784 116.304H179.136ZM172.956 61.0959L207.564 66.8639L195.616 89.5239H299.852L305.208 87.876L327.456 102.708C318.392 120.836 306.032 141.848 293.26 159.976H431.692V188.404H143.704V240.728C143.704 300.468 134.228 386.164 81.08 442.608C76.136 436.428 63.776 425.716 57.184 422.008C107.448 368.86 113.216 294.7 113.216 240.316V194.172C103.328 203.236 93.028 211.888 81.904 220.128C76.548 213.124 66.248 202.412 58.832 197.88C114.864 158.74 153.592 104.768 172.956 61.0959ZM186.964 227.956H376.484C376.484 227.956 376.484 236.196 376.072 240.316C371.952 305 367.832 331.368 358.356 341.256C351.764 348.26 344.348 350.732 333.224 351.556C323.336 352.38 303.148 352.38 282.548 351.144C282.136 342.904 278.84 331.78 274.308 323.952C294.084 325.6 313.036 326.424 319.216 326.012C326.22 326.012 330.34 325.6 333.224 322.304C338.58 316.948 341.876 298.82 345.172 255.148H217.04V386.576C217.04 404.704 223.22 408.824 256.18 408.824C272.248 408.824 352.176 408.824 372.776 408.824C402.028 408.824 406.56 399.348 409.444 347.436C416.86 352.38 430.044 357.324 438.696 359.384C433.34 420.772 422.628 437.252 374.012 437.252C361.24 437.252 267.304 437.252 255.768 437.252C203.032 437.252 186.964 427.776 186.964 386.988V227.956Z" fill="black"/>
</svg>
