<svg viewBox="0 0 500 500" fill="none" xmlns="http://www.w3.org/2000/svg">
<path d="M193.968 134.844H304.384V153.384H193.968V134.844ZM193.968 171.924H304.384V190.876H193.968V171.924ZM184.904 96.94H313.448V116.304H184.904V96.94ZM216.216 230.84V267.508H281.312V230.84H216.216ZM195.616 211.888H302.324V286.46H195.616V211.888ZM147 162.86L165.54 157.916C170.209 167.255 174.467 177.555 178.312 188.816C182.432 199.803 185.179 209.004 186.552 216.42L167.188 222.6C165.815 214.909 163.205 205.433 159.36 194.172C155.515 182.636 151.395 172.199 147 162.86ZM73.664 157.916C73.1147 155.169 72.016 151.461 70.368 146.792C68.72 142.123 67.2093 138.277 65.836 135.256C68.5827 134.432 71.192 133.059 73.664 131.136C76.4107 128.939 79.2947 126.055 82.316 122.484C84.2387 120.287 87.3973 116.029 91.792 109.712C96.4613 103.395 101.405 95.9786 106.624 87.464C111.843 78.6746 116.375 69.8853 120.22 61.096L143.292 69.336C135.876 83.6186 127.499 97.352 118.16 110.536C109.096 123.72 100.169 134.981 91.38 144.32V144.732C91.38 144.732 90.4187 145.144 88.496 145.968C86.848 146.792 84.788 147.891 82.316 149.264C79.844 150.363 77.784 151.736 76.136 153.384C74.488 154.757 73.664 156.268 73.664 157.916ZM73.664 157.916L73.252 141.024L85.612 133.608L143.704 130.724C143.155 133.745 142.605 137.179 142.056 141.024C141.781 144.595 141.644 147.616 141.644 150.088C124.34 151.187 111.019 152.285 101.68 153.384C92.3413 154.208 85.7493 154.895 81.904 155.444C78.0587 155.993 75.312 156.817 73.664 157.916ZM73.664 221.364C72.84 218.892 71.604 215.321 69.956 210.652C68.5827 205.983 67.2093 202 65.836 198.704C69.4067 198.429 73.252 196.781 77.372 193.76C81.492 190.464 86.024 186.619 90.968 182.224C94.5387 178.653 100.032 172.748 107.448 164.508C115.139 155.993 123.516 146.105 132.58 134.844C141.919 123.308 150.296 111.36 157.712 99L179.96 109.3C166.227 128.527 151.807 146.792 136.7 164.096C121.868 181.4 106.899 196.232 91.792 208.592V209.004C91.792 209.004 90.8307 209.416 88.908 210.24C86.9853 211.064 84.788 212.163 82.316 213.536C80.1187 214.635 78.0587 215.871 76.136 217.244C74.488 218.617 73.664 219.991 73.664 221.364ZM73.664 221.364L72.84 204.472L85.2 196.644L174.192 186.344C173.643 189.091 173.231 192.249 172.956 195.82C172.956 199.391 172.956 202.275 172.956 204.472C152.631 207.493 136.151 209.828 123.516 211.476C111.156 213.124 101.543 214.635 94.676 216.008C88.084 217.381 83.2773 218.48 80.256 219.304C77.2347 219.853 75.0373 220.54 73.664 221.364ZM111.156 233.724L130.52 230.016C132.717 239.08 134.64 249.105 136.288 260.092C138.211 271.079 139.309 280.417 139.584 288.108L118.572 292.64C118.572 284.4 117.748 274.924 116.1 264.212C114.727 253.5 113.079 243.337 111.156 233.724ZM75.312 230.428L95.912 234.136C94.5387 246.221 92.4787 258.581 89.732 271.216C86.9853 283.851 83.964 294.7 80.668 303.764C78.7453 302.391 75.8613 300.468 72.016 297.996C68.4453 295.524 65.2867 293.739 62.54 292.64C66.1107 283.851 68.72 273.963 70.368 262.976C72.2907 251.989 73.9387 241.14 75.312 230.428ZM149.472 231.664L167.6 226.72C170.621 234.685 173.368 243.475 175.84 253.088C178.587 262.701 180.509 270.941 181.608 277.808L162.656 283.988C161.557 276.847 159.772 268.469 157.3 258.856C154.828 248.968 152.219 239.904 149.472 231.664ZM225.692 68.1L248.764 60.272C253.159 66.5893 257.141 73.5933 260.712 81.284C264.557 88.9746 267.167 95.704 268.54 101.472L243.82 110.948C242.447 104.905 240.112 97.9013 236.816 89.936C233.52 81.9706 229.812 74.692 225.692 68.1ZM396.26 159.976L415.624 155.032C420.293 164.645 424.551 175.22 428.396 186.756C432.516 198.292 435.125 208.043 436.224 216.008L416.448 222.188C415.349 213.948 412.877 204.06 409.032 192.524C405.187 180.713 400.929 169.864 396.26 159.976ZM320.452 156.68C319.903 154.208 318.804 150.637 317.156 145.968C315.508 141.024 314.135 137.179 313.036 134.432C315.508 133.883 318.117 132.509 320.864 130.312C323.611 128.115 326.495 125.368 329.516 122.072C331.439 119.6 334.597 115.343 338.992 109.3C343.387 102.983 348.193 95.5666 353.412 87.052C358.631 78.5373 363.163 69.748 367.008 60.684L390.08 69.336C382.664 83.344 374.287 96.94 364.948 110.124C355.884 123.033 346.957 134.157 338.168 143.496V143.908C338.168 143.908 337.207 144.32 335.284 145.144C333.636 145.968 331.576 147.067 329.104 148.44C326.907 149.813 324.847 151.187 322.924 152.56C321.276 153.933 320.452 155.307 320.452 156.68ZM320.452 156.68L320.04 140.2L332.4 133.196L390.904 130.312C390.08 133.059 389.531 136.355 389.256 140.2C388.981 143.771 388.707 146.655 388.432 148.852C371.128 150.225 357.807 151.324 348.468 152.148C339.404 152.972 332.812 153.796 328.692 154.62C324.847 155.169 322.1 155.856 320.452 156.68ZM321.688 219.304C321.139 216.832 320.04 213.261 318.392 208.592C317.019 203.923 315.645 200.077 314.272 197.056C317.843 196.507 321.688 194.721 325.808 191.7C329.928 188.679 334.323 184.833 338.992 180.164C342.288 176.868 347.644 171.1 355.06 162.86C362.751 154.345 370.991 144.457 379.78 133.196C388.844 121.66 397.084 109.987 404.5 98.176L425.924 108.064C412.74 126.741 398.869 144.732 384.312 162.036C369.755 179.065 355.335 193.76 341.052 206.12V206.532C341.052 206.532 340.091 206.944 338.168 207.768C336.245 208.592 333.911 209.691 331.164 211.064C328.692 212.163 326.495 213.536 324.572 215.184C322.649 216.557 321.688 217.931 321.688 219.304ZM321.688 219.304L321.276 202L333.636 194.584L421.392 183.872C420.843 186.893 420.431 190.189 420.156 193.76C420.156 197.331 420.156 200.215 420.156 202.412C400.105 205.159 383.9 207.493 371.54 209.416C359.18 211.064 349.704 212.575 343.112 213.948C336.52 215.047 331.713 216.008 328.692 216.832C325.671 217.656 323.336 218.48 321.688 219.304ZM361.652 232.076L381.428 228.78C383.625 237.844 385.548 247.869 387.196 258.856C388.844 269.568 389.668 278.907 389.668 286.872L369.48 290.992C369.205 283.027 368.381 273.551 367.008 262.564C365.635 251.577 363.849 241.415 361.652 232.076ZM324.572 228.368L345.996 233.312C344.348 244.024 342.288 255.285 339.816 267.096C337.344 278.907 334.735 289.207 331.988 297.996C329.791 296.073 326.769 294.151 322.924 292.228C319.079 290.031 315.92 288.245 313.448 286.872C315.92 278.357 318.117 269.019 320.04 258.856C321.963 248.419 323.473 238.256 324.572 228.368ZM400.38 227.544L418.92 223.012C422.491 232.351 425.649 242.651 428.396 253.912C431.417 265.173 433.615 274.787 434.988 282.752L415.624 288.108C414.251 280.143 412.053 270.529 409.032 259.268C406.285 247.732 403.401 237.157 400.38 227.544ZM157.3 311.592H424.276V335.488H157.3V311.592ZM346.408 318.184L375.248 328.072C360.965 346.475 342.975 362.268 321.276 375.452C299.577 388.636 275.269 399.485 248.352 408C221.709 416.789 193.556 423.931 163.892 429.424C134.503 435.192 104.564 439.861 74.076 443.432C73.252 440.96 72.016 438.076 70.368 434.78C68.72 431.759 66.7973 428.6 64.6 425.304C62.6773 422.283 60.892 419.673 59.244 417.476C89.4573 415.004 118.984 411.433 147.824 406.764C176.939 402.095 204.268 395.915 229.812 388.224C255.356 380.533 278.153 371.057 298.204 359.796C318.255 348.26 334.323 334.389 346.408 318.184ZM174.604 284.4L201.796 292.64C193.281 306.099 182.569 318.733 169.66 330.544C157.025 342.355 143.292 353.067 128.46 362.68C113.903 372.019 98.9333 380.121 83.552 386.988C82.4533 385.065 80.8053 382.593 78.608 379.572C76.4107 376.551 74.076 373.667 71.604 370.92C69.4067 367.899 67.3467 365.427 65.424 363.504C79.9813 357.736 94.1267 351.007 107.86 343.316C121.868 335.351 134.64 326.424 146.176 316.536C157.712 306.373 167.188 295.661 174.604 284.4ZM161.832 329.72C175.291 341.805 192.045 352.792 212.096 362.68C232.421 372.293 254.944 380.808 279.664 388.224C304.384 395.365 330.34 401.271 357.532 405.94C384.999 410.609 412.74 414.18 440.756 416.652C437.735 419.673 434.713 423.656 431.692 428.6C428.671 433.544 426.336 437.939 424.688 441.784C396.672 438.763 368.793 434.505 341.052 429.012C313.585 423.519 287.355 416.652 262.36 408.412C237.365 400.172 214.156 390.559 192.732 379.572C171.583 368.311 153.455 355.539 138.348 341.256L161.832 329.72Z" fill="black"/>
</svg>
