<svg viewBox="0 0 500 500" fill="none" xmlns="http://www.w3.org/2000/svg">
<path d="M265.656 289.344H295.732C294.084 306.923 291.475 323.403 287.904 338.784C284.333 353.891 278.977 368.036 271.836 381.22C264.969 394.129 255.768 405.665 244.232 415.828C232.696 426.265 218.139 435.055 200.56 442.196C199.461 439.999 197.813 437.389 195.616 434.368C193.693 431.621 191.496 428.737 189.024 425.716C186.552 422.969 184.217 420.772 182.02 419.124C203.169 410.884 219.375 400.447 230.636 387.812C242.172 374.903 250.412 360.208 255.356 343.728C260.3 326.973 263.733 308.845 265.656 289.344ZM331.988 281.928H362.476V396.876C362.476 401.82 363.025 404.979 364.124 406.352C365.223 407.725 367.969 408.412 372.364 408.412C373.737 408.412 376.209 408.412 379.78 408.412C383.625 408.412 387.471 408.412 391.316 408.412C395.161 408.412 397.771 408.412 399.144 408.412C402.44 408.412 404.775 407.313 406.148 405.116C407.521 402.919 408.483 398.387 409.032 391.52C409.856 384.379 410.405 373.667 410.68 359.384C412.603 361.032 415.075 362.68 418.096 364.328C421.392 365.976 424.688 367.487 427.984 368.86C431.555 369.959 434.713 370.783 437.46 371.332C436.636 388.911 434.988 402.369 432.516 411.708C430.044 421.321 426.473 427.913 421.804 431.484C417.135 435.055 410.817 436.84 402.852 436.84C401.479 436.84 399.144 436.84 395.848 436.84C392.552 436.84 388.981 436.84 385.136 436.84C381.291 436.84 377.72 436.84 374.424 436.84C371.403 436.84 369.205 436.84 367.832 436.84C358.219 436.84 350.803 435.604 345.584 433.132C340.365 430.935 336.795 426.815 334.872 420.772C332.949 415.004 331.988 407.039 331.988 396.876V281.928ZM261.124 201.176V268.332H369.892V201.176H261.124ZM231.872 173.572H400.38V296.348H231.872V173.572ZM270.188 68.1L299.44 77.164C292.848 91.4466 285.02 105.729 275.956 120.012C267.167 134.295 257.691 147.479 247.528 159.564C237.64 171.649 227.477 182.499 217.04 192.112C215.667 189.915 213.469 187.443 210.448 184.696C207.701 181.949 204.817 179.203 201.796 176.456C198.775 173.709 196.028 171.512 193.556 169.864C209.212 157.504 223.769 142.397 237.228 124.544C250.687 106.416 261.673 87.6013 270.188 68.1ZM123.516 94.056H152.356V441.372H123.516V94.056ZM61.716 180.164H198.5V209.004H61.716V180.164ZM121.456 191.288L141.232 198.704C137.936 213.261 133.679 228.505 128.46 244.436C123.241 260.092 117.611 275.748 111.568 291.404C105.525 306.785 98.9333 321.205 91.792 334.664C84.9253 347.848 77.9213 359.384 70.78 369.272C69.132 364.877 66.66 359.796 63.364 354.028C60.068 347.985 57.0467 343.041 54.3 339.196C61.1667 330.956 67.7587 320.931 74.076 309.12C80.668 297.309 86.9853 284.812 93.028 271.628C99.0707 258.169 104.564 244.573 109.508 230.84C114.452 216.832 118.435 203.648 121.456 191.288ZM182.844 64.392L202.62 89.524C191.359 94.468 178.449 99 163.892 103.12C149.335 107.24 134.365 110.948 118.984 114.244C103.603 117.54 88.7707 120.287 74.488 122.484C73.9387 118.913 72.7027 114.931 70.78 110.536C68.8573 105.867 67.072 101.747 65.424 98.176C79.1573 95.4293 93.3027 92.408 107.86 89.112C122.417 85.5413 136.288 81.696 149.472 77.576C162.656 73.1813 173.78 68.7867 182.844 64.392ZM151.12 216.42C153.317 218.892 156.888 223.149 161.832 229.192C166.776 234.96 171.995 241.277 177.488 248.144C183.256 254.736 188.475 261.053 193.144 267.096C197.813 273.139 201.109 277.396 203.032 279.868L183.668 305.412C181.471 301.017 178.312 295.387 174.192 288.52C170.072 281.379 165.677 273.963 161.008 266.272C156.339 258.581 151.807 251.44 147.412 244.848C143.017 238.256 139.584 233.037 137.112 229.192L151.12 216.42ZM330.752 77.576L352.588 63.568C363.3 74.8293 374.149 87.1893 385.136 100.648C396.397 113.832 406.697 127.016 416.036 140.2C425.375 153.384 432.791 165.057 438.284 175.22L414.8 192.112C409.581 181.675 402.303 169.864 392.964 156.68C383.9 143.221 373.875 129.625 362.888 115.892C352.176 102.159 341.464 89.3866 330.752 77.576Z" fill="black"/>
</svg>
