<svg xmlns="http://www.w3.org/2000/svg" viewBox="0 0 500 500"><defs><style>.cls-1{fill:#4b4b4b;}</style></defs><title>字z</title><g id="_2013年" data-name="2013年"><g id="香港"><path id="和" class="cls-1" d="M190.86,180.9h72.21v28.63H190.86v10.8c15.77,16.6,58.93,67.23,69.31,80.1l-18.68,25.31C232,310,208.7,278.84,190.86,255.6V437h-30.3V254.36c-20.33,48.14-47.73,95-74.29,123.68-3.32-8.3-11.2-20.76-17-28.23,31.54-31.54,64.74-88.4,83.42-140.28H79.63V180.9h80.93V112c-23.24,3.74-46.48,7.06-68.48,10a108,108,0,0,0-8.71-24.48C138.15,90,202.89,77.56,239.42,63L260.17,87.1c-19.09,7.06-43.58,13.7-69.31,19.09ZM430.74,97.48V416.63H400V385.51H307.48v34h-30.3V97.48ZM400,355.62V126.94H307.48V355.62Z"/></g></g></svg>