<svg xmlns="http://www.w3.org/2000/svg" viewBox="0 0 500 500"><defs><style>.cls-1{fill:#4b4b4b;}</style></defs><title>字z</title><g id="_2014年" data-name="2014年"><g id="香港-2" data-name="香港"><path id="融" class="cls-1" d="M62.2,76.93H256.85v27H62.2ZM250.62,403.56c0,13.28-2.49,20.34-11.62,24.9-8.71,3.74-22.82,4.15-44.41,4.15-.83-7.05-4.56-17-7.88-24.07,15.35.42,29,.42,32.79.42,4.15-.42,5.39-1.66,5.39-5.82V258.72h-132v178H68V234.64H250.62ZM236.93,211.4H82.12V127.57H236.93ZM171.35,345.87v80.52H147.7V345.87H105V324.7h56.44c10-17.43,22-41.5,27.81-58.93l20.75,8.3c-8.72,16.6-18.26,35.28-27.39,50.63h29.05v21.17ZM209.12,150h-100v39h100ZM128.6,267.43c10,15.36,19.93,35.28,24.08,48.14L134,322.63c-3.74-12.87-13.7-33.62-23.24-49ZM413.73,438c-1.25-10-3.74-21.17-7.06-34-48.14,9.14-97.94,17.44-135.3,24.91l-7.47-28.64c19.09-2.49,42.75-6.23,68.48-10.79V296.9H271v-156h61.42V62h27.39v78.86H420v156H359.77v88.81l39.85-7c-5.4-17.85-12-36.52-18.68-52.71l22.41-5.81c15.36,35.69,30.3,83,34.45,110.81ZM294.2,269.92h40.26V167.41H294.2ZM395.88,167.41H357.7V269.92h38.18Z"/></g></g></svg>