<svg xmlns="http://www.w3.org/2000/svg" viewBox="0 0 500 500"><defs><style>.cls-1{fill:#4b4b4b;}</style></defs><title>字z</title><g id="_2017年" data-name="2017年"><g id="香港-5" data-name="香港"><path id="贵" class="cls-1" d="M434.06,191.69v26.15H65.94V191.69h168.5V165.13H116.15V88.76H234.44V60.13h31.12V88.76H383v76.37H265.56v26.56ZM263.49,311.63c0,39.43-15.77,93-170.16,128.24C90,433.65,80.88,421.61,73.41,415.8,222.4,385.92,232,341.1,232,310.8V282.58h31.54Zm81.34,53.95V266.81H153.09V367.25H122V241.08H377.21v124.5Zm-110.39-222V110.76H145.21v32.79Zm40.67,213.73c48.14,13.29,112.47,37.77,146.09,55.62l-15.77,25.73c-32.37-18.68-96.29-44-145.68-59.35Zm-9.55-246.52v32.79h87.16V110.76Z"/></g></g></svg>