<svg xmlns="http://www.w3.org/2000/svg" viewBox="0 0 500 500"><defs><style>.cls-1{fill:#4b4b4b;}</style></defs><title>字z</title><g id="_2018年" data-name="2018年"><g id="香港-6" data-name="香港"><path id="順-繁体" class="cls-1" d="M81.71,67.8h25.73V234.64c0,75.12-3.32,141.53-32.37,196.31C70.5,425.56,61,416.43,55.14,412.28c23.66-49.39,26.57-110.4,26.57-177.64Zm56,29.47H161V371.6H137.74Zm56-30.71h25.32V416.43H193.76ZM322,377c-21.17,21.16-54.37,43.58-82.59,56.44-4.15-5.81-13.28-14.94-19.51-20.33,27.81-12,60.18-33.62,76-51.05Zm-9.13-238.64c3.32-12.45,6.64-26.56,8.71-39h-83v-27H434.48v27h-80.1c-4.57,13.28-8.72,27-12.45,39h81.76v215.4H251.87V138.36Zm81.76,24.07H280.09v40.26H394.64Zm0,62.67H280.09v40.67H394.64Zm0,63.5H280.09v41.09H394.64ZM376,362.06c23.66,14.52,53.54,36.93,68.9,51.88l-23.25,17.84c-14.52-14.94-44-38.18-68.06-53.95Z"/></g></g></svg>