<svg xmlns="http://www.w3.org/2000/svg" viewBox="0 0 500 500"><defs><style>.cls-1{fill:#4b4b4b;}</style></defs><title>字z</title><g id="_2018年" data-name="2018年"><g id="日本-13" data-name="日本"><path id="災-繁体" class="cls-1" d="M262.66,216c-.83,8.3-1.25,16.6-2.08,24.48,16.19,104.18,61,156.47,179.71,171.41-6.23,6.64-14.53,19.92-18.26,28.64-99.19-16.19-148.58-56.45-173.9-132C229,372.85,185.88,416.84,77.56,440.5c-2.91-7.89-11.21-21.17-17.85-28.22C205.38,383.22,221.57,318.48,229,216ZM164.3,248.34c-12.45,33.62-31.55,68.89-62.67,91.31L76.73,321c29.46-19.09,49.8-51.46,60.59-83Zm-17.43-31.13c-13.29-21.58-40.26-53.54-69.31-82.17,23.24-24.9,49-55.62,62.25-75.54l31.13,9.13c-15.77,20.75-37.36,45.66-56,66,23.24,22.83,48.14,51.47,61,70.14Zm118.69-5c-14.11-21.16-41.91-52.29-71.38-79.27,23.66-24.48,49.8-54.37,63.91-73.46l30.71,9.13c-16.18,20.34-38.18,44-56.85,63.5,24.07,22,49,49.39,62.25,67.65Zm122.85,6.64c-15.35-21.58-46.9-54.37-79.27-83,25.73-25.32,53.95-56.45,69.31-76.37l31.13,9.55c-17.43,21.16-41.5,46.07-61.84,66.4,26.56,22.41,54.37,51.47,69.31,70.14Zm-64.74,105c18.26-22.41,41.91-59.34,55.2-85.91l29.05,13.29c-18.26,29.46-41.51,63.08-60.18,85.08Z"/></g></g></svg>