<svg xmlns="http://www.w3.org/2000/svg" viewBox="0 0 500 500"><defs><style>.cls-1{fill:#4b4b4b;}</style></defs><title>字z</title><g id="_2018年" data-name="2018年"><g id="日本-13" data-name="日本"><path id="灾" class="cls-1" d="M266.39,176.54c-1.24,17.85-2.49,34.86-4.56,51.46C280.92,333,327,392.77,438.63,411.86c-6.23,6.23-14.53,18.68-17.85,27.39-95.87-19.92-144.84-66.82-171.4-147.33C229.46,359.57,185.46,412.69,78.8,441.33c-3.32-8.3-11.62-20.34-17.43-27C215.35,375.75,227,285.69,234,176.54ZM103.7,200.61H73.41v-78H254.77c-9.54-14.94-27.39-35.7-42.75-51l27.81-12.87c18.26,15.77,36.94,37.35,46.48,52.71l-21.58,11.21H422.44v78H390.9v-49H103.7ZM84.61,301.88c25.73-20.75,45.65-55.62,56.45-85.08l27.39,10.79c-12.45,31.13-31.13,67.65-56.86,90.06Zm231.17,1.24c17.43-23.24,40.26-59.76,52.3-85.91l30.71,10.38c-17.43,30.3-39.43,63.5-57.69,85.49Z"/></g></g></svg>