<svg xmlns="http://www.w3.org/2000/svg" viewBox="0 0 500 500"><defs><style>.cls-1{fill:#4b4b4b;}</style></defs><title>字z</title><g id="_2021年" data-name="2021年"><g id="台湾-14" data-name="台湾"><path id="宅" class="cls-1" d="M371.18,411.57c23.74,0,27.48-10,30.4-63.71,7.08,5.41,18.74,10,27.48,12.08-4.58,61.63-13.74,78.7-56.63,78.7H277.07c-46.23,0-60-10-60-47.89V313.3L69.27,330.79l-3.33-26.66L217.1,287.06V217.94c-35,6.66-71.62,12.07-105.77,16.65-1.25-7.08-5.41-17.49-8.74-23.73,84.95-11.66,182.39-30,235.28-52.47L360.77,180c-31.65,12.49-71.63,23.32-114.52,32.07v71.62l184.06-20.82,3.75,25L246.25,310v80.78c0,17.07,5.42,20.82,32.07,20.82ZM105.92,195.86H78V110.08H242.09c-5.83-12.91-13.33-28.32-20.82-40.39l27.06-8.33c9.17,15,20,34.56,26.24,48.72H425.73v85.78H397V136.32H105.92Z"/></g></g></svg>