<svg xmlns="http://www.w3.org/2000/svg" viewBox="0 0 500 500"><defs><style>.cls-1{fill:#4b4b4b;}</style></defs><title>字z</title><g id="_2013年" data-name="2013年"><g id="新加坡-3" data-name="新加坡"><path id="霾" class="cls-1" d="M234.85,255.6c-15.77,10.38-35.69,19.92-57.27,29,50.22,46.9,51,115.38,22.82,135.3-10.79,9.13-19.5,11.62-34.44,11.62-7.06,0-17.85,0-27-.41-.41-7.06-2.9-17.85-7.47-24.9,12,1.24,22.41,1.66,29.47,1.66,7.88,0,14.52-.83,19.92-5.4,9.13-5.81,14.11-22.82,11.2-42.75-32.78,22.42-79.27,44-118.28,56.45-2.49-5.4-7.47-14.53-11.2-19.51,41.91-10.37,94.21-33.62,124.5-56.44A91,91,0,0,0,178.41,322c-28.22,17.43-70.56,35.27-104.17,45.65-2.49-5.4-7.47-14.94-11.62-19.09,34-7.47,79.27-24.49,105.83-40.67a150.33,150.33,0,0,0-13.7-14.53c-27,10.38-56,18.68-83.42,26.15-1.66-5-5.39-12.45-7.88-17.43,12.86-3.74,25.73-7.89,39.42-11.62a102.81,102.81,0,0,0-18.26-28.23L102,253.53c9.13,8.3,17,20.33,21.58,29.88,10.38-3.74,20.76-7.89,30.3-12-3.73-7.88-9.13-17.84-15.77-24.48l15.77-9.13c-26.56,6.64-56,11.62-83,14.94-.83-5-4.57-13.28-7.47-18.68,45.23-6.22,97.53-17.43,124.92-29.47l22,16.19c-15.35,6.23-34,11.62-54.36,16.6,7.47,7.47,13.69,17.43,17.84,25.73,15.36-7.47,29.47-14.52,39.85-22.41ZM102,173.84H76.31V109.51H234.44V89.18H102V68.43H400.86V89.18h-137v20.33H425.35v64.33H398.79V128.6H263.9V212H234.44V128.6H102Zm11.62,8.72H214.1v17H113.66ZM214.1,164.71H122.79v-17H214.1ZM437.38,401.28v22.41H222.82V401.28h91.3V373.89H242.74V352.72h71.38v-22h-76V220.33h183V330.72h-78v22h75.95v21.17H343.17v27.39ZM263.9,265.56h52.3V240.25H263.9Zm50.22,45.24v-2.9h2.08V284.65H263.9V310.8Zm65.16-163.1v17H284.65v-17Zm-94.63,34.86H388.41v17H284.65Zm110,57.69H341.1v25.31h53.54Zm0,44.4H341.1V307.9h2.07v2.9h51.47Z"/></g></g></svg>