<svg xmlns="http://www.w3.org/2000/svg" viewBox="0 0 500 500"><defs><style>.cls-1{fill:#4b4b4b;}</style></defs><title>字z</title><g id="_2012年" data-name="2012年"><g id="中国国内字-7" data-name="中国国内字"><path id="梦" class="cls-1" d="M140.43,156.83c-17.84,27.8-41.08,53.95-63.08,69.31-4.57-7.06-13.28-16.19-19.51-21.59,26.56-15.35,54.79-45.23,72.63-75.12H65.73V102.87h74.7V59.71h28.22v43.16h68.07v26.56H171.56c17,12.46,53.95,41.51,63.08,49.81L218,203.72c-9.13-10.37-31.95-32.78-49.39-49v83.84H140.43Zm225.78,99.6L387,271C333.84,372.64,216,419.54,90.63,440.29c-2.08-7.89-10-21.58-16.19-28.22,57.28-8.3,112.89-21.58,159.79-43.16C213.89,355.21,185.67,339,162,328.23l23.66-17A509.27,509.27,0,0,1,264.11,354c31.54-19.09,58.52-41.5,77.2-69.72H201.44A505.69,505.69,0,0,1,103.91,337a187.45,187.45,0,0,0-22.83-21.58c54.79-20.34,115.8-56,145.26-90.48l30.3,12a209.25,209.25,0,0,1-21.58,20.75H360.4Zm-5.81-127c20.33,30.3,52.71,60.18,81.76,75.54-6.64,5.4-15.77,15.36-20.34,22.41-25.32-16.6-53.12-45.24-73.87-74.7v85.91H318.89V157.66c-18.67,27-42.74,52.29-65.57,67.23-4.56-7-13.7-16.6-19.92-22,27.81-14.94,57.27-44,76.36-73.46H250V102.87h68.89V59.71H348v43.16h85.49v26.56Z"/></g></g></svg>