<svg viewBox="0 0 500 500" fill="none" xmlns="http://www.w3.org/2000/svg">
<path d="M239.288 205.296V276.572H144.116V205.296H239.288ZM269.364 205.296H367.832V276.572H269.364V205.296ZM290.376 125.78C278.428 143.084 262.772 162.036 247.528 176.044H138.348C154.416 160.388 169.248 143.496 182.844 125.78H290.376ZM189.848 60.684C161.008 116.304 110.744 166.156 60.0679 197.468C65.8359 204.06 74.4879 219.716 77.3719 226.308C89.7319 218.068 102.092 208.592 114.04 198.292V374.628C114.04 422.832 134.228 433.956 199.736 433.956C214.568 433.956 342.7 433.956 359.18 433.956C420.568 433.956 433.34 415.416 440.756 351.144C431.692 349.496 418.92 344.552 410.68 339.608C406.148 393.992 399.556 405.528 358.768 405.528C330.752 405.528 219.512 405.528 197.676 405.528C152.356 405.528 144.116 399.76 144.116 375.04V306.236H367.832V324.776H398.732V176.044H285.02C304.384 156.268 323.336 132.372 337.344 110.536L317.156 96.116L310.976 98.176H201.796C207.564 89.112 212.92 80.048 217.864 70.984L189.848 60.684Z" fill="black"/>
</svg>
