<svg viewBox="0 0 500 500" fill="none" xmlns="http://www.w3.org/2000/svg">
<path d="M65.0119 99.8239C73.2519 129.488 82.7279 169.04 86.0239 194.172L108.684 188.816C104.976 163.272 95.9119 124.956 86.4359 94.8799L65.0119 99.8239ZM189.848 92.8199C184.08 121.248 172.132 163.684 162.244 189.228L182.432 194.996C192.732 170.276 205.504 130.312 215.392 98.9999L189.848 92.8199ZM335.696 121.66C348.056 132.372 364.124 147.204 372.364 156.68L387.608 140.612C379.368 131.548 363.3 117.54 350.528 107.652L335.696 121.66ZM226.516 122.484C239.288 133.196 254.944 148.028 263.596 157.504L278.428 141.436C270.6 132.372 254.12 118.364 241.76 108.476L226.516 122.484ZM215.804 186.344L223.22 208.592L291.2 176.044V211.064H316.744V75.9279H225.692V98.1759H291.2V153.796C262.772 166.568 235.58 178.516 215.804 186.344ZM324.984 184.696L332.4 206.944L400.38 174.808V211.064H426.336V75.9279H332.812V98.1759H400.38V152.56C372.364 165.332 345.172 177.28 324.984 184.696ZM152.356 409.236C158.536 403.056 169.248 396.876 230.636 366.388C228.576 360.62 225.692 349.496 224.868 342.08L179.96 362.268V236.608H220.748V207.768H151.532V69.3359H124.752V207.768H60.0679V236.608H97.9719C96.7359 317.36 90.1439 378.748 56.3599 415.004C63.3639 419.948 72.0159 429.424 76.5479 436.428C114.864 394.816 122.692 325.6 124.34 236.608H153.592V360.62C153.592 376.688 146.588 382.868 140.408 385.752C144.94 391.52 150.708 402.644 152.356 409.236ZM329.928 319.42V349.084H269.776V319.42H329.928ZM316.744 216.008L330.34 245.672H273.484C279.252 235.372 284.196 225.072 288.728 214.36L262.772 206.944C248.764 241.964 224.868 276.16 198.5 299.232C204.268 303.764 213.744 314.476 217.864 319.832C226.104 312.004 233.932 303.352 241.76 293.464V440.548H269.776V424.892H440.344V401.82H356.708V371.332H424.276V349.084H356.708V319.42H424.276V297.172H356.708V268.332H431.28V245.672H357.532C352.588 234.548 345.172 219.716 339.404 208.592L316.744 216.008ZM329.928 297.172H269.776V268.332H329.928V297.172ZM329.928 371.332V401.82H269.776V371.332H329.928Z" fill="black"/>
</svg>
