<svg viewBox="0 0 500 500" fill="none" xmlns="http://www.w3.org/2000/svg">
<path d="M163.068 290.992V390.284C163.068 424.068 174.604 433.132 219.512 433.132C228.576 433.132 293.672 433.132 303.972 433.132C341.876 433.132 351.764 419.536 355.884 364.328C347.232 361.856 334.048 357.324 327.456 351.968C325.396 398.112 321.688 404.704 301.912 404.704C287.08 404.704 232.284 404.704 221.572 404.704C198.088 404.704 193.556 402.644 193.556 389.872V290.992H163.068ZM226.928 287.284C247.94 309.12 271.836 339.196 282.548 358.56L307.68 343.316C296.556 323.952 271.836 294.7 251.236 274.1L226.928 287.284ZM271.836 158.328C292.024 175.632 315.096 201.176 325.808 218.48L349.292 202.412C338.58 185.52 314.684 160.8 294.496 144.32L271.836 158.328ZM348.468 311.18C374.424 342.492 403.676 385.752 416.036 412.532L443.64 398.936C430.044 371.744 399.968 329.72 373.6 299.232L348.468 311.18ZM105.8 306.236C97.1481 338.784 81.0801 380.396 62.1281 406.352L89.3201 420.36C108.272 392.756 123.104 349.496 132.58 316.124L105.8 306.236ZM60.8921 234.96L69.1321 263.8C111.568 251.852 168.012 235.372 221.16 218.892L217.04 192.936L158.536 209.004V115.892H216.628V87.876H69.1321V115.892H129.696V216.832L60.8921 234.96ZM241.348 80.048V151.736C241.348 187.168 235.58 236.196 177.076 265.036C183.256 270.392 191.908 279.868 195.616 286.46C260.3 251.028 270.6 195.82 270.6 151.736V107.652H353.412V235.784C353.412 261.328 355.472 268.332 362.064 273.688C367.832 278.632 376.896 280.692 385.136 280.692C389.668 280.692 401.204 280.692 406.56 280.692C413.564 280.692 421.392 279.456 426.336 276.984C432.104 274.512 436.224 269.98 438.284 262.976C440.756 256.384 442.404 238.256 442.816 223.012C434.576 220.54 425.1 215.184 418.92 210.24C418.92 226.72 418.096 239.08 417.272 244.848C416.448 249.792 414.8 252.264 413.152 253.5C411.092 254.736 407.384 255.148 404.088 255.148C400.38 255.148 394.612 255.148 391.728 255.148C389.256 255.148 386.784 254.324 384.724 253.088C383.076 251.44 382.664 246.496 382.664 237.844V80.048H241.348Z" fill="black"/>
</svg>
