<svg viewBox="0 0 500 500" fill="none" xmlns="http://www.w3.org/2000/svg">
<path d="M67.4839 325.188V354.852H336.932V325.188H67.4839ZM137.112 147.204C134.228 187.58 129.284 241.552 123.928 274.512H133.816L388.844 274.924C381.016 360.208 371.952 396.876 360.004 407.588C355.472 411.708 350.116 412.12 341.464 412.12C331.164 412.12 305.208 412.12 277.604 409.648C283.372 417.888 287.08 430.248 287.904 439.312C314.272 440.548 339.404 440.96 353 440.136C367.832 439.312 377.308 436.428 386.372 426.952C402.44 411.296 411.504 368.448 421.392 260.092C422.216 255.56 422.628 245.672 422.628 245.672H350.528C356.708 194.172 363.712 131.136 367.008 87.4639L344.348 84.9919L338.992 86.6399H98.7959V116.716H333.636C330.34 153.384 324.984 204.06 319.216 245.672H158.536C161.832 216.008 165.54 179.34 168.012 149.264L137.112 147.204Z" fill="black"/>
</svg>
