<svg viewBox="0 0 500 500" fill="none" xmlns="http://www.w3.org/2000/svg">
<path d="M79.4319 87.876C104.564 100.236 135.052 120.012 149.472 134.844L167.6 109.3C152.768 94.88 121.868 76.752 97.1479 65.628L79.4319 87.876ZM58.4199 199.116C83.9639 210.24 114.452 228.78 129.284 242.376L147 217.244C131.756 203.648 100.856 185.932 75.7239 176.044L58.4199 199.116ZM247.116 282.34H344.348V325.188H247.116V282.34ZM337.756 62.332V111.36H257.416V62.332H227.34V111.36H171.72V139.376H227.34V187.168H154.416V215.596H228.576C211.272 248.144 184.08 279.868 156.476 298.82L136.7 283.988C116.512 330.544 88.9079 384.928 69.5439 416.652L96.7359 435.604C116.1 400.172 138.76 353.616 156.476 312.828C161.42 317.772 166.364 323.54 169.248 328.072C186.14 316.536 203.032 300.056 218.276 281.516V392.756C218.276 428.188 231.048 436.84 275.132 436.84C284.608 436.84 357.12 436.84 367.42 436.84C405.324 436.84 414.388 423.656 418.508 374.216C410.268 372.156 398.32 368.036 391.728 363.092C389.668 403.056 385.96 409.648 365.36 409.648C350.116 409.648 288.316 409.648 276.78 409.648C251.236 409.648 247.116 406.764 247.116 392.344V349.908H372.364V272.864C388.432 293.876 406.972 312.004 426.336 323.952C430.868 316.124 440.756 305.412 447.76 299.644C416.448 283.164 386.372 250.204 368.244 215.596H441.58V187.168H368.244V139.376H430.044V111.36H368.244V62.332H337.756ZM247.116 257.62H235.992C245.056 244.024 252.884 230.016 259.476 215.596H337.756C344.348 230.016 352.176 244.024 361.24 257.62H247.116ZM257.416 139.376H337.756V187.168H257.416V139.376Z" fill="black"/>
</svg>
