<svg viewBox="0 0 500 500" fill="none" xmlns="http://www.w3.org/2000/svg">
<path d="M71.6042 87.464C91.3802 103.12 114.864 125.78 125.576 141.024L146.588 122.072C135.464 107.652 111.568 85.816 91.7922 70.984L71.6042 87.464ZM57.5962 199.116C77.3722 214.36 100.856 236.196 112.392 250.616L132.992 231.252C121.044 216.832 96.7362 196.232 77.3722 181.812L57.5962 199.116ZM66.6602 421.596L93.8522 435.192C106.624 397.288 121.044 347.024 131.344 304.176L107.036 290.168C95.5002 336.312 79.0202 389.048 66.6602 421.596ZM400.38 72.632C381.428 118.364 350.116 162.448 316.332 190.876C322.512 195.82 333.224 206.532 337.344 211.476C371.952 179.752 406.148 131.136 427.572 80.46L400.38 72.632ZM155.24 169.864C153.592 209.416 149.884 261.328 145.764 293.464H215.392C211.684 369.684 207.152 398.936 200.148 406.352C196.852 410.06 193.556 411.296 186.552 410.884C180.372 410.884 163.892 410.884 145.764 409.236C150.296 417.064 152.768 428.6 153.592 437.252C171.72 438.488 189.848 438.488 199.324 437.252C210.448 436.428 217.04 433.544 223.632 425.716C234.344 413.768 239.288 377.1 244.232 279.456C244.644 275.336 244.644 266.684 244.644 266.684H175.016C176.664 245.672 178.724 221.364 179.96 198.292H245.056V77.164H149.884V105.18H219.1V169.864H155.24ZM276.368 441.372C282.548 436.016 293.672 430.66 368.656 400.584C367.42 394.816 365.772 382.868 365.772 374.628L309.74 394.816V249.38H337.344C352.588 328.072 380.192 396.464 423.452 434.78C427.572 427.364 437.048 417.476 443.228 412.12C404.088 380.808 377.72 318.596 363.3 249.38H439.932V220.952H309.74V66.864H281.312V220.952H247.528V249.38H281.312V387.812C281.312 404.292 270.6 411.708 263.596 415.416C268.128 421.596 274.308 433.956 276.368 441.372Z" fill="black"/>
</svg>
