<svg viewBox="0 0 500 500" fill="none" xmlns="http://www.w3.org/2000/svg">
<path d="M79.8441 186.344H200.56V211.064H79.8441V186.344ZM79.8441 240.728H200.56V265.036H79.8441V240.728ZM62.9521 131.96H214.568V157.504H62.9521V131.96ZM109.508 72.632L133.404 60.272C145.764 76.752 158.948 98.588 165.54 113.42L140.408 127.84C133.816 113.008 120.632 89.112 109.508 72.632ZM278.84 61.096L311.388 68.512C305.208 88.7 297.792 108.888 289.552 128.252H440.756V157.092H328.28V214.772H432.516V243.2H328.28V306.648H436.224V334.664H328.28V440.96H297.38V157.092H276.368C262.772 183.46 247.528 207.356 231.872 225.896C226.104 220.54 212.096 210.652 204.268 206.12C236.816 171.1 263.184 116.304 278.84 61.096ZM79.8441 295.524H203.032V415.828H106.624V435.604H79.8441V295.524ZM106.624 321.48V389.872H175.84V321.48H106.624Z" fill="black"/>
</svg>
