<svg viewBox="0 0 500 500" fill="none" xmlns="http://www.w3.org/2000/svg">
<path d="M261.124 214.36C265.519 242.925 271.836 268.332 280.076 290.58C288.591 312.828 299.715 332.192 313.448 348.672C327.456 364.877 344.76 378.336 365.36 389.048C386.235 399.485 411.367 407.176 440.756 412.12C438.559 414.317 436.224 417.064 433.752 420.36C431.555 423.656 429.357 426.952 427.16 430.248C424.963 433.819 423.315 436.977 422.216 439.724C391.728 433.407 365.635 424.205 343.936 412.12C322.237 400.309 304.109 385.34 289.552 367.212C274.995 349.084 263.321 327.66 254.532 302.94C245.743 277.945 238.739 249.517 233.52 217.656L261.124 214.36ZM235.168 176.868H268.128C266.48 201.313 264.008 224.66 260.712 246.908C257.691 269.156 252.472 290.168 245.056 309.944C237.915 329.72 227.615 347.985 214.156 364.74C200.972 381.495 183.531 396.327 161.832 409.236C140.133 422.145 113.079 432.995 80.6679 441.784C79.5692 439.037 77.9212 436.016 75.7239 432.72C73.8012 429.424 71.7412 426.128 69.5439 422.832C67.3466 419.536 65.1492 416.789 62.9519 414.592C93.7146 406.901 119.121 397.288 139.172 385.752C159.497 374.216 175.703 361.032 187.788 346.2C200.148 331.093 209.487 314.613 215.804 296.76C222.121 278.907 226.516 259.955 228.988 239.904C231.735 219.853 233.795 198.841 235.168 176.868ZM142.468 216.832L169.66 228.368C165.54 238.531 160.733 249.105 155.24 260.092C149.747 271.079 143.429 281.653 136.288 291.816C129.421 301.979 121.731 310.768 113.216 318.184L86.0239 302.116C94.5386 295.249 102.367 287.147 109.508 277.808C116.649 268.195 122.967 258.169 128.46 247.732C133.953 237.02 138.623 226.72 142.468 216.832ZM369.892 217.244L400.792 228.368C392.277 243.2 382.664 258.444 371.952 274.1C361.515 289.481 351.901 302.665 343.112 313.652L316.744 303.352C322.787 295.661 329.104 286.872 335.696 276.984C342.288 266.821 348.468 256.521 354.236 246.084C360.279 235.647 365.497 226.033 369.892 217.244ZM74.8999 123.308H424.276V200.764H392.14V152.148H105.388V200.764H74.8999V123.308ZM212.92 72.22L241.348 59.036C250.412 67.0013 259.201 75.928 267.716 85.816C276.505 95.4293 283.235 104.081 287.904 111.772L258.652 127.016C254.257 119.6 247.665 110.673 238.876 100.236C230.361 89.7987 221.709 80.46 212.92 72.22Z" fill="black"/>
</svg>
