<svg viewBox="0 0 500 500" fill="none" xmlns="http://www.w3.org/2000/svg">
<path d="M67.896 91.996H433.34V118.776H67.896V91.996ZM163.48 61.92H193.968V148.44H163.48V61.92ZM304.384 61.92H335.284V145.968H304.384V61.92ZM86.436 172.336L103.74 150.912C111.705 154.483 120.083 158.74 128.872 163.684C137.661 168.353 145.901 173.16 153.592 178.104C161.557 182.773 168.012 187.443 172.956 192.112L154.828 215.596C150.159 210.927 143.979 205.983 136.288 200.764C128.597 195.545 120.357 190.464 111.568 185.52C103.053 180.301 94.676 175.907 86.436 172.336ZM67.896 250.204L84.376 228.368C92.616 231.664 101.131 235.647 109.92 240.316C118.709 244.985 127.087 249.792 135.052 254.736C143.017 259.68 149.472 264.212 154.416 268.332L136.7 292.64C132.031 288.245 125.713 283.439 117.748 278.22C110.057 273.001 101.817 267.92 93.028 262.976C84.5133 258.032 76.136 253.775 67.896 250.204ZM70.78 419.948C77.9213 411.159 85.7493 400.859 94.264 389.048C102.779 376.963 111.568 364.191 120.632 350.732C129.696 337.273 138.073 324.089 145.764 311.18L165.952 330.544C159.085 342.355 151.532 354.715 143.292 367.624C135.327 380.533 127.224 393.168 118.984 405.528C110.744 417.888 102.641 429.424 94.676 440.136L70.78 419.948ZM191.908 160.388H367.832V188.816H191.908V160.388ZM396.672 243.2H426.748C426.748 243.2 426.611 244.024 426.336 245.672C426.336 247.32 426.336 249.243 426.336 251.44C426.336 253.637 426.199 255.423 425.924 256.796C424.276 285.361 422.491 309.669 420.568 329.72C418.92 349.771 416.997 366.388 414.8 379.572C412.877 392.756 410.68 403.056 408.208 410.472C405.736 417.888 402.989 423.519 399.968 427.364C396.397 431.484 392.552 434.368 388.432 436.016C384.587 437.664 379.917 438.763 374.424 439.312C369.48 439.861 363.163 440.136 355.472 440.136C348.056 440.136 340.228 439.861 331.988 439.312C331.713 435.467 330.889 430.935 329.516 425.716C328.143 420.497 326.357 415.965 324.16 412.12C332.125 412.944 339.404 413.493 345.996 413.768C352.863 414.043 358.081 414.18 361.652 414.18C364.673 414.18 367.145 413.768 369.068 412.944C371.265 412.395 373.188 411.159 374.836 409.236C378.132 405.665 381.016 398.387 383.488 387.4C385.96 376.139 388.295 359.384 390.492 337.136C392.964 314.613 395.024 285.087 396.672 248.556V243.2ZM265.656 253.5L287.492 266.272C281.175 281.928 272.935 297.721 262.772 313.652C252.609 329.308 241.348 343.865 228.988 357.324C216.628 370.783 203.856 381.907 190.672 390.696C188.749 387.125 185.865 383.28 182.02 379.16C178.175 374.765 174.467 371.195 170.896 368.448C183.805 361.032 196.303 351.281 208.388 339.196C220.748 326.836 231.872 313.24 241.76 298.408C251.648 283.576 259.613 268.607 265.656 253.5ZM335.696 252.676L360.004 265.86C353.412 289.481 344.211 312.828 332.4 335.9C320.864 358.697 307.543 379.435 292.436 398.112C277.604 416.515 261.536 431.621 244.232 443.432C241.76 439.861 238.327 435.879 233.932 431.484C229.812 427.364 225.829 424.068 221.984 421.596C239.563 411.159 255.768 397.151 270.6 379.572C285.432 361.719 298.479 341.943 309.74 320.244C321.001 298.271 329.653 275.748 335.696 252.676ZM191.908 274.512C191.633 272.315 190.672 269.431 189.024 265.86C187.651 262.289 186.14 258.719 184.492 255.148C183.119 251.303 181.745 248.144 180.372 245.672C186.689 244.848 193.968 243.2 202.208 240.728C210.448 237.981 218.963 234.685 227.752 230.84C232.421 229.192 239.563 226.308 249.176 222.188C259.064 218.068 270.325 213.124 282.96 207.356C295.595 201.313 308.367 194.859 321.276 187.992C334.46 180.851 346.683 173.435 357.944 165.744V163.272L373.188 157.092L397.084 176.044C375.66 188.404 354.511 199.94 333.636 210.652C312.761 221.089 292.161 230.565 271.836 239.08C251.511 247.595 231.46 254.873 211.684 260.916V262.152C211.684 262.152 210.585 262.564 208.388 263.388C206.465 263.937 204.268 264.899 201.796 266.272C199.324 267.371 196.989 268.607 194.792 269.98C192.869 271.353 191.908 272.864 191.908 274.512ZM191.908 274.512V250.616L209.212 243.2H405.736V269.98H227.752C218.139 269.98 210.173 270.392 203.856 271.216C197.813 271.765 193.831 272.864 191.908 274.512Z" fill="black"/>
</svg>
