<svg viewBox="0 0 500 500" fill="none" xmlns="http://www.w3.org/2000/svg">
<path d="M150.296 282.752V303.352H395.024V282.752H150.296ZM123.516 165.744V183.872H212.92V165.744H123.516ZM114.452 204.06V222.6H213.332V204.06H114.452ZM284.608 204.06V222.6H386.372V204.06H284.608ZM284.608 165.744V183.872H376.072V165.744H284.608ZM75.7239 124.132V194.584H104.976V144.732H233.52V232.076H264.008V144.732H394.2V194.584H424.276V124.132H264.008V101.06H400.38V77.576H99.2079V101.06H233.52V124.132H75.7239ZM154.828 440.548C162.656 436.428 176.252 433.956 285.432 416.24C285.432 410.472 286.256 399.76 287.904 392.756L191.908 406.352V345.376H253.296C285.02 394.816 345.172 423.244 424.688 433.956C428.396 426.128 434.988 415.416 441.168 409.648C408.208 406.764 378.544 400.584 352.588 391.108C371.54 382.456 392.552 372.156 409.444 360.208L386.784 347.024C372.364 356.912 348.056 370.92 328.692 380.808C309.74 370.92 294.084 359.384 282.136 345.376H434.988V323.54H128.048L128.872 301.292V265.036H419.744V242.376H99.6199V300.88C99.6199 338.372 94.6759 386.988 57.5959 423.656C64.1879 426.952 75.724 437.252 80.256 443.02C107.86 415.828 120.632 379.572 125.576 345.376H161.008V384.928C161.008 402.232 148.648 411.296 140.82 415.416C145.764 421.184 152.356 433.544 154.828 440.548Z" fill="black"/>
</svg>
