<svg viewBox="0 0 500 500" fill="none" xmlns="http://www.w3.org/2000/svg">
<path d="M335.696 257.62V294.288H163.48V257.62H335.696ZM335.696 233.724H163.48V199.528H335.696V233.724ZM224.456 344.964C279.664 371.744 350.116 412.944 384.312 440.136L406.56 418.712C388.432 404.704 361.24 387.812 331.988 371.332C355.884 357.324 381.84 340.02 403.676 323.128L380.604 305.412L366.596 316.948V184.696C385.96 194.172 405.736 202 425.1 207.768C429.22 199.528 438.696 187.168 445.7 180.576C379.368 163.684 308.092 125.78 268.54 82.932L275.956 72.632L248.352 59.036C210.036 117.128 135.052 163.272 59.6558 187.992C66.6598 194.584 74.8998 205.708 79.4318 213.124C97.5598 206.532 115.688 198.704 132.992 190.052V387.812C132.992 403.468 125.164 410.472 118.984 413.768C123.516 419.948 129.284 432.72 130.932 440.136C140.408 435.192 154.828 431.484 264.42 408.824C264.008 402.644 263.596 390.284 264.42 382.044L163.48 400.584V319.832H362.888C345.584 332.604 325.396 346.2 306.856 357.324C285.432 346.2 264.008 335.488 244.644 326.424L224.456 344.964ZM220.336 140.612C227.752 150.5 235.168 163.272 240.936 173.984H162.244C195.616 153.796 226.104 129.9 251.236 103.12C276.78 129.9 309.74 154.208 345.584 173.984H272.66C267.304 162.036 256.592 145.144 247.528 132.784L220.336 140.612Z" fill="black"/>
</svg>
