<svg viewBox="0 0 500 500" fill="none" xmlns="http://www.w3.org/2000/svg">
<path d="M348.468 270.392L345.996 306.648H258.652L268.952 300.468C265.656 291.816 257.416 280.28 248.764 270.392H348.468ZM131.344 246.908C129.696 265.036 127.636 286.048 125.576 306.648H60.8921V330.544H122.692C119.808 353.616 116.512 375.04 113.628 391.932H335.284C332.812 403.056 329.928 409.648 326.632 412.944C322.924 417.064 318.392 417.888 310.976 417.888C303.148 417.888 282.96 417.888 261.536 415.416C265.656 422.008 268.54 432.308 268.952 438.488C290.788 440.136 312.624 440.548 324.16 439.312C336.52 438.9 345.584 436.016 353 427.364C358.356 421.184 362.888 410.472 366.596 391.932H410.268V368.036H370.304L374.424 330.544H439.52V306.648H376.484L379.78 260.092C379.78 255.972 380.192 246.908 380.192 246.908H131.344ZM222.396 275.336C231.048 284.4 240.112 296.76 245.468 306.648H155.652L159.36 270.392H231.048L222.396 275.336ZM343.936 330.544C342.7 345.376 341.052 357.736 339.816 368.036H254.944L266.892 361.032C263.596 352.38 255.356 340.432 246.292 330.544H343.936ZM219.924 335.9C228.988 345.376 238.052 357.736 242.996 368.036H148.236L152.768 330.544H228.988L219.924 335.9ZM233.52 61.92V95.704H89.7321V119.188H233.52V146.792H113.628V170.276H233.52V201.176H72.4281V224.66H428.396V201.176H265.244V170.276H390.08V146.792H265.244V119.188H416.036V95.704H265.244V61.92H233.52Z" fill="black"/>
</svg>
