<svg viewBox="0 0 500 500" fill="none" xmlns="http://www.w3.org/2000/svg">
<path d="M97.1482 147.204V245.26C97.1482 298.408 93.8522 371.744 61.3042 424.48C68.7202 426.952 81.9042 435.192 87.6722 440.548C121.868 384.928 127.636 302.94 127.636 245.26V173.984H230.224V208.18L146.176 216.42L149.06 239.492L230.224 231.664V243.2C230.224 273.688 241.76 281.104 286.668 281.104C296.144 281.104 367.832 281.104 377.72 281.104C411.092 281.104 420.568 272.04 424.276 234.96C416.036 233.312 404.5 229.604 397.908 225.072C395.848 252.264 392.964 256.384 374.836 256.384C359.592 256.384 299.852 256.384 287.904 256.384C263.596 256.384 259.064 254.324 259.064 243.612V228.78L366.184 218.48L363.3 195.408L259.064 205.296V173.984H390.904C386.784 186.344 382.664 198.704 378.132 208.18L405.324 218.068C414.388 201.588 423.864 176.044 430.868 152.972L407.796 145.968L402.028 147.204H260.712V119.6H400.38V94.056H260.712V61.92H230.224V147.204H97.1482ZM193.556 302.116V343.316C193.556 370.92 182.02 397.7 116.924 416.652C122.28 421.596 131.756 434.78 134.64 441.372C206.74 418.3 223.22 380.808 223.22 344.14V328.896H298.204V393.992C298.204 424.892 307.68 433.132 340.228 433.132C347.232 433.132 384.724 433.132 391.728 433.132C420.156 433.132 428.396 420.36 431.28 369.684C423.452 367.624 411.092 362.68 404.912 357.736C403.264 400.172 401.204 405.528 388.844 405.528C380.604 405.528 349.704 405.528 343.936 405.528C330.34 405.528 327.868 404.292 327.868 393.992V302.116H193.556Z" fill="black"/>
</svg>
