<svg viewBox="0 0 500 500" fill="none" xmlns="http://www.w3.org/2000/svg">
<path d="M389.256 67.276C317.156 79.224 190.672 86.64 88.9082 88.7C91.3802 95.704 94.6762 106.004 95.5002 113.42C196.852 112.184 322.512 104.768 399.556 92.408L389.256 67.276ZM345.996 104.768C338.58 121.66 325.808 145.968 314.272 163.272H271.012C266.892 148.852 259.888 127.428 252.884 110.948L228.988 118.364C233.932 132.372 239.7 149.264 243.408 163.272H177.9C173.78 149.264 165.54 129.076 158.124 113.42L135.052 122.484C140.408 134.844 146.176 150.088 150.296 163.272H78.1962V232.076H104.564V189.64H396.26V232.076H423.452V163.272H342.7C353 148.44 364.124 130.312 373.6 113.832L345.996 104.768ZM211.272 322.716H334.872C320.04 340.844 300.264 356.088 277.192 368.448C251.236 356.088 228.576 340.432 211.272 322.716ZM193.968 199.94C191.908 212.3 189.436 224.66 186.552 236.196H107.86V262.564H179.136C157.712 331.78 120.632 381.632 61.3042 412.944C67.0722 418.712 77.3722 431.072 80.6682 437.252C125.576 410.884 158.948 375.04 183.256 328.484C200.56 349.496 222.396 367.624 247.528 382.456C217.452 394.816 183.256 403.468 148.648 408.824C153.18 415.004 160.596 427.776 163.068 434.78C203.032 426.952 242.584 415.416 277.192 398.112C316.744 416.24 362.064 428.6 410.268 435.192C413.976 426.952 420.98 414.592 426.748 408C383.9 403.468 343.112 394.404 307.268 381.22C336.52 361.856 360.828 337.548 377.308 307.06L360.828 294.7L355.472 295.936H198.088C202.208 285.224 206.328 274.1 209.624 262.564H392.964V236.196H216.628C219.512 225.896 221.572 215.184 223.632 204.06L193.968 199.94Z" fill="black"/>
</svg>
