<svg viewBox="0 0 500 500" fill="none" xmlns="http://www.w3.org/2000/svg">
<path d="M252.06 56.976C213.332 112.184 134.228 164.508 58.0078 184.696C64.5998 192.936 72.0158 205.708 76.1358 214.772C106.212 204.884 137.112 190.052 165.952 172.748V198.704H330.752V171.1C359.18 188.816 389.668 203.236 419.332 212.712C424.688 203.648 434.576 190.052 442.404 183.048C376.896 166.568 306.856 126.604 269.364 84.168L276.78 74.692L252.06 56.976ZM169.248 170.688C199.736 151.736 228.164 129.076 251.236 105.18C272.66 129.076 299.852 151.736 329.928 170.688H169.248ZM96.7358 232.9V409.236H125.164V374.216H222.396V232.9H96.7358ZM125.164 260.504H193.144V346.612H125.164V260.504ZM266.068 232.9V441.372H296.144V260.916H375.248V349.084C375.248 354.028 373.6 355.676 367.832 356.088C362.064 356.088 342.288 356.088 319.216 355.676C322.924 364.328 327.044 375.864 328.28 384.516C359.592 384.516 378.956 384.516 390.492 379.572C402.44 374.216 405.324 365.564 405.324 349.084V232.9H266.068Z" fill="black"/>
</svg>
