<svg viewBox="0 0 500 500" fill="none" xmlns="http://www.w3.org/2000/svg">
<path d="M185.316 99C200.148 116.716 217.04 141.024 224.456 156.268L251.648 142.672C244.232 127.016 226.516 103.944 211.272 86.64L185.316 99ZM290.788 261.328C309.74 283.988 331.164 314.888 340.64 334.664L367.832 319.008C357.944 299.644 335.284 269.568 315.92 247.732L290.788 261.328ZM156.064 63.568C132.58 125.368 94.6759 186.344 53.8879 225.896C59.6559 232.9 69.1319 248.968 72.0159 256.384C86.0239 241.552 100.032 224.66 113.216 206.532V440.136H143.292V159.564C159.36 131.96 174.192 101.884 185.728 72.22L156.064 63.568ZM271.012 65.628C270.6 96.116 270.6 131.96 267.716 169.04H174.192V199.116H264.832C254.944 281.516 227.752 366.388 153.18 416.652C161.42 422.008 171.308 431.072 176.664 438.488C256.18 382.044 285.02 288.932 296.144 199.116H392.552C387.608 336.724 381.428 388.636 370.304 400.996C366.184 405.94 361.652 406.764 353.824 406.764C344.348 406.764 321.688 406.764 297.38 404.704C302.736 413.356 306.032 426.128 306.856 435.192C330.752 436.428 353.824 436.84 367.008 435.604C381.016 433.956 389.668 431.072 398.32 419.536C412.74 401.82 418.92 345.376 424.688 184.696C424.688 180.164 425.1 169.04 425.1 169.04H299.028C302.324 132.372 302.736 96.528 303.148 65.628H271.012Z" fill="black"/>
</svg>
