<svg viewBox="0 0 500 500" fill="none" xmlns="http://www.w3.org/2000/svg">
<path d="M192.32 320.244C204.68 340.844 219.512 368.86 226.104 386.988L247.94 373.804C241.76 356.5 226.928 329.72 213.332 309.12L192.32 320.244ZM99.6201 311.18C91.3801 336.312 77.7841 361.856 60.8921 379.984C67.0721 383.692 77.7841 391.52 82.7281 395.64C98.7961 376.276 115.276 346.2 124.752 317.36L99.6201 311.18ZM271.836 101.472V243.2C271.836 297.996 268.54 368.86 233.52 418.3C240.112 422.008 252.472 431.484 257.416 437.252C295.32 383.692 300.676 302.528 300.676 243.2V230.016H363.3V438.9H393.376V230.016H438.696V201.176H300.676V122.072C344.348 115.48 391.316 104.768 425.924 91.996L400.792 69.336C371.128 81.696 317.98 94.056 271.836 101.472ZM132.168 67.276C138.76 78.812 145.352 92.82 150.296 105.18H69.1321V131.136H251.236V105.18H182.432C177.076 91.584 168.012 73.868 160.184 60.272L132.168 67.276ZM199.324 133.196C194.38 152.148 184.904 180.164 177.076 199.116H62.9521V225.484H147.412V268.332H64.6001V295.524H147.412V400.584C147.412 404.704 146.588 405.94 142.468 405.94C137.936 406.352 125.164 406.352 110.744 405.94C114.864 413.356 118.984 424.892 119.808 432.308C139.996 432.308 154.004 431.896 163.48 427.364C172.956 422.832 175.84 415.416 175.84 400.996V295.524H252.884V268.332H175.84V225.484H257.828V199.116H205.092C212.92 181.812 220.748 159.564 228.164 139.376L199.324 133.196ZM95.9121 139.788C104.152 158.328 110.332 183.048 111.98 199.116L138.76 191.7C136.7 176.044 129.696 151.736 121.044 134.02L95.9121 139.788Z" fill="black"/>
</svg>
