<svg viewBox="0 0 500 500" fill="none" xmlns="http://www.w3.org/2000/svg">
<path d="M61.304 384.928L67.072 414.592C104.976 405.116 155.652 392.344 204.268 380.396L201.796 353.616C149.472 365.564 96.736 377.924 61.304 384.928ZM217.864 95.704C233.932 123.72 248.764 160.8 253.296 183.872L281.312 171.924C275.956 148.852 259.888 113.008 243.82 85.404L217.864 95.704ZM393.376 80.46C384.312 108.064 367.832 148.44 355.06 173.16L378.956 182.636C392.964 158.74 410.268 121.66 423.864 90.76L393.376 80.46ZM66.66 233.724C72.84 230.84 82.728 228.368 132.992 221.776C114.864 248.144 98.384 269.156 90.968 277.396C78.196 293.052 68.308 302.94 59.656 304.588C62.952 312.828 67.484 326.836 69.132 333.016C78.196 328.072 92.204 323.952 196.028 302.94C195.204 296.76 195.204 284.4 196.028 276.572L112.804 291.816C144.94 254.736 175.84 209.828 202.62 164.096L177.076 148.44C169.248 163.684 160.184 179.34 151.12 193.76L98.384 199.528C122.692 163.684 146.176 118.364 163.892 74.692L135.052 61.508C118.984 111.36 89.32 165.332 80.256 179.34C71.604 193.348 64.188 202.824 56.772 204.884C60.48 212.712 65.012 227.544 66.66 233.724ZM303.972 62.332V196.644H219.512V225.484H303.972V294.288H206.74V323.128H303.972V440.96H334.048V323.128H438.696V294.288H334.048V225.484H424.276V196.644H334.048V62.332H303.972Z" fill="black"/>
</svg>
