<svg viewBox="0 0 500 500" fill="none" xmlns="http://www.w3.org/2000/svg">
<path d="M309.328 61.0959C291.612 109.712 254.532 170.688 198.088 213.536C205.092 218.48 214.568 229.192 219.512 236.196C264.42 200.352 297.38 155.856 320.452 112.596C346.82 159.564 383.9 205.708 417.272 232.9C422.628 225.072 432.516 214.36 439.932 209.004C402.028 182.224 359.592 130.312 335.696 82.108L341.876 66.8639L309.328 61.0959ZM380.604 232.076C355.884 251.852 318.392 276.16 285.432 294.7V213.536H254.532V384.104C254.532 419.948 265.244 429.836 305.62 429.836C313.448 429.836 367.832 429.836 376.484 429.836C412.328 429.836 420.98 414.18 424.688 357.324C416.036 355.264 403.264 349.908 396.26 344.964C394.612 393.168 391.728 401.82 374.424 401.82C362.888 401.82 317.568 401.82 308.504 401.82C288.728 401.82 285.432 399.348 285.432 384.104V326.424C322.1 308.708 367.832 281.516 402.028 258.032L380.604 232.076ZM76.548 271.216C79.844 267.92 92.616 265.448 106.212 265.448H139.584V326.012L60.48 339.196L67.072 369.272L139.584 355.264V438.9H167.188V349.496L217.04 339.608L214.98 312.416L167.188 321.068V265.448H208.388V237.432H167.188V173.572H139.584V237.432H103.74C114.864 209.004 125.988 175.22 135.464 140.2H209.212V110.536H142.88C146.588 96.116 149.472 81.6959 151.944 67.688L123.104 61.92C121.044 77.9879 118.16 94.468 114.452 110.536H63.364V140.2H107.86C99.208 173.572 90.556 201.176 86.436 211.476C79.844 230.016 74.076 243.2 67.484 245.26C70.78 252.264 74.9 265.448 76.548 271.216Z" fill="black"/>
</svg>
