<svg viewBox="0 0 500 500" fill="none" xmlns="http://www.w3.org/2000/svg">
<path d="M214.568 68.924C221.16 81.284 228.164 96.528 233.932 109.3H82.3162V192.936H113.216V138.552H385.548V192.936H418.096V109.3H270.188C264.008 95.704 254.12 75.928 246.292 61.0959L214.568 68.924ZM314.272 252.264C301.5 285.636 283.372 312.416 259.888 334.664C230.224 322.716 200.148 312.004 171.72 302.528C182.02 287.696 193.144 270.392 204.268 252.264H314.272ZM167.188 252.264C152.356 276.16 136.7 298.408 123.516 316.124C157.712 327.66 195.204 341.256 231.872 356.5C191.908 383.28 140.408 400.584 77.7842 411.708C84.3762 418.3 93.8522 432.308 97.5602 439.724C164.716 425.304 220.748 403.88 264.832 370.508C316.744 393.168 364.536 417.476 395.024 438.076L420.568 411.296C388.844 391.108 341.876 368.448 290.788 347.024C315.92 321.892 335.284 290.58 349.704 252.264H429.22V223.012H221.16C232.284 202.412 242.584 181.812 250.824 162.448L217.452 155.856C209.212 176.868 197.264 199.94 184.492 223.012H72.4282V252.264H167.188Z" fill="black"/>
</svg>
