<svg viewBox="0 0 500 500" fill="none" xmlns="http://www.w3.org/2000/svg">
<path d="M58.0078 357.736L72.0158 388.224C102.092 375.864 139.584 360.208 176.664 344.14V437.252H207.976V69.3359H176.664V166.568H70.3678V197.468H176.664V313.24C132.168 330.132 88.0838 347.436 58.0078 357.736ZM411.092 132.784C385.96 156.268 347.232 183.872 308.916 206.944V69.7479H276.78V375.04C276.78 419.124 288.316 431.484 327.044 431.484C335.284 431.484 384.724 431.484 393.376 431.484C433.752 431.484 441.992 404.704 445.288 329.72C436.636 327.66 423.864 321.48 416.036 314.888C413.152 383.28 410.268 401.408 390.904 401.408C380.192 401.408 338.992 401.408 330.34 401.408C312.212 401.408 308.916 397.288 308.916 375.452V239.08C352.588 214.772 399.556 186.756 434.164 159.976L411.092 132.784Z" fill="black"/>
</svg>
