<svg viewBox="0 0 500 500" fill="none" xmlns="http://www.w3.org/2000/svg">
<path d="M142.468 216.832C131.344 246.908 111.568 281.104 86.0241 302.116L113.216 318.184C139.172 295.524 157.3 259.268 169.66 228.368L142.468 216.832ZM369.892 217.244C357.12 244.024 334.872 280.28 316.744 303.352L343.112 313.652C360.828 291.816 383.488 258.444 400.792 228.368L369.892 217.244ZM235.168 176.868C228.576 286.46 216.628 376.276 62.9521 414.592C69.1321 421.184 77.3721 433.956 80.6681 441.784C186.964 413.356 231.048 360.208 250.824 293.052C277.604 373.392 326.632 420.36 422.216 439.724C425.924 431.484 434.164 418.712 440.756 412.12C328.692 393.168 282.548 333.428 263.596 228.78C265.656 211.888 266.892 194.584 268.128 176.868H235.168ZM212.92 72.22C229.4 87.464 246.704 108.476 256.18 123.308H74.9001V200.764H105.388V152.148H392.14V200.764H424.276V123.308H265.656L287.904 111.772C278.428 96.528 259.476 75.104 241.348 59.036L212.92 72.22Z" fill="black"/>
</svg>
