<svg viewBox="0 0 500 500" fill="none" xmlns="http://www.w3.org/2000/svg">
<path d="M208.8 178.104C231.872 196.644 259.064 223.836 271.424 241.552L294.908 222.188C282.136 204.472 253.708 178.104 231.048 160.388L208.8 178.104ZM113.216 252.264V281.928H337.344C313.86 306.648 283.372 336.724 255.356 363.504C233.932 349.084 211.684 335.488 192.32 323.952L170.484 345.788C216.216 373.804 275.544 415.828 303.56 443.02L327.044 417.064C315.508 406.764 299.44 393.992 281.312 381.22C321.276 342.08 365.772 296.76 396.672 264.212L373.6 250.204L368.244 252.264H113.216ZM254.12 60.272C211.272 118.776 133.404 173.984 58.4199 205.708C67.0719 213.124 76.1359 223.836 81.0799 231.664C142.468 202.824 204.68 159.564 251.648 110.536C298.204 158.328 366.596 205.296 422.216 230.84C427.16 222.188 437.872 209.416 445.288 202.824C386.784 180.164 313.86 133.608 271.012 89.112L282.136 75.104L254.12 60.272Z" fill="black"/>
</svg>
