<svg viewBox="0 0 500 500" fill="none" xmlns="http://www.w3.org/2000/svg">
<path d="M118.984 180.164C107.448 205.296 87.6718 235.372 63.3638 253.5L88.4958 268.744C112.392 248.968 130.932 217.656 144.116 191.7L118.984 180.164ZM189.024 149.264C214.568 161.212 245.056 180.164 259.888 194.584L276.368 174.396C261.124 160.8 229.812 142.26 204.68 131.136L189.024 149.264ZM344.348 197.468C370.716 220.128 400.792 253.088 413.976 274.924L437.46 257.62C423.864 235.784 392.964 204.472 367.008 182.224L344.348 197.468ZM327.456 145.144C295.732 183.872 249.588 216.008 196.44 241.552V173.572H168.424V253.088V254.324C133.816 268.744 96.7358 280.692 59.6558 289.756C65.4238 295.936 74.4878 309.12 78.1958 315.712C111.156 306.236 144.528 294.7 176.252 281.104C184.08 289.344 198.5 291.816 223.632 291.816C232.696 291.816 301.5 291.816 311.388 291.816C347.232 291.816 356.296 279.868 360.416 230.84C352.588 229.192 341.052 225.072 334.048 220.54C332.812 260.504 329.104 266.272 309.328 266.272C294.084 266.272 236.404 266.272 225.28 266.272L209.624 265.448C266.48 237.844 317.568 202.412 353.824 158.328L327.456 145.144ZM110.332 327.248V422.008H361.652V440.136H392.552V323.952H361.652V392.756H264.832V305H233.52V392.756H140.82V327.248H110.332ZM226.104 62.744C230.224 73.044 233.932 86.228 236.404 97.3521H75.7238V178.104H106.212V125.368H393.788V178.104H425.1V97.3521H268.54C266.068 85.404 260.712 70.16 255.356 57.8L226.104 62.744Z" fill="black"/>
</svg>
