<svg viewBox="0 0 500 500" fill="none" xmlns="http://www.w3.org/2000/svg">
<path d="M258.24 171.924V247.732H387.608V171.924H258.24ZM228.576 144.32H279.252C273.072 124.956 258.652 96.1159 244.232 74.2799L269.776 63.1559C285.432 85.4039 301.088 114.244 307.268 133.196L283.372 144.32H341.876C353.824 120.836 368.656 86.6399 376.072 61.9199L407.384 72.6319C397.084 96.5279 384.724 123.308 373.188 144.32H418.096V275.748H366.184V396.052C366.184 406.352 367.42 408 376.484 408C380.192 408 399.556 408 404.912 408C413.564 408 415.212 401.408 416.448 356.088C422.216 361.032 434.576 365.976 442.404 368.036C439.932 421.596 432.516 435.192 407.796 435.192C402.028 435.192 377.72 435.192 372.364 435.192C343.936 435.192 337.344 426.54 337.344 396.052V275.748H303.148C296.144 349.908 278.84 409.648 206.74 442.196C203.032 434.78 193.968 423.656 187.376 418.3C252.884 390.696 267.716 339.196 273.072 275.748H228.576V144.32ZM193.968 65.2159L212.508 89.9359C198.088 95.7039 180.372 101.06 161.832 105.592V180.164H216.628V209.004H161.832V219.304C172.956 229.604 210.036 267.508 218.276 277.396L200.148 302.116C193.556 290.168 175.84 266.684 161.832 248.968V440.96H131.344V258.856C114.452 300.88 93.0281 342.08 72.0161 367.624C68.7201 359.384 60.8921 346.612 55.5361 338.784C81.9041 309.532 109.92 255.972 126.4 209.004H63.7761V180.164H131.344V112.596C112.392 116.304 92.6161 119.6 74.9001 122.072C73.6641 115.48 69.5441 105.18 65.8361 98.1759C110.744 90.3479 163.48 78.3999 193.968 65.2159Z" fill="black"/>
</svg>
