<svg viewBox="0 0 500 500" fill="none" xmlns="http://www.w3.org/2000/svg">
<path d="M143.292 185.108H356.296V214.36H143.292V185.108ZM90.5561 270.392H409.856V298.82H90.5561V270.392ZM72.0161 400.584H428.808V429.012H72.0161V400.584ZM232.696 198.292H265.244V414.592H232.696V198.292ZM125.576 318.184L151.12 308.296C156.339 315.712 161.557 323.952 166.776 333.016C171.995 342.08 176.664 350.869 180.784 359.384C185.179 367.899 188.475 375.589 190.672 382.456L163.892 393.992C161.969 387.4 158.948 379.709 154.828 370.92C150.708 362.131 146.039 353.067 140.82 343.728C135.876 334.389 130.795 325.875 125.576 318.184ZM345.996 307.884L375.248 319.42C367.557 332.329 359.317 345.788 350.528 359.796C341.739 373.529 333.636 385.065 326.22 394.404L302.736 384.516C307.68 377.649 312.761 369.821 317.98 361.032C323.199 351.968 328.28 342.767 333.224 333.428C338.168 324.089 342.425 315.575 345.996 307.884ZM261.948 79.224C271.836 90.76 283.784 102.296 297.792 113.832C311.8 125.093 326.907 135.805 343.112 145.968C359.592 155.856 376.484 164.92 393.788 173.16C411.092 181.125 427.984 187.717 444.464 192.936C441.992 195.133 439.383 197.88 436.636 201.176C433.889 204.197 431.28 207.356 428.808 210.652C426.336 213.948 424.276 216.969 422.628 219.716C406.148 213.673 389.256 206.12 371.952 197.056C354.923 187.992 338.031 177.829 321.276 166.568C304.796 155.307 289.277 143.359 274.72 130.724C260.163 118.089 247.391 105.18 236.404 91.996L261.948 79.224ZM249.588 58.212L278.428 70.984C263.596 93.5066 245.605 114.381 224.456 133.608C203.581 152.56 180.647 169.452 155.652 184.284C130.657 199.116 104.701 211.476 77.7841 221.364C75.3121 216.695 72.1534 211.751 68.3081 206.532C64.4628 201.039 60.4801 196.507 56.3601 192.936C82.4534 184.421 107.723 173.572 132.168 160.388C156.613 147.204 178.999 131.96 199.324 114.656C219.924 97.352 236.679 78.5373 249.588 58.212Z" fill="black"/>
</svg>
