<svg viewBox="0 0 500 500" fill="none" xmlns="http://www.w3.org/2000/svg">
<path d="M179.136 94.468L202.208 83.756C209.075 90.6226 216.079 98.3133 223.22 106.828C230.636 115.068 237.503 123.308 243.82 131.548C250.412 139.513 255.631 146.655 259.476 152.972L234.344 165.332C231.048 159.015 226.241 151.736 219.924 143.496C213.881 135.256 207.289 126.879 200.148 118.364C193.007 109.575 186.003 101.609 179.136 94.468ZM204.68 171.1H233.108V313.652C233.108 321.068 232.147 326.699 230.224 330.544C228.301 334.389 224.593 337.273 219.1 339.196C213.607 341.119 206.053 342.355 196.44 342.904C187.101 343.453 175.565 343.728 161.832 343.728C161.283 339.883 160.184 335.9 158.536 331.78C156.888 327.385 155.24 323.403 153.592 319.832C164.029 320.107 173.231 320.244 181.196 320.244C189.161 320.244 194.517 320.244 197.264 320.244C200.285 319.969 202.208 319.42 203.032 318.596C204.131 317.497 204.68 315.712 204.68 313.24V171.1ZM104.976 171.1H214.568V194.996H104.976V171.1ZM273.072 205.708H302.324V305.824C302.324 311.317 303.56 314.888 306.032 316.536C308.779 318.184 314.959 319.008 324.572 319.008C326.769 319.008 330.889 319.008 336.932 319.008C342.975 319.008 349.567 319.008 356.708 319.008C364.124 319.008 370.991 319.008 377.308 319.008C383.625 319.008 388.295 319.008 391.316 319.008C395.985 319.008 399.419 318.321 401.616 316.948C404.088 315.575 405.873 312.691 406.972 308.296C408.071 303.901 408.757 297.447 409.032 288.932C412.053 291.129 416.173 293.189 421.392 295.112C426.885 297.035 431.692 298.408 435.812 299.232C434.713 311.317 432.653 320.793 429.632 327.66C426.885 334.252 422.765 338.784 417.272 341.256C411.779 343.728 404.088 344.964 394.2 344.964C392.552 344.964 389.256 344.964 384.312 344.964C379.368 344.964 373.737 344.964 367.42 344.964C361.103 344.964 354.785 344.964 348.468 344.964C342.151 344.964 336.52 344.964 331.576 344.964C326.907 344.964 323.611 344.964 321.688 344.964C309.053 344.964 299.165 343.865 292.024 341.668C284.883 339.471 279.939 335.625 277.192 330.132C274.445 324.364 273.072 316.261 273.072 305.824V205.708ZM184.904 370.92L212.92 368.448C215.667 379.16 217.864 390.833 219.512 403.468C221.435 416.103 222.396 426.54 222.396 434.78L192.32 438.488C192.32 429.973 191.633 419.399 190.26 406.764C189.161 393.855 187.376 381.907 184.904 370.92ZM270.188 371.744L298.616 365.976C303.56 376.139 308.229 387.537 312.624 400.172C317.293 412.532 320.452 422.969 322.1 431.484L292.024 438.488C290.376 429.699 287.355 418.987 282.96 406.352C278.84 393.717 274.583 382.181 270.188 371.744ZM355.06 370.508L383.488 360.208C390.08 367.075 396.672 374.628 403.264 382.868C410.131 391.108 416.448 399.348 422.216 407.588C428.259 415.553 432.928 422.832 436.224 429.424L405.736 441.372C402.715 435.055 398.457 427.776 392.964 419.536C387.471 411.296 381.291 402.919 374.424 394.404C367.832 385.615 361.377 377.649 355.06 370.508ZM113.216 359.384L142.468 367.212C136.425 380.671 129.009 394.267 120.22 408C111.431 421.459 101.955 432.857 91.792 442.196L63.364 429.424C72.9773 421.184 82.316 410.747 91.38 398.112C100.444 385.477 107.723 372.568 113.216 359.384ZM76.548 162.448C76.2733 160.251 75.5867 157.504 74.488 154.208C73.3893 150.912 72.1533 147.479 70.78 143.908C69.6813 140.337 68.5827 137.316 67.484 134.844C70.78 134.295 74.076 132.921 77.372 130.724C80.9427 128.527 84.6507 125.643 88.496 122.072C91.2427 119.6 95.6373 115.205 101.68 108.888C107.723 102.571 114.315 95.1547 121.456 86.64C128.597 77.8506 135.189 68.924 141.232 59.86L170.484 69.748C158.948 84.8547 146.588 99.2746 133.404 113.008C120.22 126.741 107.448 138.14 95.088 147.204V148.028C95.088 148.028 94.1267 148.577 92.204 149.676C90.556 150.5 88.496 151.599 86.024 152.972C83.552 154.345 81.3547 155.856 79.432 157.504C77.5093 159.152 76.548 160.8 76.548 162.448ZM76.548 162.448L76.136 141.436L91.792 131.96L229.812 122.484C230.361 125.78 231.185 129.763 232.284 134.432C233.383 138.827 234.344 142.535 235.168 145.556C208.525 147.753 186.277 149.676 168.424 151.324C150.571 152.697 136.013 154.071 124.752 155.444C113.491 156.543 104.701 157.504 98.384 158.328C92.0667 158.877 87.26 159.564 83.964 160.388C80.9427 160.937 78.4707 161.624 76.548 162.448ZM289.14 101.884H409.856V126.604H289.14V101.884ZM288.728 243.612H411.092V267.92H288.728V243.612ZM90.144 171.1H118.16V243.612C118.16 254.599 117.473 266.547 116.1 279.456C115.001 292.365 112.392 305 108.272 317.36C104.427 329.72 98.6587 340.981 90.968 351.144C89.5947 349.496 87.3973 347.573 84.376 345.376C81.6293 342.904 78.7453 340.569 75.724 338.372C72.7027 336.175 70.2307 334.527 68.308 333.428C74.9 324.639 79.7067 315.025 82.728 304.588C86.024 294.151 88.084 283.713 88.908 273.276C89.732 262.564 90.144 252.539 90.144 243.2V171.1ZM115.688 283.576C128.048 280.005 142.743 275.473 159.772 269.98C176.801 264.212 194.38 258.307 212.508 252.264L216.216 270.804C200.285 277.121 184.629 283.439 169.248 289.756C154.141 296.073 139.859 301.979 126.4 307.472L115.688 283.576ZM123.104 223.012L135.464 207.768C142.605 210.515 150.159 213.536 158.124 216.832C166.089 220.128 173.643 223.561 180.784 227.132C188.2 230.428 194.243 233.312 198.912 235.784L186.964 253.5C182.02 250.753 175.84 247.595 168.424 244.024C161.283 240.179 153.729 236.471 145.764 232.9C137.799 229.329 130.245 226.033 123.104 223.012ZM272.66 63.156H301.5V156.268C301.5 162.585 302.461 167.117 304.384 169.864C306.307 172.336 310.289 173.572 316.332 173.572C319.079 173.572 323.885 173.572 330.752 173.572C337.619 173.572 345.172 173.572 353.412 173.572C361.652 173.572 369.205 173.572 376.072 173.572C382.939 173.572 387.745 173.572 390.492 173.572C395.436 173.572 401.341 173.297 408.208 172.748C415.075 172.199 420.293 171.649 423.864 171.1C424.413 174.671 424.825 178.928 425.1 183.872C425.649 188.816 426.199 192.936 426.748 196.232C423.452 197.056 418.508 197.743 411.916 198.292C405.324 198.567 398.595 198.704 391.728 198.704C389.256 198.704 385.411 198.704 380.192 198.704C374.973 198.704 368.931 198.704 362.064 198.704C355.472 198.704 348.88 198.704 342.288 198.704C335.696 198.704 329.928 198.704 324.984 198.704C320.315 198.704 317.156 198.704 315.508 198.704C304.247 198.704 295.457 197.331 289.14 194.584C283.097 191.563 278.84 186.893 276.368 180.576C273.896 174.259 272.66 165.881 272.66 155.444V63.156Z" fill="black"/>
</svg>
