<svg xmlns="http://www.w3.org/2000/svg" viewBox="0 0 500 500"><defs><style>.cls-1{fill:#4b4b4b;}</style></defs><title>字z</title><g id="_2019年" data-name="2019年"><g id="中国国际字-14" data-name="中国国际字"><path id="難-繁体" class="cls-1" d="M438.84,418.29H297.31V439H269.09v-237a269.77,269.77,0,0,1-17.84,26.57c-3.33-3.32-9.55-8.72-15.36-13.7v35.69H170.73v24.49h68.06v23.24H170.73a181.5,181.5,0,0,1-1.66,25.32h80.52v24.07h-85.5l-.83,3.32c26.15,17,57.27,41.09,73,56.86l-17,20.75c-14.53-15.36-40.67-37.35-65.58-54.78-12.86,23.65-35.27,46.48-73,65.15-4.15-6.22-13.28-15.35-19.51-20.75,42.75-19.09,63.09-45.23,72.63-70.55h-71V323.67H140a138.62,138.62,0,0,0,2.07-25.32H76.52V275.11h65.57V250.62h-66V171.77h66.82V153.51H101V111.59H64.48V87.93H101V61.79H128.4V87.93h57.69V61.79h28.63V87.93h33.62v23.66H214.72v41.92H168.65v18.26h67.24v27.8c26.15-36.93,47.31-88,61-138.61l27.8,6.64c-6.64,24.07-15.35,48.55-24.48,71.8H436.76v28.22H379.49v55.2H432.2v26.56H379.49v56.44h53.12v27H379.49v57.27h59.35ZM101,229.87h41.91V192.93H101Zm27.39-96.7h57.69V111.59H128.4Zm81.76,59.76H168.65v36.94h41.51Zm141.52-25.31H297.31v55.2h54.37Zm0,81.76H297.31v56.44h54.37ZM297.31,390.07h54.37V332.8H297.31Zm66-254.82c-4.56-16.19-16.6-40.68-27.39-59.35l26.15-10c11.62,18.26,24.07,42.74,28.63,58.51Z"/></g></g></svg>