<svg xmlns="http://www.w3.org/2000/svg" viewBox="0 0 500 500"><defs><style>.cls-1{fill:#4b4b4b;}</style></defs><title>字z</title><g id="_2011年" data-name="2011年"><g id="中国国际字-6" data-name="中国国际字"><path id="債-繁体" class="cls-1" d="M183.85,65.62c-10.92,29-25.2,58.38-40.74,85.68v286H112.87V198.76C99,218.08,84.73,235.72,70,250.84c-3.78-7.14-13-21.84-18.9-28.56,41.16-39.9,80.64-102.06,104.16-165.06Zm105,319.2c-25.62,23.1-66.36,44.52-100.8,57.54-5-6.3-16.38-18.06-23.52-23.52,34.86-10.5,72.24-26.88,94.5-44.94Zm3.78-282.66H189.73V80.32h102.9V57.22h31.5v23.1H430.81v21.84H324.13v20.58h94.92v21H324.13V166h119.7v22.68H171.25V166H292.63V143.74h-92.4v-21h92.4ZM204,367.18V209.26H417V367.18Zm30.24-111.3h152V230.26h-152Zm0,44.52h152v-26h-152Zm0,44.94h152V318.88h-152ZM365.71,371.8C395.53,388.18,430,410,448.87,425.56l-31.08,17.22c-17.64-16-53.76-41.58-83.16-58Z"/></g></g></svg>