<svg xmlns="http://www.w3.org/2000/svg" viewBox="0 0 500 500"><defs><style>.cls-1{fill:#4b4b4b;}</style></defs><title>字z</title><g id="_2016年" data-name="2016年"><g id="中国国际字-11" data-name="中国国际字"><path id="變-繁体" class="cls-1" d="M368.91,333.42C349,356.25,322,374.51,291.3,389c45.65,12.87,97.94,20.76,149,25.32-5.4,6.64-12.45,17.43-15.77,25.32C366,433.44,307.07,421.82,255.19,404c-54.37,19.1-118.28,29.89-180.95,37.36-2.91-7.06-9.55-19.51-14.53-26.15,55.2-4.56,110.81-12.45,159-26.15-27-11.62-51.47-25.73-71.39-42.33-19.92,15.77-41.92,28.22-63.5,37.77-3.32-5.4-12.86-17.85-18.26-22.83,43.16-17.43,86.74-45.24,109.15-79.68l27,8.3c-4.15,6.64-9.13,12.86-13.7,19.09H424.1v24.07ZM96.23,232.15c-3.32,24.08-8.71,51-15.35,69.31C76.73,299,68,293.16,63,290.67,69.67,273.24,73,250,75.48,228Zm70.56-12c-.83-4.57-2.49-10.38-4.15-16.6-72.22,10.79-83,12.86-89.23,15.77-1.25-4.57-5-16.19-7.47-22.41,7-.83,15.35-7.47,24.9-17,5-4.56,15.35-15.77,27.39-29.88-32.37,2.49-40.26,4.15-44.82,5.81-1.25-5-5-16.6-7.89-22.41,5.81-1.25,11.21-5.81,17-12.45,5.81-7.06,26.14-34.87,37.35-61.84l23.24,8.3c-12.45,23.24-27.39,46.07-41.5,63.5l33.2-1.66c7.89-10,16.19-21.17,22.41-32l22.41,10c-22,31.54-47.31,61.42-71.8,84.67l49.39-5.81a201.08,201.08,0,0,0-10.37-25.32l18.67-5c9.13,19.09,17.85,44,20.75,58.52Zm-48.56,70.14c0-15.77-3.74-39.85-7.47-58.52l19.09-4.15c4.57,18.67,8.3,42.75,9.13,58.1Zm44-8.72c-2.07-14.11-7.47-35.69-12.86-52.29l18.26-5c5.81,16.18,12,37.77,14.11,51.46Zm6.23,51.88c22,17.43,51.46,32,85.91,44.41,30.71-12,56.86-26.15,76.78-44.41ZM313.29,114.29H185.05V95.2h54.37a208.88,208.88,0,0,0-14.11-29.06l23.24-7.47C256,69.05,263.07,84.4,266.81,95.2h46.48Zm-8.71,36.93H193.76V133H304.58ZM304.16,189H193.76V169.9h110.4ZM195.84,284V209.74H302.09V284Zm20.34-18.67h64.74V228.42H216.18Zm200-45.66a138.3,138.3,0,0,0-4.15-18.26c-73.88,10-84.67,12.45-90.89,15.77-1.25-5-4.57-16.18-7.47-22,7.47-1.25,15.35-7.89,24.9-17,5-4.56,15.35-15.77,27-29.88-33.2,2.9-41.08,4.56-45.65,6.64a176.19,176.19,0,0,0-7.47-22.41c5.4-1.25,10.79-5.81,16.6-12.45,5.81-7.06,26.15-34.45,37.77-61l22.83,8.3c-12,23.24-27.4,46.07-42.34,63.08l34-1.66a285.27,285.27,0,0,0,22.82-32.37l22,9.55c-22,30.71-46.07,60.17-69.73,83.42l49.81-5.81a237.87,237.87,0,0,0-10.38-25.74l19.51-4.56c9.13,19.09,18.26,44.82,20.75,60.59Zm-70.56,11.62c-3.32,21.59-8.71,47.32-14.11,63.92a199.07,199.07,0,0,0-18.67-10.79c5.81-17,9.13-38.6,11.62-58.52Zm23.25,57.28c0-15.77-2.91-40.26-7.48-58.94l19.1-3.32c5,18.26,8.3,42.75,8.71,58.11Zm46.48-2.91c-2.49-16.18-9.13-41.09-14.94-60.18l18.26-5c7.05,19.09,13.28,44,16.18,59.77Z"/></g></g></svg>