<svg xmlns="http://www.w3.org/2000/svg" viewBox="0 0 500 500"><defs><style>.cls-1{fill:#4b4b4b;}</style></defs><title>字z</title><g id="_2011年" data-name="2011年"><g id="日本-6" data-name="日本"><path id="絆-繁体" class="cls-1" d="M106.4,331.14c-4.56,37.35-12.45,78-21.58,103.75a188.16,188.16,0,0,0-24.49-8.71c9.55-26.56,16.19-64.75,20.34-99.61Zm76.37-18.68c-1.25-7-2.91-14.94-5.4-24.07C92.7,301.26,80.25,304.58,72.78,308.73c-1.66-6.23-6.22-21.17-9.54-29.06,8.3-1.66,17.84-12,29.88-27,6.64-7.47,19.51-24.49,34.45-46.9-43.17,5.39-51.88,7-57.69,9.55-1.66-5.81-6.23-19.93-9.13-27.4,6.64-1.66,13.69-10.37,22.41-22.82s37.35-59.77,54-105l27.81,11.62c-17.43,39.42-40.67,80.1-63.5,111.64L145,179.24a520,520,0,0,0,29.88-53.54l27,15.77c-26.56,47.31-58.52,94.63-91.72,132l60.59-8.72C167,251,162,237.34,157.45,224.48l23.66-6.23c10.79,28.22,22.41,64.33,26.14,86.33Zm-35.28,12.87c5.39,29.46,10.79,67.23,12.45,92.55L135,422.44c-.83-25.31-5.81-63.5-10.79-92.55Zm40.26-9.55c9.54,25.32,19.5,58.52,24.07,80.1l-23.24,7.89c-3.74-22.41-14.12-55.62-22.83-81.35ZM439.67,322H341.31V439.87H311V322H213.48v-30.3H311V230.29H221.36V200H311V61.37h30.3V200h86.32v30.3H341.31v61.42h98.36ZM266.6,187.12c-9.13-23.65-29.88-61-46.9-88.81l25.32-10c17.43,27.39,37.77,63.08,47.73,86.32Zm163.52-93c-13.69,32.78-32.37,71.38-46.9,95.87a246.94,246.94,0,0,0-25.73-12.87c15.36-24.9,32.79-60.18,44.41-90.47Z"/></g></g></svg>