<svg xmlns="http://www.w3.org/2000/svg" viewBox="0 0 500 500"><defs><style>.cls-1{fill:#4b4b4b;}</style></defs><title>字z</title><g id="_2011年" data-name="2011年"><g id="日本-6" data-name="日本"><path id="绊" class="cls-1" d="M197.91,275.52a141.9,141.9,0,0,0,0,26.57C94.16,322.84,80.05,327,71.75,332c-1.66-6.23-6.23-20.34-10-27.81,9.13-2.07,18.67-12.45,31.12-27.81,7.89-8.3,24.07-29.46,42.34-56-50.22,7-60.18,9.54-66,12.45a206.2,206.2,0,0,0-10.38-29.06c7.47-1.66,14.53-12,23.66-25.73,9.54-13.69,38.59-68.06,54.78-117.86L166,73.41c-17.85,44-41.51,89.64-66,125.33l53.54-5.81c8.71-14.94,18.26-30.29,25.73-45.65l25.31,15.77c-26.14,45.24-57.27,90.48-88.81,127.42ZM63.45,383.85c35.27-7.06,88.4-19.09,140.27-31.13l2.49,26.56c-48.55,12.45-98.77,24.9-136.95,34ZM441.12,322h-105V439.87H306.24V322H209.12V293h97.12v-68.9H221.57V195.42h84.67V61h29.88V195.42h90.47v28.64H336.12V293h105ZM255.6,183c-4.56-23.24-19.92-60.18-35.69-88.4L245.64,84.2c16.19,27.39,32,63.5,37.77,86.32ZM426.18,89.59c-14.11,31.13-31.13,68.07-44.82,91.72l-24.08-9.54c12.87-24.9,29.89-64.75,38.19-92.55Z"/></g></g></svg>