<svg viewBox="0 0 500 500" fill="none" xmlns="http://www.w3.org/2000/svg">
<path d="M210.448 304.176V438.9H238.052V422.832H369.48V437.664H397.908V304.176H316.332V267.096H425.512V239.904H316.332V199.116H376.896V172.336H235.168V199.116H289.552V239.904H189.436V267.096H289.552V304.176H210.448ZM238.052 396.464V330.956H369.48V396.464H238.052ZM116.1 62.3319V145.144H68.308V173.984H116.1V264.624L62.54 280.692L69.132 311.592L116.1 295.112V402.232C116.1 408 114.04 409.648 109.096 409.648C104.564 410.06 88.908 410.06 71.192 409.648C75.312 417.888 78.608 430.66 79.432 438.076C104.976 438.488 120.632 437.252 130.108 432.308C139.996 427.776 143.704 419.124 143.704 402.232V285.224L179.96 272.04L176.252 245.672L143.704 255.972V173.984H179.548L171.72 178.104C176.664 183.872 185.316 195.82 188.612 201.588C230.224 178.104 270.6 143.496 299.44 100.236C332.812 137.728 384.724 176.044 428.808 199.528C432.104 192.112 438.696 180.164 444.876 173.16C399.144 152.56 343.112 113.008 313.448 77.1639L318.392 67.6879L294.496 59.0359C270.6 106.828 228.164 146.792 182.02 172.748V145.144H143.704V62.3319H116.1Z" fill="black"/>
</svg>
