<svg viewBox="0 0 500 500" fill="none" xmlns="http://www.w3.org/2000/svg">
<path d="M185.316 362.268C190.26 386.576 193.556 418.3 193.556 437.252L224.044 433.132C223.632 414.592 219.1 383.28 213.744 359.384L185.316 362.268ZM270.188 361.444C280.9 385.34 291.2 417.476 294.908 436.84L325.396 430.248C321.688 410.884 310.152 379.572 299.028 356.088L270.188 361.444ZM355.472 361.032C374.836 385.34 397.908 419.536 407.384 440.548L437.048 426.952C426.336 405.94 403.264 372.98 383.488 349.084L355.472 361.032ZM115.688 352.792C101.68 380.396 80.256 411.296 61.716 429.836L90.556 442.196C109.508 421.184 130.52 388.636 144.94 361.032L115.688 352.792ZM148.236 61.9199V89.9359H79.02V113.008H148.236V138.964H85.2V163.272H234.756V138.964H177.488V113.008H240.936V89.9359H177.488V61.9199H148.236ZM282.136 202.824C298.616 217.244 316.744 234.136 334.46 251.028C311.388 281.516 280.488 304.176 240.524 320.244C246.704 326.012 257.004 338.372 260.712 344.552C299.852 326.424 331.164 302.528 355.472 272.04C378.956 295.524 400.38 318.596 414.8 336.312L437.048 314.888C421.804 297.172 398.32 272.864 372.364 247.732C389.668 220.128 402.44 187.168 411.092 148.44H435.812V121.248H314.684C321.688 103.12 327.868 83.7559 332.812 64.3919L302.736 58.2119C290.788 109.712 268.952 158.328 238.876 189.64L248.764 196.644H184.08L187.376 195.82C184.08 187.58 176.664 174.396 170.072 164.92L142.88 171.1C147.412 178.928 152.356 188.404 155.652 196.644H65.836V220.54H128.46C122.692 265.448 108.684 303.352 65.012 324.776C71.604 329.308 79.844 339.196 83.14 346.2C118.16 328.072 137.112 301.292 147.412 268.332H210.86C208.388 297.584 205.092 309.944 200.56 314.064C198.088 316.948 194.792 317.36 189.024 317.36C183.256 317.36 167.6 317.36 151.532 315.712C155.24 322.304 158.124 332.604 158.536 339.196C175.428 340.844 192.32 340.432 200.972 340.02C210.448 339.196 217.04 337.136 222.808 331.368C231.048 322.716 235.58 302.94 239.288 256.384C239.7 252.676 240.112 245.26 240.112 245.26H153.18C154.828 237.432 156.476 229.192 157.3 220.54H249.176V197.056C254.944 201.176 260.712 206.12 263.596 209.004C278.016 192.524 291.2 171.924 302.736 148.44H379.78C373.188 178.104 363.712 204.472 350.528 227.132C334.872 212.3 318.392 197.88 303.56 185.108L282.136 202.824Z" fill="black"/>
</svg>
