<svg viewBox="0 0 500 500" fill="none" xmlns="http://www.w3.org/2000/svg">
<path d="M315.096 80.872L332.812 62.744C344.073 66.5893 355.609 71.9453 367.42 78.812C379.505 85.404 388.844 91.8587 395.436 98.176L376.484 118.776C370.167 112.459 361.103 105.729 349.292 98.588C337.756 91.4467 326.357 85.5413 315.096 80.872ZM69.956 113.42H430.456V140.612H69.956V113.42ZM65.012 287.284C80.3933 286.185 98.1093 284.675 118.16 282.752C138.211 280.829 159.497 278.769 182.02 276.572C204.543 274.1 227.065 271.628 249.588 269.156L250 295.112C228.027 297.584 206.053 300.056 184.08 302.528C162.107 305 141.095 307.335 121.044 309.532C101.268 311.455 83.2773 313.24 67.072 314.888L65.012 287.284ZM365.772 157.916L394.612 164.92C381.977 197.88 364.673 227.269 342.7 253.088C320.727 278.907 296.419 300.193 269.776 316.948C268.403 314.751 266.205 312.416 263.184 309.944C260.437 307.197 257.553 304.451 254.532 301.704C251.785 298.957 249.176 296.897 246.704 295.524C273.347 280.417 296.968 261.191 317.568 237.844C338.443 214.223 354.511 187.58 365.772 157.916ZM250.412 61.92H280.9C281.999 87.1893 284.883 111.36 289.552 134.432C294.221 157.229 300.264 178.241 307.68 197.468C315.096 216.42 323.336 232.9 332.4 246.908C341.739 260.916 351.489 271.903 361.652 279.868C372.089 287.559 382.389 291.404 392.552 291.404C398.595 291.129 402.852 287.284 405.324 279.868C408.071 272.177 409.993 259.131 411.092 240.728C414.113 243.749 417.959 246.496 422.628 248.968C427.572 251.44 432.104 253.363 436.224 254.736C434.301 272.04 431.555 285.499 427.984 295.112C424.688 304.725 420.019 311.455 413.976 315.3C408.208 318.871 400.655 320.656 391.316 320.656C376.209 320.656 361.927 316.261 348.468 307.472C335.284 298.683 322.924 286.185 311.388 269.98C299.852 253.775 289.689 234.823 280.9 213.124C272.385 191.425 265.519 167.804 260.3 142.26C255.081 116.441 251.785 89.6613 250.412 61.92ZM154.416 337.96H184.904V396.052C184.904 401.271 186.689 404.704 190.26 406.352C193.831 408 201.796 408.824 214.156 408.824C216.628 408.824 220.748 408.824 226.516 408.824C232.284 408.824 238.739 408.824 245.88 408.824C253.296 408.824 260.712 408.824 268.128 408.824C275.544 408.824 282.273 408.824 288.316 408.824C294.633 408.824 299.303 408.824 302.324 408.824C309.191 408.824 314.272 408 317.568 406.352C321.139 404.429 323.611 400.584 324.984 394.816C326.357 389.048 327.319 380.259 327.868 368.448C330.34 369.821 333.087 371.332 336.108 372.98C339.404 374.353 342.7 375.589 345.996 376.688C349.567 377.787 352.725 378.611 355.472 379.16C354.099 394.267 351.764 405.94 348.468 414.18C345.447 422.42 340.503 428.051 333.636 431.072C326.769 434.093 317.293 435.604 305.208 435.604C303.011 435.604 298.753 435.604 292.436 435.604C286.393 435.604 279.252 435.604 271.012 435.604C262.772 435.604 254.532 435.604 246.292 435.604C238.327 435.604 231.185 435.604 224.868 435.604C218.825 435.604 214.843 435.604 212.92 435.604C197.539 435.604 185.591 434.505 177.076 432.308C168.561 430.111 162.656 426.128 159.36 420.36C156.064 414.867 154.416 406.901 154.416 396.464V337.96ZM209.624 329.72L228.988 311.592C237.777 315.712 246.704 320.519 255.768 326.012C264.832 331.505 273.347 337.273 281.312 343.316C289.277 349.359 295.732 355.127 300.676 360.62L280.488 380.396C275.819 374.903 269.639 369.135 261.948 363.092C254.257 356.775 245.88 350.732 236.816 344.964C227.752 338.921 218.688 333.84 209.624 329.72ZM356.708 342.904L384.724 333.428C391.316 341.943 397.771 351.281 404.088 361.444C410.68 371.607 416.585 381.632 421.804 391.52C427.023 401.133 431.005 409.923 433.752 417.888L403.676 428.6C401.204 420.909 397.359 412.12 392.14 402.232C387.196 392.344 381.565 382.181 375.248 371.744C369.205 361.307 363.025 351.693 356.708 342.904ZM104.976 333.428L132.58 344.552C129.833 353.616 126.537 363.367 122.692 373.804C118.847 384.241 114.452 394.404 109.508 404.292C104.839 414.18 99.7573 422.969 94.264 430.66L66.66 415.416C72.1533 408.275 77.2346 400.035 81.904 390.696C86.848 381.357 91.2426 371.744 95.088 361.856C99.208 351.968 102.504 342.492 104.976 333.428ZM125.164 187.992V227.132H200.148V187.992H125.164ZM97.148 165.744H228.988V249.38H97.148V165.744Z" fill="black"/>
</svg>
