<svg xmlns="http://www.w3.org/2000/svg" viewBox="0 0 500 500"><defs><style>.cls-1{fill:#4b4b4b;}</style></defs><title>字z</title><g id="_2015年" data-name="2015年"><g id="新加坡-5" data-name="新加坡"><path id="耀" class="cls-1" d="M226.55,336.74c1.25,7.47,3.74,18.26,6.23,24.07-61.84,30.71-71.8,36.94-78.44,43.58-1.66-6.64-7.47-18.26-12-23.66,6.23-2.9,13.28-9.13,13.28-25.73V231.74H126.53C124.45,321,116.57,389.45,78,431c-4.15-6.64-12.86-16.18-19.92-20.75C91.67,374.09,97.89,311.84,100,231.74H62.2V202.69h64.33V64.48h27V202.69H222.4v29.05H182.14V357.08ZM87.93,189.41c-3.32-25.74-12.86-64.75-20.75-94.21l21.17-5c9.54,30.3,18.67,68.07,22.41,93.39ZM217,94.36c-10,31.13-22.42,71-32.79,95.46L163.88,184c10-25.32,22-67.23,27.81-95.87ZM442,419.75H271.37v15.77h-27.8V287.77c-7.89,10.37-16.19,18.67-24.49,26.56-3.73-5-12.87-15.36-18.68-20.34,26.15-22.82,50.22-57.27,64.33-92.13l25.32,7.47c-4.57,10.37-9.13,21.16-14.94,31.12h56.44c-4.15-10-9.13-20.75-12.86-29.46l22.41-7.47c5.39,10.79,12.86,25.73,17.84,36.93h73.88v22.83H358.53v29.05h67.65v22H358.53V343.8h67.65v22H358.53v31.13H442ZM217.42,181.11c19.92-7.06,47.31-19.93,76-32.38V93.53H227.8V71.12h90.89V206H293.37V171.14c-24.07,11.21-47.73,22.42-68.48,32Zm47.73-28.64c-7.89-9.55-24.07-24.07-36.52-34.86l14.52-14.53c12.87,10.38,29,24.49,37.77,33.62ZM332,263.28h-60.6v29.05H332Zm0,51.05h-60.6V343.8H332Zm-60.6,82.59H332V365.79h-60.6ZM327,179.86c19.92-7.47,46.9-19.92,75.12-32.37v-54H334.87V71.12h93V206H402.11v-35.7c-23.66,11.21-47.32,22-67.65,31.55Zm47.31-28.22c-8.3-9.55-24.49-24.07-36.94-34.86l14.94-14.11c12.87,10,28.64,24.07,36.94,33.2Z"/></g></g></svg>