<svg viewBox="0 0 240 240" fill="none" xmlns="http://www.w3.org/2000/svg">
<path d="M76.5 35.5C99.5001 97.5 99.5 142.5 76.5 204.5C111 151 109 83 76.5 35.5Z" fill="#25F479" stroke="#181926"/>
<path d="M163.5 204.5C140.5 142.5 140.5 97.5001 163.5 35.5C129 89 127 157 163.5 204.5Z" fill="#25F479" stroke="#181926"/>
<path d="M163 205L215 205C170 201 170 39.0001 215 35H163C140 97.0001 140 143 163 205Z" fill="#181926"/>
<path d="M209 78L83 134.5V123L209 78Z" fill="#25F479"/>
<path d="M209 78C209 78 150.5 104.5 147 106C147 105 147.3 102 147.5 101C152.5 99 209 78 209 78Z" fill="white"/>
<path d="M77 35L25 35C70 39 70 201 25 205H77C100 143 100 97 77 35Z" fill="#181926"/>
<path d="M209 78L83 99V125L209 78Z" fill="#181926"/>
<path d="M83 144V133L199 82.5L83 144Z" fill="#181926"/>
</svg>
