<svg xmlns="http://www.w3.org/2000/svg" viewBox="0 0 500 500"><defs><style>.cls-1{fill:#4b4b4b;}</style></defs><title>字z</title><g id="_2018年" data-name="2018年"><g id="美国-2" data-name="美国"><path id="戰-繁体" class="cls-1" d="M179.86,372.64v66H150.39v-66H57V345.25h93.38V316.2H74.44V175.5H259.13V316.2H179.86v29.05h91.72v27.39ZM157,155.17H71.12V70.92H157ZM133,92.5H94.78v40.67H133ZM100.59,234h51.46V199.57H100.59Zm0,58.11h51.46V256.85H100.59Zm162.69-137H176.13V70.92h87.15Zm-31.13,44.4H178.62V234h53.53Zm0,57.28H178.62v35.28h53.53ZM238.79,92.5H199.37v40.67h39.42ZM422.24,225.72A409.13,409.13,0,0,1,363.72,341.1c10.37,37.35,23.24,60.18,38.18,61.42,8.3,0,14.11-22.41,17.43-63.5,5.4,6.23,18.26,13.28,23.66,15.77-8.3,66-23.24,84.25-40.26,83.42-27-1.24-46.48-26.56-61.42-69.3-24.08,27-51.47,49.38-81.35,65.15-4.56-7.47-13.28-17.43-21.17-22.82,34.87-16.19,66.82-42.75,93-74.71-8.72-36.52-15.36-81.34-19.92-132l-44,5.81-4.15-28.22,45.65-5.81c-2.91-36.1-5-74.7-6.23-115h29.47c.83,38.6,2.91,76.37,5.81,111.23l97.12-12,4.15,27.81-99.19,12.86c3.73,38.6,8.71,73.88,14.52,103.76a382.44,382.44,0,0,0,44.41-93Zm-17-76.78c-7.89-19.51-28.64-49-47.73-70.55l22-13.28c19.92,20.75,40.67,49,49.39,68.47Z"/></g></g></svg>