<svg id="_2006年" data-name="2006年" xmlns="http://www.w3.org/2000/svg" viewBox="0 0 500 500"><defs><style>.cls-1{fill:#4b4b4b;}</style></defs><title>字z</title><g id="日本"><path id="命" class="cls-1" d="M276.25,73.6c-2.52,3.36-4.2,6.3-7.14,9.24,38.22,42.84,108.78,83.58,175.14,100.8-7.56,6.72-17.22,20.58-22.68,29.4-30.24-9.24-61.32-24.36-90.3-42.42v28.56H164.53V172.72c-29.4,17.64-60.48,32.76-91.14,42.42-3.78-8.82-10.92-21.84-17.64-30.24,76.86-20.58,157.08-73.5,196.14-129.36ZM222.07,376.42h-98.7V411.7h-29V233.62H222.07Zm-98.7-115.08V348.7h69.3V261.34Zm207.48-90.72c-30.66-19.32-58-42-79.8-66.78-22.68,24.36-51.66,47.46-83.16,66.78Zm76.44,180.6c0,16.38-3.36,25.2-15.12,30.24-11.76,5.46-31.5,5.46-63.42,5.46-1.26-8.82-5.46-20.58-9.24-29,23.52.84,43.68.42,49.56.42,6.3-.42,8-2.1,8-7.56v-89H296.41v182.7H265.75V233.2H407.29Z"/></g></svg>