<svg xmlns="http://www.w3.org/2000/svg" viewBox="0 0 500 500"><defs><style>.cls-1{fill:#4b4b4b;}</style></defs><title>字z</title><g id="_2007年" data-name="2007年"><g id="日本-2" data-name="日本"><path id="偽-繁体" class="cls-1" d="M447,283.05s-.42,9.24-1.26,13c-6.72,88.2-13.86,121.8-26,134.4-8,8-16.38,10.5-29,11.34-10.92.42-30.66.42-50.4-.84a71.7,71.7,0,0,0-8.82-25.62c21,2.1,41.16,2.1,49.14,2.1,7.14.42,10.92-.42,15.12-3.78,8.4-8,14.7-36.54,20.16-105H219.34a432.52,432.52,0,0,1-60.48,53.76,157.23,157.23,0,0,0-16.8-16.8v93.24H112.24V204.51a486,486,0,0,1-39.9,48.72C68.56,246.51,58.9,231.39,53,224.67c40.32-39.9,79.38-102,102.48-165L184.9,68a652.65,652.65,0,0,1-42.84,89.87V335.55c60.06-42,107.1-101.22,142.38-173H178.6v-26h118a721.33,721.33,0,0,0,29-78.53l29,7.14c-8,24.78-16.8,48.71-26,71.39h50.4v.42h21.42c-3.36,23.94-7.56,51.66-11.76,72.66h34c-3.36,23.94-7.56,52.08-11.76,73.5ZM164.32,416.19C184.48,397.29,197.08,365,203.8,336l23.94,8.4c-7.14,30.66-18.9,66.36-40.32,88.2ZM234.88,132.7c-5-16.38-17.22-43.26-29.4-63l23.94-10.08c13,19.32,26,44.93,31.5,61.31Zm42,102.05A525.83,525.83,0,0,1,242,283.05H381.46c2.94-14.28,5.88-31.5,8.4-48.3ZM273.1,341.43c7.56,23.52,13.44,53.76,13.44,72.66l-24.78,4.62c0-18.9-5-49.56-12.18-73.5Zm43.68-178.92c-7.56,16.38-16,31.92-24.36,47h67.2c2.94-13.86,5.46-30.66,8-47Zm2.1,170.94c10.5,19.32,21.84,43.68,25.62,60.06l-22.68,8.4c-3.36-16-13.44-41.58-23.94-60.9Zm55,47c-5-13.44-18.06-33.6-30.66-48.3l18.06-10.5c13,14.28,26.88,33.6,31.5,47.46Z"/></g></g></svg>