<svg xmlns="http://www.w3.org/2000/svg" viewBox="0 0 500 500"><defs><style>.cls-1{fill:#4b4b4b;}</style></defs><title>字z</title><g id="_2014年" data-name="2014年"><g id="日本-9" data-name="日本"><path id="稅-繁体" class="cls-1" d="M183.6,304.37c-5.4-12-18.68-35.69-29.89-54.37V437.18H126.32V248.75c-14.52,44.41-34,89.24-53.12,115.8a198.73,198.73,0,0,0-15.36-29.47c22.83-29.88,47.32-83,61-130.32H64.07v-29h62.25V108.06c-16.6,4.15-33.2,7.47-49.39,10-1.24-7-4.15-17.43-7.88-24.49,39.43-7.47,85.08-19.5,111.64-32.78l17.43,24.9a344,344,0,0,1-44.41,15.77v74.29h48.15v29H153.71v11.62c10,12.45,40.26,52.71,46.9,62.67Zm220,100c8.3,0,10.38-6.23,11.21-49C421,360,433,365,441.33,367c-2.91,52.29-10.79,65.57-34.86,65.57h-35.7c-29.46,0-36.1-9.13-36.1-39.84V291.92h-38.6c-6.23,66-24.07,118.28-89.23,147.33C203.52,432.2,195.22,421,188.58,416c57.27-24.07,71.8-68.89,77.61-124.09H234.64v-122c-5.81,6.64-10.79,12.87-16.6,17.85-4.56-5.4-14.52-16.61-20.75-22,28.22-24.49,55.62-62.67,71.8-101.68l26.15,9.13c-14.94,35.28-36.94,69.31-60.18,96.28H403.14c-27.39-26.14-54.36-63.49-71.38-98.77l22.83-10c18.67,39.43,54.78,81.76,87.57,102.09-6.23,5.81-14.53,16.61-19.09,23.66a118.48,118.48,0,0,1-19.51-16.6v122h-39V392.77c0,10,1.66,11.62,10.37,11.62ZM263.7,264.11H373.26V196.88H263.7Z"/></g></g></svg>