<svg xmlns="http://www.w3.org/2000/svg" viewBox="0 0 500 500"><defs><style>.cls-1{fill:#4b4b4b;}</style></defs><title>字z</title><g id="_2014年" data-name="2014年"><g id="日本-9" data-name="日本"><path id="税" class="cls-1" d="M201.44,299.8c-7.05-12-24.48-35.69-38.6-53.54V438.84H132.55v-183c-17,42.33-38.6,83.84-59.77,109.57-3.32-8.3-11.2-21.17-16.18-28.22,25.73-29.47,54.37-83,70.55-130.32H64.48V177.79h68.07V110.14c-19.09,3.73-38.6,7-56.86,9.54-1.25-6.64-5.4-17-8.72-24.07C111.8,88.55,164.5,76.1,194.8,62.82l18.68,24.9a387.22,387.22,0,0,1-50.64,15.78v74.29h54.79v29.05H162.84v10c11.21,10.79,48.15,48.56,56.45,58.52ZM405.63,405.63c9.14,0,10.38-6.64,11.63-51.87,6.22,5,17.84,9.54,26.14,12C440.5,419.33,433,433,408.54,433H372.85c-28.22,0-34.86-8.72-34.86-39V273.24H303.54c-6.64,74.29-24.07,133.64-96.29,166.84-3.32-7.47-12-18.67-19.09-24.07,66-27.39,80.1-79.27,85.91-142.77H229.66V142.09h51C274.49,123,260,93.53,245,72l25.73-10.79c14.94,22,31.13,50.64,36.94,70.14l-23.24,10.79h58.1c12-23.65,27-57.27,34.45-82.17l30.71,10.79C397.33,94,385.3,120.93,374.09,142.09H418.5V273.24H366.62V394c0,10,1.66,11.62,10.38,11.62ZM259.13,245.85H388.2V169.9H259.13Z"/></g></g></svg>