<svg xmlns="http://www.w3.org/2000/svg" viewBox="0 0 500 500"><defs><style>.cls-1{fill:#4b4b4b;}</style></defs><title>字z</title><g id="_2017年" data-name="2017年"><g id="日本-12" data-name="日本"><path id="北" class="cls-1" d="M175.5,67.18H207V432.82H175.5V341.1c-36.93,16.18-74.7,31.54-104.58,44L56.8,354.38c30.3-10,74.29-27,118.7-44V194.18H69.26v-30.3H175.5Zm212.5,330c19.5,0,22.41-17,25.31-85.91,8.3,6.22,21.17,12.45,29.89,14.52-3.74,75.54-12.46,101.68-52.71,101.68H325.74c-39,0-50.22-12-50.22-55.61V67.18h31.55V205c38.59-23.66,77.61-51.46,102.51-75.12l24.9,25.73c-34.86,28.22-83,56.86-127.41,81.35v135.3c0,21.16,3.32,24.9,21.58,24.9Z"/></g></g></svg>