<svg xmlns="http://www.w3.org/2000/svg" viewBox="0 0 500 500"><defs><style>.cls-1{fill:#4b4b4b;}</style></defs><title>字z</title><g id="_2019年" data-name="2019年"><g id="日本-14" data-name="日本"><path id="令-繁体" class="cls-1" d="M272.62,74.65c-2.49,2.91-4.15,6.23-6.64,9.13,41.92,44.41,114.13,90.48,172.65,112.89-7.47,7.05-17.85,20.34-23.24,28.64-55.2-24.91-123.26-72.63-168.5-119.53-44.83,48.14-105,92.13-163.11,120.77-5-7.88-14.11-18.26-22.41-26.15,69.31-30.71,142.77-85.49,183.44-140.69ZM395.47,255.19c-32.38,34.86-79.69,83-121.19,123.68,17,12.86,32.37,25.31,42.75,35.69L294.2,440.29c-26.15-27.81-83.42-71-127.41-99.61l21.16-22c18.68,11.62,40.26,25.73,60.6,40.67,29.88-28.22,62.67-60.59,88-86.74H116.15V242.74H367.24l5-1.66Zm-71-74.71v28.64H169.28V180.48Z"/></g></g></svg>