<svg xmlns="http://www.w3.org/2000/svg" viewBox="0 0 500 500"><defs><style>.cls-1{fill:#4b4b4b;}</style></defs><title>字z</title><g id="_2019年" data-name="2019年"><g id="日本-14" data-name="日本"><path id="令" class="cls-1" d="M280.3,73.61c-3.74,4.57-7.47,9.13-11.21,14.11C311.84,132.13,384.47,178.62,443,201c-7.47,6.64-17.43,19.5-22.83,27.8C365,203.52,296.48,156.62,250,108.89,203.1,158.28,140.85,201,79,229.66a151.52,151.52,0,0,0-22-25.73c74.71-31.54,152.32-86.32,195.07-145.26ZM394.43,262.87c-30.71,32.37-75.54,77.61-115.38,116.62,17.85,12.86,34,25.73,46.07,36.11l-23.66,25.73c-28.22-27.39-87.15-69.31-132.81-97.12l22-22c19.51,11.21,41.5,25.74,63.09,39.85,28.22-27,58.51-57.28,82.17-81.76H111.38V250.41H366.62l5.4-1.66ZM269.92,240c-12.45-18.26-39.84-45.24-62.67-63.91l22-17.44c22.41,17.85,51.05,44,63.91,61.43Z"/></g></g></svg>