<svg xmlns="http://www.w3.org/2000/svg" viewBox="0 0 500 500"><defs><style>.cls-1{fill:#4b4b4b;}</style></defs><title>密</title><g id="_2020年" data-name="2020年"><g id="日本-15" data-name="日本"><path id="密" class="cls-1" d="M225.31,292.75c-25.32,0-39.85-2.49-47.32-10.79a875.58,875.58,0,0,1-98.77,34.86c-3.74-6.64-12.45-19.51-18.26-25.73,37.35-9.55,74.7-21.17,109.15-35.69V174.88h27.8v68.06c53.13-25.73,99.61-57.68,130.74-96.7l26.56,12.87c-36.11,44-87.57,79.68-144.43,107.49,4.15.83,9.55.83,16.19.83H310.8c19.92,0,23.24-5.81,25.32-46.07,6.64,5,17.84,9.13,25.73,10.79-4.15,48.56-12.87,60.6-49,60.6Zm-79.69-100C132.34,218.46,114.08,250,90,269.92L65.11,255c24.07-18.26,44-49,55.19-73.87ZM107.44,179H77.14V98.52h161A241.7,241.7,0,0,0,227.8,63.65l29.05-5a264.85,264.85,0,0,1,13.28,39.85H426.59V179H395.47V126.32h-288ZM363.51,324.7h30.3V441.33h-30.3V423.48H112V328h30.3v66h93V306H266v88h97.53ZM261.83,196.05c-14.94-14.94-45.65-34-71.39-45.66l16.19-17.84c24.9,10.79,56,29,71.38,43.58Zm106.66-12.87c25.73,22.41,56.44,53.95,70.55,75.95l-23.65,17c-12.87-22-43.16-54.79-68.9-77.61Z"/></g></g></svg>