<svg xmlns="http://www.w3.org/2000/svg" viewBox="0 0 500 500"><defs><style>.cls-1{fill:#4b4b4b;}</style></defs><title>字z</title><g id="_2021年" data-name="2021年"><g id="日本-16" data-name="日本"><path id="金" class="cls-1" d="M264.37,220.64v56.64H409.7v28.31H264.37V407.2H428.44v28.73H70.73V407.2H232.3V305.59H89.47V277.28H232.3V220.64h-90v-22.9a498.78,498.78,0,0,1-66.21,30.4c-4.58-8.75-12.91-21.24-20.82-28.32C132.78,174.42,209.4,125.7,249,64.07l28.32,13.32c-2.92,4.58-6.67,10-10.41,15,41.22,44.14,114.51,87.45,177.81,107.44-7.5,6.25-17.08,18.74-21.66,27.07a488.77,488.77,0,0,1-67-32.07v25.82ZM149.85,314.75c16.24,23.32,33.31,54.56,40,74.54l-27.07,11.25c-5.83-19.16-22.49-52.06-38.31-75.38ZM351,191.91c-37.48-22.07-74.12-50-101.19-78.29-27.48,30-60.8,56.63-97.44,78.29ZM302.26,391.38c14.58-20.41,33.32-53.31,43.31-76.63L374.72,326c-15,26.23-34.15,55.8-49.14,75.37Z"/></g></g></svg>