<svg viewBox="0 0 500 500" fill="none" xmlns="http://www.w3.org/2000/svg">
<path d="M84.7879 248.556C83.5519 321.892 79.0199 388.224 54.7119 429.836C62.1279 433.132 75.7239 440.548 81.0799 444.256C93.0279 421.596 100.856 392.756 105.8 360.208C135.464 416.652 184.904 430.248 272.66 430.248H431.28C433.34 421.184 438.696 406.764 444.052 399.76C418.096 400.996 292.436 400.996 272.248 400.584C233.52 400.584 203.032 397.7 179.136 388.636V304.588H246.292V277.396H179.136V216.008H250.412V187.992H172.544V136.08H240.112V108.476H172.544V62.332H143.292V108.476H74.4879V136.08H143.292V187.992H63.7759V216.008H150.708V372.98C132.992 358.972 120.632 337.96 111.156 307.472C112.392 289.344 113.628 270.392 114.04 250.616L84.7879 248.556ZM269.776 195.408V330.132C269.776 365.152 281.312 374.216 320.04 374.216C328.28 374.216 383.488 374.216 392.552 374.216C427.572 374.216 436.636 358.972 440.344 300.468C432.104 298.408 419.332 293.464 412.74 288.108C410.68 337.96 408.208 346.2 390.492 346.2C377.72 346.2 331.988 346.2 322.924 346.2C303.148 346.2 299.44 343.728 299.44 330.132V223.012H387.196V233.312H416.86V81.696H265.656V108.888H387.196V195.408H269.776Z" fill="black"/>
</svg>
