<svg viewBox="0 0 500 500" fill="none" xmlns="http://www.w3.org/2000/svg">
<path d="M130.932 145.144C121.868 184.696 104.152 231.664 78.1962 260.916L107.86 275.748C133.816 245.672 150.708 195.408 161.008 154.208L130.932 145.144ZM387.196 145.144C374.424 181.4 350.528 231.664 331.576 262.564L357.532 274.512C377.308 244.436 402.028 197.056 420.156 157.916L387.196 145.144ZM259.476 222.188L258.24 222.6C266.068 172.748 266.48 119.6 266.892 66.452H233.108C231.872 211.888 236.816 353.616 65.0122 416.24C72.8402 422.42 82.3162 433.544 86.0242 441.372C180.372 405.528 225.28 346.2 246.704 275.748C277.604 358.56 331.164 413.768 419.744 438.488C424.276 430.248 433.34 417.064 440.344 410.472C339.404 386.576 284.196 320.244 259.476 222.188Z" fill="black"/>
</svg>
