<svg viewBox="0 0 500 500" fill="none" xmlns="http://www.w3.org/2000/svg">
<path d="M245.88 199.116H379.78V260.092H245.88V199.116ZM235.168 309.12C220.748 340.02 198.5 373.804 176.664 396.876C183.668 400.996 195.616 410.06 200.972 415.004C222.396 389.872 246.704 351.968 263.596 317.772L235.168 309.12ZM359.592 320.656C377.72 349.496 399.968 388.224 410.268 412.944L436.224 400.584C425.512 376.688 403.264 339.196 384.312 310.356L359.592 320.656ZM112.804 61.92V440.548H142.056V61.92H112.804ZM74.076 141.436C71.604 173.572 65.012 219.304 55.124 247.32L79.844 255.56C89.32 224.66 95.912 176.868 97.148 144.732L74.076 141.436ZM151.12 134.02C161.008 162.86 170.896 201.176 174.604 223.424L198.088 213.948C194.38 192.936 184.08 155.856 173.368 127.428L151.12 134.02ZM283.372 68.924C289.552 81.284 296.144 96.116 301.088 109.3H196.44V137.316H431.692V109.3H334.872C329.928 95.292 320.864 75.928 313.036 60.684L283.372 68.924ZM217.04 171.1V288.108H299.44V404.292C299.44 409.236 297.38 410.472 291.612 410.884C285.844 411.296 264.42 410.884 242.996 410.472C247.116 418.712 252.06 430.66 253.708 439.724C283.372 439.724 302.324 439.312 314.684 434.368C327.456 429.836 331.164 421.596 331.164 405.116V288.108H409.444V171.1H217.04Z" fill="black"/>
</svg>
