<svg viewBox="0 0 500 500" fill="none" xmlns="http://www.w3.org/2000/svg">
<path d="M70.3679 98.176C90.5559 119.188 117.748 148.028 131.344 164.92L156.064 146.38C142.056 129.9 114.04 102.296 93.8519 82.52L70.3679 98.176ZM233.108 150.088H365.36V187.992H233.108V150.088ZM204.68 128.664V209.828H395.024V128.664H204.68ZM171.308 78.4V103.532H427.984V78.4H171.308ZM185.728 234.96V372.156H413.976V234.96H185.728ZM149.884 215.184H64.5999V244.024H120.632V363.092C103.328 368.86 83.1399 384.928 62.1279 407.176L82.3159 435.192C101.268 410.472 120.22 387.4 134.228 387.4C143.292 387.4 156.476 400.172 174.604 410.06C203.444 426.54 238.876 430.66 288.316 430.66C328.28 430.66 399.968 428.188 429.632 426.54C430.456 417.476 434.988 403.056 438.696 394.816C398.32 399.348 336.932 402.232 289.14 402.232C244.232 402.232 208.388 399.348 181.608 384.104C167.188 376.688 158.124 369.272 149.884 364.74V215.184ZM214.568 314.064H283.784V350.732H214.568V314.064ZM312.212 314.064H384.312V350.732H312.212V314.064ZM214.568 256.384H283.784V292.64H214.568V256.384ZM312.212 256.384H384.312V292.64H312.212V256.384Z" fill="black"/>
</svg>
