<svg viewBox="0 0 500 500" fill="none" xmlns="http://www.w3.org/2000/svg">
<path d="M122.28 156.68V173.984H213.744V156.68H122.28ZM113.216 191.7V209.004H213.744V191.7H113.216ZM284.608 191.7V209.004H388.432V191.7H284.608ZM284.608 156.68V173.984H378.956V156.68H284.608ZM76.1359 118.776V183.46H102.092V137.728H234.344V221.364H264.008V137.728H398.32V183.46H425.512V118.776H264.008V98.1759H400.38V77.5759H101.68V98.1759H234.344V118.776H76.1359ZM238.052 229.604V340.02H314.272V361.856H242.584V382.868H314.272V410.472H222.808V433.132H437.048V410.472H343.112V382.868H418.92V361.856H343.112V340.02H420.98V229.604H238.052ZM264.008 294.288H316.332V317.36H314.272V319.832H264.008V294.288ZM341.052 294.288H394.2V319.832H343.112V317.36H341.052V294.288ZM264.008 249.792H316.332V274.924H264.008V249.792ZM341.052 249.792H394.2V274.924H341.052V249.792ZM137.936 256.384C144.116 263.388 149.884 272.864 153.592 281.104L122.692 292.64C118.572 283.164 110.744 271.216 101.68 262.976L84.3759 271.628C91.7919 279.456 98.3839 290.58 102.092 299.644L62.9519 311.592C65.8359 316.536 69.9559 323.952 71.1919 329.308C98.3839 321.892 127.224 313.24 154.004 303.352C159.36 307.472 163.48 312.416 167.6 316.948C141.232 333.84 96.7359 350.32 62.5399 357.736C66.6599 362.68 72.0159 371.744 74.0759 377.512C107.86 366.8 149.472 349.084 177.9 331.368C181.608 337.548 184.492 343.728 186.964 349.908C156.476 372.98 104.152 395.64 62.1279 406.352C66.6599 411.296 71.6039 419.948 73.6639 426.128C112.392 413.768 159.36 391.52 191.908 368.86C194.792 389.048 189.848 405.94 180.372 411.708C175.016 416.652 168.424 417.064 160.184 417.064C153.592 417.064 143.292 417.064 131.344 415.828C135.464 422.42 138.348 433.956 138.76 440.548C147.824 440.96 158.536 440.96 165.54 440.96C180.372 440.96 189.436 438.488 200.148 429.836C228.164 409.648 227.34 340.844 177.076 294.288C198.912 285.224 218.688 275.336 234.756 265.036L213.332 250.204C203.032 257.62 189.024 265.036 173.368 272.452C169.66 264.212 162.656 253.912 155.652 246.908C175.84 241.964 194.792 236.608 210.036 230.428L188.2 213.536C160.596 226.308 108.272 237.02 63.3639 243.612C66.6599 248.968 69.9559 257.208 71.1919 262.564C97.9719 258.444 127.224 253.5 154.004 247.32L137.936 256.384Z" fill="black"/>
</svg>
