<svg viewBox="0 0 500 500" fill="none" xmlns="http://www.w3.org/2000/svg">
<path d="M184.08 65.6279C156.476 78.3999 108.684 90.3479 67.4842 98.1759C71.1922 105.18 75.3122 115.48 76.5482 122.072C92.2042 119.6 109.096 116.716 125.988 113.008V180.164H63.3642V209.004H119.808C105.388 255.972 80.6682 309.944 57.5962 339.608C62.5402 347.024 69.9562 359.384 73.2522 368.036C92.2042 342.08 111.156 300.056 125.988 257.62V441.372H154.828V251.44C166.776 269.98 181.196 293.876 186.964 306.236L205.092 281.516C197.676 271.216 165.128 230.016 154.828 218.48V209.004H205.504V180.164H154.828V106.004C172.544 101.472 189.436 96.1159 203.444 90.3479L184.08 65.6279ZM254.532 165.332C268.128 173.572 283.372 185.108 294.496 195.408C266.068 211.064 233.932 222.6 201.796 230.016C207.152 236.196 214.568 246.496 217.864 253.912C300.264 232.076 380.192 187.992 415.624 110.124L395.848 100.236L390.492 101.472H313.036C322.512 90.3479 331.164 79.2239 338.58 68.0999L306.856 61.9199C288.316 92.4079 251.648 127.428 200.56 152.56C207.152 156.68 216.628 166.98 221.572 173.572C246.704 159.976 268.128 144.32 286.668 127.84H372.776C359.592 148.028 341.052 165.332 319.628 180.164C307.68 169.864 291.2 157.916 277.192 150.088L254.532 165.332ZM274.308 328.072C290.376 338.372 308.504 353.204 321.276 365.564C283.784 391.108 238.876 408 192.732 417.064C198.088 423.656 205.504 434.78 208.8 442.608C310.564 418.712 402.44 365.564 438.696 257.208L418.508 248.144L413.152 249.38H341.464C350.116 239.08 357.12 228.368 363.712 217.656L331.988 211.476C311.388 248.556 268.54 290.58 206.328 319.42C213.332 323.952 221.984 334.252 226.516 340.844C263.184 322.304 293.26 300.056 317.568 276.16H398.732C385.548 304.176 367.008 328.072 344.348 347.848C331.576 335.488 313.448 321.892 297.38 312.416L274.308 328.072Z" fill="black"/>
</svg>
