<svg viewBox="0 0 500 500" fill="none" xmlns="http://www.w3.org/2000/svg">
<path d="M168.012 227.132C167.463 225.209 166.639 222.6 165.54 219.304C164.716 216.008 163.617 212.575 162.244 209.004C161.145 205.433 159.909 202.549 158.536 200.352C161.557 199.528 164.441 197.605 167.188 194.584C169.935 191.288 172.681 187.168 175.428 182.224C177.625 178.928 180.921 173.16 185.316 164.92C189.985 156.405 194.792 146.517 199.736 135.256C204.68 123.995 208.8 112.596 212.096 101.06L240.112 112.184C232.971 130.037 224.593 147.891 214.98 165.744C205.367 183.323 195.753 198.567 186.14 211.476V211.888C186.14 211.888 185.179 212.437 183.256 213.536C181.608 214.36 179.548 215.596 177.076 217.244C174.604 218.892 172.407 220.54 170.484 222.188C168.836 223.836 168.012 225.484 168.012 227.132ZM168.012 227.132L166.776 205.296L180.784 195.82L292.848 180.988C295.045 184.009 297.38 187.58 299.852 191.7C302.599 195.82 305.071 199.391 307.268 202.412C278.153 206.807 254.807 210.377 237.228 213.124C219.924 215.596 206.603 217.793 197.264 219.716C188.2 221.364 181.608 222.737 177.488 223.836C173.368 224.935 170.209 226.033 168.012 227.132ZM135.876 63.568L163.892 71.396C156.476 95.0173 147.687 118.639 137.524 142.26C127.636 165.607 116.649 187.717 104.564 208.592C92.7533 229.192 80.3933 247.595 67.484 263.8C66.66 261.328 65.2867 258.169 63.364 254.324C61.716 250.204 59.7933 246.084 57.596 241.964C55.3987 237.844 53.476 234.548 51.828 232.076C63.364 218.068 74.2133 202.137 84.376 184.284C94.8133 166.156 104.427 146.792 113.216 126.192C122.005 105.592 129.559 84.7173 135.876 63.568ZM103.328 164.92L131.344 137.316L132.168 137.728V440.96H103.328V164.92ZM218.276 231.664H247.116V381.22H218.276V231.664ZM335.696 95.704H362.888V338.784H335.696V95.704ZM165.128 91.172H316.744V117.952H165.128V91.172ZM158.536 277.396H311.8V304.176H158.536V277.396ZM147.412 380.808C161.969 378.061 178.587 375.04 197.264 371.744C215.941 368.448 235.58 364.877 256.18 361.032C277.055 356.912 297.792 352.792 318.392 348.672L320.452 373.804C290.513 380.121 260.712 386.439 231.048 392.756C201.659 398.799 175.565 404.155 152.768 408.824L147.412 380.808ZM254.944 148.44L277.192 138.964C283.509 147.479 289.827 156.817 296.144 166.98C302.461 176.868 308.229 186.619 313.448 196.232C318.667 205.845 322.649 214.223 325.396 221.364L301.912 232.9C299.165 225.484 295.183 216.969 289.964 207.356C285.02 197.743 279.527 187.717 273.484 177.28C267.441 166.843 261.261 157.229 254.944 148.44ZM395.024 73.456H423.04V395.228C423.04 404.567 421.667 411.571 418.92 416.24C416.448 420.909 412.053 424.48 405.736 426.952C399.419 429.424 390.904 430.935 380.192 431.484C369.755 432.308 356.433 432.72 340.228 432.72C339.679 428.6 338.305 423.793 336.108 418.3C333.911 413.081 331.576 408.549 329.104 404.704C342.563 404.979 354.373 405.253 364.536 405.528C374.973 405.528 381.977 405.391 385.548 405.116C389.119 404.841 391.591 404.017 392.964 402.644C394.337 401.271 395.024 398.799 395.024 395.228V73.456Z" fill="black"/>
</svg>
