<svg xmlns="http://www.w3.org/2000/svg" viewBox="0 0 500 500"><defs><style>.cls-1{fill:#4b4b4b;}</style></defs><title>字z</title><g id="_2010年" data-name="2010年"><g id="台湾-3" data-name="台湾"><path id="淡" class="cls-1" d="M128.62,246.43c-15.54-14.7-47.88-34.86-73.08-47.46l19.32-21c25.2,11.34,58,30.66,73.92,44.1ZM161,300.19c-19.32,43.26-44.94,93.66-66.78,132.3L66.46,411.91c20.16-31.5,48.72-85.26,69.72-132.3ZM150.88,135.55c-15.54-14.7-47.88-35.7-73.5-49.14L96.28,65c25.62,12.18,58.38,31.92,74.34,46.62ZM317.2,231.31c-.84,21.84-2.1,42-4.2,59.64,15.54,65.1,55.86,110.46,131.46,122.22-7.14,6.72-15.12,18.48-19.32,27.3-62.58-13.44-100.38-47-123.06-97-16.8,50-52.92,79.8-131.88,98.28-2.94-8-11.34-20.58-17.22-26.88,117.6-24.36,129.36-72.24,133.56-183.54ZM413,252.73c-24.36-21-71-50.4-113-73.92-17.22,37.8-49.56,60.9-111.3,76-2.94-7.14-11.34-19.32-16.8-25.2C274.78,207,285.28,163.69,288.64,58.27H319.3c-1.26,37.8-3.78,68.88-10.5,94.08,43.68,22.68,95.76,54.18,123.48,76ZM172.72,346c17.22-18.06,31.92-50,39.48-79.38l28.14,5.88c-7.56,30.66-22.26,65.1-41.16,86.94ZM243.7,91c-7.14,27.3-21.42,58.8-38.64,78.12L178.6,158.23c16.38-16.8,30.66-46.62,38.22-72.66Zm174.72,4.2c-16,25.2-35.7,53.76-51.24,72.66l-24.36-10.5c15.12-19.32,34-50.82,44.52-73.08ZM343.24,343c16.38-20.58,37-55,47.88-79L423,275c-16.38,27.3-37.8,58.38-54.6,78.12Z"/></g></g></svg>