<svg xmlns="http://www.w3.org/2000/svg" viewBox="0 0 500 500"><defs><style>.cls-1{fill:#4b4b4b;}</style></defs><title>字z</title><g id="_2011年" data-name="2011年"><g id="台湾-4" data-name="台湾"><path id="讚-繁体" class="cls-1" d="M186.16,155.5H57.22V129.88H186.16Zm-5.88,54.18H74.44V184.9H180.28ZM74.44,239.5h105v24.78h-105ZM181.12,416.74H101.74v19.74H74.44V295.36H181.12ZM124,125.26c-5.88-15.12-19.32-38.64-31.5-55.86l24.36-12.18C129,74.44,142.9,96.28,149.2,111ZM101.74,321.4v69.3h52.5V321.4Zm254.1,58.8c30.66,14.28,65.1,31.92,85.26,45.78l-25.62,16.38c-18.9-13.44-51.24-31.92-81.06-47.46l18.48-14.7H223.54V232.78h37a103.84,103.84,0,0,0-11.34-18.48c4.62-3.36,12.6-11.76,12.6-29V161.38H242c-3.36,37.38-13.86,63.84-44.52,80.22-2.94-5.46-10.08-14.28-14.7-17.64,25.62-12.18,34.44-32.76,37-62.58h-25.2v-21h48.72v-26h-26a87.09,87.09,0,0,1-10.08,19.74c-4.2-2.52-12.6-8.82-18.06-11.34C200,107.2,206.32,87,210.1,66.88l21,4.2c-1.68,7.56-3.78,14.7-5.88,22.26h18.06V59.74h23.1v33.6H300v21h-33.6V140H305v21.42H283.18v35.7L305.86,187a141.6,141.6,0,0,0,5,17.22c-37.8,18.9-45.78,23.94-50.4,28.56h58.8c-2.94-5.46-9.66-13-14.7-17.22,22.26-10.92,31.08-28.56,34-53.76H313.84V140h48.3V114.34h-26a164.25,164.25,0,0,1-9.66,21c-4.2-2.52-13-8-18.06-10.92,10.08-15.54,14.7-35.7,18.48-56.28l20.58,4.62c-1.26,7.14-2.94,13.44-4.62,20.58h19.32V60.58h23.1V93.34h41.58v21H385.24V140h50.82V161.8h-35.7v35.28c0,5.88,0,8.4,1.26,9.66.84,1.26,2.94,1.68,5.46,1.68h8.82c2.94,0,5.46-.42,6.72-1.26,1.68-.42,2.94-1.68,3.78-4.62.84-3.36,1.26-10.08,1.68-18.9a50,50,0,0,0,14.7,8c-.42,9.66-1.68,20.58-3.36,24.78-2.1,3.78-5,6.72-8.4,8-3.78,1.68-9.66,2.52-13.86,2.52H401.62c-6.72,0-13.44-1.68-17.64-5.46-4.62-4.2-5.88-9.66-5.88-26V161.8H360.88c-3.78,32.34-13.44,56.28-40.32,71h88.2V380.2ZM297,394.48c-23.52,18.9-61.74,37.8-93.66,48.3a122.9,122.9,0,0,0-19.74-19.32c31.92-9.66,69.72-27.72,88.2-43.26Zm-45.78-118H380.2v-21H251.26Zm0,40.32H380.2V295.36H251.26ZM380.2,357.94V335.68H251.26v22.26Z"/></g></g></svg>