<svg xmlns="http://www.w3.org/2000/svg" viewBox="0 0 500 500"><defs><style>.cls-1{fill:#4b4b4b;}</style></defs><title>字z</title><g id="_2011年" data-name="2011年"><g id="台湾-4" data-name="台湾"><path id="赞" class="cls-1" d="M141.85,158.86c-6.3,40.32-22.68,65.52-67.62,81.06-2.94-6.3-10.5-15.54-16-19.74,38.64-11.34,52.08-30.24,57.12-61.32h-50V136.18h84V108.46H110.77a174.13,174.13,0,0,1-14.7,23.94,140.65,140.65,0,0,0-23.1-13c14.28-17.64,23.94-40.32,28.56-58.8l26,3.78c-2.52,7.56-5,14.7-7.56,22.26h29.4v-29h29v29H233v21.84h-54.6v27.72h64.68v22.68H198.55v37.8l50.82-11.76a119.72,119.72,0,0,0-.42,21c-65.1,16.8-76,20.16-81.9,24.36-1.68-5.88-7.14-15.54-10.92-19.74,6.3-3.36,16-10.08,16-27.3V158.86ZM264.49,322.24c0,50.4-32.76,95.34-164.64,119.28-2.94-7.56-11.76-20.58-17.64-26.88C208.63,392.8,233.83,358.78,233.83,321V290.74h30.66Zm84,49.56V267.64H152.35V373.06H121.69V240.76H380.41v131Zm60.9-168c7.56,0,8.82-2.1,9.66-23.52,5.46,3.78,15.54,7.56,22.68,9.24-2.52,29-9.66,37-28.14,37H381.67c-25.62,0-31.5-6.3-31.5-30.66v-37H325.81c-5.46,37-20.58,60.06-62.16,74.34-2.52-5.88-9.66-15.54-15.12-19.74C283.39,203,296,187,299.77,158.86h-46.2V136.18H330V109.3h-39.9a215.58,215.58,0,0,1-16,23.94c-5.88-4.2-16-10.08-22.68-12.6,16-18.06,26-40.74,31.5-60.06l25.62,3.78c-2.52,8-5.46,15.12-8.4,23.1H330V57.64h29.4V87.46h59.64V109.3H359.41v26.88h74.34v22.68H376.21v37c0,7.14,1.26,8,8.82,8ZM274.57,357.52C322,371.8,386.71,396.58,420.31,415.06l-17.22,27.3c-31.5-19.32-95.34-45.78-144.48-61.74Z"/></g></g></svg>