<svg xmlns="http://www.w3.org/2000/svg" viewBox="0 0 500 500"><defs><style>.cls-1{fill:#4b4b4b;}</style></defs><title>字z</title><g id="_2012年" data-name="2012年"><g id="台湾-5" data-name="台湾"><path id="忧" class="cls-1" d="M60.33,246.06c10.79-27.39,18.26-72.63,21.17-105.83l23.24,3.32c-2.07,33.2-9.55,80.93-20.34,111.22ZM120.51,60.54h29.88V439.46H120.51Zm59.35,155.22c-5-20.34-17-53.95-27.81-79.68l21.58-8.31c11.63,24.91,24.49,57.69,29.06,77.2Zm259.81-57.27V188H297.31c-8.3,96.7-32.37,190.5-106.24,246.53-5.4-7.47-14.53-16.6-23.25-21.58C238,362.26,260.38,276.77,267.43,188H203.1V158.49h66.41c1.66-31.55,2.07-63.92,2.07-94.21h30.71c-.41,30.29-.83,62.66-2.9,94.21Zm-43.17,244c11.21,0,13.29-9.54,14.53-63.5,7.06,5.4,19.51,10.79,28.22,12.87-2.9,62.67-10.79,79.68-40.26,79.68H354.17c-31.54,0-39.84-10-39.84-43.57V224.06h30.3V388c0,12.45,2.07,14.52,13.69,14.52Zm-1.24-253.16c-11.62-17-35.69-44-56-63.09l21.58-15.35c19.92,18.26,44.83,44.4,56.86,61Z"/></g></g></svg>