<svg xmlns="http://www.w3.org/2000/svg" viewBox="0 0 500 500"><defs><style>.cls-1{fill:#4b4b4b;}</style></defs><title>字z</title><g id="_2015年" data-name="2015年"><g id="台湾-8" data-name="台湾"><path id="換-繁体" class="cls-1" d="M134,283.41V400c0,17.85-3.32,26.15-12.87,31.54-8.71,5-23.65,6.23-47.31,5.81-.83-7.88-4.56-21.16-8.3-29.88,15.77.42,30.3.42,34.86.42,5,0,6.64-1.66,6.64-7.89V293c-15.77,5.81-30.71,11.2-44.4,15.77l-7.06-29.47c14.11-4.57,32-10.38,51.46-17V171.77H60.13V143.13H107v-83h27v83h38.6v28.64H134V252.7l36.11-12.87,3.73,28.64Zm195.89,56.44c19.51,39.85,58.11,63.92,114.55,73-5.4,5.81-12.45,16.6-16.19,23.65C371,424.52,332,397.13,310,351.89c-18.67,43.58-54.37,72.21-129.49,88-2.49-7.05-8.71-17.43-14.11-22.82,71.8-13.7,103.76-38.18,119.11-77.2H177.58V314.54h37.77V184.22c-4.57,4.56-9.55,9.13-14.12,13.28-4.15-5.81-12.45-16.19-18.67-20.34,40.26-34,67.23-79.68,80.93-116.62l28.22,4.57a254.92,254.92,0,0,1-12,27h64.75l4.15-1.24,18.26,12.45c-8.3,18.26-20.34,38.18-32,54.78h78V314.54H439v25.31ZM266.39,117a325,325,0,0,1-27.8,41.09H305A326.38,326.38,0,0,0,329.89,117ZM293,314.54a363.82,363.82,0,0,0,5.81-41.09h27.8a375.67,375.67,0,0,1-5.81,41.09h66.41V183.8H240.25V314.54ZM303.33,205c-10,29.88-25.32,59.76-41.09,80.1-4.15-3.32-12.86-9.55-18.67-12.45,17-18.68,29.88-45.65,38.59-72.22Zm56.44,78c-7-19.92-23.65-52.7-39.42-76.78L339,198.74c16.19,23.25,33.62,54.79,40.68,74.71Z"/></g></g></svg>