<svg xmlns="http://www.w3.org/2000/svg" viewBox="0 0 500 500"><defs><style>.cls-1{fill:#4b4b4b;}</style></defs><title>字z</title><g id="_2015年" data-name="2015年"><g id="台湾-8" data-name="台湾"><path id="换" class="cls-1" d="M141.26,285.28v116.2c0,17-3.32,25.74-13.69,30.72-9.55,5.39-24.9,6.64-48.15,6.22-1.24-7.88-5.39-21.58-9.13-30.29,15.36.41,29.89.41,34,.41,4.56,0,6.64-1.66,6.64-7.06V295.24c-15.78,5.39-31.13,10-44.83,14.11l-7.88-29.88C72.78,276.15,91,270.34,111,264.53V172.39H62.82V143.75H111v-83h30.29v83h38.6v28.64h-38.6v83l39.85-12.87,4.15,28.64Zm185.1,29.05c23.66,45.24,66.41,82.17,115.38,99.61a126.62,126.62,0,0,0-19.5,24.48c-48.56-20.33-90.48-59.76-117.46-108.32-19.09,38.18-55.61,76.78-125.75,110-4.56-6.22-13.7-16.6-21.17-21.58C229.25,387,264.11,350,280.3,314.33H180.69v-27h29.88V185.67c-2.49,2.49-5.39,4.57-7.88,7.06-4.15-7.06-13.7-17-20.34-21.59C222.61,138.36,250,94.36,264.94,59.92l30.71,5.39c-4.56,10.38-10,21.17-15.77,31.55H368.7l5-1.67,20.75,14.12a421.13,421.13,0,0,1-41.92,55.19h52.71V287.35h29v27ZM264.11,123.42c-9.54,13.69-19.92,27.8-32.37,41.08h85.08c11.62-12,23.66-27.39,33.2-41.08Zm25.32,163.93c5-19.5,5.39-38.18,5.39-54.37V189.41H240v97.94Zm85.49-97.94h-49.8v44c0,16.6-.83,34.86-5.4,54h55.2Z"/></g></g></svg>