<svg xmlns="http://www.w3.org/2000/svg" viewBox="0 0 500 500"><defs><style>.cls-1{fill:#4b4b4b;}</style></defs><title>字z</title><g id="_2017年" data-name="2017年"><g id="台湾-10" data-name="台湾"><path id="茫" class="cls-1" d="M79.42,242.74c25.32,10,58.11,25.31,75.12,37.76l-17.43,23.66c-16.18-12.45-48.56-29.05-74.29-39.84Zm172.24,7.88v143.6H418.5v28.64H222.19V250.62H184.84V222h132c-6.23-15-20.75-36.94-34.45-52.71l22.83-11.62V124.45H192.31v38.19H162V124.45h-93V96.23h93v-34h30.3v34H305.2v-34h30.3v34h95.87v28.22H335.5v36.94H311.84c12.86,15.36,26.56,34.45,32.37,47.73L321,222H437.18v28.63ZM71.54,412.48c26.15-22.41,64.33-61.42,95.45-96.28l16.19,23.65c-28.22,32-61.84,68.9-91.31,97.95ZM155,225.31c-14.94-12.87-45.65-31.55-70.14-43.17l17-20.75c24.48,10.79,55.61,28.22,71.8,40.67Z"/></g></g></svg>