<svg xmlns="http://www.w3.org/2000/svg" viewBox="0 0 500 500"><defs><style>.cls-1{fill:#4b4b4b;}</style></defs><title>字z</title><g id="_2014年" data-name="2014年"><g id="澳门-3" data-name="澳门"><path id="改" class="cls-1" d="M403.35,164.92C392.15,233,374.72,288.18,348.15,333c22.83,34.44,52.3,61.42,88.82,78-7.47,5.81-16.19,17.85-21.17,25.73-34.86-17.84-63.5-44-86.74-76.78-25.31,33.2-58.52,59.77-100.85,80.52-2.9-7.47-12.45-21.58-18.26-28.22,43.58-19.93,76.78-46.07,101.27-80.93C292.13,296.9,278,256.64,266.81,212.23A406.77,406.77,0,0,1,236.93,262c-5-5.81-16.6-17.44-23.66-22.42l2.08-2.49H106.61V367.87l109.15-39.43a122.68,122.68,0,0,0,4.15,29.05C100,403.56,84.61,410.62,75.48,418.92,73.41,409.79,68,394.84,63,387.37c6.23-2.9,12.87-8.71,12.87-23.24V206.84h110V119.27h-115V89H216.18V235.89C248.55,193.14,271,127.57,284.65,59.5l29.89,5.81c-5,24.49-10.79,48.15-18.26,70.56H430.33v29Zm-118.28,4.15c9.55,49.39,24.07,94.63,44.41,133.22,19.92-37.35,33.2-83,41.5-137.37H286.73Z"/></g></g></svg>