<svg xmlns="http://www.w3.org/2000/svg" viewBox="0 0 500 500"><defs><style>.cls-1{fill:#4b4b4b;}</style></defs><title>字z</title><g id="_2020年" data-name="2020年"><g id="法国-3" data-name="法国"><path id="舍" class="cls-1" d="M275.73,73.41c-2.07,2.49-5,5.81-7.88,8.71,48.55,47.73,106.66,77.61,173.06,102.1-7.47,7.05-15.77,17.84-20.33,27-25.32-10.37-49-22.41-71.8-34.86v17H264.53v41.09H415.18v27.8H264.53v44h115V440.29H348V421.61H150.81V440.7H120.1V306.24H233v-44H84.4v-27.8H233V193.35H150.81v-17A563.23,563.23,0,0,1,79.42,214.1c-5-7.06-12.86-17-20.33-23.66,69.72-28.63,147.75-78.85,191.32-131.14ZM348,333.63H150.81v60.59H348ZM332.59,166.37a423.82,423.82,0,0,1-83.42-65.16,569.61,569.61,0,0,1-83,65.16Z"/></g></g></svg>