<svg viewBox="0 0 500 500" fill="none" xmlns="http://www.w3.org/2000/svg">
<path d="M112.804 152.972H212.508V191.7H112.804V152.972ZM86.024 130.312V214.36H240.936V130.312H86.024ZM65.836 80.048V106.828H260.712V80.048H65.836ZM114.452 276.984C124.34 292.228 134.228 312.828 137.524 326.012L156.476 318.596C152.356 305.824 142.468 285.636 132.58 270.804L114.452 276.984ZM274.72 143.908V300.056H336.108V392.756C310.152 396.464 286.668 400.172 267.716 402.644L275.544 431.484C312.624 424.892 362.476 416.24 410.68 407.176C413.976 419.948 416.448 431.484 417.684 440.96L441.58 433.956C437.46 405.94 422.628 358.56 406.972 323.128L384.724 328.484C391.316 344.552 397.908 363.504 403.676 381.632L363.712 388.224V300.056H423.864V143.908H363.712V64.804H336.108V143.908H274.72ZM298.204 170.688H338.168V272.452H298.204V170.688ZM361.652 170.688H399.556V272.452H361.652V170.688ZM193.144 268.332C186.964 285.636 175.016 310.768 165.128 328.072H108.684V349.084H151.532V429.424H175.016V349.084H214.98V328.072H186.552C195.616 312.416 205.092 293.876 213.744 277.396L193.144 268.332ZM72.016 237.432V439.724H96.736V261.74H228.988V405.94C228.988 410.472 227.752 411.708 223.22 411.708C219.1 411.708 205.916 411.708 190.672 411.296C193.968 418.3 197.264 428.6 198.5 436.016C219.512 436.016 234.344 435.604 242.996 431.484C252.06 426.952 254.532 419.536 254.532 406.352V237.432H72.016Z" fill="black"/>
</svg>
