<svg viewBox="0 0 500 500" fill="none" xmlns="http://www.w3.org/2000/svg">
<path d="M193.556 75.516V426.54H219.512V75.516H193.556ZM137.524 106.004V381.632H161.008V106.004H137.524ZM81.4919 76.752V243.2C81.4919 310.356 78.6079 370.92 54.7119 421.596C61.3039 425.716 71.1919 434.368 75.7239 439.724C104.152 384.104 107.036 318.596 107.036 243.2V76.752H81.4919ZM280.076 234.548H393.788V274.924H280.076V234.548ZM280.076 297.584H393.788V338.784H280.076V297.584ZM280.076 171.512H393.788V211.476H280.076V171.512ZM295.32 371.332C279.664 388.636 247.94 409.236 220.336 421.596C226.928 426.952 235.58 435.604 240.112 441.784C267.716 429.424 300.676 407.588 321.688 386.988L295.32 371.332ZM353.412 387.4C377.308 403.468 407.384 426.128 421.392 441.372L445.288 424.068C430.044 408.824 399.556 386.988 376.484 372.156L353.412 387.4ZM251.648 147.616V362.68H423.452V147.616H343.112L355.472 108.476H434.576V81.284H238.464V108.476H322.1C320.04 121.248 316.744 135.256 313.86 147.616H251.648Z" fill="black"/>
</svg>
