<svg viewBox="0 0 500 500" fill="none" xmlns="http://www.w3.org/2000/svg">
<path d="M216.216 67.688C223.22 80.46 231.048 96.116 236.816 109.3H82.316V192.936H113.216V138.552H385.548V192.936H418.096V109.3H275.132C268.952 94.88 258.24 74.692 249.176 59.448L216.216 67.688ZM308.916 257.62C298.616 289.344 284.196 314.888 264.42 335.488C233.52 323.128 202.208 311.592 172.544 302.116C181.196 288.932 190.672 273.688 199.736 257.62H308.916ZM123.104 316.124C159.772 327.66 199.736 342.08 238.464 358.148C199.736 385.752 146.176 401.82 74.9 411.296C81.492 419.124 91.792 433.956 94.676 441.784C172.544 428.6 230.636 408 272.66 372.98C323.748 395.64 370.304 419.536 400.38 440.548L423.864 413.768C392.14 393.168 346.82 370.096 296.968 349.084C317.98 324.776 334.048 294.7 345.584 257.62H429.22V227.956H353.412C356.296 216.008 358.768 203.648 360.828 190.464L324.16 187.168C322.1 201.588 320.04 215.184 317.156 227.956H216.216C228.164 205.708 239.288 183.048 247.528 162.036L212.508 155.444C203.856 178.104 191.908 203.236 178.724 227.956H72.428V257.62H161.832C149.06 279.456 135.464 300.056 123.104 316.124Z" fill="black"/>
</svg>
