<svg viewBox="0 0 500 500" fill="none" xmlns="http://www.w3.org/2000/svg">
<path d="M218.688 162.448V199.94C218.688 222.188 210.86 244.024 163.48 260.092C169.248 264.624 179.136 276.984 182.432 283.576C235.58 263.388 247.528 231.664 247.528 201.176V189.228H334.048V223.424C334.048 255.56 340.64 267.508 370.716 267.508C376.072 267.508 397.496 267.508 404.088 267.508C411.916 267.508 421.392 267.096 426.748 265.036C425.512 258.032 424.688 245.672 423.864 237.02C418.096 238.668 409.444 239.08 403.264 239.08C397.908 239.08 376.896 239.08 371.54 239.08C365.36 239.08 364.124 235.372 364.124 223.836V162.448H218.688ZM358.768 311.592C342.7 338.372 318.804 359.384 289.964 375.04C261.536 358.972 239.7 337.96 224.868 311.592H358.768ZM185.728 285.224V311.592H194.792C210.036 343.728 231.872 369.272 260.3 389.048C228.164 402.232 191.908 410.472 154.416 415.004C159.772 422.008 165.54 433.544 168.012 441.372C211.272 434.368 252.472 423.656 288.728 406.352C322.924 423.656 364.948 435.192 413.564 440.96C417.272 432.72 424.688 420.772 430.868 414.18C388.02 410.06 350.94 401.82 319.216 389.46C354.648 366.388 382.664 335.076 399.556 292.64L381.016 283.576L375.66 285.224H185.728ZM252.884 67.276C259.064 79.636 266.068 95.704 270.6 108.476H125.576V207.768C117.336 189.228 100.856 161.212 86.848 140.612L62.128 150.912C76.548 173.572 93.028 204.06 100.444 223.012L125.576 211.064V231.664L124.752 265.86C99.208 280.692 74.9 294.288 57.596 302.94L68.72 330.956C85.612 321.068 103.74 309.532 122.28 297.584C116.924 341.668 103.74 387.812 72.016 423.656C79.432 426.952 91.792 436.428 97.148 441.784C148.236 384.104 155.652 295.936 155.652 231.664V137.316H438.284V108.476H305.62C301.088 95.292 291.612 75.104 282.96 59.448L252.884 67.276Z" fill="black"/>
</svg>
