<svg viewBox="0 0 500 500" fill="none" xmlns="http://www.w3.org/2000/svg">
<path d="M78.196 76.34C96.736 96.528 119.396 124.956 130.932 142.26L154.416 125.368C143.292 108.888 120.632 82.52 101.68 62.332L78.196 76.34ZM193.968 78.812V103.12H367.42C350.94 115.068 330.34 127.016 310.152 136.492C290.376 127.84 270.188 119.6 252.472 113.42L233.108 131.136C257.828 140.2 287.08 152.972 312.212 165.332H193.144V377.924H221.16V310.356H292.024V377.1H318.804V310.356H392.964V348.672C392.964 353.616 391.728 355.264 386.372 355.264C380.604 355.264 363.712 355.676 343.524 354.852C347.232 361.444 350.94 371.744 352.176 379.16C379.78 379.16 397.084 379.16 407.384 375.04C418.096 370.508 421.392 363.504 421.392 348.672V165.332H369.48C360.828 160.388 349.704 154.62 337.756 148.852C368.244 133.608 399.556 112.596 421.804 92.408L402.44 77.576L396.26 78.812H193.968ZM392.964 189.228V225.484H318.804V189.228H392.964ZM221.16 248.556H292.024V286.048H221.16V248.556ZM221.16 225.484V189.228H292.024V225.484H221.16ZM392.964 248.556V286.048H318.804V248.556H392.964ZM69.132 290.992C72.428 287.696 83.14 284.812 93.852 284.812H138.76C125.164 349.496 95.5 395.228 55.536 420.772C61.716 424.892 72.016 435.604 76.136 441.784C97.148 427.776 116.1 407.588 131.344 382.044C163.892 426.54 215.392 434.78 297.792 434.78C343.112 434.78 395.024 433.956 433.34 431.484C434.988 422.832 439.108 408.412 443.64 401.82C401.616 405.528 341.052 407.588 297.792 407.588C222.808 407.176 170.896 401.408 143.704 358.148C155.652 331.78 164.716 300.88 170.484 265.036L155.24 259.268L149.884 259.68H102.916C126.4 231.664 157.712 188.816 175.016 164.508L154.828 155.032L149.884 157.092H63.364V183.048H129.696C111.98 208.18 87.672 241.14 77.784 250.204C70.368 258.444 63.776 261.328 57.596 262.976C60.892 269.156 67.072 283.576 69.132 290.992Z" fill="black"/>
</svg>
