<svg viewBox="0 0 500 500" fill="none" xmlns="http://www.w3.org/2000/svg">
<path d="M212.92 136.08H283.784V157.504H212.92V136.08ZM234.344 205.708V260.504H265.244V205.708H234.344ZM218.688 185.52H281.312V280.692H218.688V185.52ZM289.964 368.86L306.856 347.436C350.528 368.036 398.32 394.404 427.16 414.18L406.972 437.664C378.956 417.476 332.812 389.872 289.964 368.86ZM182.02 350.32L208.8 369.272C175.016 394.816 125.164 422.42 84.788 440.136C80.668 433.956 72.428 423.244 66.66 417.064C105.8 400.584 156.064 372.98 182.02 350.32ZM90.144 92.82C113.628 85.816 142.056 75.928 160.596 66.864L175.428 93.644C158.124 100.236 137.112 106.416 117.748 111.36L118.984 159.976H165.54V185.932H119.808L121.456 237.02H167.6V262.564H122.28L123.516 314.064H178.312V82.932H321.276V314.064H376.484L378.956 263.8H332.812V238.256H380.192L381.84 187.168H334.872V161.624H382.252L383.076 106.416H332.812V80.46H410.68C409.856 152.972 406.972 250.616 403.676 314.064H435.812V342.492H63.364V314.064H96.736L90.144 92.82ZM201.796 314.064H296.968V107.652H201.796V314.064Z" fill="black"/>
</svg>
