<svg viewBox="0 0 500 500" fill="none" xmlns="http://www.w3.org/2000/svg">
<path d="M76.5479 157.916H423.864V232.9H392.964V183.048H105.8V230.016H76.5479V157.916ZM381.428 61.508L402.028 83.344C382.801 87.1893 360.828 90.76 336.108 94.056C311.663 97.0773 285.707 99.6867 258.24 101.884C231.048 104.081 203.581 105.867 175.84 107.24C148.373 108.613 121.868 109.575 96.3239 110.124C96.0492 106.553 95.2252 102.433 93.8519 97.764C92.4786 93.0947 91.1052 89.2493 89.7319 86.228C115.001 85.6787 141.232 84.7173 168.424 83.344C195.616 81.9707 222.259 80.1853 248.352 77.988C274.72 75.7907 299.303 73.456 322.1 70.984C345.172 68.2373 364.948 65.0786 381.428 61.508ZM127.224 117.54L152.356 107.24C158.399 113.557 163.892 120.836 168.836 129.076C174.055 137.316 177.763 144.732 179.96 151.324L153.18 162.86C151.532 156.543 148.099 149.127 142.88 140.612C137.936 131.823 132.717 124.132 127.224 117.54ZM217.452 111.36L242.584 102.296C247.803 109.163 252.609 116.991 257.004 125.78C261.673 134.295 264.695 141.848 266.068 148.44L239.288 158.328C237.915 151.736 235.168 144.045 231.048 135.256C226.928 126.467 222.396 118.501 217.452 111.36ZM327.456 217.244L348.468 202.412C356.433 208.455 364.536 215.321 372.776 223.012C381.291 230.428 389.119 237.981 396.26 245.672C403.676 253.088 409.444 259.955 413.564 266.272L390.904 282.752C386.784 276.709 381.153 269.843 374.012 262.152C367.145 254.187 359.592 246.359 351.352 238.668C343.387 230.703 335.421 223.561 327.456 217.244ZM211.272 196.232L227.34 179.34C238.052 183.735 249.313 189.228 261.124 195.82C272.935 202.137 282.273 208.043 289.14 213.536L273.072 232.488C266.205 226.72 256.867 220.403 245.056 213.536C233.52 206.669 222.259 200.901 211.272 196.232ZM355.06 96.94L385.136 108.064C377.72 119.051 369.755 130.175 361.24 141.436C353 152.423 345.447 161.899 338.58 169.864L315.508 159.976C319.903 154.208 324.572 147.753 329.516 140.612C334.46 133.196 339.267 125.643 343.936 117.952C348.605 109.987 352.313 102.983 355.06 96.94ZM343.936 306.648H350.94L356.296 305.412L375.66 319.008C362.201 338.235 345.035 354.852 324.16 368.86C303.285 382.868 279.939 394.679 254.12 404.292C228.301 413.905 200.835 421.733 171.72 427.776C142.605 433.819 113.079 438.625 83.1399 442.196C82.3159 439.449 80.9426 436.428 79.0199 433.132C77.3719 430.111 75.4492 426.952 73.2519 423.656C71.0546 420.635 69.1319 418.025 67.4839 415.828C96.8732 413.356 125.576 409.648 153.592 404.704C181.883 399.485 208.251 392.756 232.696 384.516C257.416 376.001 279.252 365.701 298.204 353.616C317.431 341.531 332.675 327.385 343.936 311.18V306.648ZM124.752 289.344C143.155 313.789 167.737 334.527 198.5 351.556C229.263 368.311 264.695 381.769 304.796 391.932C345.172 401.82 388.707 408.412 435.4 411.708C433.477 414.18 431.417 417.064 429.22 420.36C427.023 423.656 424.825 426.952 422.628 430.248C420.705 433.819 419.195 437.115 418.096 440.136C382.939 436.84 349.429 431.621 317.568 424.48C285.707 417.339 256.18 408.137 228.988 396.876C201.796 385.34 177.351 371.607 155.652 355.676C133.953 339.745 115.551 321.205 100.444 300.056L124.752 289.344ZM204.68 272.452L231.872 281.928C220.611 295.936 207.289 309.12 191.908 321.48C176.801 333.84 160.733 345.101 143.704 355.264C126.949 365.152 110.195 373.804 93.4399 381.22C92.0666 379.297 90.0066 377.1 87.2599 374.628C84.7879 371.881 82.0412 369.272 79.0199 366.8C76.2732 364.328 73.8012 362.268 71.6039 360.62C88.9079 354.028 105.8 346.337 122.28 337.548C139.035 328.484 154.553 318.459 168.836 307.472C183.119 296.211 195.067 284.537 204.68 272.452ZM177.9 206.944H206.74V246.496C206.74 250.616 207.976 253.363 210.448 254.736C213.195 255.835 218.825 256.384 227.34 256.384C229.263 256.384 232.833 256.384 238.052 256.384C243.545 256.384 249.588 256.384 256.18 256.384C262.772 256.384 268.952 256.384 274.72 256.384C280.763 256.384 285.157 256.384 287.904 256.384C292.299 256.384 295.595 255.835 297.792 254.736C299.989 253.363 301.5 250.753 302.324 246.908C303.423 243.063 304.247 237.157 304.796 229.192C307.817 231.115 311.663 232.9 316.332 234.548C321.001 235.921 325.259 237.02 329.104 237.844C328.28 249.105 326.632 257.757 324.16 263.8C321.688 269.568 317.843 273.688 312.624 276.16C307.405 278.357 300.264 279.456 291.2 279.456C289.552 279.456 286.393 279.456 281.724 279.456C277.329 279.456 272.248 279.456 266.48 279.456C260.712 279.456 254.807 279.456 248.764 279.456C242.996 279.456 237.915 279.456 233.52 279.456C229.125 279.456 226.104 279.456 224.456 279.456C212.096 279.456 202.483 278.632 195.616 276.984C189.024 275.061 184.355 271.765 181.608 267.096C179.136 262.152 177.9 255.285 177.9 246.496V206.944ZM136.288 205.708L160.184 215.596C156.064 228.231 150.159 240.865 142.468 253.5C135.052 265.86 125.164 276.023 112.804 283.988L90.9679 267.096C102.229 260.229 111.568 251.303 118.984 240.316C126.675 229.055 132.443 217.519 136.288 205.708ZM186.14 306.648H350.94V330.544H161.832L186.14 306.648Z" fill="black"/>
</svg>
