<svg xmlns="http://www.w3.org/2000/svg" viewBox="0 0 500 500"><defs><style>.cls-1{fill:#4b4b4b;}</style></defs><title>字z</title><g id="_2015年" data-name="2015年"><g id="澳门-4" data-name="澳门"><path id="跌" class="cls-1" d="M211,376c-51.47,14.53-105,29.47-145.26,40.67l-7.89-29.46c6.64-1.66,13.7-2.91,21.58-5V241.49h25.74V376l29.05-7.88V202.48H79V76.31H203.1V202.48H162v57.27h43.58v27.39H162v74.29L207.25,349ZM106,175.5h68.48V103.29H106Zm235.73,97.95c17,62.67,49.8,113.72,100.44,137.37-7.06,5.81-16.19,17-20.75,25.32-46.07-24.9-76.78-69.31-96.71-126.17C309.76,357.28,279.47,403.35,219.29,439c-4.15-6.64-13.7-17.43-21.17-23.24C267.43,378,294,324.91,303.54,273.45H214.31V244h93.38c1.66-17.84,2.07-35.28,2.07-51.88V161.39H260c-6.64,22.41-14.11,42.33-23.66,58.52C230.49,215.35,218,208.29,211,205c19.5-32,31.12-80.52,37.35-129.49l29,4.57c-2.49,17.84-5.81,35.69-10,52.7h42.33V61h29.89v71.79h86.74v28.64H339.65v31.13c0,16.6-.42,34-2.08,51.46h95.87v29.47Z"/></g></g></svg>