<svg xmlns="http://www.w3.org/2000/svg" viewBox="0 0 500 500"><defs><style>.cls-1{fill:#4b4b4b;}</style></defs><title>字z</title><g id="_2017年" data-name="2017年"><g id="美国"><path id="狂" class="cls-1" d="M203.93,82.51c-10.37,19.09-24.48,39-40.67,58.51,23.24,44,27.39,90.9,27.39,139.87,0,58.93-4.56,111.23-21.58,134.88A38.06,38.06,0,0,1,145,429.47c-14.53,2.9-32.37,2.9-51.46,2.07-.42-10.37-4.16-22-9.55-31.12,21.17,1.66,38.18,1.24,47.73,0,6.64-.42,10.79-2.49,14.52-7.06,10-14.11,14.11-59.76,14.11-112.89,0-7.47,0-15.35-.41-23.24-22,32.37-50.63,62.26-77.61,81.76-4.15-8.3-12-20.33-18.26-26.56,33.62-19.92,70.55-60.59,91.72-98.78-3.32-16.6-7.47-32.78-14.11-48.55C123,184.6,103.5,202.45,85.23,215.73c-4.15-7.89-12-20.34-18.67-27,19.5-12.45,41.09-30.71,60.59-50.63-11.62-17.85-26.56-34.86-46.9-51.88l22.42-17.43a275.44,275.44,0,0,1,44.82,46.48C160.35,99.52,172,82.92,180.28,68Zm232,309.61v29.05H194.8V392.12H305.2v-127H219.29V235.65H305.2V121.52H212.65v-29H430.54v29.05H336.33V235.65h89.23v29.47H336.33v127Z"/></g></g></svg>