<svg xmlns="http://www.w3.org/2000/svg" viewBox="0 0 500 500"><defs><style>.cls-1{fill:#4b4b4b;}</style></defs><title>字z</title><g id="_2018年" data-name="2018年"><g id="美国-2" data-name="美国"><path id="战" class="cls-1" d="M159.11,245.43H236.3v183H207.67V407.29H94.36v23.24H66.56V245.43h63.08V61.57h29.47v78H245V167H159.11Zm48.56,28.22H94.36V379.07H207.67Zm212.08-48.56a445.76,445.76,0,0,1-64.33,120.78c10,35.69,23.24,56.86,37.76,57.69,8.72.41,14.53-22,17.85-62.67,5.4,6.22,17,13.28,22.41,16.18-8.71,63.92-23.65,81.76-39.84,81.35-26.15-1.25-46.07-25.32-60.18-66.41-22,23.25-46.07,43.17-71.38,57.69a102.56,102.56,0,0,0-22.42-22c30.72-14.94,59.35-38.6,84.25-67.24-9.13-35.69-15.77-80.1-20.75-129.9l-56.86,7.88-4.15-26.14,58.52-8.72c-2.9-38.18-5-79.27-6.64-122H323c.83,41.09,2.91,80.93,5.82,117.87l93.79-13.69,4.15,26.56L331.35,206c4.15,39.85,9.13,75.54,15.35,105a379.7,379.7,0,0,0,49.39-98.78Zm-29.47-75.53c-8.3-17-26.56-43.16-42.33-61.84l21.16-12c16.6,18.26,35.28,43.57,43.58,59.76Z"/></g></g></svg>