<svg xmlns="http://www.w3.org/2000/svg" viewBox="0 0 500 500"><defs><style>.cls-1{fill:#4b4b4b;}</style></defs><title>字z</title><g id="_2020年" data-name="2020年"><g id="美国-4" data-name="美国"><path id="抗" class="cls-1" d="M202.89,268.68c-17.43,5.39-34.86,10.79-52.29,15.77V401.07c0,17.85-4.15,25.73-15.35,30.71-10.8,5-27.81,5.81-56,5.81a96.25,96.25,0,0,0-10-28.22c19.92.42,37.76.42,42.74,0,5.81-.41,8.3-2.07,8.3-8.3V293.16L65.11,309.35l-7.47-29.88c17.43-4.15,39-10,62.66-16.6V172.8h-56V144.17h56v-83h30.3v83h46.9V172.8H150.6V255l48.56-13.7ZM403.35,409c3.74,0,7.47-.83,9.55-2.49,2.07-2.08,3.73-6.23,4.56-14.12.83-8.71,1.25-27.8,1.66-52.29,5.81,5,15.77,10,23.24,12.87,0,22-1.24,48.55-3.32,58.1-2.49,10-6.64,15.77-12,19.51s-14.53,5.39-22,5.39H383c-8.3,0-17.85-2.49-24.08-7.88-6.64-5.4-9.13-12.87-9.13-41.92V233H272.2v47.73c0,51.88-12.45,118.7-77.19,161.86-3.74-6.64-14.53-19.5-20.34-23.65,58.94-39,67.24-94.22,67.24-138.62v-76h138.2V387.79c0,10.79.42,17,2.91,19.09,2.07,1.66,4.56,2.08,7.47,2.08Zm36.94-246.12H205.38V133.79H440.29ZM303.75,130.06c-5.4-17.43-17.85-44.41-28.23-63.92l27.81-8.71c11.62,19.5,24.07,45.65,30.3,62.25Z"/></g></g></svg>