<svg xmlns="http://www.w3.org/2000/svg" viewBox="0 0 500 500"><defs><style>.cls-1{fill:#4b4b4b;}</style></defs><title>字z</title><g id="_2011年" data-name="2011年"><g id="新加坡"><path id="涨" class="cls-1" d="M74.89,179.62c19.58,14.16,43.73,34.15,55.39,48.73L112,245.84C100.71,231.26,77,210,57.4,195.45ZM67,419.07C79.06,387,96.13,334.12,107.79,288.73L129,301.22c-10,42.06-25,93.28-38.31,130.34Zm59.13-284c-11.24-15-35-37.9-55-52.89L89.47,66.77c19.57,15,43.72,36.65,55.38,51.22ZM149,73.85H244V193H177.33c-1.66,24.15-3.74,49.14-5.83,70.79h71.21s0,8.33-.41,12.08c-5,98.69-10,134.5-20.83,146.58-6.24,7.91-12.9,10.41-23.73,11.24-10,.84-28.32.84-47.06-.41a79.82,79.82,0,0,0-7.08-25.41,404.21,404.21,0,0,0,42.9,2.09c7.07.41,10.82-.84,14.15-4.58,7.08-7.5,11.66-37.9,16.24-117.44H145.27c4.16-31.64,7.91-82,9.58-120.34h65.38V99.67H149ZM359.73,244.17c15,71.21,42.06,134.92,82.87,166.57-5.42,5-13.75,13.33-17.49,20-44.14-37.9-72.88-107-88.29-186.56H307.26V395.33L366,373.68c0,7.08,1.67,17.49,2.5,22.9-75.79,30.82-87,35.81-92.86,40.81-2.08-6.66-7.08-17.91-11.66-23.32,7.08-3.33,17.91-10.83,17.91-26.65V244.17h-35.4V218.35h35.4V62.61h25.4V218.35H439.68v25.82ZM425.94,75.1c-21.65,51.22-56.22,100.36-91.2,132.42-4.16-4.58-14.16-13.74-19.57-18.32,35-29.56,67-74.54,86.2-121.18Z"/></g></g></svg>