<svg xmlns="http://www.w3.org/2000/svg" viewBox="0 0 500 500"><defs><style>.cls-1{fill:#4b4b4b;}</style></defs><title>字z</title><g id="_2012年" data-name="2012年"><g id="新加坡-2" data-name="新加坡"><path id="色" class="cls-1" d="M358.32,408.54c41.09,0,47.32-11.62,52.3-66,7.88,5,20.33,9.55,29.46,11.21-7.05,64.33-19.5,83-81.76,83H199c-65.16,0-85.49-11.62-85.49-59.35V200.61c-12,10.79-24.49,19.92-36.94,28.64-2.49-7.06-11.62-22-16.6-29.05,50.22-30.72,100.85-81.35,129.49-137L216.8,73.61c-5,9.13-10,17.85-15.36,27H310.59l6.23-1.66,20.34,14.53A459.87,459.87,0,0,1,284,179H398.16V327.61H367.87V309.35H143.34v68.48c0,24.48,8.71,30.71,53.54,30.71ZM181.94,128.4c-13.29,17.84-29.06,34.86-44.83,50.63H246.68c15.36-14.11,31.54-33.2,43.58-50.63Zm-38.6,151.48h95.45V207.67H143.34Zm224.53-72.21H268.68v72.21h99.19Z"/></g></g></svg>