<svg xmlns="http://www.w3.org/2000/svg" viewBox="0 0 500 500"><defs><style>.cls-1{fill:#4b4b4b;}</style></defs><title>字z</title><g id="_2018年" data-name="2018年"><g id="新加坡-8" data-name="新加坡"><path id="马" class="cls-1" d="M341.72,341.66H72.78V312.19H341.72Zm85.5-108.74s-.42,10-1.25,14.52c-9.54,107.91-18.67,150.66-34.86,166.43-9.13,9.55-18.26,12.45-33.2,13.28-13.28.83-38.6.83-65.16-.83-.42-9.13-4.57-21.58-9.55-29.88,26.56,2.49,53.13,2.9,63.5,2.9,8.3,0,14.11-.83,18.26-4.56C377,384,385.71,347.47,394,261.56H129.23c5-33.21,10.37-87.16,13.28-127.42l30.29,2.08c-2.49,30.29-6.22,66.82-9.54,96.7h161c5.4-41.92,10.79-92.55,14.53-129.07H104.33V74H344.21l5-1.66,22.41,2.49c-3.32,43.58-10,106.67-16.6,158.13Z"/></g></g></svg>