<svg xmlns="http://www.w3.org/2000/svg" viewBox="0 0 500 500"><defs><style>.cls-1{fill:#4b4b4b;}</style></defs><title>字z</title><g id="_2019年" data-name="2019年"><g id="新加坡-9" data-name="新加坡"><path id="港" class="cls-1" d="M125.28,247.09c-14.94-12.45-44-30.29-67.64-41.08L75.07,183.6c22.82,10.37,52.7,26.14,68.06,38.18ZM148.11,306c-14.52,40.26-34.86,88.4-52.29,124.92L68,413.11c16.6-30.72,39.43-81.35,56.44-124.93ZM143.55,136.7c-13.7-13.28-40.68-32-62.67-43.58L99.14,72c21.58,10.38,49.39,27.81,63.5,40.68ZM244.81,352.93V393.6c0,13.7,4.57,17,30.71,17h93c20.75,0,24.49-7.06,26.56-47.32,6.64,5,17.85,9.13,25.73,10.79-4.15,49.39-12.86,62.26-50.63,62.26H274.69c-44,0-56.85-8.3-56.85-42.75V281.13c-15,19.5-31.55,36.52-47.73,48.56-5.4-7.06-14.94-17.85-21.58-23.25C178,287.35,209.12,251.25,227,214.31H153.09V186.09h73V137.94H170.52v-27.8h55.62V63.65H256v46.49h80.1V63.65h30.3v46.49h61.83v27.8H366.42v48.15h73.46v28.22H365.59c17.43,34,46.48,65.57,76.77,82.17-7.47,5.4-17.43,16.19-22,24.07-17-11.2-33.2-27-47.73-44.82v77.2Zm12.87-138.62a236.86,236.86,0,0,1-24.9,46.07H361a299,299,0,0,1-26.15-46.07ZM347.32,284H244.81v45.24H347.32ZM256,186.09h80.1V137.94H256Z"/></g></g></svg>