<svg xmlns="http://www.w3.org/2000/svg" viewBox="0 0 500 500"><defs><style>.cls-1{fill:#4b4b4b;}</style></defs><title>字z</title><g id="_2013年" data-name="2013年"><g id="台湾-6" data-name="台湾"><path id="假" class="cls-1" d="M158.9,67.6a798.12,798.12,0,0,1-27.39,85.91V437.8H102V217c-8.71,15.77-17.84,30.71-27.8,43.57-2.91-7.47-10.79-23.65-16.19-31.12,31.54-41.09,56.86-104.18,72.21-168.09Zm42.33,286.78V437H172.6V77.56H285.9V206.21H201.23v44.41h75.54v26.15H201.23v51.46h80.1v26.15Zm0-250.68v76h57.28V103.7ZM424.52,242.32c-10,50.22-27.39,90.06-51,120.77,18.68,22.42,41.92,40.26,68.48,51.05-6.23,5-14.53,15.77-18.68,23.24-26.56-12-49-30.29-67.65-53.53-24.07,24.48-52.29,42.33-83.83,54.78C268.47,432,261.41,421.2,256,415.8a203.67,203.67,0,0,0,83.42-54.37c-17.85-27-31.13-58.93-40.67-93.38l19.09-4.56h-27V237.34H401.69l5-.83Zm-5.81-36.94H302.5V178.82h87.57v-74.7H302.5V77.56H418.71Zm-95.87,58.11c7.88,27.8,18.67,53.54,34,76.36,14.94-21.16,26.56-46.48,34.45-76.36Z"/></g></g></svg>