<svg id="_2006年" data-name="2006年" xmlns="http://www.w3.org/2000/svg" viewBox="0 0 500 500"><defs><style>.cls-1{fill:#4b4b4b;}</style></defs><title>字z</title><g id="中国国内字"><path id="炒" class="cls-1" d="M100.9,145.84c-1.26,33.6-7.14,79-18.06,107.94L58.9,244.54c10.08-26,16.38-68.88,18.48-102.06Zm90.72,237.3c-9.24-13.86-31.08-40.74-48.3-60.06-9.24,43.26-27.72,84-61.32,119.28-5-7.14-15.12-17.64-21.84-22.68,57.54-61.32,64.26-141.12,64.26-217.56V59.74h29.4V202.12c0,29.82-.84,60.06-4.62,89,14.28,13.86,53.34,57.54,63.42,68.46ZM217.24,140.8c-11.76,28.14-25.62,63.42-37,85.68L161,217.24c10.5-23.1,23.52-60.9,30.66-86.94ZM421.78,270.16C388.6,360.46,319.72,413,210.1,439.84c-3.36-8.82-10.5-21-17.22-27.72,103.74-21.42,169.68-68.88,199.5-150.78ZM277.72,133.66c-8,48.72-20.16,99.54-35.28,133.14-5.88-3.78-19.32-10.08-26-13,15.12-31.5,25.62-79.8,31.92-125.16Zm58.8,181.44H306.7V57.64h29.82Zm76-68.88c-7.14-31.08-26.46-79-46.2-114.66l26-8.82c21,35.7,40.74,82.32,48.72,113Z"/></g></svg>