<svg xmlns="http://www.w3.org/2000/svg" viewBox="0 0 500 500"><defs><style>.cls-1{fill:#4b4b4b;}</style></defs><title>字z</title><g id="_2007年" data-name="2007年"><g id="中国国内字-2" data-name="中国国内字"><path id="涨" class="cls-1" d="M74.89,179.58c19.58,14.17,43.73,34.17,55.39,48.75L112,245.83C100.71,231.25,77,210,57.4,195.42ZM67,419.17c12.08-32.09,29.15-85,40.81-130.42L129,301.25c-10,42.08-25,93.33-38.31,130.42ZM126.11,135c-11.24-15-35-37.92-55-52.92L89.47,66.67c19.57,15,43.72,36.66,55.38,51.25ZM149,73.75H244V192.92H177.33c-1.66,24.16-3.74,49.16-5.83,70.83h71.21s0,8.33-.41,12.08c-5,98.75-10,134.59-20.83,146.67-6.24,7.92-12.9,10.42-23.73,11.25-10,.83-28.32.83-47.06-.42-.83-7.91-3.33-17.91-7.08-25.41A406.14,406.14,0,0,0,186.5,410c7.07.42,10.82-.83,14.15-4.58,7.08-7.5,11.66-37.92,16.24-117.5H145.27c4.16-31.67,7.91-82.09,9.58-120.42h65.38V99.58H149ZM359.73,244.17c15,71.25,42.06,135,82.87,166.66-5.42,5-13.75,13.34-17.49,20C381,392.92,352.23,323.75,336.82,244.17H307.26V395.42L366,373.75c0,7.08,1.67,17.5,2.5,22.92-75.79,30.83-87,35.83-92.86,40.83-2.08-6.67-7.08-17.92-11.66-23.33,7.08-3.34,17.91-10.84,17.91-26.67V244.17h-35.4V218.33h35.4V62.5h25.4V218.33H439.68v25.84ZM425.94,75c-21.65,51.25-56.22,100.42-91.2,132.5-4.16-4.58-14.16-13.75-19.57-18.33,35-29.59,67-74.59,86.2-121.25Z"/></g></g></svg>