<svg xmlns="http://www.w3.org/2000/svg" viewBox="0 0 500 500"><defs><style>.cls-1{fill:#4b4b4b;}</style></defs><title>字z</title><g id="_2007年" data-name="2007年"><g id="中国国内字-2" data-name="中国国内字"><path id="漲-繁体" class="cls-1" d="M113.41,239.8c-11.66-13.33-36.23-32.07-56.63-44.56l14.16-18.32c20,12.07,45,30,57.46,42.89ZM60.94,413.45c15.83-31.24,38.73-83.29,55-127.43l19.16,15c-14.58,41.23-35.4,90.78-52.47,127.43ZM84.68,64.07c20,13.32,44.14,33.73,55,48.3l-16.24,17.91c-11.25-15-35-36.23-55-50.39Zm67.46,8.32h96.19V190.66H182.54c-1.67,23.74-3.33,48.72-5,70h68.71s0,8.33-.41,11.66C240.42,371,235.43,406.37,224.6,418c-6.25,7.49-13.33,10-24.15,10.82-9.58.84-29.15.42-47.48-.83a77,77,0,0,0-6.66-22.49c19.16,1.67,37.06,1.67,44.14,1.67,6.25.42,10-.42,13.33-4.16,7.49-7.92,12.49-38.32,16.65-118.69H150.89c4.17-30.81,7.91-80.37,9.16-117.84h65v-70H152.14ZM437,301a525.32,525.32,0,0,1-51.63,41.64c17.07,25.41,36.64,47.06,57.88,60-5.41,5-13.32,14.16-16.66,20.4-42.06-29.56-77.87-89.94-97.86-152.82H299.55V396.79l62.05-22.07c.83,6.25,2.5,16.24,3.75,21.65-74.54,28.32-85.37,33.73-91.61,39.56v-.41l-.42.41c-1.67-6.66-6.25-19.57-10-26.23,5.41-2.5,12.9-7.91,12.9-22.9V270.2H255V246.88h27.06V76.56H430.73v22.9H306.63v34.15H417.82v21.24H306.63v33.73H417.82v21.65H306.63v36.65H437V270.2H349.53a343,343,0,0,0,25,55,464.66,464.66,0,0,0,43.31-40.81Z"/></g></g></svg>