<svg xmlns="http://www.w3.org/2000/svg" viewBox="0 0 500 500"><defs><style>.cls-1{fill:#4b4b4b;}</style></defs><title>字z</title><g id="_2012年" data-name="2012年"><g id="中国国内字-7" data-name="中国国内字"><path id="夢-繁体" class="cls-1" d="M432.4,89.18v27H335.7v21.17H305.41V116.15H195v21.17h-30.3V116.15H67.6v-27h97.11V61.79H195V89.18h110.4V61.79H335.7V89.18ZM71.75,252.7H428.67v68.48h-30.3V277.6H100.8v43.58h-29Zm275.16,47.73,19.51,12.45C317.86,391.32,202.06,425.76,92.5,438.21c-2.08-7.47-8.3-20.33-13.28-27,43.16-3.74,88-11.62,128.24-23.66-12-12.45-29.05-27-43.58-36.52l22-11.62A310.54,310.54,0,0,1,234.44,378c35.27-13.29,65.57-31.13,86.32-53.54H196.67a295.91,295.91,0,0,1-66,31.12c-4.15-6.64-12.45-17-18.68-21.16,48.15-14.11,81.35-34.86,98.78-56l30.71,6.22a202.09,202.09,0,0,1-15.35,17h115ZM400,146v86.32H106.19V146ZM193.76,167.62H134v42.75h59.76Zm88,0H220.33v42.75h61.42Zm89.23,0H308.31v42.75H371Z"/></g></g></svg>