<svg xmlns="http://www.w3.org/2000/svg" viewBox="0 0 500 500"><defs><style>.cls-1{fill:#4b4b4b;}</style></defs><title>字z</title><g id="_2013年" data-name="2013年"><g id="中国国内字-8" data-name="中国国内字"><path id="房" class="cls-1" d="M141.26,200.61c0,68.07-6.22,169.33-46.06,238.64-5.82-5-19.51-12.45-27.4-15.35,39-65.58,42.75-158.54,42.75-223.29V101.84H250c-4.15-10.8-8.72-23.25-13.28-32.79l29.47-8.3c6.64,12.45,13.28,28.63,17.84,41.09H418.09V199H141.26Zm122,79.27c-1.66,12.87-3.32,25.32-5.39,36.94h127v.41h22a104.32,104.32,0,0,1-1.24,12c-5.82,60.59-10.8,85.91-22,95.87-7.47,7.06-15.77,9.55-28.22,10.38-11.62.41-34,.41-57.28-1.25-.83-7.88-4.15-18.26-8.71-25.31,22.82,2.07,45.65,2.49,53.54,2.49,8.3,0,12.45-.83,15.77-3.74,6.64-5.81,11.2-24.07,15.77-66H250.83c-13.7,43.58-41.09,76.78-97.53,97.53C150,432.2,141.68,421.41,135.45,416c73.05-25.32,90.89-72.21,97.12-136.13H154.13V254.15h132c-5.4-12-15.77-30.71-24.49-44.41l26.15-9.13c10,14.11,21.16,32.37,26.56,44.41l-22.41,9.13H432.2v25.73Zm-122-151.48v44H387.79v-44Z"/></g></g></svg>