<svg xmlns="http://www.w3.org/2000/svg" viewBox="0 0 500 500"><defs><style>.cls-1{fill:#4b4b4b;}</style></defs><title>字z</title><g id="_2016年" data-name="2016年"><g id="中国国内字-11" data-name="中国国内字"><path id="规" class="cls-1" d="M202.27,376.58c-9.54-16.18-33.62-47.72-51.88-70.55-9.54,46.07-29.46,92.13-68.89,127-3.74-6.23-14.11-16.6-21.58-21.17,50.63-41.09,65.16-104.59,69.31-160.2H62.41v-29h68.06c.42-8.72.42-17.85.42-25.73V155.79H71.54V127.15h59.35V62.82h29.05v64.33h56.44v28.64H159.94v40.67c0,8.3,0,17.43-.42,26.15H221v29H158.28c-.83,7.47-1.66,14.94-2.49,22.83,16.18,17,58.1,66.4,68.06,78.85ZM398.16,404c12.87,0,14.95-10.8,16.61-68.07a70.42,70.42,0,0,0,25.31,12c-3.32,64.33-8.3,80.51-42.33,80.51H365c-27,0-37.77-7.47-37.77-35.28V315.57C311,360.4,278.64,404.39,216,437.18c-3.74-6.23-13.7-18.26-19.09-22.41C300.63,361.64,313.5,284,313.5,220.12V141.26h29.05v79.27a298.39,298.39,0,0,1-6.64,64.75H355v105c0,11.2,3.32,13.7,14.11,13.7ZM270.34,297.31H240.87V78.59H415.18V297.31h-30.3V106H270.34Z"/></g></g></svg>