<svg xmlns="http://www.w3.org/2000/svg" viewBox="0 0 500 500"><defs><style>.cls-1{fill:#4b4b4b;}</style></defs><title>字z</title><g id="_2016年" data-name="2016年"><g id="中国国内字-11" data-name="中国国内字"><path id="規-繁体" class="cls-1" d="M202.89,380.32c-10-16.6-35.27-50.22-53.53-74.29-9.55,46.07-29.89,90.89-68.9,125.75-4.15-6.22-14.11-16.18-21.58-21.58,50.63-41.09,65.16-103.76,69.31-159.37H61.37V222.61h68.06c.42-9.13.42-18.26.42-26.56V155H70.09V127.15h59.76V62.82H158.9v64.33h57.69V155H158.9v41.09c0,8.3,0,17.43-.41,26.56h66v28.22H157.24c-.83,7.47-1.66,15.36-2.49,23.24,16.19,17.43,59.77,70.14,69.31,83.42ZM405,402.73c7.47,0,9.55-4.15,10.38-33.2,5.39,4.56,17.43,9.13,25.73,11.2-2.91,39-11.21,49.39-33.2,49.39H373.47c-28.22,0-34.86-8.3-34.86-37.35V304H308.73c-7.89,62.67-29.47,107.91-99.2,133.23-3.32-7.06-11.2-18.26-17.43-23.24,62.67-20.76,80.52-58.94,87.16-110H239.83V74.44h176.8V304H367.25v88.82c0,8.71,1.24,10,10,10ZM268.47,142.92H386.75V102.67H268.47Zm0,66.82H386.75V168.65H268.47Zm0,66.41H386.75V235.06H268.47Z"/></g></g></svg>