<svg xmlns="http://www.w3.org/2000/svg" viewBox="0 0 500 500"><defs><style>.cls-1{fill:#4b4b4b;}</style></defs><title>字z</title><g id="_2018年" data-name="2018年"><g id="中国国内字-13" data-name="中国国内字"><path id="奮-繁体" class="cls-1" d="M330.1,118.64c27.39,22.83,69.31,41.51,109.15,50.64a113,113,0,0,0-17.43,22,377.9,377.9,0,0,1-41.09-15.35v10.79H274.07v17H372V222H274.07v19.92H371.6v18.26H274.07v22H401.48v19.93H167.41v10.79h-29V215.76c-12.87,11.21-27,20.34-39.84,28.64a119.63,119.63,0,0,0-19.93-17.85c39.43-21.17,78.44-54,102.93-89.23-27,22-61.42,41.92-104.59,57.69-3.32-6.64-10.37-15.77-16.18-20.34,44-14.52,78.85-34,105-56H74V95H189.41a164.88,164.88,0,0,0,22.82-34.45L240,65.11C235.06,75.48,228.83,85,221.78,95H426.39v23.65ZM106,319.93H396.92v118.7h-30.3V428.25H135.45v11.21H106Zm29.46,19.92v23.24h99.61V339.85Zm99.61,68.07V382.19H135.45v25.73Zm10-221.21H171.14l-3.73,3.73v13.28H245ZM245,222H167.41v19.92H245Zm0,38.18H167.41v22H245Zm117.45-93.38c-24.48-13.28-47.73-30.3-63.91-48.15H202.27c-5,5-10.37,9.55-15.77,14.11l22.41,7.48A170.32,170.32,0,0,1,189,166.79h68.07c-4.15-9.13-9.14-20.34-14.12-28.64l27-7.47c6.64,11.21,14.94,26.15,19.09,36.11Zm4.15,173.06H264.53v23.24H366.62Zm0,68.07V382.19H264.53v25.73Z"/></g></g></svg>