<svg xmlns="http://www.w3.org/2000/svg" viewBox="0 0 500 500"><defs><style>.cls-1{fill:#4b4b4b;}</style></defs><title>字z</title><g id="_2019年" data-name="2019年"><g id="中国国内字-14" data-name="中国国内字"><path id="稳" class="cls-1" d="M183.8,309.14c-5-12-17.84-35.28-28.63-54.37V440.7H126.11V265.15c-14.52,39.84-32.37,78-51,102.93-2.91-8.72-10.79-22-16.19-29.89,23.24-29.46,48.56-83,62.67-129.9H68v-29h58.1V112.42c-14.94,3.32-30.29,6.22-44.4,8.71-1.66-7-5.81-17.43-9.13-24.48,38.59-7.47,83.83-19.51,110-32.37l19.09,24.9c-13.28,6.22-29.47,11.62-46.48,16.18v73.88h47.31v29H155.17v9.55c10.79,13.28,41.08,54.78,48.14,65.57Zm-10,97.12c13.7-20.34,27.81-53.54,36.52-75.95l24.08,10.79c-10,22.82-22.83,56.44-35.7,78.85Zm46.49-243.21c-4.15,3.74-8.3,6.64-12.46,10-4.15-6.22-12.86-15.77-19.09-19.5,37.36-27.4,63.09-63.92,76.37-94.21l28.64,5c-3.74,8.3-8.31,16.6-12.87,24.9h84.25l4.57-1.25,19.09,12.45a376.49,376.49,0,0,1-34.45,53.54h53.95V300.43H214.52V274.69h166v-36.1H225.72V214.52H380.53V180.07H220.33Zm44.4-49a308.16,308.16,0,0,1-34.44,39.84h92.55c9.54-11.62,19.09-26.56,26.56-39.84Zm81.76,294.67c12.87,0,15.36-5,16.6-41.5,6.23,4.56,17.44,8.3,25.32,10.37-2.9,44.82-11.2,56-39,56H290.88c-34.86,0-43.58-7.89-43.58-36.11V330.31h28.22v67.23c0,9.55,2.49,11.21,18.27,11.21Zm-15.77-36.94C322,357.7,303.33,335.29,288,319.1l21.59-12c15.35,15.35,34.44,36.93,43.57,51ZM402.52,327c15.36,25.31,32,58.93,38.6,79.68l-25.32,10c-6.64-21.16-22.82-56.44-37.35-81.76Z"/></g></g></svg>