<svg xmlns="http://www.w3.org/2000/svg" viewBox="0 0 500 500"><defs><style>.cls-1{fill:#4b4b4b;}</style></defs><title>民</title><g id="_2020年" data-name="2020年"><g id="中国国内字-15" data-name="中国国内字"><path id="民" class="cls-1" d="M282.16,281.75c21.59,66,59.77,111.23,96.71,110.81,12-.41,17-17,19.09-60.59,7.05,6.22,18.67,12,27,14.52-5,60.6-17.43,76.37-47.72,76.37-55.62.41-103.35-58.52-127.42-141.11H124.87V385.51l99.61-24.08c0,8.31,1.66,22,3.32,28.23C114.91,420,99.55,423.69,89.59,429.91c-2.49-8.3-9.13-22-14.52-28.22A33.27,33.27,0,0,0,93.33,371.4V70.09H386.75V190H265.56a374.49,374.49,0,0,0,9.13,62.67H417.46v29.05ZM124.87,99.14V161H356V99.14ZM242.32,252.7c-3.73-19.92-7-40.67-8.3-62.67H124.87V252.7Z"/></g></g></svg>