<svg xmlns="http://www.w3.org/2000/svg" viewBox="0 0 500 500"><defs><style>.cls-1{fill:#4b4b4b;}</style></defs><title>字z</title><g id="_2021年" data-name="2021年"><g id="中国国内字-16" data-name="中国国内字"><path id="治" class="cls-1" d="M139.44,243.75c-16.66-12.49-50.8-32.06-76.21-45.39l15-20c25,11.65,59.13,30.39,76.62,42.47ZM73.64,414.9c22.49-31.64,55-86.61,79.13-133.67l20,18.32C150.68,343.28,121.53,395.33,97,433.64Zm93.7-283.58c-17.91-12.91-52-32.9-78.7-46.64L104,65.11c25.82,12.49,61.22,31.23,79.12,43.31Zm181.14-16.24c34.15,36.23,71.21,85.78,88.29,117.85L412.2,247.09a264.3,264.3,0,0,0-15.41-26.24c-183.23,12.08-202,13.33-214,18.32a267.42,267.42,0,0,0-9.58-26.65c8.33-1.66,17.07-11.66,28.73-27.48,12.08-14.58,50.81-71.21,75.79-125.35L306,68c-26.24,50-57,99.53-87.87,137.84l162.41-9.58c-16.66-23.73-36.23-48.72-55.39-69.54ZM198.57,274.15H408.45V438.64h-27.9V421.57H225.64v18.74H198.57ZM225.64,300v95.78H380.55V300Z"/></g></g></svg>