<svg xmlns="http://www.w3.org/2000/svg" viewBox="0 0 500 500"><defs><style>.cls-1{fill:#4b4b4b;}</style></defs><title>字z</title><g id="_2021年" data-name="2021年"><g id="澳门-10" data-name="澳门"><path id="黨-繁体" class="cls-1" d="M430.31,368.47H68.44V349.32h167V327.25h-137V308.92h137v-20H109.66V209.82H392.83v79.12H262.08v20H405.33v18.33H262.08v22.07H430.31Zm-361,60.38c20.82-10.82,41.64-30.39,53.3-50.38l25,7.91c-12.49,20.4-32.48,42.47-54.55,54.55Zm34.15-266.09H77.18v-65h76.63c-5.42-9.58-13.33-20-20-28.74L158,59.49c9.58,11.24,21.24,27.48,26.24,37.89l-.84.42h52.06V59.07h27.48V97.8h54.55c9.16-10.83,20-25.4,25.82-35.4l25.4,10.41c-7.08,8.75-14.57,17.49-21.65,25h76.62v65H397V117.37H103.42Zm132,63.71h-100v45.39h100Zm-92-34.14v-55H356.6v55Zm35.81,37.89c9.16,8.74,19.57,21.24,23.73,30.4l-16.65,11.24c-4.58-8.74-14.16-22.07-23.32-32.06ZM168.8,176.5H329.54V152.77H168.8Zm44.14,207.8a290.41,290.41,0,0,1,9.58,47.47l-25.41,5.41c-.83-12.91-4.58-33.73-8.74-49.14ZM365.77,226.47H262.08v45.39H365.77ZM297.89,381.8c7.91,14.16,16.66,33.73,19.57,46.64l-25.82,6.66C288.73,423,280.82,403,273.32,388Zm-7.08-118.27a331.18,331.18,0,0,0,25-33.73l17.91,10c-10,11.66-20.4,23.73-29.15,31.65Zm87.87,112.85c18.73,15,41.64,37.07,52.88,52.06l-25.82,11.24c-10-14.57-32.48-37.06-51.22-52.47Z"/></g></g></svg>