<svg xmlns="http://www.w3.org/2000/svg" viewBox="0 0 500 500"><defs><style>.cls-1{fill:#4b4b4b;}</style></defs><title>字z</title><g id="_2016年" data-name="2016年"><g id="马来西亚-6" data-name="马来西亚"><path id="贪" class="cls-1" d="M278.64,71.33c-2.91,2.91-5.4,5.81-8.3,8.3,37.35,25.73,107.07,54.78,171.4,68.07a139,139,0,0,0-19.92,26.56c-63.5-16.19-132.39-50.22-171.41-78-45.65,34.45-106.66,61.84-172.23,82.18C74,171.35,64.9,158.9,58.26,152.68c78.85-21.59,155.22-55.2,194.23-93.8ZM263.7,314.54c0,39.42-14.53,91.72-167.26,126.58-4.15-6.64-12.87-18.26-20.34-24.49,146.09-29.05,156.05-73,156.05-102.92V285.9H263.7ZM118.85,244.4h183l-15.36-8.72C299,224.06,312.25,211.61,323.46,200H118.85V174.67H260.38c-9.55-12.45-26.57-29.46-41.51-41.5l20.34-14.94c16.6,12.45,35.69,29.88,44.82,42.33l-17.84,14.11h83.42l5-2.07,20.75,12.86c-17,19.51-36.94,39.85-55.62,58.94h58.94V365.17h-30.3v-93H147.9v94.63H118.85ZM273.66,358.53C321,373.06,385.3,397.13,418.92,415l-16.19,24.9c-32-17.84-95.87-44.4-144.84-59.76Z"/></g></g></svg>