<svg viewBox="0 0 500 500" fill="none" xmlns="http://www.w3.org/2000/svg">
<path d="M257.828 76.34C247.528 131.96 224.456 180.988 194.38 208.592C201.384 213.536 211.684 223.012 216.216 229.192C249.176 198.292 275.544 145.556 288.728 86.228L257.828 76.34ZM157.712 200.352V257.62H102.092V200.352H157.712ZM157.712 173.16H102.092V115.068H157.712V173.16ZM157.712 284.4V344.964H102.092V284.4H157.712ZM74.076 87.052V408.412H102.092V372.568H185.728V87.052H74.076ZM231.46 226.72V255.56H281.724C272.66 333.84 247.94 386.988 191.496 417.888C198.088 423.244 208.8 434.78 212.096 440.548C272.248 402.644 300.676 344.964 311.8 255.56H371.952C367.008 354.44 361.24 391.932 353 401.408C349.704 405.528 345.996 406.352 339.404 406.352C332.812 406.352 316.332 406.352 298.616 404.704C303.148 412.532 306.032 424.892 306.856 433.132C324.984 434.368 343.112 434.368 353 433.544C364.948 432.308 372.364 429.424 379.368 419.948C391.728 405.528 397.496 362.268 403.264 240.316C403.676 236.608 403.676 226.72 403.676 226.72H231.46ZM308.916 71.808V99H351.352C364.536 150.5 390.08 197.88 420.568 226.308C425.924 218.892 436.224 207.768 443.228 202.412C411.504 176.456 385.136 125.78 373.6 71.808H308.916Z" fill="black"/>
</svg>
