<svg viewBox="0 0 500 500" fill="none" xmlns="http://www.w3.org/2000/svg">
<path d="M386.784 87.464C376.896 109.3 357.944 141.024 342.7 160.388L366.596 170.276C382.664 151.736 402.028 123.72 417.684 98.588L386.784 87.464ZM390.904 265.448C379.78 289.344 359.592 323.128 343.524 343.728L368.244 354.028C384.724 334.664 405.736 303.352 422.628 276.572L390.904 265.448ZM80.668 89.936C105.8 103.12 137.936 124.132 153.18 138.964L172.956 114.656C156.888 100.648 124.752 80.872 99.62 68.512L80.668 89.936ZM58.832 201.588C83.964 214.36 115.688 234.136 131.344 248.144L151.12 224.248C135.052 210.24 103.328 191.7 78.196 180.164L58.832 201.588ZM69.544 412.12L97.56 432.308C118.984 394.404 144.528 344.14 163.48 301.292L138.76 281.104C117.748 327.248 89.32 380.808 69.544 412.12ZM184.492 101.472C200.148 124.544 219.512 155.444 228.988 173.984L253.708 156.268C244.644 139.376 224.044 109.3 207.976 86.64L184.492 101.472ZM179.548 276.16C196.44 300.468 217.04 333.428 227.34 353.204L252.472 336.724C242.172 318.184 220.336 286.872 203.444 262.564L179.548 276.16ZM289.14 61.92C286.256 166.156 275.544 208.592 171.72 230.84C177.488 236.608 185.728 248.556 188.612 255.972C250.824 241.14 283.372 218.48 300.676 181.4C341.876 204.472 388.02 233.724 412.328 254.736L430.868 230.016C404.088 208.592 352.588 178.104 309.74 155.444C316.332 130.312 318.392 99.412 319.628 61.92H289.14ZM287.492 233.312C283.372 343.316 271.424 390.284 155.24 414.592C161.42 421.184 169.66 433.544 172.544 441.372C250.824 423.244 286.256 393.992 302.736 344.14C324.572 393.992 362.476 426.952 424.276 440.136C428.396 431.896 436.636 419.948 443.228 413.356C369.068 401.408 329.516 356.5 313.448 293.052C315.508 274.924 316.744 255.148 317.568 233.312H287.492Z" fill="black"/>
</svg>
