<svg viewBox="0 0 500 500" fill="none" xmlns="http://www.w3.org/2000/svg">
<path d="M149.06 291.404H355.884V318.184H149.06V291.404ZM149.06 337.548H355.884V364.74H149.06V337.548ZM149.06 245.672H355.884V271.628H149.06V245.672ZM118.984 225.484V384.928H387.196V225.484H118.984ZM283.372 402.232C329.928 414.592 375.66 430.248 401.616 440.96L434.988 424.892C404.5 413.356 354.236 397.7 308.092 386.576L283.372 402.232ZM189.848 386.576C159.772 400.584 109.92 412.532 66.66 419.948C73.664 424.892 84.376 436.428 89.32 442.196C130.932 433.132 184.08 416.24 217.864 398.524L189.848 386.576ZM165.54 220.128C170.896 216.42 180.784 213.536 245.056 197.468C245.056 192.524 245.056 183.46 245.88 177.28L196.44 187.992V157.092H243.408V135.668H176.252V109.712H233.52V88.288H176.252V61.92H150.296V88.288H118.984L125.576 69.336L102.916 66.04C97.56 82.932 88.496 102.708 74.076 118.776C80.256 121.248 88.908 126.192 94.264 130.724C100.032 124.132 104.564 117.128 108.684 109.712H150.296V135.668H67.896V157.092H116.1C110.332 183.048 95.912 202 61.304 213.124C66.66 217.656 74.076 227.132 77.372 233.312C118.572 217.244 135.052 192.524 142.468 157.092H170.896V173.984C170.896 190.052 161.832 196.644 155.652 199.94C158.948 204.06 163.48 212.712 165.54 218.48V220.128ZM253.708 135.668V157.092H297.792C292.436 180.576 278.016 195.408 244.232 204.472C249.588 208.592 256.592 218.068 259.476 224.248C299.852 211.064 317.156 190.052 323.336 157.092H349.292V189.64C349.292 213.124 355.06 219.304 379.78 219.304C384.312 219.304 405.736 219.304 410.68 219.304C428.808 219.304 435.4 211.888 437.46 183.048C430.868 180.988 420.98 177.692 416.448 173.984C415.212 194.996 413.976 197.468 406.972 197.468C402.028 197.468 386.372 197.468 383.076 197.468C375.66 197.468 374.424 196.644 374.424 189.228V157.092H432.104V135.668H353.412V110.536H417.684V89.524H353.412V61.92H327.456V89.524H297.792C300.676 82.932 303.148 76.34 305.62 69.336L282.548 66.04C276.78 82.932 267.304 102.708 252.06 118.776C258.652 121.248 266.892 126.192 272.248 130.724C277.604 124.132 282.548 117.54 286.668 110.536H327.456V135.668H253.708Z" fill="black"/>
</svg>
