<svg viewBox="0 0 500 500" fill="none" xmlns="http://www.w3.org/2000/svg">
<path d="M139.584 254.324C130.52 270.392 115.688 290.58 99.62 301.292L120.22 317.36C137.112 303.764 151.12 282.752 161.42 265.86L139.584 254.324ZM329.104 261.328C346.408 275.336 365.772 296.348 374.836 309.944L397.496 297.584C387.608 283.576 367.832 264.212 350.116 250.616L329.104 261.328ZM222.808 252.676C238.052 259.68 256.592 272.452 265.656 281.928L283.372 268.332C274.72 260.092 257.828 248.968 242.996 241.964H399.968V280.692H427.984V221.776H374.424V118.776H255.768L263.184 99.824H426.336V76.34H74.076V99.824H230.224L224.868 118.776H128.46V221.776H69.956V280.692H96.736V241.964H237.64L222.808 252.676ZM158.124 170.688H343.524V187.992H158.124V170.688ZM158.124 153.796V136.904H343.524V153.796H158.124ZM158.124 204.06H343.524V221.776H158.124V204.06ZM178.312 251.028V281.104C178.312 295.936 181.608 303.764 192.32 307.472C182.432 318.184 168.836 329.308 152.768 340.02C147 335.488 141.232 330.544 136.288 325.188L112.804 336.312C118.572 342.08 124.34 347.848 130.932 353.204C115.276 361.856 97.972 369.684 78.608 376.688C84.788 380.808 93.44 389.872 97.56 396.464C117.748 388.224 136.288 379.16 152.768 369.272C169.248 379.984 187.788 389.048 207.976 397.288C161.832 408.412 109.508 414.18 58.832 416.24C62.952 423.244 67.896 433.956 69.544 441.372C131.344 437.664 194.38 429.012 248.352 411.708C299.852 427.364 358.768 436.428 420.568 440.548C423.452 433.132 430.044 422.008 435.4 415.416C383.076 412.532 332.812 406.352 287.492 396.464C319.628 381.632 346.408 362.68 364.948 337.96L345.996 326.012L339.816 327.248H209.212C214.98 321.892 220.336 316.536 225.28 310.768H294.496C319.216 310.768 326.632 303.352 329.516 274.512C322.512 273.276 313.448 269.98 307.68 266.684C306.444 288.108 303.972 290.992 291.2 290.992C279.664 290.992 233.52 290.992 225.28 290.992C207.152 290.992 203.856 289.756 203.856 281.104V251.028H178.312ZM247.94 385.752C220.336 377.512 195.616 367.212 175.016 354.852L185.316 347.436H318.804C300.676 363.504 276.368 375.864 247.94 385.752Z" fill="black"/>
</svg>
