<svg viewBox="0 0 500 500" fill="none" xmlns="http://www.w3.org/2000/svg">
<path d="M303.148 80.048V106.828H390.492V181.4H303.148V208.18H419.744V80.048H303.148ZM130.52 63.98C115.276 127.84 90.144 190.876 58.42 232.488C63.776 239.904 72.428 256.384 75.312 263.388C84.788 251.028 93.852 236.608 102.504 221.364V440.548H132.168V156.68C142.88 129.076 151.944 99.824 159.36 70.572L130.52 63.98ZM173.368 80.048V439.724H201.796V357.324H282.136V330.956H201.796V279.456H277.604V253.088H201.796V209.004H286.668V80.048H173.368ZM392.14 266.272C384.312 295.936 372.364 321.48 357.12 342.904C342.7 319.832 331.164 293.876 323.748 266.272H392.14ZM291.612 240.316V266.272H320.04L299.44 271.216C308.916 305.824 322.1 337.548 339.816 364.74C316.332 389.872 287.904 408 256.592 419.124C262.36 424.48 268.952 434.78 272.66 441.784C304.384 429.012 332.4 411.296 356.296 386.988C374.836 410.06 397.084 428.188 423.452 440.136C427.984 433.132 436.224 422.42 442.404 416.652C416.036 405.94 392.964 388.224 374.424 365.976C397.908 335.076 415.212 295.524 425.1 245.26L407.384 239.492L402.44 240.316H291.612ZM201.796 106.416H259.476V182.636H201.796V106.416Z" fill="black"/>
</svg>
