<svg viewBox="0 0 500 500" fill="none" xmlns="http://www.w3.org/2000/svg">
<path d="M160.184 121.248C172.132 140.612 182.844 166.568 186.552 183.048L207.976 174.396C204.68 157.916 193.144 133.196 180.784 114.244L160.184 121.248ZM315.096 113.832C308.092 133.196 294.084 161.624 283.372 178.928L303.148 187.168C314.272 170.688 327.868 145.144 339.404 122.896L315.096 113.832ZM184.08 370.92C188.612 392.756 191.496 421.184 191.496 438.488L221.572 434.78C221.572 417.888 217.864 389.872 212.92 368.448L184.08 370.92ZM268.952 371.744C278.016 393.168 287.492 421.184 290.788 438.488L321.688 431.072C317.568 414.18 307.68 386.576 297.792 365.976L268.952 371.744ZM352.588 370.096C372.364 391.932 395.436 422.42 405.736 441.372L435.812 429.836C424.688 410.472 400.792 380.808 381.016 359.796L352.588 370.096ZM113.216 359.796C103.328 385.752 85.612 413.356 67.484 429.424L95.912 442.608C115.688 423.656 132.58 393.992 142.88 367.212L113.216 359.796ZM137.524 103.532H233.932V193.348H137.524V103.532ZM264.832 103.532H359.592V193.348H264.832V103.532ZM66.66 315.712V343.316H433.752V315.712H264.832V278.632H398.732V253.088H264.832V219.304H390.492V77.5759H107.86V219.304H233.932V253.088H100.856V278.632H233.932V315.712H66.66Z" fill="black"/>
</svg>
