<svg viewBox="0 0 500 500" fill="none" xmlns="http://www.w3.org/2000/svg">
<path d="M324.572 363.504C357.12 387.4 399.968 421.596 421.392 441.784L441.58 422.42C419.332 402.644 375.66 370.096 343.524 347.024L324.572 363.504ZM110.332 61.92V145.144H61.716V173.984H110.332V262.976C90.144 269.98 72.016 275.748 57.184 280.28L65.424 310.356L110.332 294.288V402.232C110.332 407.588 108.684 409.236 103.74 409.236C98.796 409.648 83.964 409.648 67.072 409.236C71.192 417.888 74.9 431.484 76.136 439.312C100.856 439.312 116.512 438.488 126.4 433.132C136.288 428.188 139.996 419.124 139.996 402.232V283.576L184.08 267.508L179.136 239.492L139.996 253.088V173.984H181.608V145.144H139.996V61.92H110.332ZM267.716 118.776H329.928C323.336 133.196 314.684 148.44 306.032 159.976H239.7C250 146.792 259.476 132.784 267.716 118.776ZM179.548 316.124V342.08H284.196C268.952 379.572 237.228 403.88 167.6 417.476C173.368 423.244 180.784 433.956 183.256 441.372C264.42 423.656 299.44 391.52 315.92 342.08H438.696V316.124H412.328V159.976H335.696C347.232 143.084 359.592 122.484 367.832 104.356L349.292 91.996L344.76 93.232H281.312C285.844 84.1681 289.964 75.104 293.672 66.04L264.832 61.5081C250.824 98.588 224.044 144.32 184.08 178.928C189.848 183.048 198.912 192.524 203.032 198.704L214.568 187.992V316.124H179.548ZM298.204 275.336C296.968 290.168 294.908 303.764 292.436 316.124H240.524V185.932H308.916C295.732 216.008 272.66 243.612 245.88 261.328C251.648 264.624 261.948 272.452 266.48 276.572C282.136 264.624 298.204 248.556 310.976 230.016C333.224 244.024 356.708 262.152 369.068 274.924L383.9 257.208C370.716 244.436 344.76 225.896 322.512 212.712C326.632 205.708 330.34 198.292 333.224 190.876L314.272 185.932H385.548V316.124H322.512C324.984 303.352 327.044 289.756 328.28 275.336H298.204Z" fill="black"/>
</svg>
