<svg viewBox="0 0 500 500" fill="none" xmlns="http://www.w3.org/2000/svg">
<path d="M72.84 411.296L93.852 438.076C124.752 407.588 160.596 368.448 189.024 334.252L172.544 309.944C140.408 346.612 100.032 387.812 72.84 411.296ZM88.496 183.048C113.216 197.056 147 217.656 163.892 229.192L182.432 206.12C164.716 194.172 130.52 175.632 106.212 162.86L88.496 183.048ZM62.54 260.504C88.084 272.452 122.692 290.168 139.996 300.88L157.712 276.572C139.584 266.272 104.152 249.792 79.432 239.492L62.54 260.504ZM257.416 96.5279V123.72H305.62V159.976L304.384 158.328L278.016 170.276C285.02 180.164 292.848 192.524 299.852 203.648H188.2V232.076H220.336V371.332C220.336 410.06 234.344 424.48 276.78 424.48C287.08 424.48 362.064 424.48 378.544 424.48C396.672 424.48 416.448 424.068 424.276 421.596C423.04 414.592 421.804 402.644 420.568 393.992C410.68 396.052 389.668 397.288 376.896 397.288C360.828 397.288 291.612 397.288 276.368 397.288C257.004 397.288 251.648 390.284 251.648 372.156V232.076H433.752V203.648H336.108C328.28 190.876 316.332 173.984 306.444 160.8H336.108V123.72H430.868V96.5279H336.108V61.9199H305.62V96.5279H257.416ZM68.72 96.5279V123.72H162.244V162.036H192.732V123.72H241.76V96.5279H192.732V61.9199H162.244V96.5279H68.72Z" fill="black"/>
</svg>
