<svg viewBox="0 0 500 500" fill="none" xmlns="http://www.w3.org/2000/svg">
<path d="M86.8479 118.364C93.4399 132.372 100.444 150.912 103.74 162.036L125.576 154.62C122.28 144.32 114.452 126.604 107.86 112.596L86.8479 118.364ZM249.176 156.68C259.476 183.46 271.424 219.304 275.956 240.728L298.616 231.252C293.26 211.064 281.312 176.044 270.188 149.676L249.176 156.68ZM343.936 157.092C354.236 183.46 365.36 218.068 370.304 238.256L393.376 230.016C388.02 210.652 376.072 176.868 365.772 151.324L343.936 157.092ZM210.448 105.592C205.092 122.896 194.792 147.204 186.552 164.096H172.956V100.648C199.324 97.764 224.044 93.644 243.408 88.7L226.516 66.864C189.024 76.752 120.632 83.344 65.8359 86.64C68.7199 92.82 72.0159 102.708 73.2519 108.476C96.3239 107.652 121.456 106.004 146.588 103.532V164.096H64.1879V187.992H131.756C112.392 215.184 81.0799 244.024 55.5359 259.268C59.6559 266.272 65.8359 278.22 68.3079 286.048C94.6759 268.744 125.164 236.608 146.588 205.296V267.096H172.956V204.472C196.852 227.544 220.336 255.148 231.872 274.512L251.648 257.62C239.288 237.844 214.156 210.652 190.26 187.992H246.292V164.096H210.448C218.276 149.264 226.516 130.724 234.344 113.832L210.448 105.592ZM147.824 358.972V394.816H105.8V358.972H147.824ZM170.072 358.972H213.332V394.816H170.072V358.972ZM147.824 336.724H105.8V302.94H147.824V336.724ZM170.072 336.724V302.94H213.332V336.724H170.072ZM81.4919 278.632V440.548H105.8V419.124H213.332V436.016H238.464V278.632H81.4919ZM240.936 338.784L257.004 360.208C273.896 338.784 292.436 313.652 308.916 289.344V401.408C308.916 406.352 307.268 408 302.324 408.412C296.968 408.824 280.488 408.824 263.184 408C266.892 415.828 271.012 429.424 271.836 436.84C295.32 436.84 312.212 436.428 322.1 431.484C331.988 426.54 334.872 417.476 334.872 401.82V82.108H251.236V108.476H308.916V286.872L294.496 266.684C274.72 294.7 253.708 321.892 240.936 338.784ZM336.108 332.192L352.176 354.028C368.244 333.84 385.96 309.944 401.616 286.872V401.408C401.616 406.352 399.968 408 395.024 408.412C389.668 408.824 372.364 408.824 354.236 408C357.944 415.828 361.652 428.6 362.476 436.428C387.608 436.428 404.5 436.016 414.8 431.072C425.1 426.128 428.396 417.476 428.396 401.408V82.108H344.348V108.476H401.616V279.868L388.844 262.152C369.068 289.756 348.468 316.124 336.108 332.192Z" fill="black"/>
</svg>
