<svg viewBox="0 0 500 500" fill="none" xmlns="http://www.w3.org/2000/svg">
<path d="M85.612 277.808V308.296H214.98V383.692C214.98 424.068 228.576 434.78 276.78 434.78C287.492 434.78 358.356 434.78 369.892 434.78C413.152 434.78 423.864 417.888 428.808 358.56C419.332 356.5 405.736 351.144 397.908 345.788C395.024 394.816 391.316 404.704 368.244 404.704C352.176 404.704 291.2 404.704 278.84 404.704C252.884 404.704 247.94 400.996 247.94 383.692V308.296H405.324V277.808H247.94V211.476C290.788 203.236 330.752 193.348 362.476 181.4L337.344 156.268C284.196 177.692 188.2 194.584 103.74 204.472C107.448 211.888 111.98 223.836 113.216 231.664C146.176 227.956 180.784 223.012 214.98 217.244V277.808H85.612ZM219.512 68.9239C226.104 79.6359 232.696 92.8199 237.64 104.768H76.96V190.876H108.272V134.432H391.728V190.876H424.276V104.768H273.896C268.128 91.1719 258.24 73.4559 249.588 59.8599L219.512 68.9239Z" fill="black"/>
</svg>
