<svg viewBox="0 0 500 500" fill="none" xmlns="http://www.w3.org/2000/svg">
<path d="M70.368 87.4639C89.732 102.296 113.216 123.72 124.34 138.964L142.468 119.188C131.344 104.768 107.448 83.7559 88.084 70.1599L70.368 87.4639ZM58.42 202.412C78.196 215.184 102.916 234.136 115.276 246.908L131.344 224.66C118.984 211.888 93.852 194.172 74.076 182.636L58.42 202.412ZM62.952 418.712L87.26 435.192C104.152 398.524 123.928 349.496 138.76 308.296L116.512 291.404C100.444 335.9 78.196 387.812 62.952 418.712ZM275.132 441.372C281.312 436.428 292.436 431.072 366.596 402.232C364.948 396.464 362.888 385.752 362.476 378.336L302.736 399.348V278.22H330.34C349.704 340.02 385.136 399.76 426.336 429.836C430.456 422.008 439.108 412.12 445.288 406.352C424.688 393.58 405.324 372.98 389.256 348.672C405.324 337.548 423.452 322.716 439.108 309.12L418.096 290.58C407.796 301.704 391.728 316.948 376.896 328.896C368.244 312.828 360.416 295.524 354.236 278.22H438.696V251.852H310.976V217.656H419.744V194.172H310.976V162.86H419.744V139.788H310.976V108.064H432.516V82.5199H283.372V251.852H257.004V278.22H277.192V389.872C277.192 405.116 269.776 410.06 264.008 412.944C268.128 419.948 273.072 434.368 275.132 441.372ZM161.832 171.924C160.596 210.24 157.3 261.328 153.18 292.64H220.336C216.628 369.684 211.272 399.348 204.268 406.764C200.972 410.472 197.676 411.296 191.084 411.296C184.492 411.296 167.6 411.296 149.06 409.236C153.18 416.652 156.064 426.952 156.476 434.368C175.016 435.604 193.144 435.604 202.62 434.78C214.156 433.956 221.16 431.484 227.34 423.656C238.464 412.12 243.408 375.864 248.352 278.632C248.764 274.512 249.176 266.684 249.176 266.684H182.02L186.552 198.704H250.824V77.9879H154.416V104.768H225.28V171.924H161.832Z" fill="black"/>
</svg>
