<svg viewBox="0 0 500 500" fill="none" xmlns="http://www.w3.org/2000/svg">
<path d="M347.644 307.472L373.188 297.996C396.672 339.608 426.748 394.816 440.756 427.364L413.152 438.9C399.556 406.352 371.54 349.496 347.644 307.472ZM384.724 252.676V160.8H338.58V206.532C338.58 221.776 338.168 237.432 337.344 252.676H384.724ZM309.74 61.92H338.58V131.548H413.152V252.676H440.344V281.516H334.46C326.632 341.256 303.972 397.7 244.644 441.784C240.112 435.192 229.4 425.716 222.396 421.184C275.956 382.456 296.968 333.428 305.208 281.516H238.876V252.676H308.092C309.328 237.432 309.74 221.776 309.74 206.532V160.8H246.704V131.548H309.74V61.92ZM76.136 269.98H101.68V370.096H132.992V242.788H60.892V213.948H132.992V138.964H105.8C98.384 159.976 89.732 178.928 80.256 194.172C74.488 190.052 62.128 182.636 54.712 179.752C74.9 149.676 89.732 105.18 98.796 61.0959L126.4 66.8639C123.104 81.6959 119.396 96.116 115.276 110.536H221.16V138.964H161.008V213.948H228.988V242.788H161.008V370.096H193.556V270.392H219.924V411.296H193.556V397.7H76.136V269.98Z" fill="black"/>
</svg>
