<svg viewBox="0 0 500 500" fill="none" xmlns="http://www.w3.org/2000/svg">
<path d="M148.648 290.992V316.536H355.884V290.992H148.648ZM148.648 335.9V361.856H355.884V335.9H148.648ZM148.648 246.496V271.628H355.884V246.496H148.648ZM118.572 226.308H386.784V381.632H118.572V226.308ZM285.844 400.172L305.208 382.868C320.315 386.988 335.421 391.52 350.528 396.464C365.909 401.408 380.329 406.215 393.788 410.884C407.521 415.553 419.332 420.085 429.22 424.48L404.912 443.432C395.573 439.312 384.587 434.78 371.952 429.836C359.317 424.892 345.584 419.811 330.752 414.592C316.195 409.373 301.225 404.567 285.844 400.172ZM188.612 382.868L216.216 395.64C205.229 401.683 192.32 407.588 177.488 413.356C162.931 419.124 147.961 424.48 132.58 429.424C117.199 434.368 102.504 438.488 88.496 441.784C87.1227 439.587 85.0626 436.977 82.316 433.956C79.5693 431.209 76.8226 428.463 74.076 425.716C71.3293 422.969 68.72 420.635 66.248 418.712C80.5306 415.965 95.2253 412.669 110.332 408.824C125.439 405.253 139.721 401.271 153.18 396.876C166.913 392.481 178.724 387.812 188.612 382.868ZM133.816 170.688H351.764V194.172H133.816V170.688ZM250.412 60.684L277.192 71.808C254.669 94.6053 226.516 115.343 192.732 134.02C158.948 152.423 122.28 167.941 82.728 180.576C81.08 178.379 79.02 175.769 76.548 172.748C74.076 169.727 71.3293 166.843 68.308 164.096C65.5613 161.075 62.952 158.603 60.48 156.68C86.2986 149.264 111.293 140.612 135.464 130.724C159.635 120.561 181.608 109.575 201.384 97.764C221.435 85.6786 237.777 73.3186 250.412 60.684ZM256.18 72.632C264.969 80.048 276.093 87.6013 289.552 95.292C303.285 102.708 318.529 110.124 335.284 117.54C352.313 124.956 369.892 131.823 388.02 138.14C406.423 144.183 424.825 149.127 443.228 152.972C441.031 154.895 438.559 157.367 435.812 160.388C433.065 163.135 430.456 166.019 427.984 169.04C425.512 172.061 423.452 174.808 421.804 177.28C403.951 172.336 385.96 166.431 367.832 159.564C349.979 152.697 332.675 145.144 315.92 136.904C299.44 128.664 284.333 120.424 270.6 112.184C256.867 103.669 245.331 95.704 235.992 88.288L256.18 72.632ZM344.348 170.688H350.116L354.648 169.04L376.072 180.988C366.459 191.151 356.159 201.725 345.172 212.712C334.185 223.699 323.336 234.411 312.624 244.848L286.256 230.016C296.693 220.403 307.268 210.515 317.98 200.352C328.967 190.189 337.756 181.4 344.348 173.984V170.688ZM194.792 133.196H311.388V152.972H194.792V133.196Z" fill="black"/>
</svg>
