<svg viewBox="0 0 500 500" fill="none" xmlns="http://www.w3.org/2000/svg">
<path d="M313.448 101.472V142.26H387.196V101.472H313.448ZM212.508 101.472V142.26H285.02V101.472H212.508ZM114.04 101.472V142.26H183.668V101.472H114.04ZM84.376 77.988H418.096V166.156H84.376V77.988ZM267.304 173.984H295.732V253.5C295.732 258.444 297.105 261.74 299.852 263.388C302.599 265.036 308.916 265.86 318.804 265.86C320.727 265.86 324.709 265.86 330.752 265.86C336.795 265.86 343.387 265.86 350.528 265.86C357.944 265.86 364.811 265.86 371.128 265.86C377.445 265.86 381.977 265.86 384.724 265.86C389.943 265.86 393.788 265.173 396.26 263.8C398.732 262.152 400.517 258.993 401.616 254.324C402.715 249.38 403.539 242.101 404.088 232.488C407.384 234.685 411.504 236.745 416.448 238.668C421.392 240.591 425.787 241.964 429.632 242.788C428.533 255.697 426.611 265.723 423.864 272.864C421.117 279.731 416.86 284.537 411.092 287.284C405.599 289.756 397.908 290.992 388.02 290.992C386.097 290.992 382.664 290.992 377.72 290.992C373.051 290.992 367.557 290.992 361.24 290.992C355.197 290.992 349.017 290.992 342.7 290.992C336.383 290.992 330.752 290.992 325.808 290.992C321.139 290.992 317.98 290.992 316.332 290.992C303.148 290.992 292.985 290.031 285.844 288.108C278.977 285.911 274.171 282.065 271.424 276.572C268.677 271.079 267.304 263.388 267.304 253.5V173.984ZM267.304 301.292H296.144V395.228C296.144 400.996 297.517 404.704 300.264 406.352C303.011 407.725 309.328 408.412 319.216 408.412C321.139 408.412 325.121 408.412 331.164 408.412C337.481 408.412 344.348 408.412 351.764 408.412C359.18 408.412 366.047 408.412 372.364 408.412C378.956 408.412 383.763 408.412 386.784 408.412C391.728 408.412 395.436 407.588 397.908 405.94C400.655 404.292 402.577 400.859 403.676 395.64C405.049 390.147 406.011 382.044 406.56 371.332C409.581 373.529 413.564 375.589 418.508 377.512C423.452 379.435 427.984 380.808 432.104 381.632C431.005 395.64 429.083 406.489 426.336 414.18C423.589 421.871 419.332 427.089 413.564 429.836C407.796 432.857 399.693 434.368 389.256 434.368C387.608 434.368 384.312 434.368 379.368 434.368C374.424 434.368 368.793 434.368 362.476 434.368C356.159 434.368 349.704 434.368 343.112 434.368C336.795 434.368 331.164 434.368 326.22 434.368C321.551 434.368 318.392 434.368 316.744 434.368C303.56 434.368 293.397 433.269 286.256 431.072C279.389 428.875 274.445 424.892 271.424 419.124C268.677 413.631 267.304 405.803 267.304 395.64V301.292ZM184.904 196.644L206.328 185.932C212.92 192.799 219.649 200.352 226.516 208.592C233.383 216.832 239.7 224.935 245.468 232.9C251.511 240.591 256.455 247.595 260.3 253.912L236.816 266.684C233.52 260.367 228.988 253.225 223.22 245.26C217.727 237.02 211.547 228.643 204.68 220.128C198.088 211.613 191.496 203.785 184.904 196.644ZM207.564 272.452H235.168V408.412C235.168 414.729 234.207 419.673 232.284 423.244C230.636 426.815 227.203 429.699 221.984 431.896C217.04 433.819 210.311 434.917 201.796 435.192C193.556 435.467 183.119 435.604 170.484 435.604C169.935 432.308 168.836 428.6 167.188 424.48C165.815 420.36 164.167 416.789 162.244 413.768C171.033 414.043 179.136 414.18 186.552 414.18C193.968 414.18 198.912 414.18 201.384 414.18C205.504 413.905 207.564 411.983 207.564 408.412V272.452ZM86.848 258.032C86.2986 255.56 85.4746 252.676 84.376 249.38C83.2773 245.809 82.0413 242.376 80.668 239.08C79.5693 235.509 78.4706 232.488 77.372 230.016C80.3933 229.192 83.4146 227.819 86.436 225.896C89.732 223.973 93.028 221.639 96.324 218.892C98.796 216.695 102.641 212.987 107.86 207.768C113.079 202.275 118.709 195.82 124.752 188.404C131.069 180.988 136.7 173.297 141.644 165.332L168.012 180.164C158.948 191.975 149.197 203.236 138.76 213.948C128.323 224.66 118.023 233.861 107.86 241.552V242.376C107.86 242.376 106.761 242.925 104.564 244.024C102.367 244.848 99.8946 246.084 97.148 247.732C94.4013 249.105 91.9293 250.753 89.732 252.676C87.8093 254.324 86.848 256.109 86.848 258.032ZM86.848 258.032L86.436 237.844L101.268 229.604L226.104 223.424C226.104 226.72 226.241 230.565 226.516 234.96C226.791 239.355 227.065 242.925 227.34 245.672C197.951 247.595 174.467 249.105 156.888 250.204C139.309 251.303 125.713 252.264 116.1 253.088C106.761 253.912 100.032 254.736 95.912 255.56C92.0666 256.109 89.0453 256.933 86.848 258.032ZM284.608 200.764H412.328V223.424H284.608V200.764ZM286.256 330.956H418.92V354.028H286.256V330.956ZM104.976 272.452H220.336V296.348H104.976V272.452ZM92.616 272.452H119.808V328.484C119.808 339.745 118.984 352.105 117.336 365.564C115.688 379.023 112.392 392.344 107.448 405.528C102.504 418.437 95.2253 430.248 85.612 440.96C84.2386 439.037 82.316 436.84 79.844 434.368C77.372 431.896 74.7626 429.424 72.016 426.952C69.544 424.755 67.2093 423.107 65.012 422.008C73.5266 412.669 79.7066 402.644 83.552 391.932C87.3973 380.945 89.8693 369.959 90.968 358.972C92.0666 347.985 92.616 337.685 92.616 328.072V272.452ZM118.572 376.688C130.932 373.117 145.352 368.585 161.832 363.092C178.312 357.324 195.341 351.419 212.92 345.376L216.628 366.388C201.521 372.156 186.277 377.924 170.896 383.692C155.789 389.185 141.507 394.267 128.048 398.936L118.572 376.688ZM124.34 327.66L135.052 310.768C145.489 312.965 156.339 316.124 167.6 320.244C178.861 324.089 187.788 328.072 194.38 332.192L183.668 350.732C177.076 346.887 168.149 342.767 156.888 338.372C145.627 333.977 134.777 330.407 124.34 327.66Z" fill="black"/>
</svg>
