<svg xmlns="http://www.w3.org/2000/svg" viewBox="0 0 500 500"><defs><style>.cls-1{fill:#4b4b4b;}</style></defs><title>字z</title><g id="_2010年" data-name="2010年"><g id="中国国际字-5" data-name="中国国际字"><path id="乱" class="cls-1" d="M184.63,177h91.31v28.22H184.63v69.31h74.71V430.12H229V414.77H110.76v17.84H81.71V274.49h72.63V205.18H60.13V177h94.21V114.29c-26.15,4.15-53.54,7.47-78.86,10-1.24-7.06-5-18.26-8.71-24.9,62.66-7.06,136.54-19.1,177.21-34l23.66,23.24c-23.66,8.31-52.29,15-83,20.34ZM229,302.29H110.76V387H229ZM392.15,406.47c15.35,0,17.84-15.78,19.92-77.61,7.47,6.22,19.09,11.62,27.8,13.69-3.32,68.48-10.79,92.14-45.23,92.14H340.27c-34.86,0-44.82-11.21-44.82-53.13v-315h30.29V382c0,20.75,2.91,24.49,17.85,24.49Z"/></g></g></svg>