<svg xmlns="http://www.w3.org/2000/svg" viewBox="0 0 500 500"><defs><style>.cls-1{fill:#4b4b4b;}</style></defs><title>字z</title><g id="_2011年" data-name="2011年"><g id="马来西亚"><path id="轉-繁体" class="cls-1" d="M390.07,321.61h49.14v24.78H390.07v63.84c0,15.54-3.36,23.52-14.7,27.3-12.18,4.62-30.24,4.62-58.38,4.62-1.26-7.56-5.46-18.9-9.66-26.88,21,.84,40.74.84,46.2.42,5.88,0,7.56-1.26,7.56-5.88V346.39H231.31v21.84H158.65v74.34H130.51V368.23H56.59V340.09h73.92V306.91H71.71V161.17h58.8V130.51H62.05v-27.3h68.46V57.43h27.72v45.78h67.2v27.3h-67.2v30.66H220V306.91H158.65v33.18h68.88V321.61H361.09V298.93h29ZM94.81,222.49h38.64v-37.8H94.81Zm0,60.9h38.64V244.75H94.81ZM196,184.69h-39.9v37.8H196Zm0,60.06h-39.9v38.64H196Zm32.34,28.14c24.36-.42,55.44-.42,89.88-1.26V244.75H241.81V135.13h76.44V112.87h-86.1V88.09h86.1V57.85h26.88V88.09h91.14v24.78H345.13v22.26h80.64V244.75H398.05c18.06,16,35.7,36.12,45.36,50l-21,15.54a188.51,188.51,0,0,0-12.18-17.22c-65.94,1.68-132.72,2.94-179.76,4.2Zm45.78,76.44c16.38,14.28,33.18,34,40.74,48.3l-22.68,15.54c-7.56-15.12-23.94-36.12-39.48-50.82Zm-6.72-169.26h50.82v-25.2H267.43ZM318.25,225V199H267.43v26Zm26.88-70.14v25.2h54.6v-25.2Zm54.6,44.1h-54.6v26h54.6Zm-54.6,72.24,45.78-.84c-6.3-6.3-12.6-12.6-18.48-18.06l11.76-7.56H345.13Z"/></g></g></svg>