<svg viewBox="0 0 500 500" fill="none" xmlns="http://www.w3.org/2000/svg">
<path d="M60.0679 177.692V205.708H275.956V177.692H60.0679ZM95.4999 387.4V415.004H244.644V387.4H95.4999ZM243.408 65.628C203.444 80.872 129.284 92.82 66.6599 99.824C70.3679 106.416 74.4879 117.54 75.7239 124.544C140.408 118.364 217.04 106.828 267.304 89.524L243.408 65.628ZM294.908 67.276V382.044C294.908 424.068 304.796 435.192 340.228 435.192C346.82 435.192 387.196 435.192 394.612 435.192C429.22 435.192 436.636 411.708 439.932 342.904C431.28 340.844 419.332 335.076 411.916 329.308C409.856 391.108 407.796 406.764 392.552 406.764C383.488 406.764 350.528 406.764 343.524 406.764C328.28 406.764 325.808 403.468 325.808 382.456V67.276H294.908ZM81.4919 274.512V433.132H110.744V302.528H228.576V430.66H259.064V274.512H81.4919ZM154.416 96.528V293.464H184.904V96.528H154.416Z" fill="black"/>
</svg>
