<svg viewBox="0 0 500 500" fill="none" xmlns="http://www.w3.org/2000/svg">
<path d="M295.32 67.276V381.632C295.32 424.068 305.208 435.192 340.228 435.192C347.232 435.192 387.196 435.192 394.612 435.192C429.22 435.192 436.636 411.296 439.932 342.492C431.692 340.432 419.744 334.664 411.916 328.896C409.856 391.108 407.796 406.352 392.552 406.352C383.9 406.352 350.94 406.352 343.936 406.352C328.692 406.352 325.808 403.056 325.808 382.044V67.276H295.32ZM81.9039 274.512V433.132H110.744V415.004H228.988V430.248H259.476V274.512H185.316V205.296H276.368V177.28H185.316V109.3C215.804 103.944 244.232 96.94 267.304 89.112L243.82 65.216C203.856 80.46 129.696 92.408 67.0719 99.412C70.3679 106.416 74.4879 117.54 76.1359 124.132C101.268 121.66 128.048 118.364 154.828 114.244V177.28H60.0679V205.296H154.828V274.512H81.9039ZM110.744 386.988V302.116H228.988V386.988H110.744Z" fill="black"/>
</svg>
