<svg viewBox="0 0 500 500" fill="none" xmlns="http://www.w3.org/2000/svg">
<path d="M282.548 295.936V331.368C282.548 357.736 273.896 395.64 161.008 419.124C167.6 424.892 175.84 434.78 179.548 440.96C297.38 412.12 311.388 366.388 311.388 331.78V295.936H282.548ZM310.976 388.224C347.644 401.408 395.436 422.832 419.332 438.488L435.812 415.828C410.268 400.996 362.476 380.808 326.632 368.448L310.976 388.224ZM193.144 248.968V365.976H221.16V271.216H378.132V365.976H407.796V248.968H193.144ZM285.844 61.92V98.176H181.196V122.072H285.844V148.44H193.968V171.1H285.844V200.764H170.484V224.248H430.868V200.764H314.684V171.1H402.44V148.44H314.684V122.072H413.152V98.176H314.684V61.92H285.844ZM143.292 63.568C124.34 125.368 93.4401 187.168 59.2441 227.956C65.0121 234.96 74.0761 251.44 77.3721 258.444C88.4961 244.848 99.6201 228.78 109.92 211.476V440.136H139.584V155.856C152.356 128.664 163.48 100.236 172.544 71.808L143.292 63.568Z" fill="black"/>
</svg>
