<svg viewBox="0 0 500 500" fill="none" xmlns="http://www.w3.org/2000/svg">
<path d="M189.024 61.0959C168.012 98.176 129.284 143.496 74.4881 176.044C82.3161 180.988 92.6161 190.876 97.9721 197.88L118.984 183.048V197.056H231.46V242.376H61.7161V270.392H231.46V319.008H102.504V347.024H231.46V402.232C231.46 408.412 229.4 410.472 221.16 410.884C213.332 411.708 186.964 411.708 156.476 410.472C161.42 419.124 167.188 431.896 168.836 440.136C206.328 440.548 228.988 440.136 243.82 435.192C258.24 430.248 263.184 421.596 263.184 402.232V347.024H384.312V270.392H439.932V242.376H384.312V169.04H297.792C315.92 150.912 334.46 129.488 346.82 110.124L324.984 94.468L319.628 96.116H203.856C210.86 86.6399 217.04 77.164 222.808 67.688L189.024 61.0959ZM263.184 197.056H353.824V242.376H263.184V197.056ZM263.184 270.392H353.824V319.008H263.184V270.392ZM136.288 169.04C153.18 154.62 168.836 138.964 182.02 123.308H299.028C287.904 138.964 273.484 156.268 259.888 169.04H136.288Z" fill="black"/>
</svg>
