<svg viewBox="0 0 500 500" fill="none" xmlns="http://www.w3.org/2000/svg">
<path d="M231.872 61.9199V134.02H152.768C160.596 115.068 167.6 94.8799 173.368 74.2799L141.232 67.6879C126.4 123.72 100.856 178.928 68.7202 213.948C76.5482 217.244 91.7922 225.484 98.3842 230.016C112.804 212.3 126.4 190.052 138.76 165.332H231.872V190.052C231.872 209.004 231.048 228.368 227.752 247.32H66.2482V278.22H220.748C203.444 331.78 161.42 380.808 61.3042 414.592C67.8962 420.772 76.9602 433.956 80.6682 441.372C186.14 405.116 231.872 351.144 250.824 291.816C282.96 368.448 337.344 418.712 423.452 440.96C427.984 432.72 437.048 419.536 444.052 412.944C360.004 393.992 305.62 347.848 277.192 278.22H434.164V247.32H260.712C263.184 228.368 264.008 209.004 264.008 190.052V165.332H399.556V134.02H264.008V61.9199H231.872Z" fill="black"/>
</svg>
