<svg viewBox="0 0 500 500" fill="none" xmlns="http://www.w3.org/2000/svg">
<path d="M76.9601 94.88C99.6201 115.068 125.988 143.908 137.524 162.86L162.656 144.32C149.884 125.368 122.692 97.764 100.856 78.4L76.9601 94.88ZM365.36 169.04V209.004H236.404V169.04H365.36ZM365.36 144.732H236.404V106.004H365.36V144.732ZM202.208 373.804C210.448 368.448 223.22 363.916 309.328 339.608C308.504 333.84 307.68 321.892 308.092 313.652L236.404 332.192V234.96H395.436V80.46H205.092V319.008C205.092 336.312 195.204 344.552 188.2 348.26C193.144 354.028 200.148 366.388 202.208 373.804ZM274.72 263.8C318.804 295.524 371.952 342.08 396.672 372.568L419.744 354.44C405.736 337.96 383.9 317.772 360.004 297.996C382.252 285.224 407.384 268.332 428.396 252.264L403.676 234.136C388.02 248.144 362.476 267.508 340.228 281.928C325.396 269.568 310.152 258.032 295.732 248.144L274.72 263.8ZM150.708 208.592H65.4241V237.432H121.456V364.74C102.916 371.744 81.9041 388.224 60.8921 408.824L79.8441 434.368C102.092 409.236 123.516 387.4 138.348 387.4C147.824 387.4 161.008 399.348 178.312 409.236C206.74 425.716 242.584 429.836 291.2 429.836C330.752 429.836 402.852 427.364 432.516 425.716C433.34 417.064 437.872 402.644 441.168 394.816C401.204 399.348 339.816 402.232 292.024 402.232C247.116 402.232 211.684 399.348 184.904 384.928C169.248 375.864 159.772 368.036 150.708 363.916V208.592Z" fill="black"/>
</svg>
