<svg viewBox="0 0 500 500" fill="none" xmlns="http://www.w3.org/2000/svg">
<path d="M315.92 74.692C326.632 93.644 339.404 118.776 344.348 134.844L372.364 122.072C366.596 106.416 354.236 82.52 342.7 63.98L315.92 74.692ZM331.576 244.848V297.996H269.364V244.848H331.576ZM272.66 63.98C257.416 115.068 228.164 180.164 193.144 220.952C198.088 227.956 205.504 241.14 208.388 248.968C219.512 236.196 230.224 221.364 240.112 205.708V441.372H269.364V411.296H437.46V382.456H359.592V326.012H424.276V297.996H359.592V244.848H423.452V216.832H359.592V164.508H432.928V136.492H277.604C287.492 115.068 296.144 93.232 303.148 72.632L272.66 63.98ZM331.576 216.832H269.364V164.508H331.576V216.832ZM331.576 326.012V382.456H269.364V326.012H331.576ZM63.776 179.752C86.848 209.828 111.568 245.26 133.816 279.456C112.804 325.6 86.024 362.268 55.948 384.928C63.364 390.284 73.252 400.996 78.196 408.824C107.036 384.928 132.58 351.968 153.18 309.944C167.6 333.428 179.548 355.264 187.788 372.98L211.684 351.556C201.796 330.956 186.14 305 167.6 277.396C186.552 231.252 200.148 176.868 207.564 114.244L188.2 108.064L182.844 109.3H67.896V137.316H174.604C168.836 176.868 159.36 213.948 147 246.908C126.812 218.068 104.976 188.404 85.2 162.448L63.776 179.752Z" fill="black"/>
</svg>
