<svg viewBox="0 0 500 500" fill="none" xmlns="http://www.w3.org/2000/svg">
<path d="M186.964 119.6H217.864V256.796H186.964V119.6ZM72.84 103.944H427.16V131.548H72.84V103.944ZM135.876 148.852L163.48 156.268C156.613 172.748 147.824 188.816 137.112 204.472C126.4 220.128 115.551 233.449 104.564 244.436C102.641 242.788 100.169 240.865 97.148 238.668C94.4013 236.471 91.38 234.411 88.084 232.488C85.0627 230.291 82.4533 228.643 80.256 227.544C91.792 217.656 102.367 205.708 111.98 191.7C121.868 177.692 129.833 163.409 135.876 148.852ZM328.692 164.508L351.764 151.324C360.828 159.015 369.892 167.529 378.956 176.868C388.02 186.207 396.397 195.408 404.088 204.472C412.053 213.536 418.371 221.639 423.04 228.78L398.732 244.848C393.788 237.432 387.471 228.917 379.78 219.304C372.089 209.691 363.712 200.215 354.648 190.876C345.859 181.263 337.207 172.473 328.692 164.508ZM221.984 65.628L251.648 58.212C256.592 65.3533 261.536 73.3187 266.48 82.108C271.699 90.8973 275.544 98.588 278.016 105.18L247.116 113.832C244.644 107.24 240.936 99.412 235.992 90.348C231.323 81.284 226.653 73.044 221.984 65.628ZM281.312 116.716H312.212V256.384H281.312V116.716ZM154.828 280.28C171.033 305.549 193.007 327.385 220.748 345.788C248.764 364.191 281.175 379.16 317.98 390.696C354.785 401.957 394.749 409.923 437.872 414.592C435.675 416.789 433.477 419.536 431.28 422.832C429.083 426.128 426.885 429.424 424.688 432.72C422.765 436.016 421.255 439.037 420.156 441.784C376.484 436.016 336.108 426.815 299.028 414.18C261.948 401.545 228.988 385.065 200.148 364.74C171.308 344.415 147.549 320.107 128.872 291.816L154.828 280.28ZM98.796 268.332H357.944V295.936H98.796V268.332ZM351.352 268.332H357.944L363.3 267.096L383.076 280.692C369.343 304.588 351.764 325.6 330.34 343.728C309.191 361.581 285.295 376.963 258.652 389.872C232.009 402.507 203.444 413.081 172.956 421.596C142.743 430.111 111.98 436.84 80.668 441.784C79.844 439.312 78.4707 436.291 76.548 432.72C74.9 429.424 72.9773 426.128 70.78 422.832C68.8573 419.536 67.072 416.789 65.424 414.592C96.1867 410.472 126.125 404.704 155.24 397.288C184.629 389.872 211.959 380.533 237.228 369.272C262.497 357.736 284.883 344.14 304.384 328.484C324.16 312.553 339.816 294.151 351.352 273.276V268.332Z" fill="black"/>
</svg>
