<svg viewBox="0 0 500 500" fill="none" xmlns="http://www.w3.org/2000/svg">
<path d="M253.708 363.504C269.364 378.336 285.432 399.348 292.436 413.768L315.508 398.936C307.68 384.928 290.788 365.152 274.72 351.144L253.708 363.504ZM229.4 275.336L231.46 298.82C277.604 297.996 343.936 296.76 409.032 294.7C413.564 300.88 417.272 306.648 420.156 311.592L442.404 298.82C432.928 283.988 414.388 262.976 395.848 246.908H425.512V138.964H345.996V116.716H434.988V92.408H345.996V62.332H318.804V92.408H233.52V116.716H318.804V138.964H243.408V246.908H318.804V274.1L229.4 275.336ZM74.488 164.508V307.884H132.992V341.668H59.656V368.86H132.992V441.372H161.008V368.86H231.048V347.436H360.828V410.06C360.828 414.592 359.18 416.24 353.412 416.652C348.056 417.064 329.104 417.064 308.504 416.24C312.212 423.656 316.332 433.956 317.568 441.784C345.172 441.784 362.888 441.784 374.836 437.252C386.784 433.544 389.256 426.128 389.256 410.884V347.436H439.932V323.128H389.256V300.88H360.828V323.128H228.988V341.668H161.008V307.884H220.748V164.508H161.008V134.02H225.28V106.828H161.008V61.92H132.992V106.828H65.424V134.02H132.992V164.508H74.488ZM268.952 202H318.804V227.544H268.952V202ZM345.996 202H398.732V227.544H345.996V202ZM268.952 158.328H318.804V183.46H268.952V158.328ZM345.996 158.328H398.732V183.46H345.996V158.328ZM371.952 254.736C377.72 260.092 383.9 266.272 390.08 272.452L345.996 273.688V246.908H387.196L371.952 254.736ZM97.972 246.908H135.876V284.812H97.972V246.908ZM158.124 246.908H196.852V284.812H158.124V246.908ZM97.972 187.58H135.876V224.66H97.972V187.58ZM158.124 187.58H196.852V224.66H158.124V187.58Z" fill="black"/>
</svg>
