<svg viewBox="0 0 500 500" fill="none" xmlns="http://www.w3.org/2000/svg">
<path d="M126.812 164.096C136.288 182.636 146.588 207.356 151.532 223.424L172.132 214.36C167.188 199.116 156.476 174.808 147 156.268L126.812 164.096ZM125.988 290.992C137.112 310.768 150.296 337.548 155.652 354.44L176.664 344.964C170.484 328.484 156.888 302.528 145.764 282.34L125.988 290.992ZM291.2 70.572C300.676 87.052 310.152 107.652 316.332 124.956H233.52V152.56H427.16V124.956H349.292C343.112 106.416 330.752 81.284 318.804 62.332L291.2 70.572ZM260.712 197.468V290.168C260.712 332.192 256.18 384.928 218.688 423.244C225.692 426.128 237.64 435.604 242.584 440.548C282.96 399.76 289.964 337.96 289.964 290.992V225.072H358.356V384.104C358.356 412.12 360.416 419.536 366.184 425.304C371.952 430.66 380.192 432.72 388.432 432.72C392.552 432.72 402.028 432.72 406.972 432.72C414.388 432.72 421.804 431.484 426.336 427.776C431.692 424.48 434.988 418.3 437.048 410.06C439.108 401.82 440.344 378.336 440.344 359.384C433.34 357.324 424.276 352.792 418.508 347.848C418.508 368.86 418.096 384.516 417.272 392.344C416.448 398.936 415.212 402.644 413.564 403.88C411.916 405.528 408.62 405.94 405.736 405.94C402.852 405.94 398.32 405.94 395.848 405.94C392.964 405.94 390.904 405.528 389.668 403.88C388.432 402.644 388.02 396.464 388.02 385.752V197.468H260.712ZM186.552 138.14V234.96L116.512 243.612V138.14H186.552ZM58.42 250.204L62.128 276.984L89.32 273.276C88.908 323.128 85.612 384.104 58.008 426.952C64.6 429.836 76.96 438.076 81.904 442.608C111.98 396.052 116.512 323.952 116.512 269.568L186.552 259.68V403.056C186.552 408 184.492 409.236 179.548 409.648C174.604 409.648 158.948 410.06 141.232 409.236C145.352 416.652 149.472 428.6 150.296 436.428C175.84 436.428 190.672 435.604 200.972 431.072C210.448 426.128 213.744 417.888 213.744 403.056V255.972L238.464 252.676L236.816 228.368L213.744 231.252V113.008H153.18C158.536 99 164.716 82.52 170.072 66.864L138.76 60.684C135.876 75.928 130.932 96.94 125.576 113.008H89.32V246.908L58.42 250.204Z" fill="black"/>
</svg>
