<svg viewBox="0 0 500 500" fill="none" xmlns="http://www.w3.org/2000/svg">
<path d="M148.648 290.992H355.884V316.536H148.648V290.992ZM148.648 335.9H355.884V361.856H148.648V335.9ZM148.648 246.496H355.884V271.628H148.648V246.496ZM286.256 400.172C331.576 414.18 377.308 430.66 404.912 443.432L429.22 424.48C399.556 411.708 350.528 395.228 305.208 382.868L286.256 400.172ZM188.612 382.868C158.536 397.7 108.684 410.472 66.248 418.712C73.252 424.068 83.964 435.604 88.496 441.784C130.108 431.484 182.844 413.768 216.216 395.64L188.612 382.868ZM133.816 170.688V194.172H324.572L290.376 226.308H118.572V381.632H386.784V226.308H331.576C347.232 211.064 362.476 195.408 376.072 180.988L354.648 169.04L350.116 170.688H133.816ZM194.792 133.196V152.972H311.388V134.432C345.584 151.736 384.312 167.392 421.804 177.28C426.748 169.864 436.224 158.74 443.228 152.972C377.308 138.552 306.856 108.064 267.716 81.284L277.192 71.808L250.412 60.684C212.096 99 137.524 134.432 60.48 156.68C67.484 162.448 78.196 173.984 82.728 180.576C146.588 160.388 204.68 131.96 248.352 97.352C264.42 108.888 285.432 121.248 308.504 133.196H194.792Z" fill="black"/>
</svg>
