<svg viewBox="0 0 500 500" fill="none" xmlns="http://www.w3.org/2000/svg">
<path d="M108.272 106.416H186.14V178.928H108.272V106.416ZM59.656 390.696L65.012 420.772C108.684 410.472 168.012 396.052 224.456 381.632L221.572 354.028L167.188 366.8V293.052H210.86C216.628 298.82 222.396 307.472 225.692 313.652C233.932 309.944 242.172 306.236 250.412 301.704V440.136H279.252V424.892H383.076V438.9H412.328V302.528L425.512 308.708C430.044 300.468 438.696 288.52 444.876 282.752C407.384 268.744 376.072 246.908 350.116 221.776C376.484 190.876 397.496 154.208 411.092 111.36L391.728 102.708L385.96 103.944H306.032C310.976 92.408 315.096 80.8721 319.216 68.9241L289.964 61.5081C274.308 111.36 247.116 158.328 214.568 188.816V79.224H80.668V206.12H139.172V373.392L107.036 380.808V244.848H80.668V386.576L59.656 390.696ZM279.252 397.7V318.184H383.076V397.7H279.252ZM372.364 131.136C361.652 156.68 347.232 179.752 330.34 200.352C313.036 180.164 299.44 158.74 289.552 138.14L293.26 131.136H372.364ZM268.952 291.404C290.788 277.808 312.212 261.74 331.164 242.376C348.88 260.504 369.068 277.396 392.14 291.404H268.952ZM311.8 220.952C284.196 248.968 251.648 270.804 218.688 285.224V265.448H167.188V206.12H214.568V192.936C221.572 197.88 231.872 206.532 236.404 211.476C249.588 198.292 262.36 182.224 273.896 164.096C284.196 182.636 296.556 202 311.8 220.952Z" fill="black"/>
</svg>
