<svg viewBox="0 0 500 500" fill="none" xmlns="http://www.w3.org/2000/svg">
<path d="M150.296 312.416C159.36 329.308 169.66 351.968 173.78 367.212L186.552 361.444C182.432 347.436 172.132 324.776 162.244 307.884L150.296 312.416ZM125.988 318.596C133.816 340.02 140.408 368.036 142.468 386.164L156.064 382.868C154.004 364.74 147.412 337.136 139.584 316.124L125.988 318.596ZM102.092 323.128C105.8 347.024 107.448 377.512 106.624 398.112L121.868 396.052C121.868 375.864 119.808 345.376 116.1 321.48L102.092 323.128ZM75.724 315.3C73.252 344.552 67.072 383.28 57.184 406.352L75.724 414.18C85.612 390.284 90.968 350.732 94.264 320.656L75.724 315.3ZM308.504 265.036V324.776H277.604V265.036H308.504ZM327.456 265.036H358.768V324.776H327.456V265.036ZM404.5 75.5159C365.36 87.4639 294.084 97.3519 233.932 103.12V210.652C233.932 269.156 231.872 353.616 206.74 414.592C213.332 416.652 224.868 423.244 229.4 426.952C243.82 391.932 251.648 347.848 255.768 305V437.252H277.604V349.908H308.504V425.304H327.456V349.908H358.768V424.48H378.132V349.908H409.032V410.472C409.032 413.768 408.62 415.004 405.324 415.004C402.44 415.004 395.436 415.004 385.548 414.592C388.432 420.772 391.316 429.836 392.14 436.016C406.148 436.016 415.624 435.604 422.216 431.896C429.22 428.188 430.868 422.008 430.868 410.472V239.492H259.476L259.888 216.832H428.396V140.2H259.888V120.836C317.156 115.48 380.192 106.416 423.04 94.4679L404.5 75.5159ZM378.132 265.036H409.032V324.776H378.132V265.036ZM259.888 162.86H401.204V193.76H259.888V162.86ZM140.82 169.04V205.708H104.564V169.04H140.82ZM79.432 80.4599V295.112L104.564 294.7H191.908C188.612 375.864 184.492 405.94 178.724 413.356C176.252 417.064 173.368 417.888 168.836 417.888C163.892 417.888 153.18 417.888 140.82 416.652C144.116 422.42 146.176 431.484 146.588 437.664C158.124 438.488 170.484 438.488 177.076 437.664C186.552 437.252 192.32 434.78 197.264 428.188C206.328 416.652 210.448 382.456 214.568 281.104C214.98 277.396 214.98 269.98 214.98 269.98H165.128V230.016H210.86V205.708H165.128V169.04H210.448V144.732H165.128V106.828H216.628V80.4599H79.432ZM140.82 144.732H104.564V106.828H140.82V144.732ZM140.82 230.016V269.98H104.564V230.016H140.82Z" fill="black"/>
</svg>
