<svg viewBox="0 0 500 500" fill="none" xmlns="http://www.w3.org/2000/svg">
<path d="M158.124 117.54H189.436V232.9C189.436 252.127 188.2 271.353 185.728 290.58C183.531 309.532 178.861 328.072 171.72 346.2C164.579 364.053 153.867 381.083 139.584 397.288C125.576 413.493 106.761 428.325 83.14 441.784C81.492 439.312 79.2946 436.565 76.548 433.544C74.076 430.797 71.3293 427.913 68.308 424.892C65.5613 422.145 62.952 419.948 60.48 418.3C82.728 405.94 100.307 392.619 113.216 378.336C126.125 363.779 135.876 348.535 142.468 332.604C149.06 316.399 153.317 299.919 155.24 283.164C157.163 266.409 158.124 249.517 158.124 232.488V117.54ZM315.096 69.748H346.408V440.96H315.096V69.748ZM64.6 227.956H435.812V258.032H64.6V227.956ZM248.352 68.1L271.424 93.644C254.944 102.159 235.992 110.261 214.568 117.952C193.144 125.643 170.759 132.647 147.412 138.964C124.34 145.281 101.68 151.049 79.432 156.268C78.8826 152.697 77.5093 148.44 75.312 143.496C73.1146 138.552 70.9173 134.432 68.72 131.136C90.4186 125.917 112.392 120.012 134.64 113.42C157.163 106.828 178.312 99.6867 198.088 91.996C217.864 84.3053 234.619 76.34 248.352 68.1Z" fill="black"/>
</svg>
