<svg width="2303" height="2548" viewBox="0 0 2303 2548" fill="none" xmlns="http://www.w3.org/2000/svg">
<rect width="2303" height="2548" fill="url(#paint0_linear_601_66)"/>
<rect y="1246" width="2303" height="1302" fill="url(#paint1_linear_601_66)"/>
<path d="M1791.23 668C2520.7 822.968 2333.89 1357.34 2063.45 1177.44C2008.3 1002.87 1887.31 815.843 1777 678.687L1791.23 668Z" fill="url(#paint2_linear_601_66)"/>
<path d="M1175.61 1043.44V1503.15C1174.08 1518.46 1072.79 1568.99 994.517 1568.99H957.684V1417.39H850.254V1595.03C850.254 1618 765.846 1667 672.229 1667H640V611.907L856.393 699.194H942.337L1040.56 592L1237 743.603C1226.26 755.853 1207.84 769.635 1175.61 777.292V1045.28M957.684 1374.51V742.071H850.254V1374.51H957.684V1374.51Z" fill="url(#paint3_linear_601_66)"/>
<path d="M1251 311.186C1232.61 344.746 1186.63 363.051 1113.07 347.797C815.747 704.746 447.927 933.559 52.5213 1080L28 1055.59C267.083 817.627 542.947 414.915 708.466 0L1251 311.186Z" fill="url(#paint4_linear_601_66)"/>
<path d="M495.046 1104.09C424.325 1165.56 309.076 1251.89 132.274 1364.38C125.726 1382.69 111.32 1397.08 95.6041 1401L0 1189.11C34.0508 1183.87 89.0558 1173.41 155.848 1161.64L155.848 767.935H17.0254L6.54822 731.312H155.848L155.848 369L383.726 388.62C381.107 406.932 371.939 420.011 335.269 425.243V728.696L400.751 610.977C400.751 610.977 478.02 694.688 516 747.008C513.381 761.395 500.284 767.935 481.949 767.935H335.269L335.269 1126.32C386.345 1115.86 440.041 1105.4 493.736 1093.62L495.046 1104.09Z" fill="url(#paint5_linear_601_66)"/>
<path d="M2083 492.667C2062.82 529.333 2035.92 542.667 1961.93 549.333C1817.31 1112.67 1480.99 1629.33 791.542 1916L768 1879.33C1191.76 1546 1400.28 1019.33 1480.99 489.333L872.258 489.333L841.99 396H1457.45L1682.78 166L2083 492.667Z" fill="url(#paint6_linear_601_66)"/>
<defs>
<linearGradient id="paint0_linear_601_66" x1="0" y1="0" x2="2303" y2="2548" gradientUnits="userSpaceOnUse">
<stop stop-color="#F3F3F3"/>
<stop offset="0.995102" stop-color="#CACACA"/>
</linearGradient>
<linearGradient id="paint1_linear_601_66" x1="-22.7902" y1="1196.57" x2="2308.87" y2="2537.79" gradientUnits="userSpaceOnUse">
<stop stop-color="#F3F3F3"/>
<stop offset="1" stop-color="#CACACA"/>
</linearGradient>
<linearGradient id="paint2_linear_601_66" x1="2040" y1="668" x2="2040" y2="1214" gradientUnits="userSpaceOnUse">
<stop stop-color="white" stop-opacity="0.2"/>
<stop offset="1" stop-color="white" stop-opacity="0"/>
</linearGradient>
<linearGradient id="paint3_linear_601_66" x1="938.5" y1="592" x2="938.5" y2="1667" gradientUnits="userSpaceOnUse">
<stop stop-color="white" stop-opacity="0.2"/>
<stop offset="1" stop-color="white" stop-opacity="0"/>
</linearGradient>
<linearGradient id="paint4_linear_601_66" x1="639.5" y1="0" x2="639.5" y2="1080" gradientUnits="userSpaceOnUse">
<stop stop-color="white" stop-opacity="0.2"/>
<stop offset="1" stop-color="white" stop-opacity="0"/>
</linearGradient>
<linearGradient id="paint5_linear_601_66" x1="258" y1="369" x2="258" y2="1401" gradientUnits="userSpaceOnUse">
<stop stop-color="white" stop-opacity="0.2"/>
<stop offset="1" stop-color="white" stop-opacity="0"/>
</linearGradient>
<linearGradient id="paint6_linear_601_66" x1="1425.5" y1="166" x2="1425.5" y2="1916" gradientUnits="userSpaceOnUse">
<stop stop-color="white" stop-opacity="0.2"/>
<stop offset="1" stop-color="white" stop-opacity="0"/>
</linearGradient>
</defs>
</svg>
