<?xml version="1.0" standalone="no"?>
<!DOCTYPE svg PUBLIC "-//W3C//DTD SVG 20010904//EN"
 "http://www.w3.org/TR/2001/REC-SVG-20010904/DTD/svg10.dtd">
<svg version="1.0" xmlns="http://www.w3.org/2000/svg"
 width="700.000000pt" height="700.000000pt" viewBox="0 0 700.000000 700.000000"
 preserveAspectRatio="xMidYMid meet">
<metadata>
Created by potrace 1.14, written by Peter Selinger 2001-2017
</metadata>
<g transform="translate(0.000000,700.000000) scale(0.100000,-0.100000)"
fill="#000000" stroke="none">
<path d="M785 5973 c196 -46 354 -176 502 -413 49 -79 120 -229 157 -330 15
-41 32 -84 36 -95 8 -17 29 -90 81 -275 12 -44 36 -154 44 -200 3 -19 8 -42
10 -50 2 -8 6 -31 9 -50 3 -19 8 -46 10 -60 3 -14 7 -43 11 -65 3 -22 10 -67
15 -100 5 -33 12 -89 15 -125 3 -36 7 -75 9 -86 2 -11 7 -71 11 -134 4 -63 9
-137 11 -165 11 -146 4 -641 -11 -805 -3 -30 -7 -89 -10 -130 -3 -41 -7 -86
-10 -100 -2 -14 -7 -50 -10 -80 -8 -68 -52 -339 -66 -400 -6 -25 -12 -54 -15
-65 -13 -66 -19 -91 -50 -200 -161 -575 -403 -918 -709 -1006 -58 -17 -38 -18
680 -18 l740 0 85 146 c103 178 217 405 289 573 110 260 238 685 276 920 4 19
10 53 15 75 5 22 11 65 15 95 3 30 8 62 10 70 2 8 7 42 10 75 11 100 12 106
16 109 2 2 74 41 159 86 85 45 187 99 225 120 39 21 108 58 155 82 222 117
331 175 403 214 70 39 84 41 78 10 -1 -5 -2 -86 -2 -180 -1 -299 17 -501 72
-796 24 -134 22 -125 58 -262 116 -441 315 -869 569 -1222 35 -50 66 -96 69
-103 4 -11 145 -13 746 -13 407 0 738 2 736 4 -3 3 -18 7 -34 10 -203 38 -409
241 -559 550 -150 311 -266 762 -312 1216 -3 36 -7 72 -9 80 -2 8 -6 62 -9
120 -4 58 -9 134 -12 170 -7 93 -7 546 1 670 6 116 32 401 41 466 6 42 6 42
127 107 234 125 353 185 462 233 61 26 119 54 130 62 19 13 18 13 -10 8 -16
-4 -47 -9 -67 -11 -21 -3 -77 -12 -125 -20 -49 -9 -104 -18 -123 -21 -19 -3
-71 -11 -115 -19 -44 -8 -102 -17 -130 -21 -27 -3 -60 -10 -72 -15 -20 -7 -23
-5 -23 16 0 27 19 116 56 260 158 613 418 994 737 1080 46 12 -33 14 -688 14
l-740 0 -39 -67 c-21 -37 -62 -107 -91 -157 -215 -369 -392 -801 -499 -1219
-20 -77 -38 -142 -41 -144 -2 -3 -15 -6 -27 -7 -13 -2 -117 -19 -233 -38 -115
-20 -227 -38 -249 -41 -21 -4 -131 -22 -245 -42 -113 -19 -222 -37 -241 -40
-19 -2 -46 -7 -60 -9 -74 -15 -100 -17 -101 -9 0 5 -2 16 -4 24 -1 8 -5 31 -9
50 -3 19 -8 46 -11 60 -3 14 -9 48 -15 75 -93 476 -277 955 -518 1352 -48 79
-96 159 -107 178 l-20 35 -740 -1 c-407 -1 -731 -3 -720 -6z"/>
</g>
</svg>
