<?xml version="1.0" standalone="no"?>
<!DOCTYPE svg PUBLIC "-//W3C//DTD SVG 20010904//EN"
 "http://www.w3.org/TR/2001/REC-SVG-20010904/DTD/svg10.dtd">
<svg version="1.0" xmlns="http://www.w3.org/2000/svg"
 width="640.000000pt" height="640.000000pt" viewBox="0 0 640.000000 640.000000"
 preserveAspectRatio="xMidYMid meet">
<metadata>
Created by potrace 1.14, written by Peter Selinger 2001-2017
</metadata>
<g transform="translate(0.000000,640.000000) scale(0.100000,-0.100000)"
fill="#000000" stroke="none">
<path d="M2935 5265 c-319 -162 -716 -363 -883 -447 -166 -84 -302 -155 -302
-158 0 -4 19 -14 43 -25 67 -29 315 -140 389 -174 37 -17 83 -37 103 -45 l35
-15 -2 -1002 -3 -1002 -80 -42 c-44 -23 -129 -68 -190 -100 -60 -32 -148 -78
-195 -103 -234 -123 -396 -208 -545 -287 -197 -104 -256 -135 -353 -186 l-104
-54 736 -3 735 -2 3 -151 3 -151 570 -200 c314 -110 582 -204 598 -208 l27 -9
0 2330 c0 1281 -1 2329 -2 2328 -2 0 -264 -132 -583 -294z"/>
<path d="M4185 4774 c-45 -21 -258 -120 -437 -202 l-68 -31 0 -1662 c0 -1578
1 -1661 18 -1654 24 9 370 121 407 131 6 2 37 12 70 22 l60 20 3 111 3 111
655 2 656 3 -83 45 c-111 60 -224 121 -279 152 -132 73 -814 444 -830 451 -8
4 -37 20 -65 36 l-50 29 -5 1230 -5 1230 -50 -24z"/>
</g>
</svg>
