<svg xmlns="http://www.w3.org/2000/svg" viewBox="0 0 500 500"><defs><style>.cls-1{fill:#4b4b4b;}</style></defs><title>字z</title><g id="_2009年" data-name="2009年"><g id="中国国内字-4" data-name="中国国内字"><path id="被" class="cls-1" d="M183,330.22c-7.56-12.6-23.52-37-37.38-57.12V441.52h-29.4V278.14c-15.54,19.74-31.5,37-47,50.82-2.94-7.56-10.08-22.68-14.7-28.14C92.71,268.9,133.87,214.3,157,161H59.11V132.4H171.67l4.62-1.26,15.54,12.18c-11.34,31.92-27.72,63.84-46.2,92.82v1.68c3.36,3.78,7.56,9.24,12.18,15.12a497.48,497.48,0,0,0,32.76-40.74l18.9,17.22c-13,13.44-27.3,28.56-39.06,38.64,12.6,16,24.78,32.34,29.4,38.22Zm-50.82-199.5c-5.88-16-20.16-41.16-31.92-59.22l23.94-11.76c12.18,17.64,26.46,41.58,33.18,56.28Zm289.38,97.44c-13,55.86-37.38,100.38-68,134.82a239.75,239.75,0,0,0,92,50.82c-6.72,6.3-15.54,18.06-19.32,26.46-36.54-12.6-67.62-31.5-93.66-56.28-27.72,25.2-59.64,44.1-93.66,57.54-3.36-7.56-10.92-19.32-17.22-25.2A262.54,262.54,0,0,0,312.37,363c-26.88-31.08-47-69.3-61.32-113.4h-3.78c-1.68,60.48-12.6,136.92-54.6,189.42-4.2-6.3-16.38-16.38-22.26-20.16,43.68-55,48.3-131.88,48.3-189.84V119.8h89.46V58.48h29.4V119.8h75.18l5-1.26,21.84,5.88c-8,29.4-18.06,63-26.88,84l-26-6.3c5-13.44,10.92-33.6,15.54-52.92H337.57v72.66h59.64l5.88-1.26Zm-173.88-79v72.66h60.48V149.2Zm30.66,100.38C291,284.86,309,316.36,332.53,342.4c23.1-25.62,41.16-56.7,53.34-92.82Z"/></g></g></svg>