<svg viewBox="0 0 500 500" fill="none" xmlns="http://www.w3.org/2000/svg">
<path d="M232.284 283.988V312.416C232.284 342.904 222.808 387.4 74.0758 417.476C81.0798 423.656 90.5558 435.192 94.2638 441.784C248.352 406.352 264.42 352.792 264.42 313.24V283.988H232.284ZM260.712 381.22C309.74 396.464 373.6 422.008 406.148 440.548L421.804 414.592C388.02 396.464 323.748 372.156 275.544 358.56L260.712 381.22ZM122.692 242.788V368.86H154.004V268.332H345.172V367.624H377.72V242.788H122.692ZM146.176 112.184H234.756V144.732H146.176V112.184ZM266.48 112.184H353V144.732H266.48V112.184ZM67.0718 192.936V219.304H434.576V192.936H266.48V166.98H383.9V89.936H266.48V61.92H234.756V89.936H116.512V166.98H234.756V192.936H67.0718Z" fill="black"/>
</svg>
