<svg viewBox="0 0 500 500" fill="none" xmlns="http://www.w3.org/2000/svg">
<path d="M78.6079 146.38C76.5479 178.516 70.3679 221.364 60.0679 246.908L80.6679 255.148C90.9679 226.308 97.1479 181.812 98.3839 148.852L78.6079 146.38ZM167.6 136.904C163.068 162.036 153.592 199.528 145.764 222.6L163.068 230.016C171.72 208.592 182.02 173.16 190.672 145.556L167.6 136.904ZM231.048 333.84C241.76 343.728 253.708 357.736 258.652 367.624L278.84 353.616C273.072 344.552 261.124 330.956 250.412 321.48L231.048 333.84ZM234.344 139.376H386.372V164.508H234.344V139.376ZM234.344 94.88H386.372V119.6H234.344V94.88ZM111.98 63.98V205.708C111.98 281.104 106.624 358.56 58.4199 420.36C64.5999 424.48 74.0759 433.132 78.1959 439.312C104.152 406.764 118.984 370.096 127.636 331.368C141.232 352.38 158.124 379.16 165.54 393.992L185.728 373.392C178.312 361.856 146.176 315.3 132.992 298.408C137.112 267.92 137.936 236.608 137.936 205.708V63.98H111.98ZM339.404 233.724V263.388H276.368V233.724H339.404ZM339.404 210.652H276.368V185.932H339.404V210.652ZM206.74 73.868V185.932H248.352V210.652H195.616V233.724H248.352V263.388H180.784V286.46H244.232C225.28 304.588 197.676 321.892 174.192 330.544C179.96 334.664 187.376 343.728 191.084 349.908C219.512 336.724 253.708 311.18 273.072 286.46H351.764C369.48 312.828 400.792 339.608 429.22 353.204C433.34 347.024 440.756 338.372 446.524 333.84C422.216 324.776 395.024 305.824 377.308 286.46H436.224V263.388H368.244V233.724H424.688V210.652H368.244V185.932H414.8V73.868H206.74ZM179.96 403.056L190.672 425.304L295.732 382.044V412.532C295.732 416.652 294.084 417.888 289.14 418.3C284.608 418.712 268.54 418.712 250.412 417.888C254.12 424.48 259.064 434.368 260.712 440.548C285.432 440.96 300.676 440.96 310.564 436.84C320.864 433.132 323.336 426.54 323.336 412.944V383.692C356.296 397.288 389.256 413.768 409.856 427.364L426.748 408.412C409.444 397.7 383.488 384.516 355.884 372.98C366.184 362.68 377.72 349.908 387.608 337.548L367.832 325.6C360.004 336.724 346.82 353.204 335.284 364.74L323.336 360.62V298.408H295.732V360.208C252.884 376.688 209.212 393.168 179.96 403.056Z" fill="black"/>
</svg>
