<svg viewBox="0 0 500 500" fill="none" xmlns="http://www.w3.org/2000/svg">
<path d="M292.024 166.98H376.896C368.244 220.952 355.06 266.684 334.872 304.588C314.684 265.86 300.264 220.54 290.376 171.512L292.024 166.98ZM75.312 90.7599V121.248H191.084V208.592H80.668V365.564C80.668 380.808 74.076 386.164 67.896 389.048C73.252 396.876 78.196 412.12 80.256 421.184C89.732 413.356 104.976 405.528 224.868 359.796C223.632 352.792 221.572 339.608 221.16 330.544L111.98 369.684V239.08H220.748L218.688 241.552C225.28 246.496 237.64 258.444 242.584 263.8C253.296 249.38 263.184 232.9 271.836 214.772C283.372 258.856 297.792 299.232 316.744 333.428C292.024 368.036 259.064 394.816 215.392 414.592C221.572 421.184 230.636 435.192 233.932 442.608C275.956 421.596 308.916 395.228 334.872 362.268C357.532 394.816 385.96 421.184 420.98 438.9C425.924 430.66 435.4 419.124 442.816 412.944C406.148 396.052 376.896 369.272 353.412 335.076C380.604 290.168 397.908 234.96 409.032 166.98H436.224V138.14H301.912C308.916 115.48 315.096 91.5839 320.04 67.2759L289.552 61.9199C276.78 129.488 254.12 194.996 221.572 237.844V90.7599H75.312Z" fill="black"/>
</svg>
