<svg viewBox="0 0 500 500" fill="none" xmlns="http://www.w3.org/2000/svg">
<path d="M220.748 100.236V213.124L176.252 231.664L187.788 259.268L220.748 245.26V375.452C220.748 420.36 234.344 431.484 281.724 431.484C292.436 431.484 371.952 431.484 383.488 431.484C426.336 431.484 436.636 413.356 441.168 356.5C432.928 355.264 420.568 350.32 413.564 344.964C410.68 392.344 406.56 403.468 382.252 403.468C365.772 403.468 296.556 403.468 282.96 403.468C255.356 403.468 250.412 398.936 250.412 376.276V232.488L305.62 209.004V349.084H334.872V196.644L392.552 171.924C392.552 238.256 391.728 283.988 389.668 293.876C387.608 303.352 383.9 305 377.308 305C373.188 305 359.592 305 349.704 304.176C353.412 311.18 355.884 323.128 357.12 331.368C368.656 331.368 385.136 331.368 395.848 328.072C408.208 325.188 416.036 317.772 418.508 300.88C421.392 284.812 422.216 223.012 422.216 145.556L423.864 139.788L402.028 131.548L396.26 136.08L390.08 141.848L334.872 164.92V61.9199H305.62V177.28L250.412 200.352V100.236H220.748ZM57.5962 344.552L69.9562 375.452C106.212 359.384 153.18 338.372 197.264 317.772L190.26 290.168L143.292 309.944V190.464H191.908V161.212H143.292V66.8639H114.04V161.212H61.3042V190.464H114.04V322.304C92.6162 330.956 73.2522 338.784 57.5962 344.552Z" fill="black"/>
</svg>
