<svg viewBox="0 0 500 500" fill="none" xmlns="http://www.w3.org/2000/svg">
<path d="M367.42 68.9239L339.816 74.2799C355.06 149.676 376.484 197.88 420.98 240.728C425.512 231.664 434.576 221.776 442.816 215.596C402.44 179.34 381.428 137.316 367.42 68.9239ZM65.836 96.5279C74.076 124.544 83.14 161.212 86.436 185.52L110.744 178.928C107.036 155.032 97.56 119.188 88.496 91.1719L65.836 96.5279ZM189.848 87.8759C184.08 115.068 172.132 155.032 162.244 179.34L183.256 185.932C193.968 162.86 207.152 125.78 217.864 95.2919L189.848 87.8759ZM62.54 204.06V232.9H118.572C104.564 276.984 79.844 326.836 56.772 354.44C62.128 362.268 69.956 375.452 73.252 384.516C92.204 360.208 110.744 321.892 125.576 282.752V440.548H154.416V286.048C168.836 305.412 186.552 330.132 193.556 342.904L212.92 318.596C204.68 307.884 168.012 265.86 154.416 251.852V232.9H208.8V217.656C213.332 225.484 218.688 237.844 220.336 244.436C225.28 240.728 229.812 236.608 233.932 232.488V254.736H283.372C275.132 331.78 252.06 386.164 198.912 417.476C205.092 422.832 216.216 434.78 219.924 440.136C277.192 401.82 303.56 342.904 313.448 254.736H374.836C369.892 356.5 364.124 394.404 355.472 404.292C351.764 408.824 348.468 409.648 341.464 409.648C334.872 409.648 318.804 409.236 301.088 407.588C305.62 415.416 308.504 427.364 308.916 436.016C327.456 437.252 345.584 437.252 355.472 436.016C367.008 435.192 374.424 432.308 381.84 422.832C393.788 408.412 399.968 364.328 405.324 239.904C405.736 235.372 406.148 225.484 406.148 225.484H240.936C275.544 188.404 295.732 137.316 307.268 75.9279L278.016 71.3959C267.716 131.548 246.292 181.4 208.8 212.712V204.06H154.416V61.9199H125.576V204.06H62.54Z" fill="black"/>
</svg>
