<svg viewBox="0 0 500 500" fill="none" xmlns="http://www.w3.org/2000/svg">
<path d="M232.284 72.2199C242.172 84.58 251.648 99.412 258.652 113.008H91.7919V224.248C91.7919 282.752 88.9079 365.152 55.5359 422.832C62.9519 426.128 76.9599 434.78 82.3159 440.136C117.336 378.748 122.692 286.872 122.692 224.248V142.672H436.224V113.008H293.672C286.668 96.9399 273.072 76.752 259.888 61.0959L232.284 72.2199ZM268.952 155.856C267.304 177.28 265.656 199.94 262.36 223.424H145.764V252.264H257.416C243.408 316.948 211.272 380.396 128.46 415.828C136.288 421.596 145.352 432.72 149.472 439.724C224.044 405.528 260.3 350.32 279.252 290.168C311.8 355.264 360.416 409.236 418.096 438.488C423.452 429.836 433.34 417.888 440.756 411.296C376.484 383.28 322.512 321.892 294.084 252.264H428.396V223.424H294.084C297.38 200.352 299.44 177.692 301.088 155.856H268.952Z" fill="black"/>
</svg>
