<svg viewBox="0 0 500 500" fill="none" xmlns="http://www.w3.org/2000/svg">
<path d="M169.248 228.368H329.516V288.932H169.248V228.368ZM138.348 200.764V316.948H191.084C180.784 367.624 153.18 397.288 63.3638 412.944C69.5438 419.124 77.3718 432.72 80.2558 440.548C180.372 419.948 212.096 381.22 224.044 316.948H273.896V394.816C273.896 428.188 283.784 437.664 323.336 437.664C331.164 437.664 382.664 437.664 391.728 437.664C424.688 437.664 434.164 424.068 437.872 369.272C429.22 367.212 416.036 362.268 409.032 356.912C407.796 401.82 404.912 408.412 388.844 408.412C377.308 408.412 334.872 408.412 326.22 408.412C307.68 408.412 304.384 405.94 304.384 394.816V316.948H362.064V200.764H138.348ZM358.768 66.8639C349.704 89.1119 331.988 119.6 318.392 139.376H265.244V61.9199H233.52V139.376H157.712L182.432 124.956C174.192 108.888 156.888 84.9919 140.408 67.2759L114.04 81.2839C129.696 98.9999 145.764 123.308 154.004 139.376H74.4878V229.192H104.564V166.98H395.436V229.192H426.748V139.376H350.94C363.712 121.66 378.544 98.9999 390.904 77.9879L358.768 66.8639Z" fill="black"/>
</svg>
