<svg xmlns="http://www.w3.org/2000/svg" viewBox="0 0 500 500"><defs><style>.cls-1{fill:#4b4b4b;}</style></defs><title>字z</title><g id="_2013年" data-name="2013年"><g id="日本-8" data-name="日本"><path id="輪-繁体" class="cls-1" d="M341.31,69.46A115.46,115.46,0,0,1,333,83.57c32.78,40.68,69.72,73.46,108.32,102.1-7.06,5.4-16.19,15.36-20.75,23.66-11.21-9.55-22.42-19.51-33.21-29.47v20.75H254.57V184.43A372.32,372.32,0,0,1,223,211.82c-4.56-6.23-11.2-14.94-17.84-21.17v121.6H152.47v32h60.59v27H152.47v69.72H124.66V371.19h-66v-27h66v-32H71.12V164.09h53.54V133H62.41V106.4h62.25v-44h27.81v44h61V133h-61v31.13h52.71v23.66c42.74-29.89,88.4-79.69,113.71-128.66ZM94.78,226.76h32.37V187.33H94.78Zm0,62.25h32.37V249.17H94.78Zm85.91-101.68H150v39.43h30.71Zm0,61.84H150V289h30.71ZM418.5,409c0,12.86-1.66,20.33-9.54,24.9-7.06,5-17.44,5.39-32.79,5.39-.83-7.88-5-19.09-8.3-26.14,10,.41,18.26.41,21.16,0,3.32,0,4.15-.83,4.15-4.57V344.63H360.81v89.23H338V344.63H305.61v89.23H282.79V344.63H250v96.28H225.1V236.3H418.5ZM282.79,318.89V262.45H250v56.44Zm99.19-144a721.6,721.6,0,0,1-63.09-68.06c-16.18,24.07-34.86,47.72-54.78,68.06Zm-44,144V262.45H305.61v56.44Zm55.19,0V262.45H360.81v56.44Z"/></g></g></svg>