<svg xmlns="http://www.w3.org/2000/svg" viewBox="0 0 500 500"><defs><style>.cls-1{fill:#4b4b4b;}</style></defs><title>字z</title><g id="_2013年" data-name="2013年"><g id="日本-8" data-name="日本"><path id="轮" class="cls-1" d="M217.21,338.82,167,349.19v89.65H139.6V354.59C113,360,88.55,365,67.39,369.11l-7.06-30.29c21.58-3.32,49-7.89,79.27-12.87V265.36H106c-13.7,0-26.15,2.49-29.47,5.81-1.66-5.81-5.4-19.51-9.13-26.15,6.64-2.08,12.45-15.36,19.09-33.62,4.15-10.37,12.87-37.77,21.58-71H63.65V111h50.64A483.85,483.85,0,0,0,123,62l29.05,5.81c-2.49,14.11-5.81,29.06-9.13,43.17h66.41v29.46H135a850.5,850.5,0,0,1-32,96.7H139.6v-63.5H167v63.5H208.5v28.23H167V321l48.15-8.3ZM341.31,66.56a152,152,0,0,1-5.81,14.52c23.65,49,66.4,100.86,104.17,127.83-7.06,5.4-16.6,16.19-22,23.66-33.62-27.39-71-73.46-97.53-120.36-23.24,44-56,87.57-100.44,123.68-5-7.06-14.52-17.85-21.58-22.41C255,170.73,291.5,110.14,309.35,61.16Zm33.2,335.34c17,0,20.33-9.13,22-56.86,7.06,5,19.51,10,27.81,11.62-3.32,57.28-12.45,73-47.73,73H305.2c-40.26,0-50.63-10-50.63-45.66V213.48h30.29v80.93c33.2-18.26,71-42.75,95.87-62.67l21.17,25.73c-34,23.66-80.52,50.63-117,68.9v57.68c0,14.94,3.74,17.85,23.24,17.85Z"/></g></g></svg>