<svg viewBox="0 0 500 500" fill="none" xmlns="http://www.w3.org/2000/svg">
<path d="M58.42 138.964C68.308 176.456 78.196 225.896 81.492 254.324L107.036 246.084C103.328 218.892 92.616 170.276 82.728 133.196L58.42 138.964ZM247.116 131.96C240.524 177.28 230.224 225.072 214.98 256.384C221.984 259.268 235.168 265.448 241.348 269.156C255.768 236.196 268.54 185.52 275.956 137.316L247.116 131.96ZM362.888 135.668C382.664 170.688 401.616 218.068 409.032 248.556L437.46 238.668C429.632 207.768 410.268 162.036 389.668 126.604L362.888 135.668ZM389.668 263.8C359.18 344.552 294.908 391.108 192.32 412.532C198.912 419.536 205.504 431.484 208.8 440.136C317.156 413.768 385.96 362.268 418.508 272.452L389.668 263.8ZM304.796 62.332V316.948H334.048V62.332H304.796ZM124.34 64.392V204.472C124.34 280.692 117.336 360.208 55.948 420.36C62.952 425.304 73.252 435.604 77.784 442.608C145.764 376.688 153.592 289.756 153.592 204.472V64.392H124.34ZM188.612 134.432C182.02 160.388 168.836 197.468 158.536 220.54L178.724 230.016C190.672 208.18 204.68 173.572 216.628 145.556L188.612 134.432ZM147 291.404L127.636 307.06C142.056 321.892 177.488 363.504 190.672 382.044L210.86 358.972C200.972 347.848 158.948 302.528 147 291.404Z" fill="black"/>
</svg>
