<svg viewBox="0 0 500 500" fill="none" xmlns="http://www.w3.org/2000/svg">
<path d="M262.772 100.236V422.42H292.848V388.636H384.724V419.536H416.036V100.236H262.772ZM292.848 358.972V129.9H384.724V358.972H292.848ZM224.868 65.628C188.612 80.46 123.516 92.82 68.72 100.236C72.016 107.24 76.136 117.952 77.372 124.956C99.208 122.484 122.692 119.188 145.764 115.068V183.872H64.6V212.712H137.936C118.984 264.624 86.024 321.068 54.712 352.792C60.068 360.62 67.896 372.568 71.604 381.632C98.384 353.204 125.576 305.824 145.764 257.208V440.136H176.252V258.444C193.968 281.928 217.04 313.24 226.516 328.896L245.468 303.352C235.58 290.58 191.496 238.668 176.252 223.012V212.712H248.352V183.872H176.252V108.888C202.208 103.532 226.104 97.352 245.468 89.936L224.868 65.628Z" fill="black"/>
</svg>
