<svg viewBox="0 0 500 500" fill="none" xmlns="http://www.w3.org/2000/svg">
<path d="M179.136 400.996V429.424H439.52V400.996H325.396V313.24H419.744V284.812H205.504V313.24H294.496V400.996H179.136ZM277.604 68.924C284.196 81.284 291.612 96.116 296.968 109.712H191.908V180.164H219.1V136.492H270.188C267.304 191.288 254.532 218.892 195.204 234.136C200.56 239.08 207.976 249.38 210.86 255.972C278.428 237.432 294.496 201.588 298.616 136.492H332.812V205.296C332.812 234.548 338.992 244.848 368.656 244.848C374.424 244.848 404.5 244.848 411.916 244.848C421.804 244.848 431.692 244.848 437.048 242.788C435.812 236.608 434.988 225.072 434.576 218.068C428.808 219.304 418.096 219.716 411.504 219.716C404.5 219.716 376.072 219.716 369.48 219.716C362.064 219.716 360.828 216.42 360.828 205.296V136.492H407.796V176.868H436.224V109.712H329.928C324.16 94.88 314.272 75.516 305.62 60.272L277.604 68.924ZM112.804 62.332V146.38H62.128V175.22H112.804V275.336C91.792 281.516 72.84 286.872 57.184 290.58L63.776 321.068L112.804 306.236V405.116C112.804 410.884 110.744 412.532 105.8 412.532C100.856 412.944 84.788 412.944 67.072 412.12C70.78 420.772 74.9 433.544 75.724 440.96C102.092 441.372 117.748 440.136 127.636 435.192C137.936 430.66 141.644 422.008 141.644 405.116V297.172L191.496 281.928L186.964 253.5L141.644 267.096V175.22H183.256V146.38H141.644V62.332H112.804Z" fill="black"/>
</svg>
