<svg viewBox="0 0 500 500" fill="none" xmlns="http://www.w3.org/2000/svg">
<path d="M308.504 168.216H371.128V210.652H308.504V168.216ZM220.336 168.216H282.136V210.652H220.336V168.216ZM134.228 168.216H193.968V210.652H134.228V168.216ZM106.212 146.38V232.488H400.38V146.38H106.212ZM71.604 253.088V321.892H100.856V277.808H398.732V321.892H429.22V253.088H71.604ZM68.72 88.288V115.48H187.788V137.316H218.276V61.92H187.788V88.288H68.72ZM282.136 61.92V137.316H312.624V115.068H430.868V88.288H312.624V61.92H282.136ZM210.86 278.632C193.556 300.056 159.772 320.656 111.98 334.664C118.572 339.196 126.812 349.084 130.932 356.5C144.116 351.968 156.064 347.024 166.776 341.668C186.552 353.204 207.976 369.272 223.22 382.868C179.136 398.112 128.46 407.588 79.432 411.708C84.376 418.712 90.144 431.484 92.616 439.312C202.208 426.128 317.98 391.932 367.008 313.24L347.232 300.88L341.464 302.528H225.28C231.46 296.76 236.816 290.992 241.76 284.812L210.86 278.632ZM190.672 328.896L196.44 325.188H320.864C303.148 344.14 278.84 359.384 250.412 372.156C236.404 358.56 212.508 341.668 190.672 328.896Z" fill="black"/>
</svg>
