<svg viewBox="0 0 500 500" fill="none" xmlns="http://www.w3.org/2000/svg">
<path d="M106.212 92.408V222.188C106.212 283.164 102.092 364.328 59.656 421.596C65.424 425.304 77.784 437.252 82.316 443.02C114.04 402.232 127.224 346.2 132.992 293.876H222.808C214.156 353.616 193.144 395.64 112.392 417.888C118.984 423.244 126.812 434.368 130.108 441.784C192.32 422.832 223.632 392.756 239.7 351.144H359.592C355.06 389.872 350.528 406.764 344.348 412.532C340.64 415.828 336.52 416.24 329.516 416.24C322.1 416.24 301.5 415.828 280.9 413.768C285.432 421.184 288.728 432.308 289.14 440.136C310.976 441.372 331.576 441.784 341.876 440.96C353.824 440.136 361.652 438.076 369.068 431.072C379.78 420.772 385.96 396.464 391.728 338.784C392.14 334.664 392.552 326.012 392.552 326.012H247.528C250 315.712 252.06 305 253.708 293.876H434.988V268.744H301.088C295.32 256.796 286.668 241.964 278.016 230.84L248.352 238.256C254.944 247.32 261.536 258.444 266.48 268.744H135.052C135.876 254.736 136.288 241.552 136.288 229.192H405.736V138.14H136.288V115.892C226.104 110.536 327.044 100.648 395.024 85.404L370.716 62.332C309.74 76.34 199.324 87.464 106.212 92.408ZM136.288 163.272H374.836V204.472H136.288V163.272Z" fill="black"/>
</svg>
