<svg viewBox="0 0 500 500" fill="none" xmlns="http://www.w3.org/2000/svg">
<path d="M269.364 172.336H387.608V212.712H269.364V172.336ZM269.364 238.256H387.608V279.868H269.364V238.256ZM269.364 106.004H387.608V146.38H269.364V106.004ZM130.108 66.04V130.312H70.78V158.328H130.108V208.592V225.896H62.128V254.324H128.872C125.576 310.768 112.392 374.216 59.656 413.768C66.66 419.124 76.548 429.836 80.668 436.428C121.868 402.644 141.644 356.5 151.12 309.944C170.072 332.192 195.204 363.504 205.504 379.16L226.516 356.088C216.628 344.14 173.368 295.112 156.064 278.22L158.124 254.324H225.28V225.896H159.36V208.592V158.328H217.452V130.312H159.36V66.04H130.108ZM240.524 77.988V307.472H273.484C266.892 358.972 249.588 396.876 186.14 417.476C192.32 422.832 200.56 433.544 203.856 440.548C273.896 415.416 295.32 370.096 303.148 307.472H338.992V395.228C338.992 424.892 345.584 433.544 374.012 433.544C379.78 433.544 402.028 433.544 407.796 433.544C432.516 433.544 439.52 419.948 442.404 363.504C434.576 361.032 422.216 356.5 416.036 351.556C415.212 400.172 413.564 406.352 404.5 406.352C399.556 406.352 381.84 406.352 378.132 406.352C369.48 406.352 368.244 404.704 368.244 395.228V307.472H417.272V77.988H240.524Z" fill="black"/>
</svg>
