<svg viewBox="0 0 500 500" fill="none" xmlns="http://www.w3.org/2000/svg">
<path d="M153.18 174.396H347.644V211.476H153.18V174.396ZM122.28 151.324V234.548H380.192V151.324H122.28ZM366.596 259.268L358.356 259.68H104.976V284.812H317.156C291.2 294.7 260.712 303.764 233.52 309.944L233.108 334.252H66.248V361.444H233.108V408.412C233.108 414.18 231.048 415.828 223.632 416.24C216.216 416.652 188.2 417.064 159.772 415.828C164.304 423.656 168.836 433.544 170.896 441.784C207.976 441.784 231.46 441.784 245.88 438.076C260.712 433.956 265.656 426.54 265.656 409.236V361.444H434.576V334.252H265.656V323.952C311.388 312.416 359.18 295.524 394.2 275.748L373.6 258.032L366.596 259.268ZM221.984 64.804C226.928 74.692 232.284 86.64 236.404 97.764H70.368V124.544H429.22V97.764H271.012C266.48 85.404 259.888 70.572 252.884 59.036L221.984 64.804Z" fill="black"/>
</svg>
