<svg viewBox="0 0 500 500" fill="none" xmlns="http://www.w3.org/2000/svg">
<path d="M241.76 139.376C246.704 148.028 252.06 158.74 255.768 168.216H188.612C196.028 159.564 202.62 150.5 208.388 141.436L186.14 134.432C191.496 129.488 196.852 124.544 201.384 119.6H297.38C313.86 137.728 336.52 154.62 361.652 168.216H287.492C283.372 157.504 275.544 143.084 268.952 131.96L241.76 139.376ZM211.272 61.5081C205.916 73.0441 198.5 84.58 188.612 96.116H73.2521V119.6H165.128C139.172 141.848 104.152 161.624 60.0681 176.044C65.4241 180.576 72.8401 190.052 76.5481 196.232C118.572 181.4 152.768 162.036 179.548 140.2C155.24 175.22 116.512 207.356 77.7841 228.368C83.9641 232.488 93.8521 241.14 97.5601 246.084C110.744 237.844 124.34 228.368 137.524 218.068V314.476H166.776V303.764H400.792V283.576H273.072V262.152H370.716V243.612H273.072V223.836H371.128V205.296H273.072V188.404H379.78V177.28C393.376 183.46 407.384 188.404 420.98 192.524C424.688 185.932 432.928 176.044 438.696 170.688C398.732 161.624 356.708 142.26 329.104 119.6H425.512V96.116H221.16C228.164 86.64 234.344 76.34 239.288 66.452L211.272 61.5081ZM244.232 223.836V243.612H166.776V223.836H244.232ZM244.232 205.296H166.776V192.112L170.484 188.404H244.232V205.296ZM244.232 262.152V283.576H166.776V262.152H244.232ZM233.932 384.104V409.648H134.228V384.104H233.932ZM263.596 384.104H365.772V409.648H263.596V384.104ZM233.932 365.152H134.228V341.668H233.932V365.152ZM263.596 365.152V341.668H365.772V365.152H263.596ZM105.388 321.48V441.372H134.228V429.836H365.772V440.136H396.26V321.48H105.388Z" fill="black"/>
</svg>
