<svg viewBox="0 0 500 500" fill="none" xmlns="http://www.w3.org/2000/svg">
<path d="M88.084 443.02C98.384 436.428 114.452 431.896 239.288 394.816C237.64 387.812 235.58 374.216 235.58 365.976L123.516 397.288V295.112H248.352C272.248 377.924 320.04 436.84 375.66 436.428C405.736 436.428 418.508 420.36 423.452 359.796C415.212 357.324 403.264 351.144 396.26 344.964C393.788 388.636 389.668 405.528 376.896 405.94C340.64 406.352 302.736 361.444 280.9 295.112H416.036V265.86H273.072C268.54 246.084 265.244 225.072 264.008 202.824H385.548V83.344H91.792V384.516C91.792 401.82 80.668 410.884 73.252 415.004C78.196 421.596 85.612 434.78 88.084 443.02ZM240.936 265.86H123.516V202.824H232.696C233.932 224.66 236.816 245.672 240.936 265.86ZM123.516 112.184H354.236V173.984H123.516V112.184Z" fill="black"/>
</svg>
