<svg viewBox="0 0 500 500" fill="none" xmlns="http://www.w3.org/2000/svg">
<path d="M244.232 354.028V404.292C244.232 431.072 252.884 438.076 287.492 438.076C294.496 438.076 341.464 438.076 348.88 438.076C373.6 438.076 381.84 429.836 384.724 398.524C376.896 396.876 365.772 393.168 360.004 389.46C359.18 411.296 356.708 413.768 345.172 413.768C335.696 413.768 297.38 413.768 289.964 413.768C274.308 413.768 271.836 412.532 271.836 404.292V354.028H244.232ZM210.448 355.264C203.444 377.1 191.084 405.94 177.076 423.656L201.384 435.192C215.392 416.652 226.104 387.4 233.52 364.74L210.448 355.264ZM374.424 363.504C388.844 384.516 406.56 413.356 414.8 431.072L439.52 419.536C430.868 402.232 413.152 375.04 397.908 354.028L374.424 363.504ZM412.328 62.7439C364.536 74.2799 275.956 82.5199 203.032 85.8159C205.916 91.5839 209.212 101.06 210.036 107.24C284.196 104.768 374.424 96.9399 431.28 82.9319L412.328 62.7439ZM290.376 110.536C296.968 122.072 304.796 138.14 308.504 148.44H214.98V169.864H300.264V193.76H200.972V215.184H436.636V193.76H329.516V169.864H420.156V148.44H386.784C395.436 134.844 404.5 118.776 411.504 104.356L387.608 97.3519C379.78 114.656 368.656 133.608 357.12 148.44H310.976L332.812 138.964C328.692 129.488 320.452 113.832 313.448 102.296L290.376 110.536ZM221.16 116.304C228.164 126.192 236.404 139.788 240.936 148.44L264.832 138.14C260.3 129.9 251.236 116.716 244.232 107.652L221.16 116.304ZM280.076 347.024C295.732 360.208 317.98 380.808 329.516 393.58L347.644 377.512C337.756 366.8 318.804 350.32 303.148 337.548H416.86V293.876H438.696V274.924H416.86V233.724H209.212V253.912H389.256V274.924H197.676V293.876H389.256V316.948H207.152V337.548H291.612L280.076 347.024ZM170.484 65.6279C145.352 78.8119 101.68 90.7599 65.012 98.1759C67.896 105.18 71.604 115.892 72.84 122.896C87.6721 120.424 103.328 117.128 118.984 113.42V180.164H62.1281V209.004H114.864C100.856 255.972 76.9601 309.944 54.3 339.196C59.244 347.436 66.248 360.62 69.1321 370.096C86.848 344.552 104.564 303.764 118.984 262.564V441.372H145.352V266.684C156.888 284.4 170.484 306.236 176.252 317.772L192.32 291.816C185.316 281.928 155.24 245.672 145.352 234.548V209.004H189.848V180.164H145.352V106.416C160.596 101.884 175.016 96.5279 186.964 90.7599L170.484 65.6279Z" fill="black"/>
</svg>
