<svg viewBox="0 0 500 500" fill="none" xmlns="http://www.w3.org/2000/svg">
<path d="M271.012 441.372C268.128 435.192 260.3 423.656 255.356 418.712C261.536 414.18 269.776 403.468 269.776 384.516V247.732H237.64C236.816 309.532 230.636 388.224 200.56 441.784C195.204 436.84 182.02 428.6 175.016 425.304C205.504 369.684 207.976 291.816 207.976 232.488V81.6959H426.336V110.124H237.64V150.088H407.384V177.28H237.64V220.54H432.516V247.732H349.292C353.824 267.92 359.592 287.284 366.596 305.824C382.252 292.64 400.38 275.748 411.092 262.976L432.104 281.928C414.388 298.408 393.376 315.3 375.66 327.66C392.14 363.092 413.976 391.932 441.58 408.824C434.988 414.18 425.512 424.892 420.98 432.72C371.952 397.288 341.876 328.072 325.808 247.732H298.204V395.228L353.824 372.98C354.236 380.808 356.296 392.344 357.944 398.524C288.316 429.424 277.604 435.192 271.012 441.372ZM113.628 61.9199H143.704V145.144H185.316V173.984H143.704V257.62L186.14 245.26L189.848 273.276L143.704 287.696V404.292C143.704 420.36 139.996 429.012 130.52 433.544C121.044 438.488 106.624 439.312 84.376 439.312C83.14 431.896 79.432 419.124 75.312 410.884C89.732 411.296 102.916 411.296 107.448 410.884C111.98 410.884 113.628 409.648 113.628 404.292V296.76L66.66 311.18L59.244 281.104C74.488 277.396 93.028 272.452 113.628 266.684V173.984H66.248V145.144H113.628V61.9199Z" fill="black"/>
</svg>
