<svg viewBox="0 0 500 500" fill="none" xmlns="http://www.w3.org/2000/svg">
<path d="M124.34 270.804H378.132V440.136H346.82V296.348H154.828V440.96H124.34V270.804ZM141.644 335.076H357.944V359.384H141.644V335.076ZM108.684 96.116H240.524V121.248H108.684V96.116ZM64.6 160.388H251.236V185.932H64.6V160.388ZM141.644 400.172H357.944V425.716H141.644V400.172ZM150.296 104.768H179.548V145.556C179.548 155.444 178.449 166.156 176.252 177.692C174.055 189.228 169.523 201.039 162.656 213.124C156.064 225.209 146.176 237.02 132.992 248.556C119.808 259.817 102.367 270.392 80.668 280.28C78.4707 276.984 75.4493 273.276 71.604 269.156C67.7587 264.761 64.0507 261.328 60.48 258.856C81.3547 250.616 97.8347 241.689 109.92 232.076C122.005 222.188 130.932 212.163 136.7 202C142.468 191.837 146.176 181.949 147.824 172.336C149.472 162.448 150.296 153.521 150.296 145.556V104.768ZM110.744 60.684L139.172 66.452C133.679 84.0307 126.4 101.06 117.336 117.54C108.547 133.745 99.208 147.479 89.32 158.74C87.3973 157.092 84.9253 155.307 81.904 153.384C78.8827 151.461 75.724 149.539 72.428 147.616C69.4067 145.693 66.7973 144.32 64.6 143.496C75.0373 132.784 84.2387 120.149 92.204 105.592C100.169 91.0346 106.349 76.0653 110.744 60.684ZM170.484 191.7C174.329 193.897 179.823 197.193 186.964 201.588C194.38 205.708 202.071 210.24 210.036 215.184C218.276 220.128 225.829 224.797 232.696 229.192C239.837 233.312 244.919 236.471 247.94 238.668L226.516 259.68C222.671 256.659 217.315 252.676 210.448 247.732C203.856 242.788 196.715 237.569 189.024 232.076C181.608 226.583 174.329 221.501 167.188 216.832C160.321 212.163 154.691 208.455 150.296 205.708L170.484 191.7ZM297.38 123.308V211.064H383.076V123.308H297.38ZM268.54 95.292H413.152V239.08H268.54V95.292Z" fill="black"/>
</svg>
