<svg viewBox="0 0 500 500" fill="none" xmlns="http://www.w3.org/2000/svg">
<path d="M81.492 93.644H231.872V162.448H204.68V118.364H81.492V93.644ZM62.54 152.148H261.536V176.868H62.54V152.148ZM138.76 60.684L167.6 63.568C165.403 74.28 162.931 85.6787 160.184 97.764C157.437 109.849 154.691 121.523 151.944 132.784C149.197 143.771 146.588 153.521 144.116 162.036H114.864C117.611 152.972 120.357 142.672 123.104 131.136C126.125 119.6 129.009 107.652 131.756 95.292C134.503 82.932 136.837 71.396 138.76 60.684ZM113.628 220.54V257.62H208.388V220.54H113.628ZM84.788 198.292H238.464V279.868H84.788V198.292ZM163.068 272.04H192.732V438.9H163.068V272.04ZM263.596 87.052H406.56V114.244H263.596V87.052ZM397.908 87.052H425.924C425.924 87.052 425.924 88.1507 425.924 90.348C425.924 92.2707 425.924 94.6053 425.924 97.352C425.924 100.099 425.924 102.159 425.924 103.532C425.1 148.028 424.139 186.893 423.04 220.128C422.216 253.088 421.255 281.241 420.156 304.588C419.057 327.66 417.821 346.749 416.448 361.856C415.075 376.688 413.289 388.499 411.092 397.288C409.169 405.803 406.835 412.12 404.088 416.24C400.243 422.283 396.123 426.403 391.728 428.6C387.608 431.072 382.527 432.72 376.484 433.544C370.716 434.368 363.712 434.643 355.472 434.368C347.232 434.368 338.717 434.093 329.928 433.544C329.653 429.424 328.829 424.617 327.456 419.124C326.083 413.905 324.16 409.236 321.688 405.116C331.027 405.94 339.541 406.489 347.232 406.764C354.923 406.764 360.691 406.764 364.536 406.764C367.832 406.764 370.441 406.352 372.364 405.528C374.287 404.429 376.209 402.369 378.132 399.348C380.879 395.503 383.351 387.537 385.548 375.452C387.745 363.367 389.531 345.651 390.904 322.304C392.277 298.957 393.513 268.744 394.612 231.664C395.985 194.309 397.084 148.852 397.908 95.292V87.052ZM326.632 96.94H354.236C353.961 120.287 353.137 144.595 351.764 169.864C350.665 194.859 348.331 219.991 344.76 245.26C341.464 270.255 336.52 294.563 329.928 318.184C323.336 341.531 314.272 363.367 302.736 383.692C291.475 404.017 277.329 421.871 260.3 437.252C257.828 434.231 254.532 430.797 250.412 426.952C246.292 423.381 242.309 420.497 238.464 418.3C255.219 404.292 268.952 387.675 279.664 368.448C290.376 349.221 298.753 328.484 304.796 306.236C311.113 283.713 315.645 260.504 318.392 236.608C321.413 212.712 323.473 188.953 324.572 165.332C325.671 141.436 326.357 118.639 326.632 96.94ZM65.836 301.704H250V325.188H65.836V301.704ZM86.436 363.092H254.944V387.812H80.668L86.436 363.092ZM87.672 318.596L114.452 320.656C112.804 332.192 110.881 344.003 108.684 356.088C106.761 368.173 104.839 378.748 102.916 387.812H74.9C77.372 378.473 79.7067 367.349 81.904 354.44C84.1013 341.531 86.024 329.583 87.672 318.596ZM256.18 195.408L277.192 183.048C284.059 191.837 291.2 201.451 298.616 211.888C306.307 222.325 313.585 232.351 320.452 241.964C327.319 251.303 332.812 259.68 336.932 267.096L315.096 281.928C310.976 274.512 305.483 265.86 298.616 255.972C292.024 245.809 285.02 235.509 277.604 225.072C270.188 214.36 263.047 204.472 256.18 195.408Z" fill="black"/>
</svg>
