<svg id="_2006年" data-name="2006年" xmlns="http://www.w3.org/2000/svg" viewBox="0 0 500 500"><defs><style>.cls-1{fill:#4b4b4b;}</style></defs><title>字z</title><g id="中国国际字"><path id="亂-繁体" class="cls-1" d="M269.51,81.5C219.29,97.69,140,107.65,74,112.63c-.42-7.06-3.32-16.6-6.23-22.42C133,84.82,211,74.44,253.74,60.33Zm.83,325.38c0,12.45-2.49,19.51-11.21,24.07-8.71,4.15-21.58,4.57-42.33,4.57-1.66-7.06-5.81-17.43-10-23.66,14.52.42,27.39.42,31.54,0,4.15,0,5.81-1.24,5.81-5.39V255H162.43l12,4.15a168.21,168.21,0,0,1-24.08,30.71l44.83-2.9A156.27,156.27,0,0,0,181.52,272l14.94-8.3c13.7,12.86,29,30.71,35.69,42.74L216,315.57c-2.08-3.32-4.15-7.47-7.47-12-69.31,5.81-79.69,7.88-85.91,10.37-1.25-4.56-4.57-15.77-7.47-20.75,4.56-1.24,8.3-2.49,12-6.22,3.74-3.32,16.6-17,24.07-32H101.84V439.67H75.27V230.08H181.11a360.6,360.6,0,0,0-55.62-26.56l14.11-15.77c11.21,3.73,23.24,9.13,34.87,14.52A292.34,292.34,0,0,0,212.65,179H91.88V158.28H238l5.81-1.66,17,12.45c-17.85,17-41.92,32.37-65.16,44.41,6.23,3.32,11.62,6.64,16.19,9.54l-6.23,7.06h64.75ZM104.74,157.45c-2.49-9.55-9.13-24.07-15.77-34L110.14,116c7,9.13,13.69,22.82,16.6,32.37ZM211,411c-7.89-6.22-18.68-12.87-31.13-19.51-16.19,15-34.45,27-52.71,34.87a111.87,111.87,0,0,0-13.69-14.94A165.35,165.35,0,0,0,161.18,382a307.3,307.3,0,0,0-32.78-13.7l10.79-15.35c12,3.73,24.48,9.13,36.52,14.94A105.83,105.83,0,0,0,194,342.55H125.49V324.29h79.27l4.15-.83,13.28,6.23A153.52,153.52,0,0,1,194,376.58,193.23,193.23,0,0,1,221.78,394ZM166.58,151.64c-2.08-10-8.3-26.15-14.53-37.35l20.76-7.47c6.22,10.79,12.86,26.14,15.77,36.1Zm44.82-5c8.3-12.87,19.92-34.45,25.32-49L260,108.06c-9.54,17.43-21.17,36.52-29.88,48.56ZM389,409c13.7,0,15.78-15.36,17.44-77.61A67.12,67.12,0,0,0,432.2,343.8c-2.91,68.06-9.55,90.89-41.09,90.89H342.55c-32.37,0-41.09-10.79-41.09-49.81V72H330.1V385.71c0,19.93,2.49,23.25,16.19,23.25Z"/></g></svg>