<svg viewBox="0 0 500 500" fill="none" xmlns="http://www.w3.org/2000/svg">
<path d="M218.276 88.7C210.86 115.068 196.852 144.32 180.784 160.8L207.152 171.924C224.044 152.56 238.052 121.66 245.468 94.88L218.276 88.7ZM213.744 268.332C206.328 297.172 191.908 328.484 175.016 346.612L201.384 359.796C219.924 338.372 234.344 304.176 241.76 274.1L213.744 268.332ZM386.784 87.464C376.896 109.3 357.944 141.024 342.7 160.388L366.596 170.276C382.664 151.736 402.028 123.72 417.684 98.588L386.784 87.464ZM390.904 265.448C379.78 289.344 359.592 323.128 343.524 343.728L368.244 354.028C384.724 334.664 405.736 303.352 422.628 276.572L390.904 265.448ZM80.668 89.936C105.8 103.12 137.936 124.132 153.18 138.964L172.956 114.656C156.888 100.648 124.752 80.872 99.62 68.512L80.668 89.936ZM58.832 201.588C83.964 214.36 115.688 234.136 131.344 248.144L151.12 224.248C135.052 210.24 103.328 191.7 78.196 180.164L58.832 201.588ZM69.544 412.12L97.56 432.308C118.984 394.404 144.528 344.14 163.48 301.292L138.76 281.104C117.748 327.248 89.32 380.808 69.544 412.12ZM289.14 61.92C286.256 166.156 275.544 208.592 173.78 231.664C179.96 237.432 188.2 249.38 190.672 256.384C251.648 241.552 283.784 218.892 300.676 181.812C342.288 204.472 388.02 233.724 412.328 254.736L430.868 230.016C404.088 208.592 352.588 178.104 309.74 155.444C316.332 130.312 318.392 99.412 319.628 61.92H289.14ZM287.492 233.312C283.372 343.316 271.424 390.284 155.24 414.592C161.42 421.184 169.66 433.544 172.544 441.372C250.824 423.244 286.256 393.992 302.736 344.14C324.572 393.992 362.476 426.952 424.276 440.136C428.396 431.896 436.636 419.948 443.228 413.356C369.068 401.408 329.516 356.5 313.448 293.052C315.508 274.924 316.744 255.148 317.568 233.312H287.492Z" fill="black"/>
</svg>
