<svg viewBox="0 0 500 500" fill="none" xmlns="http://www.w3.org/2000/svg">
<path d="M258.652 381.22C306.856 396.876 369.892 423.244 401.616 441.784L418.508 415.004C385.136 396.464 321.688 371.744 274.308 357.736L258.652 381.22ZM123.104 242.788V373.392H153.592V269.568H347.232V371.744H379.368V242.788H123.104ZM233.52 292.228V321.892C233.52 358.972 208.8 393.168 83.5519 414.592C89.7319 420.36 98.7959 433.544 101.68 440.96C231.46 417.476 264.008 372.98 264.008 323.128V292.228H233.52ZM167.6 232.488C173.78 228.368 184.08 225.072 248.764 208.592C248.352 203.236 248.352 193.76 249.176 187.168L198.912 199.116V161.624H242.996V139.376H178.724V111.772H232.696V89.936H178.724V61.508H150.296V89.936H121.456L128.46 68.512L102.916 64.804C97.9719 82.932 88.9079 105.592 74.4879 122.896C81.4919 125.368 91.3799 130.724 97.5599 135.668C103.328 128.252 108.272 120.012 112.392 111.772H150.296V139.376H67.4839V161.624H116.512C111.568 192.112 97.9719 210.652 60.0679 222.6C65.4239 226.308 72.8399 235.784 75.7239 241.964C121.044 226.308 137.112 201.588 143.292 161.624H172.956V185.52C172.956 202.824 163.068 209.416 157.3 212.3C161.008 216.832 165.952 226.308 167.6 232.488ZM253.296 139.376V161.624H299.028C294.908 189.64 282.548 205.296 248.352 215.596C253.708 219.716 261.124 229.192 263.596 235.372C305.208 221.364 319.628 198.292 324.984 161.624H348.468V198.292C348.468 222.188 354.648 228.368 379.78 228.368C384.724 228.368 406.56 228.368 411.504 228.368C429.632 228.368 436.636 220.952 439.108 191.7C432.104 190.052 421.804 186.756 416.86 183.048C416.036 203.648 414.8 206.12 407.384 206.12C402.852 206.12 386.784 206.12 383.488 206.12C375.66 206.12 374.424 205.296 374.424 198.292V161.624H431.692V139.376H357.944V113.008H416.86V90.76H357.944V61.92H328.692V90.76H299.852C302.736 83.344 305.208 75.928 307.68 68.512L282.548 64.804C276.78 83.756 266.892 106.004 251.236 124.132C258.24 126.192 267.716 131.96 273.484 136.492C279.664 129.076 284.608 121.248 289.14 113.008H328.692V139.376H253.296Z" fill="black"/>
</svg>
