<svg viewBox="0 0 500 500" fill="none" xmlns="http://www.w3.org/2000/svg">
<path d="M309.74 225.484V389.048C309.74 422.832 317.98 432.72 349.704 432.72C356.296 432.72 388.02 432.72 394.612 432.72C424.276 432.72 431.692 415.828 434.576 353.204C426.336 351.144 413.564 345.788 406.56 340.432C405.736 394.816 403.264 403.88 392.14 403.88C384.724 403.88 359.592 403.88 353.824 403.88C342.7 403.88 340.228 401.82 340.228 389.048V225.484H309.74ZM335.284 87.464C355.472 106.416 379.368 133.608 390.904 150.912L413.564 133.196C401.616 116.716 376.896 90.76 356.708 72.22L335.284 87.464ZM116.1 61.92V440.548H146.176V61.92H116.1ZM76.9601 141.436C74.0761 174.808 66.6601 220.128 55.5361 247.32L79.8441 255.972C90.9681 225.896 98.3841 178.104 100.444 144.732L76.9601 141.436ZM147.412 137.316C158.536 162.86 170.484 196.644 175.428 217.244L198.5 206.12C193.556 186.756 181.196 153.796 169.248 128.664L147.412 137.316ZM267.304 65.216C266.892 95.704 266.892 127.84 265.244 159.564H198.5V189.228H263.184C255.768 278.22 233.108 363.916 163.068 413.768C171.72 419.124 181.196 428.188 186.964 435.604C260.712 379.984 284.608 286.46 292.848 189.228H435.4V159.564H294.908C296.556 127.84 296.968 95.704 297.38 65.216H267.304Z" fill="black"/>
</svg>
