<svg viewBox="0 0 500 500" fill="none" xmlns="http://www.w3.org/2000/svg">
<path d="M111.568 62.332V145.144H63.776V173.984H111.568V265.86C91.792 271.628 73.664 276.984 58.832 280.692L67.072 311.18L111.568 296.76V403.056C111.568 408 109.508 409.648 104.976 409.648C100.444 410.06 86.436 410.06 70.368 409.648C74.488 418.3 78.608 431.896 79.844 439.724C103.74 440.136 118.984 438.9 128.46 433.544C138.348 428.6 142.056 419.948 142.056 403.056V286.872L186.14 272.452L181.608 243.612L142.056 256.384V173.984H180.372V145.144H142.056V62.332H111.568ZM264.832 124.544H350.528C341.052 138.552 329.104 153.796 317.568 166.156H232.696C244.644 152.56 255.356 138.552 264.832 124.544ZM181.196 288.932V315.712H280.9C264.42 351.556 230.224 388.224 158.948 419.536C165.54 425.304 175.016 435.192 179.548 441.372C249.588 408.412 286.256 369.684 305.62 331.368C331.988 379.984 374.424 419.536 423.452 439.724C427.572 432.308 436.636 421.184 443.228 415.004C393.376 397.7 350.528 360.62 327.044 315.712H435.4V288.932H406.56V166.156H353C368.656 148.852 384.724 128.664 395.436 110.536L374.836 96.528L369.892 98.1759H280.9C286.668 87.4639 292.024 77.164 296.556 66.8639L265.244 61.0959C250.824 96.116 223.22 139.788 182.844 172.336C189.436 176.868 199.324 187.168 203.856 194.172L211.272 187.58V288.932H181.196ZM240.936 288.932V190.876H295.732V234.136C295.732 250.616 294.908 269.156 290.376 288.932H240.936ZM375.66 288.932H320.452C324.984 269.568 325.808 251.028 325.808 234.548V190.876H375.66V288.932Z" fill="black"/>
</svg>
