<svg viewBox="0 0 500 500" fill="none" xmlns="http://www.w3.org/2000/svg">
<path d="M72.4281 412.12L92.6162 437.664C122.28 408.824 155.652 372.156 183.668 339.608L167.188 316.124C136.288 350.732 97.9722 389.872 72.4281 412.12ZM85.2001 181.812C109.508 193.76 140.408 212.3 155.652 225.072L173.78 202C158.124 189.228 126.812 171.924 102.504 161.212L85.2001 181.812ZM62.9521 264.212C88.9081 274.924 121.456 291.816 137.524 304.176L155.24 280.28C138.348 268.332 104.976 252.264 79.8441 242.788L62.9521 264.212ZM282.96 169.452C296.556 185.108 310.976 206.944 317.156 222.188H184.904V250.616H222.396V422.42H418.92V393.992H252.472V250.616H437.872V222.188H321.688L344.76 209.004C338.992 195.82 325.396 176.044 312.212 160.8H336.108V124.544H431.692V96.5279H336.108V61.9199H305.62V96.5279H192.732V61.9199H162.244V96.5279H69.5441V124.544H162.244V162.036H192.732V124.544H305.62V157.092L282.96 169.452Z" fill="black"/>
</svg>
