<svg viewBox="0 0 500 500" fill="none" xmlns="http://www.w3.org/2000/svg">
<path d="M254.12 154.62C265.244 180.576 276.78 216.008 281.312 237.02L303.148 229.192C298.616 209.004 286.256 174.396 274.72 148.44L254.12 154.62ZM346.408 153.384C357.532 179.34 369.068 213.948 373.188 234.548L395.436 227.956C390.904 207.768 378.544 173.572 367.008 148.44L346.408 153.384ZM209.624 104.356C204.68 120.424 194.792 144.732 186.552 160.8H172.956V97.764C198.5 94.468 222.396 90.76 241.348 86.228L224.456 64.804C187.376 73.868 121.044 81.284 66.66 84.58C69.956 90.348 72.84 99.824 74.076 106.004C96.736 105.18 121.868 103.12 146.588 100.648V160.8H64.188V185.108H135.876C116.512 212.712 84.788 241.552 58.832 257.208C63.364 264.212 69.544 276.16 72.016 283.988L78.608 279.456V440.548H102.916V417.064H212.508V435.604H237.64V276.16H82.728C104.976 258.856 128.46 233.312 146.588 208.18V268.744H172.956V207.356C193.968 224.248 222.396 248.968 233.52 260.916L249.176 236.608C238.876 227.956 197.264 198.292 177.076 185.108H242.996V160.8H210.86C218.276 146.792 226.516 128.664 233.52 112.184L209.624 104.356ZM85.2 115.48C91.38 129.9 98.384 149.264 101.68 160.8L123.516 153.796C120.22 142.672 112.804 124.132 106.212 110.124L85.2 115.48ZM148.236 356.5V392.344H102.916V356.5H148.236ZM170.896 356.5H212.508V392.344H170.896V356.5ZM148.236 334.252H102.916V300.468H148.236V334.252ZM170.896 334.252V300.468H212.508V334.252H170.896ZM247.116 326.012L261.536 347.436C276.78 331.368 293.672 312.416 310.564 293.464V405.528C310.564 410.884 308.916 412.12 304.384 412.12C299.44 412.532 284.608 412.532 268.952 412.12C273.072 419.536 276.368 431.896 277.192 438.9C299.44 438.9 314.272 438.488 323.748 433.956C332.812 429.012 336.108 420.772 336.108 405.528V81.284H254.944V107.652H310.564V258.032C286.668 284.812 262.772 309.944 247.116 326.012ZM341.464 321.48L356.296 342.904C370.304 328.072 385.96 310.768 401.204 293.464V404.704C401.204 410.472 399.556 412.12 394.612 412.12C390.08 412.12 374.424 412.532 357.944 411.708C362.064 419.124 366.184 432.308 367.42 439.724C389.668 439.724 405.324 438.9 414.8 434.368C424.688 429.424 427.984 420.772 427.984 405.116V81.696H345.996V108.064H401.204V258.444C378.956 282.752 356.708 306.648 341.464 321.48Z" fill="black"/>
</svg>
