<svg viewBox="0 0 500 500" fill="none" xmlns="http://www.w3.org/2000/svg">
<path d="M65.4238 299.232L69.5438 328.484L214.98 311.592V383.692C214.98 424.068 228.576 434.78 276.78 434.78C287.492 434.78 358.356 434.78 369.48 434.78C413.976 434.78 424.276 417.476 428.808 354.852C419.744 352.792 405.736 347.436 398.32 342.08C395.436 394.404 391.728 404.704 367.832 404.704C352.176 404.704 291.2 404.704 278.84 404.704C252.472 404.704 247.94 400.996 247.94 383.692V307.884L432.104 286.46L427.984 258.032L247.94 278.632V210.652C289.964 202 329.516 191.7 360.416 179.34L335.696 154.208C282.548 176.868 186.552 194.996 101.68 205.708C105.8 212.712 109.92 225.072 111.568 232.488C145.352 228.368 180.372 223.012 214.98 216.832V282.34L65.4238 299.232ZM219.512 66.864C226.104 78.4001 233.108 92.408 238.464 104.768H76.9598V191.7H108.272V134.432H391.728V191.7H424.276V104.768H274.72C268.952 90.76 258.652 72.22 249.588 57.8L219.512 66.864Z" fill="black"/>
</svg>
