<svg viewBox="0 0 500 500" fill="none" xmlns="http://www.w3.org/2000/svg">
<path d="M74.9002 270.392H100.032V376.276L133.816 372.568V241.552H61.7162V213.948H133.816V138.14H105.8C98.3842 159.152 89.7322 178.104 80.2562 193.348C74.9002 189.228 62.9522 182.636 55.9482 179.752C76.1362 149.676 90.9682 105.18 99.6202 61.0959L126.4 66.452C123.104 81.284 119.396 96.116 114.864 110.536H222.396V138.14H161.832V213.948H230.636V241.552H161.832V369.684L196.852 365.564V270.392H221.984V411.296H196.852V388.636L74.9002 406.352V270.392ZM379.368 253.088V160.8H337.756V205.296C337.756 221.364 337.344 237.02 336.52 253.088H379.368ZM308.092 61.92H337.756V131.96H408.62V253.088H434.164V281.928H353C369.892 340.02 400.38 389.46 444.052 414.18C436.636 420.36 426.336 431.896 421.392 440.136C378.956 412.12 348.468 363.504 330.34 304.176C320.452 354.852 298.616 402.232 250.824 440.96C245.88 434.368 235.168 424.068 227.34 419.124C275.956 380.396 295.732 332.604 303.56 281.928H238.876V253.088H306.444C307.68 237.432 308.092 221.364 308.092 205.296V160.8H248.352V131.96H308.092V61.92Z" fill="black"/>
</svg>
