<svg viewBox="0 0 500 500" fill="none" xmlns="http://www.w3.org/2000/svg">
<path d="M119.808 175.22H351.764V200.764H119.808V175.22ZM253.296 59.86L279.664 72.632C256.592 95.704 227.477 116.167 192.32 134.02C157.163 151.873 119.396 166.843 79.02 178.928C77.9214 176.731 76.136 173.984 73.664 170.688C71.4667 167.392 68.9947 164.233 66.248 161.212C63.776 158.191 61.4414 155.581 59.244 153.384C85.612 146.243 111.156 137.865 135.876 128.252C160.596 118.364 183.119 107.652 203.444 96.116C223.769 84.58 240.387 72.4947 253.296 59.86ZM261.124 73.044C269.639 79.9107 280.488 87.052 293.672 94.468C307.131 101.884 322.1 109.025 338.58 115.892C355.06 122.759 372.089 129.076 389.668 134.844C407.521 140.337 425.237 145.007 442.816 148.852C440.619 150.775 438.284 153.384 435.812 156.68C433.34 159.701 430.868 162.86 428.396 166.156C426.199 169.452 424.276 172.336 422.628 174.808C405.324 170.688 387.883 165.332 370.304 158.74C353 151.873 336.245 144.595 320.04 136.904C303.835 128.939 289.003 120.973 275.544 113.008C262.085 104.768 250.687 97.0773 241.348 89.936L261.124 73.044ZM219.1 134.02L239.7 119.188C248.489 125.231 257.141 132.235 265.656 140.2C274.171 148.165 280.625 155.169 285.02 161.212L263.596 178.516C258.927 172.199 252.335 164.92 243.82 156.68C235.58 148.165 227.34 140.612 219.1 134.02ZM344.76 175.22H350.528L355.06 173.572L376.484 186.344C367.145 197.056 356.983 208.18 345.996 219.716C335.284 230.977 324.709 241.827 314.272 252.264L287.492 236.608C298.204 226.995 308.779 216.832 319.216 206.12C329.653 195.408 338.168 186.481 344.76 179.34V175.22ZM232.696 287.284H264.832V315.712C264.832 323.677 263.871 332.055 261.948 340.844C260.025 349.633 255.905 358.56 249.588 367.624C243.545 376.688 234.481 385.615 222.396 394.404C210.311 403.193 194.105 411.571 173.78 419.536C153.455 427.776 128.048 435.329 97.56 442.196C96.1867 439.999 94.264 437.389 91.792 434.368C89.5947 431.347 87.1227 428.325 84.376 425.304C81.904 422.283 79.432 419.811 76.96 417.888C106.349 411.845 130.52 405.528 149.472 398.936C168.699 392.069 183.805 385.065 194.792 377.924C206.053 370.508 214.431 363.229 219.924 356.088C225.417 348.672 228.851 341.531 230.224 334.664C231.872 327.523 232.696 320.931 232.696 314.888V287.284ZM259.064 381.632L274.72 359.796C286.531 363.092 299.165 367.075 312.624 371.744C326.083 376.413 339.404 381.357 352.588 386.576C365.772 391.795 378.269 397.013 390.08 402.232C401.891 407.176 411.916 411.845 420.156 416.24L403.676 440.96C395.711 436.291 385.96 431.347 374.424 426.128C363.163 420.909 350.94 415.553 337.756 410.06C324.572 404.841 311.251 399.76 297.792 394.816C284.333 389.872 271.424 385.477 259.064 381.632ZM119.396 245.672H380.192V366.388H349.292V273.276H148.648V368.036H119.396V245.672Z" fill="black"/>
</svg>
