<svg viewBox="0 0 500 500" fill="none" xmlns="http://www.w3.org/2000/svg">
<path d="M313.448 103.532V169.04H383.488V103.532H313.448ZM214.156 103.532V169.04H283.372V103.532H214.156ZM117.336 103.532V169.04H184.492V103.532H117.336ZM84.376 77.164H418.508V195.408H84.376V77.164ZM233.52 203.648H266.068V316.948H233.52V203.648ZM67.072 304.588H432.928V332.192H67.072V304.588ZM93.44 234.136H409.856V260.504H93.44V234.136ZM313.86 349.908L338.992 333.84C348.056 342.904 357.669 352.929 367.832 363.916C377.995 374.903 387.745 385.615 397.084 396.052C406.423 406.215 414.113 415.141 420.156 422.832L393.376 441.784C387.883 434.093 380.604 424.892 371.54 414.18C362.476 403.743 352.863 392.893 342.7 381.632C332.812 370.096 323.199 359.521 313.86 349.908ZM95.5 438.9C94.676 436.428 93.7147 433.269 92.616 429.424C91.5174 425.579 90.2814 421.596 88.908 417.476C87.8094 413.356 86.5734 409.923 85.2 407.176C89.8694 406.352 94.8134 404.567 100.032 401.82C105.251 398.799 110.881 394.953 116.924 390.284C121.868 387.263 129.284 381.769 139.172 373.804C149.335 365.564 160.459 355.813 172.544 344.552C184.904 333.016 196.303 321.068 206.74 308.708L235.58 327.66C217.452 346.063 198.5 363.504 178.724 379.984C158.948 396.189 139.309 410.197 119.808 422.008V422.832C119.808 422.832 118.572 423.244 116.1 424.068C113.628 425.167 110.744 426.54 107.448 428.188C104.427 429.836 101.68 431.484 99.208 433.132C96.736 435.055 95.5 436.977 95.5 438.9ZM95.5 438.488L94.676 415.004L116.924 403.056L373.6 385.34C373.6 389.46 374.012 394.129 374.836 399.348C375.66 404.567 376.347 408.687 376.896 411.708C336.52 415.004 301.912 417.751 273.072 419.948C244.232 422.145 219.924 424.068 200.148 425.716C180.372 427.364 164.167 428.737 151.532 429.836C138.897 430.935 129.009 431.896 121.868 432.72C114.727 433.819 109.096 434.78 104.976 435.604C101.131 436.428 97.972 437.389 95.5 438.488Z" fill="black"/>
</svg>
