<svg xmlns="http://www.w3.org/2000/svg" viewBox="0 0 500 500"><defs><style>.cls-1{fill:#4b4b4b;}</style></defs><title>字z</title><g id="_2019年" data-name="2019年"><g id="澳门-8" data-name="澳门"><path id="慶-繁体" class="cls-1" d="M122,249.17C119.89,311,111.17,386.54,81.29,440.5c-5-5.81-17.43-14.53-23.65-17,33.2-61,36.1-146.5,36.1-208.34V89.38H253.53c-2.49-8.3-5-16.6-7.47-24.07l29.88-5.81c3.73,9.13,7.47,19.92,10.38,29.88H433.65v24.49H317.44V139.6h99.19v69.31H122.38V228H417.46l4.57-.83,20.33,5.4c-9.13,18.68-19.5,39.43-29.05,52.71l-24.48-5.4A175.91,175.91,0,0,0,405,249.17H261.83c14.11,7.89,29.47,16.19,39,22.41l-14.52,18.26c-12.46-8.3-34.87-22.41-51-30.71l8.3-10Zm259,95c-17.85,20.75-43.58,38.18-73.46,51.46,39.84,10,85.08,16.61,131.56,19.93-5.81,5.81-12,16.6-15.77,24.48-53.95-5-106.66-14.52-151.9-30.71-45.23,15.77-97.11,24.9-146.5,30.71-1.66-7.05-7.47-16.6-12-22.82,41.51-3.74,85.91-10.79,125.34-21.59-19.09-9.13-36.11-19.5-50.63-32.37a370.91,370.91,0,0,1-57.69,26.15c-3.32-5.4-11.21-14.53-17-18.26,46.49-14.94,83.84-35.69,107.08-55.62-19.09-2.49-24.49-9.13-24.49-28.63V261.21h25.32v25.73c0,8.3,2.91,9.54,19.92,9.54h61c11.62,0,14.11-2.49,15.36-21.16,5.39,3.32,14.52,6.22,21.58,7.47-2.49,26.56-10,33.61-33.2,33.61H253.53a204.69,204.69,0,0,1-19.51,17H357.7l5.39-1.24ZM122.38,113.87V139.6h70.14V113.87Zm0,75.54h70.14v-30.3H122.38Zm5.81,117.45c13.28-12,27.81-33.2,36.94-48.56l21.16,12c-10,14.94-23.65,36.52-36.93,51.46Zm83.42,46.07C227.8,365.38,249,376.17,273,384.88c24.49-8.71,45.66-19.5,62.26-31.95Zm78-239.06H219.91V139.6h69.72Zm-69.72,75.54h69.72v-30.3H219.91Zm97.53-30.3v30.3H388v-30.3Zm32.37,96.29c16.61,14.52,38.6,34.86,49.81,47.72l-19.51,14.11c-10.79-12.86-32.37-34.44-49-49.8Z"/></g></g></svg>