<svg viewBox="0 0 500 500" fill="none" xmlns="http://www.w3.org/2000/svg">
<path d="M262.772 100.236V422.42H292.848V388.636H384.724V419.536H416.036V100.236H262.772ZM292.848 358.972V129.9H384.724V358.972H292.848ZM224.868 65.6279C188.612 80.4599 123.516 92.8199 68.7199 100.236C72.0159 107.24 76.1359 117.952 77.3719 124.956C99.2079 122.484 122.692 119.188 145.764 115.068V183.872H64.5999V212.712H137.936C118.984 264.624 86.0239 321.068 54.7119 352.792C60.0679 360.62 67.8959 372.568 71.6039 381.632C98.3839 353.204 125.576 305.824 145.764 257.208V440.136H176.252V258.444C193.968 281.928 217.04 313.24 226.516 328.896L245.468 303.352C235.58 290.58 191.496 238.668 176.252 223.012V212.712H248.352V183.872H176.252V108.888C202.208 103.532 226.104 97.3519 245.468 89.9359L224.868 65.6279Z" fill="black"/>
</svg>
