<svg viewBox="0 0 500 500" fill="none" xmlns="http://www.w3.org/2000/svg">
<path d="M83.1402 88.6999C110.744 101.06 144.528 120.836 161.42 135.256L179.136 109.3C161.832 95.7039 127.224 77.1639 100.444 66.4519L83.1402 88.6999ZM61.3042 200.764C88.0842 212.3 121.044 231.664 137.524 245.26L154.828 219.716C137.936 206.12 104.152 188.404 78.1962 177.692L61.3042 200.764ZM75.3122 414.592L101.268 435.604C125.576 397.288 154.416 345.788 176.252 302.116L153.592 281.928C129.696 328.484 97.1482 382.868 75.3122 414.592ZM203.032 426.54C214.156 421.596 231.46 418.712 385.548 399.348C393.788 414.592 400.38 429.012 404.5 440.548L431.692 426.54C419.332 394.404 388.02 345.376 358.768 309.12L334.048 321.068C346.408 337.136 359.18 355.676 370.716 374.216L240.112 388.636C265.656 354.028 291.612 309.944 313.036 265.86H430.044V236.608H321.276V162.036H413.152V132.784H321.276V61.9199H290.376V132.784H201.796V162.036H290.376V236.608H183.668V265.86H275.956C255.356 312.416 227.752 356.5 218.688 368.86C208.388 384.104 200.56 393.58 192.32 395.64C196.028 404.292 201.384 419.948 203.032 426.54Z" fill="black"/>
</svg>
