<svg viewBox="0 0 500 500" fill="none" xmlns="http://www.w3.org/2000/svg">
<path d="M195.204 75.516V429.836H222.396V75.516H195.204ZM139.584 106.416V382.044H163.892V106.416H139.584ZM81.9039 76.752V243.2C81.9039 310.356 79.0199 370.92 56.3599 421.596C62.9519 425.304 73.6639 434.78 78.1959 440.548C104.976 384.928 108.272 318.596 108.272 243.2V76.752H81.9039ZM255.356 149.264V346.2H283.372V177.692H392.552V345.376H421.804V149.264H339.404C344.76 136.492 350.116 121.66 355.472 107.24H437.46V80.048H244.232V107.24H322.512C319.216 120.836 314.684 136.492 310.152 149.264H255.356ZM323.748 206.944V289.756C323.748 330.956 315.096 388.224 229.812 420.772C236.816 426.54 245.056 436.428 249.176 442.608C298.204 421.596 324.16 393.992 337.756 365.152C366.184 388.224 399.144 419.536 415.212 440.548L437.048 420.772C419.744 399.76 383.488 367.624 355.06 344.964L341.876 355.676C350.528 333.428 352.176 310.356 352.176 289.756V206.944H323.748Z" fill="black"/>
</svg>
