<svg viewBox="0 0 500 500" fill="none" xmlns="http://www.w3.org/2000/svg">
<path d="M70.7799 96.1159C95.0879 117.54 126.4 147.616 140.82 166.98L163.48 146.38C148.236 127.428 116.512 98.5879 92.2039 78.3999L70.7799 96.1159ZM149.472 216.42H61.7159V245.672H119.808V362.68C101.68 370.096 81.0799 388.636 60.0679 411.296L79.4319 436.84C100.444 408.824 120.632 384.928 134.64 384.928C144.116 384.928 158.124 398.936 175.016 409.236C203.856 426.54 238.052 431.484 289.14 431.484C333.636 431.484 405.736 429.424 434.576 427.364C434.988 419.124 439.932 405.116 443.228 397.288C400.792 401.408 338.168 404.704 289.552 404.704C243.82 404.704 208.8 401.82 181.196 384.928C166.776 375.452 157.712 368.036 149.472 363.504V216.42ZM193.968 77.1639V101.472H368.244C351.352 114.244 330.34 127.016 309.74 136.904C289.552 127.84 268.128 119.188 249.588 112.596L229.812 130.312C255.356 139.788 285.432 152.972 310.564 165.332H193.556V378.748H222.808V310.356H292.436V377.1H320.452V310.356H392.14V347.848C392.14 352.792 390.492 354.44 385.136 354.852C380.192 354.852 362.888 354.852 343.112 354.44C346.82 361.444 350.528 371.744 351.764 379.572C379.368 379.572 397.084 379.572 407.796 375.04C418.508 370.508 421.804 363.092 421.804 347.848V165.332H367.832C359.592 160.388 349.292 155.032 337.344 149.264C368.244 133.196 399.556 111.772 421.804 90.3479L402.44 75.5159L396.26 77.1639H193.968ZM392.14 189.228V225.484H320.452V189.228H392.14ZM222.808 248.556H292.436V286.048H222.808V248.556ZM222.808 225.484V189.228H292.436V225.484H222.808ZM392.14 248.556V286.048H320.452V248.556H392.14Z" fill="black"/>
</svg>
