<svg viewBox="0 0 500 500" fill="none" xmlns="http://www.w3.org/2000/svg">
<path d="M78.1962 163.272H423.452V232.076H396.26V189.64H104.564V232.076H78.1962V163.272ZM135.052 122.484L158.124 113.42C162.519 122.484 166.776 132.235 170.896 142.672C175.016 153.109 177.9 161.899 179.548 169.04L154.828 180.164C153.455 172.748 150.846 163.547 147 152.56C143.155 141.573 139.172 131.548 135.052 122.484ZM228.988 118.364L252.884 110.948C256.73 120.012 260.438 130.037 264.008 141.024C267.579 151.736 270.326 160.663 272.248 167.804L247.116 177.28C245.468 169.864 242.859 160.663 239.288 149.676C235.992 138.415 232.559 127.977 228.988 118.364ZM389.256 67.276L399.556 92.408C380.33 95.704 358.356 98.588 333.636 101.06C309.191 103.532 283.372 105.592 256.18 107.24C229.263 108.888 202.071 110.261 174.604 111.36C147.138 112.459 120.77 113.145 95.5002 113.42C95.2255 109.849 94.4015 105.729 93.0282 101.06C91.6549 96.3907 90.2815 92.2707 88.9082 88.7C114.452 88.1507 140.958 87.3267 168.424 86.228C195.891 85.1293 223.083 83.6187 250 81.696C276.918 79.7733 302.324 77.7133 326.22 75.516C350.391 73.044 371.403 70.2973 389.256 67.276ZM345.996 104.768L373.6 113.832C367.283 124.819 360.416 136.08 353 147.616C345.584 159.152 338.718 168.903 332.4 176.868L310.152 169.04C314.272 163.272 318.53 156.68 322.924 149.264C327.594 141.573 331.851 133.883 335.696 126.192C339.816 118.227 343.25 111.085 345.996 104.768ZM196.028 305C210.036 323.952 228.714 340.569 252.06 354.852C275.407 368.86 302.05 380.259 331.988 389.048C361.927 397.837 393.514 404.017 426.748 407.588C424.826 410.06 422.766 412.807 420.568 415.828C418.646 419.124 416.723 422.42 414.8 425.716C413.152 429.287 411.642 432.445 410.268 435.192C376.759 430.523 344.898 423.107 314.684 412.944C284.471 402.781 257.279 389.597 233.108 373.392C209.212 357.187 189.299 337.96 173.368 315.712L196.028 305ZM182.432 295.936H359.18V322.716H182.432V295.936ZM349.704 295.936H355.472L360.828 294.7L377.308 307.06C364.124 331.505 346.271 352.243 323.748 369.272C301.5 386.027 276.506 399.623 248.764 410.06C221.023 420.772 192.458 429.012 163.068 434.78C162.244 432.308 161.008 429.424 159.36 426.128C157.712 423.107 155.927 419.948 154.004 416.652C152.082 413.356 150.296 410.747 148.648 408.824C177.488 404.155 205.092 397.288 231.46 388.224C258.103 379.16 281.724 367.487 302.324 353.204C322.924 338.921 338.718 321.48 349.704 300.88V295.936ZM107.86 236.196H392.964V262.564H107.86V236.196ZM193.968 199.94L223.632 204.06C213.195 259.543 196.715 306.511 174.192 344.964C151.67 383.143 120.495 413.905 80.6682 437.252C79.8442 435.329 78.1962 432.72 75.7242 429.424C73.2522 426.403 70.7802 423.244 68.3082 419.948C65.8362 416.927 63.5015 414.592 61.3042 412.944C99.2082 392.893 128.598 365.152 149.472 329.72C170.347 294.288 185.179 251.028 193.968 199.94Z" fill="black"/>
</svg>
