<svg viewBox="0 0 500 500" fill="none" xmlns="http://www.w3.org/2000/svg">
<path d="M95.0882 232.488L116.924 214.36C124.889 222.6 133.267 231.527 142.056 241.14C151.12 250.479 159.635 259.68 167.6 268.744C175.84 277.808 182.432 285.636 187.376 292.228L164.304 313.24C159.36 306.099 152.905 297.859 144.94 288.52C137.249 279.181 129.009 269.568 120.22 259.68C111.431 249.792 103.053 240.728 95.0882 232.488ZM261.124 214.36C265.519 242.925 271.836 268.332 280.076 290.58C288.591 312.828 299.715 332.192 313.448 348.672C327.456 364.877 344.76 378.336 365.36 389.048C386.235 399.485 411.367 407.176 440.756 412.12C438.559 414.317 436.224 417.064 433.752 420.36C431.555 423.656 429.358 426.952 427.16 430.248C424.963 433.819 423.315 436.977 422.216 439.724C391.728 433.407 365.635 424.205 343.936 412.12C322.237 400.309 304.109 385.34 289.552 367.212C274.995 349.084 263.322 327.66 254.532 302.94C245.743 277.945 238.739 249.517 233.52 217.656L261.124 214.36ZM235.168 176.868H268.128C266.48 201.313 264.008 224.66 260.712 246.908C257.691 269.156 252.472 290.168 245.056 309.944C237.915 329.72 227.615 347.985 214.156 364.74C200.972 381.495 183.531 396.327 161.832 409.236C140.133 422.145 113.079 432.995 80.6681 441.784C79.5695 439.037 77.9215 436.016 75.7241 432.72C73.8015 429.424 71.7415 426.128 69.5441 422.832C67.3468 419.536 65.1495 416.789 62.9521 414.592C93.7148 406.901 119.121 397.288 139.172 385.752C159.497 374.216 175.703 361.032 187.788 346.2C200.148 331.093 209.487 314.613 215.804 296.76C222.122 278.907 226.516 259.955 228.988 239.904C231.735 219.853 233.795 198.841 235.168 176.868ZM376.484 213.124L404.088 231.252C394.2 245.809 383.351 260.916 371.54 276.572C359.729 291.953 348.88 305.275 338.992 316.536L316.332 300.468C322.924 292.777 329.928 283.988 337.344 274.1C344.76 263.937 351.902 253.5 358.768 242.788C365.635 232.076 371.54 222.188 376.484 213.124ZM74.9001 123.308H424.276V200.764H392.14V152.148H105.388V200.764H74.9001V123.308ZM212.92 72.22L241.348 59.036C250.412 67.0013 259.201 75.928 267.716 85.816C276.506 95.4293 283.235 104.081 287.904 111.772L258.652 127.016C254.257 119.6 247.665 110.673 238.876 100.236C230.361 89.7987 221.71 80.46 212.92 72.22Z" fill="black"/>
</svg>
