<svg xmlns="http://www.w3.org/2000/svg" viewBox="0 0 500 500"><defs><style>.cls-1{fill:#4b4b4b;}</style></defs><title>字z</title><g id="_2016年" data-name="2016年"><g id="新加坡-6" data-name="新加坡"><path id="变" class="cls-1" d="M381.77,280.92c-23.66,40.67-59.35,72.21-101.68,96.7,44.82,18.68,98,30.71,156.05,37.35-6.64,6.64-13.7,18.68-17.43,27-64.33-8.3-122-24.07-171-48.14C196.67,417.46,138.15,432.4,79.22,442c-2.91-7.89-10-20.75-15.36-27.39,54-7.06,107.08-19.09,153.15-37.35-35.28-22-64.33-49-86.33-81.35H97.06V268.47H356.45l5.4-1.66ZM185.46,131.51H71.75V104.12H241.49a271.17,271.17,0,0,0-21.16-38.6l29.88-7.47c9.54,14.11,20.33,33.2,26.14,46.07H425.76v27.39h-115V256.43H280.09V131.51H216.18V256.85H185.46Zm-23.24,24.9c-13.69,33.2-36.94,66.41-59.35,88-5.39-5-17-12.87-24.07-16.6,22.83-19.93,43.58-49,55.62-78.86Zm1.66,139.45c21.17,27,49.81,49.39,84.67,67.23,35.69-17.43,65.16-39.42,86.74-67.23ZM350.23,151.43c26.56,23.24,56.86,56.44,71.38,77.61l-24.07,15.77C382.6,222.4,352.3,188,327,164.71Z"/></g></g></svg>