<svg xmlns="http://www.w3.org/2000/svg" viewBox="0 0 500 500"><defs><style>.cls-1{fill:#4b4b4b;}</style></defs><title>字z</title><g id="_2014年" data-name="2014年"><g id="台湾-7" data-name="台湾"><path id="黑" class="cls-1" d="M432.2,333.42H65.73V306H233V268.68H99.76V243.36H233v-34H106.82V67.39H389.45V209.33H263.28v34H397.33v25.32h-134V306H432.2ZM66.14,418.92c18.68-15.78,36.11-43.58,46.07-68.9l29.47,7.06c-10.38,26.56-27,56.86-46.9,75.53ZM233,183.18V93.53h-96.7v89.65Zm-53.12-79.27c12,19.09,23.66,44.41,27,60.59l-21.58,8.31c-3.32-16.19-14.53-42.34-25.74-61.84ZM211.4,358.32c5.4,21.17,9.13,49.81,9.13,66l-30.29,4.15c0-17-2.91-45.65-7.47-68.06ZM358.74,93.53H263.28v89.65h95.46ZM296.48,355.42C306,376.17,316.4,404,320.14,421l-30.3,7.47c-3.73-17.43-13.28-45.65-22-67.23ZM282,169.07c10.79-17.85,24.9-46.07,32-65.57L338,112.63c-11.63,22.41-25.32,48.14-36.11,64.74Zm97.53,181c20.33,20.34,43.58,50.22,54.78,69.73l-29.88,11.62c-10-19.09-32.79-49.81-52.71-71.8Z"/></g></g></svg>