<svg xmlns="http://www.w3.org/2000/svg" viewBox="0 0 500 500"><defs><style>.cls-1{fill:#4b4b4b;}</style></defs><title>字z</title><g id="_2018年" data-name="2018年"><g id="中国国际字-13" data-name="中国国际字"><path id="退" class="cls-1" d="M149.77,357.49c9.13,4.15,18.26,12,34,20.75,27,14.53,61.84,17.43,107.08,17.43,48.14,0,109.57-2.9,149.41-7.47-3.32,7.89-8.3,22-8.72,30.72-29.46,2.07-102.09,4.56-141.52,4.56-49,0-84.25-4.56-112.47-20.75-17.85-10-30.71-22-40.26-22-14.94,0-36.11,21.58-58.52,47.32L59.71,402.31c21.17-20.33,42.33-36.93,60.59-44v-127H64.69v-29h85.08ZM136.49,156.62c-11.21-19.09-37.77-47.31-60.18-68.48L99.55,72c22.41,19.51,49.39,47.32,61.84,66ZM306.65,307.27A230,230,0,0,0,308.31,333c-86.32,24.48-98.78,28.63-107.08,34.44-2.49-7.47-9.13-19.5-13.69-25.31,7.05-4.15,16.6-12,16.6-29.47V74H394.22v154.8H234.85V326ZM234.85,99.76v39H364.34v-39ZM364.34,203.1V162.43H234.85V203.1Zm-70.14,39c14.53,10.38,29.88,21.59,44.82,33.62,22-14.52,47.73-33.62,63.92-47.73L427,245.85a823.76,823.76,0,0,1-68.48,46.07c24.07,19.92,46.07,39.84,59.76,56.44l-22.82,17.85c-24.49-30.71-78-76.78-122-108.74Z"/></g></g></svg>