<svg xmlns="http://www.w3.org/2000/svg" viewBox="0 0 500 500"><defs><style>.cls-1{fill:#4b4b4b;}</style></defs><title>字z</title><g id="_2014年" data-name="2014年"><g id="马来西亚-4" data-name="马来西亚"><path id="航" class="cls-1" d="M213.48,403.14c0,15.36-3.32,23.25-13.28,28.23-9.55,5-24.9,5.39-50.22,5.39-.83-7.47-5-19.5-8.72-27,17.85.83,33.21.41,37.77.41,5-.41,7.06-2.07,7.06-7.06V265.77H116.36c0,55.2-4.56,129.49-35.28,177.22-4.56-5-16.6-12.87-23.24-15.36C86.48,382,89,317.23,89,265.77h-29V240.45H89V110.55h36.11a465.57,465.57,0,0,0,13.69-52.29l31.13,6.22c-5.81,15.36-11.62,32.38-17,46.07h60.6ZM186.09,240.45v-105H116.36v105ZM155,353.76c-5.81-17-18.68-44-29.88-63.92l19.5-8.71c11.62,20.33,24.9,46.48,31.13,63.08Zm-9.13-198c9.54,18.26,20.33,42.33,25.31,57.27l-20.75,9.55a380,380,0,0,0-24.48-58.94ZM407.71,409.37c3.32,0,6.64-.41,8.3-2.07s3.32-5.4,4.15-11.63c.83-7.47,1.25-23.24,1.25-44.4,5.81,5,13.69,8.71,20.75,11.2-.42,18.68-1.66,42.33-3.32,50.64-2.49,8.3-5.81,13.69-10.38,17-5,3.74-12.45,5-19.92,5H390.28c-8.3,0-16.19-2.07-22.41-7.47C362.06,422.24,360,415.18,360,387V225.1H289v63.08c0,48.15-7.47,111.23-49.8,153.56-5-5-17-14.11-24.07-17.43,40.26-39,45.24-93.79,45.24-137V197.71H389V389c0,10.38.42,16.6,2.08,18.27s3.73,2.07,6.64,2.07Zm27-252.34h-210V129.64h210ZM317.23,57c11.21,19.92,23.66,45.24,29.89,62.26l-29.89,10.37c-5.39-17.43-17.84-44.41-28.22-63.91Z"/></g></g></svg>