<svg xmlns="http://www.w3.org/2000/svg" viewBox="0 0 500 500"><defs><style>.cls-1{fill:#4b4b4b;}</style></defs><title>字z</title><g id="_2018年" data-name="2018年"><g id="香港-6" data-name="香港"><path id="顺" class="cls-1" d="M85,67.8h26.56V234.64c0,74.71-2.91,141.11-30.3,196.73-5-5.81-14.94-14.94-21.58-18.68C82.12,362.06,85,301.46,85,234.64ZM142.3,97.27h24.49V372.85H142.3Zm56-30.71h27.39V421H198.33ZM358.11,335.91c28.23,22.83,64.75,54.78,81.76,75.54l-21.58,19.92c-15.77-20.75-49-52.3-77.19-75.54-13.7,28.64-39.43,56.45-88.82,77.61-3.73-5.81-12.45-16.18-19.09-21.58,85.08-32.79,93.38-89.65,93.38-131.15V198.12h28.64v83c0,20.75-1.66,43.16-10.38,65.57ZM440.29,71.54v27H358.53c-5.4,14.11-11.21,29.46-16.6,42.33h83V336.33H395.88V169.07H286.31V337.16h-27.8V140.85h54.78c4.57-12.87,8.72-28.64,12-42.33H247.72v-27Z"/></g></g></svg>