<svg xmlns="http://www.w3.org/2000/svg" viewBox="0 0 500 500"><defs><style>.cls-1{fill:#4b4b4b;}</style></defs><title>字z</title><g id="_2021年" data-name="2021年"><g id="法国-4" data-name="法国"><path id="熬" class="cls-1" d="M409.28,145.48C398.46,194.62,381,234.18,356,266.24c20.4,23.32,47.06,42.89,80.37,55.8-5.41,5-12.91,16.24-16.66,23.74a218.7,218.7,0,0,1-79.95-60c-22.49,22.91-49.56,41.64-81.62,57.05-3.33-5.41-12.49-16.24-17.91-21.23,33.73-14.16,61.63-32.9,83.71-56.64a305.42,305.42,0,0,1-40.81-89.11c-7.5,10.82-15.41,21.23-23.32,29.56-1.25-1.25-3.34-3.75-5.83-6.66v17.07H154.85c-1.25,8.75-2.5,17.91-4.17,26.24H237.3s-.42,7.08-.83,10.41c-4.17,47.89-8.75,67.46-16.66,75.79-5.83,5.83-12.08,7.49-21.65,8.33a404.16,404.16,0,0,1-42.9-.84A58.5,58.5,0,0,0,149,314.13c16.65,1.67,33.31,1.67,38.72,1.67,6.25,0,9.58-.42,12.5-2.92,4.16-4.58,7.49-17.91,10.41-49.55H145.27c-10,35-29.15,62.88-65,82.45-3.33-6.67-10.83-15.83-16.66-20,44.56-22.49,59.13-62.88,64.55-109.94H63.65V194.2h84.12V162.13H83.22V140.06h64.55V110.91H77.39V90.09h70.38V60.53h26.65V90.09h72.87v20.82H174.42v29.15h66.21v22.07H174.42V194.2h75.37c-3.33-3.75-7.08-7.08-9.16-9.58,29.57-30,52.05-77,64.13-127.42L331,63c-5.41,20-11.66,39.56-19.57,57.88H434.27v24.57Zm-344.8,284c17.49-17.91,37.06-47.06,50-72l25.82,6.66c-12.91,25.4-32.06,57.88-50,78.7Zm145.34-64.13c4.16,22.07,8.32,51.22,10,67.88l-27.48,3.33c-1.67-17.08-5-47.06-8.33-69.54ZM295.18,362c9.16,21.65,20,51.22,25,68.29l-27.49,5.83c-4.58-17.49-14.57-47.89-23.32-70Zm2.92-212.38c7.91,32.48,21.23,66.21,41.64,95.78,20-27.07,33.73-60.38,42.89-99.94h-82Zm83.28,207c18.32,23.32,42.06,55,53.72,74.13l-27.48,10.41c-10.83-19.16-33.73-52.47-52.06-76.21Z"/></g></g></svg>