<svg xmlns="http://www.w3.org/2000/svg" viewBox="0 0 500 500"><defs><style>.cls-1{fill:#4b4b4b;}</style></defs><title>字z</title><g id="_2009年" data-name="2009年"><g id="中国国际字-4" data-name="中国国际字"><path id="浮" class="cls-1" d="M139.12,242c-17.22-11.76-51.24-31.08-76.44-44.52L79.9,175.24c24.78,11.76,59.22,29.82,76.86,41.16ZM73.6,416.74c21-33.18,50.82-88.2,73.08-136.5l23.94,19.32C150,344.08,123.16,397,100.48,435.64ZM158.86,132c-16.8-12.18-50-33.18-74.76-47.46l17.64-22.26c24.36,13.44,58,32.76,75.18,44.52ZM437.32,330.22H323.5v78.54c0,16.38-3.36,23.52-16.38,28.14-12.6,4.62-31.5,4.62-60.48,4.62-1.26-8.4-6.3-19.32-10.5-27.3,21.42.84,43.26.84,49.14.42,6.3,0,8-1.26,8-6.72v-77.7H176.92v-29H293.26v-23.1c19.32-11.76,41.16-29.4,58.8-46.2H200.44V203.38H379.36l6.72-1.68,20.16,16c-21.84,24.36-53.34,51.66-82.74,71v12.6H437.32Zm-7.14-247c-61.32,16.8-157.08,26.46-236.88,30.24-.42-7.56-4.2-18.48-8-25.62,78.54-5,172.62-14.7,225.12-29.4ZM229.42,197.92c-5.88-17.64-18.9-45.78-30.24-66.36l25.2-9.66c12.18,20.16,25.62,47,31.5,64.68Zm68.88-4.62C294.1,174.4,284,145,276,123.16l26.46-8c8.82,21.42,19.32,49.56,23.52,68Zm50.82-5.46c13.86-21.84,31.5-56.7,41.58-81.48l28.56,12.18c-14.28,27.3-31.5,58.8-45.78,79.8Z"/></g></g></svg>