<svg xmlns="http://www.w3.org/2000/svg" viewBox="0 0 500 500"><defs><style>.cls-1{fill:#4b4b4b;}</style></defs><title>字z</title><g id="_2018年" data-name="2018年"><g id="新加坡-8" data-name="新加坡"><path id="馬-繁体" class="cls-1" d="M65.31,409.7c26.15-21.58,40.26-58.52,46.9-95l27.39,7.89c-8.3,39.43-20.75,80.1-49.39,104.58ZM434.69,269.84s-.42,9.55-.83,13.7c-5.4,87.57-12,120.77-24.07,133.22-7.48,8.3-16.61,10.79-29.47,11.62-11.62.83-32,.83-52.29-.42-.42-7.88-4.16-19.5-9.14-27,21.59,2.07,41.92,2.07,49.81,2.07,7.47.42,11.62-.41,15.35-4.15,7.89-7.47,13.7-35.69,18.26-101.68h-283V71H408.13V98.43h-132v40.26H394v24.9H276.15v40.26H394v25.32H276.15v40.67ZM149.15,98.43v40.26h96.7V98.43Zm96.7,65.16h-96.7v40.26h96.7Zm-96.7,106.25h96.7V229.17h-96.7Zm48.56,54c7.47,26.15,12.86,60.18,14.11,82.18l-27.39,5.39c-.42-22.41-5.81-56-12.87-82.59Zm68.89-4.56c11.62,23.65,22.83,54.37,26.15,73.46L267.43,401c-2.9-19.09-13.69-51.05-24.49-75.12ZM345,379c-6.22-16.18-21.17-41.09-36.11-58.93l21.59-10.79c14.94,17,30.71,41.08,37.35,57.27Z"/></g></g></svg>