<svg viewBox="0 0 500 500" fill="none" xmlns="http://www.w3.org/2000/svg">
<path d="M359.18 90.348C375.248 109.3 393.376 135.256 401.204 152.148L423.864 138.14C415.624 121.66 396.672 96.528 380.604 78.4L359.18 90.348ZM77.7842 248.144V433.132H105.8V410.06H218.688V431.484H247.528V248.144H170.484V169.864H256.18V141.848H170.484V64.392H140.82V248.144H77.7842ZM105.8 381.632V276.16H218.688V381.632H105.8ZM305.208 64.392C306.856 107.24 308.916 148.028 311.8 185.932L253.296 194.584L257.828 221.364L314.272 213.124C319.216 262.976 325.808 307.06 334.872 342.904C310.152 371.332 281.724 394.816 250.824 410.06C259.064 415.416 268.128 424.892 273.484 432.308C299.028 418.3 322.924 398.524 344.348 375.04C358.768 415.828 378.544 439.724 404.5 440.96C420.98 441.372 436.224 423.244 444.464 359.384C439.108 356.5 427.16 349.084 421.804 343.316C418.508 383.692 413.152 405.94 404.088 405.94C389.668 404.704 376.896 383.692 366.596 348.672C394.2 312.416 416.448 270.392 430.868 227.956L407.384 214.772C396.26 248.968 378.956 283.164 357.532 313.652C351.352 283.988 346.408 248.556 342.288 209.004L438.284 194.996L433.752 168.216L339.816 181.812C336.932 145.144 334.872 105.592 334.048 64.392H305.208Z" fill="black"/>
</svg>
