<svg viewBox="0 0 500 500" fill="none" xmlns="http://www.w3.org/2000/svg">
<path d="M144.116 176.044C133.816 210.24 115.688 251.852 91.792 277.808L119.396 293.052C143.704 265.448 160.596 221.364 171.72 185.932L144.116 176.044ZM371.952 173.984C359.592 206.532 336.52 249.38 319.216 276.572L345.172 288.52C363.3 261.74 385.548 220.952 402.44 186.344L371.952 173.984ZM76.96 81.696V112.184H235.168C232.696 247.732 228.988 365.152 58.832 415.004C65.836 421.596 74.488 433.956 78.196 441.784C189.848 406.764 234.756 343.316 253.708 264.624C280.488 354.852 329.516 412.532 423.864 438.9C427.984 430.248 436.636 417.064 443.228 410.884C330.752 383.692 284.608 307.06 264.832 188.404C266.48 163.684 267.304 138.14 268.128 112.184H422.628V81.696H76.96Z" fill="black"/>
</svg>
