<svg viewBox="0 0 500 500" fill="none" xmlns="http://www.w3.org/2000/svg">
<path d="M79.02 78.4H170.484V106.416H107.036V439.724H79.02V78.4ZM165.128 78.4H170.484L175.016 77.164L195.204 89.112C189.161 105.867 182.569 123.857 175.428 143.084C168.287 162.036 161.283 179.752 154.416 196.232C169.248 213.536 178.999 229.741 183.668 244.848C188.612 259.68 191.084 273.551 191.084 286.46C191.084 297.447 189.848 307.197 187.376 315.712C184.904 323.952 180.784 330.269 175.016 334.664C171.995 336.861 168.699 338.509 165.128 339.608C161.557 340.707 157.575 341.668 153.18 342.492C149.335 342.767 144.94 342.904 139.996 342.904C135.327 342.904 130.52 342.904 125.576 342.904C125.301 339.333 124.477 334.939 123.104 329.72C122.005 324.227 120.357 319.557 118.16 315.712C122.829 315.987 127.087 316.124 130.932 316.124C135.052 316.124 138.76 316.124 142.056 316.124C147.549 315.575 151.807 314.339 154.828 312.416C157.849 309.944 160.047 306.099 161.42 300.88C162.793 295.661 163.48 289.893 163.48 283.576C163.48 272.315 161.008 259.68 156.064 245.672C151.12 231.664 141.232 216.42 126.4 199.94C130.245 190.327 133.953 180.439 137.524 170.276C141.095 160.113 144.528 149.951 147.824 139.788C151.395 129.625 154.553 120.012 157.3 110.948C160.321 101.884 162.931 93.9187 165.128 87.052V78.4ZM322.512 75.516C328.829 85.9533 336.795 96.8026 346.408 108.064C356.021 119.051 366.459 129.9 377.72 140.612C389.256 151.324 400.929 161.349 412.74 170.688C424.551 179.752 436.087 187.58 447.348 194.172C445.425 196.369 443.365 199.253 441.168 202.824C439.245 206.12 437.46 209.553 435.812 213.124C434.164 216.42 432.653 219.441 431.28 222.188C415.624 211.476 399.556 198.841 383.076 184.284C366.596 169.452 351.077 153.933 336.52 137.728C321.963 121.248 309.74 105.455 299.852 90.348L322.512 75.516ZM307.268 59.036L334.46 68.512C324.297 89.6613 312.075 109.849 297.792 129.076C283.509 148.303 268.128 166.156 251.648 182.636C235.168 198.841 218.139 212.987 200.56 225.072C199.461 222.875 197.676 220.265 195.204 217.244C193.007 213.948 190.672 210.789 188.2 207.768C186.003 204.472 183.943 201.863 182.02 199.94C199.049 189.228 215.392 176.593 231.048 162.036C246.704 147.479 261.124 131.411 274.308 113.832C287.492 96.2533 298.479 77.988 307.268 59.036ZM241.76 189.64H381.428V216.42H241.76V189.64ZM217.452 261.74L242.172 255.56C246.292 265.723 250.137 276.847 253.708 288.932C257.553 300.743 260.849 312.416 263.596 323.952C266.617 335.213 268.677 345.239 269.776 354.028L244.232 361.444C243.133 352.38 241.211 342.08 238.464 330.544C235.717 319.008 232.559 307.335 228.988 295.524C225.417 283.439 221.572 272.177 217.452 261.74ZM296.144 250.204L320.864 246.908C323.611 257.071 326.22 268.195 328.692 280.28C331.164 292.091 333.224 303.627 334.872 314.888C336.795 325.875 338.031 335.9 338.58 344.964L313.036 349.084C312.487 340.295 311.251 330.132 309.328 318.596C307.68 307.06 305.62 295.387 303.148 283.576C300.951 271.491 298.616 260.367 296.144 250.204ZM396.672 246.908L424.276 254.324C417.684 270.804 410.405 288.245 402.44 306.648C394.475 325.051 386.235 342.904 377.72 360.208C369.48 377.512 361.515 392.619 353.824 405.528L331.576 398.524C337.069 388.636 342.837 377.512 348.88 365.152C355.197 352.517 361.24 339.333 367.008 325.6C372.776 311.592 378.269 297.859 383.488 284.4C388.707 270.941 393.101 258.444 396.672 246.908ZM195.204 393.58H437.872V421.184H195.204V393.58Z" fill="black"/>
</svg>
