<svg viewBox="0 0 500 500" fill="none" xmlns="http://www.w3.org/2000/svg">
<path d="M128.872 155.032H371.128V184.696H128.872V155.032ZM113.216 255.148H387.608V284.4H113.216V255.148ZM264.832 265.036C274.445 301.292 290.101 332.467 311.8 358.56C333.499 384.379 361.927 402.781 397.084 413.768C394.612 415.691 392.003 418.3 389.256 421.596C386.784 424.892 384.312 428.188 381.84 431.484C379.643 435.055 377.72 438.213 376.072 440.96C339.267 427.501 309.74 406.352 287.492 377.512C265.244 348.397 248.764 312.965 238.052 271.216L264.832 265.036ZM325.808 62.332L357.944 73.456C350.803 86.64 342.975 100.236 334.46 114.244C325.945 128.252 317.98 140.063 310.564 149.676L285.432 139.376C290.101 132.509 294.908 124.544 299.852 115.48C305.071 106.416 309.877 97.2147 314.272 87.876C318.941 78.5373 322.787 70.0226 325.808 62.332ZM145.352 79.224L170.484 66.864C176.527 73.7306 182.295 81.4213 187.788 89.936C193.556 98.176 198.637 106.416 203.032 114.656C207.701 122.621 211.272 129.9 213.744 136.492L186.552 151.324C184.355 144.457 181.059 136.904 176.664 128.664C172.269 120.424 167.325 112.047 161.832 103.532C156.613 94.7426 151.12 86.64 145.352 79.224ZM231.872 161.624H263.596V247.732C263.596 260.367 262.635 273.551 260.712 287.284C259.064 300.743 255.493 314.476 250 328.484C244.781 342.217 236.953 355.813 226.516 369.272C216.079 382.731 202.345 395.64 185.316 408C168.287 420.36 147.137 431.759 121.868 442.196C120.495 439.724 118.572 436.977 116.1 433.956C113.628 431.209 111.019 428.325 108.272 425.304C105.8 422.557 103.191 420.085 100.444 417.888C125.164 408.824 145.489 398.799 161.42 387.812C177.625 376.551 190.397 365.015 199.736 353.204C209.349 341.393 216.353 329.445 220.748 317.36C225.417 305 228.439 292.915 229.812 281.104C231.185 269.293 231.872 258.032 231.872 247.32V161.624Z" fill="black"/>
</svg>
