<svg xmlns="http://www.w3.org/2000/svg" viewBox="0 0 500 500"><defs><style>.cls-1{fill:#4b4b4b;}</style></defs><title>字z</title><g id="_2021年" data-name="2021年"><g id="新加坡-11" data-name="新加坡"><path id="盼" class="cls-1" d="M91.34,368.68v34.56H65.52V80.1H183.79V209.61C225,178,250.83,128.4,262.91,66.36L290,70.94c-15,72-45.81,129.92-94.12,167-1.66-5-7.49-16.24-12.07-23.32V368.68Zm0-263.6v62.47h66.21V105.08Zm66.21,150.33V191.7H91.34v63.71Zm0,88.29V279.57H91.34V343.7ZM397,222.52s0,9.16-.42,12.91C390.34,360.35,384.51,404.08,372,419.07c-7.08,8.33-13.74,11.24-25.4,12.07-10,1.25-28.73.84-47.06-.41-.41-7.91-2.49-18.32-7.07-25.4,18.73,1.66,35.39,2.08,42.47,2.08,6.25,0,10-.83,13.74-5.42,9.16-9.57,15-49.13,20.41-153.66H293.31c-10.83,89.95-39.56,149.5-99.94,187.4-3.75-5.42-13.75-16.25-20-20.83,57.88-32.06,83.28-86.61,92.44-166.57h-47V222.52ZM357.85,64.27c13.75,70.38,35,113.27,76.63,150.75-7.08,5.83-15.83,15.41-20,23.32-45-43.72-67.46-92.45-82-169.07Z"/></g></g></svg>