<svg xmlns="http://www.w3.org/2000/svg" viewBox="0 0 500 500"><defs><style>.cls-1{fill:#4b4b4b;}</style></defs><title>字z</title><g id="_2015年" data-name="2015年"><g id="日本-10" data-name="日本"><path id="安" class="cls-1" d="M349.61,251.66c-14.53,38.6-34.45,69.72-59.35,94.63,51.05,21.58,97.94,44.4,129.49,64.74l-25.32,26.56c-30.3-20.75-78-45.24-130.32-68.06-44,34-99.61,54.78-167.25,69.72C93.54,431.37,84,418.09,77.35,411c62.67-10.79,114.55-27.81,154.8-55.2C194.8,340.89,157,326.78,122.59,316l.41-.42c13.7-17.43,29.05-39.84,44-63.91H71.54V222.19H184.43c12.45-22.82,24.48-46.06,32.78-66.82l33.21,7.06c-8.31,18.68-18.68,39.43-29.89,59.76H428.46v29.47Zm-237-59.35H81.91v-83h151.9c-5.81-12.87-13.28-28.64-19.5-41.09l31.54-7.47c8.3,15.35,17.85,34.45,24.07,48.56H417.26v83h-32V137.94H112.63Zm90.89,59.35c-11.21,18.26-22.41,35.69-32.79,50.63,28.64,9.13,59.35,20.34,89.23,32a217.53,217.53,0,0,0,54.37-82.59Z"/></g></g></svg>