<svg xmlns="http://www.w3.org/2000/svg" viewBox="0 0 500 500"><defs><style>.cls-1{fill:#4b4b4b;}</style></defs><title>字z</title><g id="_2012年" data-name="2012年"><g id="台湾-5" data-name="台湾"><path id="憂-繁体" class="cls-1" d="M360.4,326.78c-17,24.49-41.09,43.58-69.73,58.52,43.58,10.37,93.38,17,144.43,19.51a140.46,140.46,0,0,0-16.6,26.56c-58.93-4.57-116.21-14.11-165.18-29.89-51.88,18.68-114.13,27.81-176.8,32.79A83.74,83.74,0,0,0,64.9,407.71C117.61,405.22,170.31,399,215.55,387c-23.24-10.79-44-22.83-60.59-37.35a492.62,492.62,0,0,1-66,29.05c-3.74-6.64-12-15.77-17.85-20.34,51.88-16.18,92.14-39,116.21-61.42-7.47-4.57-10-12.45-10-25.73V242.53h25.32v28.64c0,8.3,3.32,10,21.16,10h62.26c12.86,0,14.94-3.32,16.6-25.73,5.39,3.73,15.77,7,22.41,7.88-2.91,31.54-10.79,39-35.69,39H218.87Q212,309.15,203.93,316H338l3.32-.83ZM222.19,108.06c2.08-6.22,4.15-12.45,5.81-18.68H74.86V65.73H421V89.38H259.13c-2.9,6.64-5.39,12.87-7.88,18.68h121.6V210.57h51V272H396.09V230.91H239.62c14.53,7.05,31.13,17.85,39.43,27L262.45,272c-9.13-9.55-27.81-23.24-44-30.3l14.11-10.79H102.25V272h-27V210.57H128.4V108.06ZM89.8,293.16c25.32-10,43.58-29.88,54-49.8l21.58,10c-11.2,22.41-29.05,45.24-57.27,58.52ZM341.72,125.91H157.86v17H341.72Zm0,33.61H157.86V177H341.72Zm0,51V193.14H157.86v17.43ZM177.79,336.33c19.09,15.35,44.82,28.22,75.12,38.18,25.73-10,47.31-22.41,63.49-38.18Zm166.42-97.54c22.83,14.53,50.22,36.53,63.5,52.71L387,307.69c-12.45-15.77-39.43-39-62.26-54.37Z"/></g></g></svg>