<svg xmlns="http://www.w3.org/2000/svg" viewBox="0 0 500 500"><defs><style>.cls-1{fill:#4b4b4b;}</style></defs><title>字z</title><g id="_2008年" data-name="2008年"><g id="中国国际字-3" data-name="中国国际字"><path id="争" class="cls-1" d="M439.25,269.65H383.64V346H262v55.2c0,19.92-5,28.22-19.51,33.2-14.11,5-37.35,5.39-74.29,5-2.08-8.3-7.89-20.75-12-29.47,29.89.83,56.86.83,64.33.42,7.89-.42,10.38-2.49,10.38-9.55V346H101.42V317.8H230.91V269.65H60.75V241.43H230.91V196.19H118V182.08c-6.64,5-13.69,10-20.75,14.94C91.87,190,81.5,180.42,74,175.86c54.37-33.21,93.79-78.44,114.55-115.38l33.2,5.81c-5.4,9.55-12,19.09-19.09,29.05h116.2l5-1.66,22,14.94c-12.45,19.92-30.71,41.51-49.39,59.77h87.16v73h55.61ZM181.11,122.32a398.67,398.67,0,0,1-45.66,46.07H258.72c14.11-12.87,28.22-30.3,39.42-46.07ZM262,241.43h91.3V196.19H262Zm91.3,28.22H262V317.8h91.3Z"/></g></g></svg>