<svg xmlns="http://www.w3.org/2000/svg" viewBox="0 0 500 500"><defs><style>.cls-1{fill:#4b4b4b;}</style></defs><title>字z</title><g id="_2011年" data-name="2011年"><g id="中国国内字-6" data-name="中国国内字"><path id="控" class="cls-1" d="M186.09,274.45l-44.83,16.19V402.28c0,17-3.73,24.9-14.11,29.88-9.54,5-25.31,6.23-51.46,5.81a126.49,126.49,0,0,0-9.13-28.64c18.26.42,34.45.42,39,.42,5,0,7.47-1.66,7.47-7.89V301L65.31,318l-7.05-30.3c14.94-4.56,34-10.38,54.78-17.85V171.52H62.82V142.89H113V62h28.22v80.93h43.17v28.63H141.26v88.82c12.87-4.15,26.56-9.13,39.85-13.7ZM441.74,400.62V428H181.94V400.62H297.73V297.28H215.14V269.47H412.69v27.81H328.44V400.62ZM224.27,184.8H196.05V113H305.2c-4.57-13.69-12-30.29-17.85-43.57L316,62.37c7.47,16.19,17,36.52,22,50.63h99.6v67.65H408.13V139.57H224.27ZM302.71,174c-22.41,32.38-56,66-85.91,86.74-3.74-5-13.28-17.84-19.09-22.82,29-18.68,58.93-46.49,78.44-73.05Zm47.31-10c26.15,22,61,54,78.86,72.63L409,256.6c-17-19.09-51.47-52.29-78-75.53Z"/></g></g></svg>