<svg viewBox="0 0 500 500" fill="none" xmlns="http://www.w3.org/2000/svg">
<path d="M180.372 69.748C172.132 84.992 160.596 101.06 147.412 117.128C135.876 101.06 121.044 85.816 102.504 70.572L79.844 88.2881C100.032 104.768 115.276 122.072 126.812 139.788C107.448 159.976 86.024 178.104 66.248 190.464C72.84 197.468 81.08 209.828 85.2 218.068C103.328 204.472 123.104 186.756 141.644 167.392C148.236 183.048 152.768 199.528 155.652 216.008C135.052 254.324 97.56 294.288 64.188 314.064C70.78 321.068 78.608 333.016 82.728 340.844C109.096 321.892 137.936 291.816 159.772 260.504L160.184 282.34C160.184 335.488 156.476 381.632 146.176 395.64C142.468 400.172 138.348 402.232 132.168 402.644C121.868 403.88 105.388 404.292 83.964 402.644C89.732 411.296 93.44 423.656 93.852 433.544C112.804 434.78 130.52 434.368 144.94 431.896C155.652 429.836 163.48 425.304 169.248 417.476C186.552 394.404 191.084 342.08 191.084 283.164C191.084 234.136 187.376 187.168 163.48 142.672C179.548 123.308 193.968 103.12 204.68 84.58L180.372 69.748ZM219.512 237.844V267.096H305.62V393.992H195.204V423.244H437.048V393.992H337.344V267.096H426.336V237.844H337.344V123.308H431.28V94.056H212.92V123.308H305.62V237.844H219.512Z" fill="black"/>
</svg>
