<svg viewBox="0 0 500 500" fill="none" xmlns="http://www.w3.org/2000/svg">
<path d="M97.148 96.116H134.64V135.668H97.148V96.116ZM73.252 74.692V157.092H158.948V74.692H73.252ZM202.208 96.116H241.348V135.668H202.208V96.116ZM178.312 74.692V157.092H265.244V74.692H178.312ZM360.828 82.108C379.78 103.12 400.38 133.196 408.62 152.56L433.34 137.728C424.688 118.364 403.676 89.936 384.312 68.924L360.828 82.108ZM402.44 216.008C392.14 248.144 377.308 279.868 358.356 308.296C352.588 279.044 347.644 244.024 343.936 205.708L441.992 193.348L438.284 164.92L341.052 176.868C338.58 141.436 336.52 103.944 335.696 64.804H306.444C307.68 105.18 309.74 144.32 312.624 180.164L266.48 185.932L270.188 214.772L315.096 209.004C319.628 259.68 325.808 304.176 334.872 340.432C308.504 372.156 276.78 398.936 242.172 415.416C250 420.772 259.476 430.248 264.832 437.664C293.672 422.008 320.864 399.348 344.348 372.568C359.18 415.416 379.368 440.96 406.56 442.196C423.04 442.608 438.696 424.068 446.936 358.972C441.992 356.088 429.22 348.672 423.864 342.492C420.568 383.28 414.8 405.94 406.56 405.528C391.316 404.704 378.132 382.044 367.008 344.552C392.552 309.532 413.152 269.98 426.748 229.192L402.44 216.008ZM103.328 260.916H154.416V295.524H103.328V260.916ZM181.608 260.916H234.344V295.524H181.608V260.916ZM103.328 203.236H154.416V237.844H103.328V203.236ZM181.608 203.236H234.344V237.844H181.608V203.236ZM59.656 349.084V376.688H153.18V441.372H183.256V376.688H275.132V349.084H183.256V319.832H261.948V179.34H76.96V319.832H153.18V349.084H59.656Z" fill="black"/>
</svg>
