<svg viewBox="0 0 500 500" fill="none" xmlns="http://www.w3.org/2000/svg">
<path d="M205.092 134.844V164.096H439.52V134.844H205.092ZM274.72 67.2759C285.432 87.0519 297.38 113.832 303.148 131.136L333.224 120.424C327.044 103.944 314.684 77.9879 303.148 58.2119L274.72 67.2759ZM119.808 61.9199V145.144H63.364V173.984H119.808V264.212C96.324 270.804 74.488 276.572 56.772 280.692L64.6 310.768L119.808 294.7V402.644C119.808 408.412 117.336 410.472 111.568 410.472C106.624 410.884 88.496 410.884 69.132 410.472C73.252 418.712 77.372 431.072 78.196 438.9C106.624 438.9 123.928 438.076 135.052 433.544C145.764 428.6 149.884 419.948 149.884 402.644V286.048L202.62 269.98L198.912 242.376L149.884 255.972V173.984H197.264V145.144H149.884V61.9199H119.808ZM241.348 205.708V281.516C241.348 326.424 233.52 381.22 173.78 420.36C179.96 424.892 190.672 437.252 194.38 443.844C259.476 400.996 271.836 334.252 271.836 281.928V234.548H349.292V387.812C349.292 416.652 351.764 423.656 357.944 429.424C364.124 435.192 374.012 437.664 382.252 437.664C387.196 437.664 398.32 437.664 404.088 437.664C412.328 437.664 420.98 436.016 426.336 432.308C432.104 428.188 435.812 422.42 438.284 412.532C440.344 403.056 441.992 376.276 441.992 354.44C434.164 351.556 424.276 346.612 418.096 341.256C418.096 365.976 417.684 384.928 416.86 393.58C416.036 401.82 414.388 405.94 412.328 407.588C410.268 409.236 406.148 410.06 402.44 410.06C398.732 410.06 392.964 410.06 390.08 410.06C386.784 410.06 384.312 409.648 382.252 408C380.192 405.94 379.368 400.172 379.368 389.048V205.708H241.348Z" fill="black"/>
</svg>
