<svg viewBox="0 0 500 500" fill="none" xmlns="http://www.w3.org/2000/svg">
<path d="M301.5 242.376C297.38 260.916 287.904 288.932 280.488 306.236L298.204 312.828C306.032 296.76 314.684 272.04 322.924 250.204L301.5 242.376ZM360.416 79.6359C381.016 92.8199 404.088 112.184 415.212 125.78L432.928 108.064C421.804 94.0559 397.908 75.5159 377.72 63.5679L360.416 79.6359ZM79.0201 89.1119C100.444 104.356 129.284 125.78 144.116 139.376L162.244 114.656C147.824 102.296 118.572 82.1079 97.1481 68.0999L79.0201 89.1119ZM58.0081 202.412C80.2561 215.184 110.744 233.312 125.988 244.848L142.056 218.48C126.4 207.768 95.5001 190.464 73.6641 179.34L58.0081 202.412ZM68.3081 416.652L94.2641 432.72C113.628 394.816 136.7 342.492 153.592 298.82L130.108 282.752C111.98 329.72 86.4361 384.104 68.3081 416.652ZM210.86 192.524V216.42H251.236V270.804C251.236 282.34 250.824 293.876 249.588 305.824C245.468 290.58 237.228 265.86 229.4 246.496L212.508 251.44C219.924 271.628 228.576 298.82 232.284 315.3L249.176 308.708C244.644 341.256 231.872 374.216 196.028 400.996C201.384 405.116 209.624 412.944 212.92 418.3C241.348 396.876 257.004 371.744 265.244 345.788C276.78 358.56 290.376 374.628 296.144 383.692L314.272 362.268C307.268 355.264 283.372 332.604 271.012 321.892C273.896 305 274.72 287.696 274.72 271.216V216.42H315.096V192.524H210.86ZM318.804 64.3919L321.276 127.84H172.544V238.668C172.544 295.112 168.836 370.92 131.756 425.716C138.348 428.6 150.296 436.84 155.24 441.784C193.968 384.104 200.148 299.232 200.148 238.668V155.856H322.512C327.044 231.664 334.048 297.996 345.584 347.436C327.868 375.452 306.856 398.936 280.9 417.476C287.08 422.42 297.792 432.308 301.912 437.252C322.1 421.184 339.816 402.644 355.06 381.22C367.832 417.476 384.312 438.9 406.148 439.312C421.804 439.724 437.048 421.596 444.876 354.852C439.932 352.38 427.572 345.376 422.628 339.608C419.332 380.396 414.388 403.468 406.56 403.468C394.612 403.056 383.9 382.868 375.248 349.496C399.144 306.648 416.448 255.56 427.984 196.644L401.204 192.112C393.376 234.96 381.84 274.1 366.596 307.884C359.18 266.272 353.824 213.948 350.528 155.856H435.812V127.84H349.292L347.232 64.3919H318.804Z" fill="black"/>
</svg>
