<svg viewBox="0 0 500 500" fill="none" xmlns="http://www.w3.org/2000/svg">
<path d="M76.136 78.4H165.54V106.416H102.916V439.724H76.136V78.4ZM158.124 78.4H163.068L167.6 77.164L186.964 89.112C181.196 105.867 174.879 123.857 168.012 143.084C161.42 162.311 154.828 180.164 148.236 196.644C162.244 213.948 171.583 230.016 176.252 244.848C180.921 259.68 183.256 273.551 183.256 286.46C183.256 297.447 182.02 307.197 179.548 315.712C177.076 324.227 173.093 330.544 167.6 334.664C164.853 336.861 161.695 338.509 158.124 339.608C154.828 340.707 151.12 341.668 147 342.492C143.155 342.767 138.897 342.904 134.228 342.904C129.559 342.904 125.027 342.904 120.632 342.904C120.357 339.333 119.533 334.939 118.16 329.72C117.061 324.227 115.413 319.557 113.216 315.712C117.336 315.987 121.319 316.124 125.164 316.124C129.284 316.124 132.855 316.124 135.876 316.124C140.82 315.575 144.94 314.201 148.236 312.004C151.257 309.807 153.317 306.099 154.416 300.88C155.515 295.661 156.064 289.893 156.064 283.576C156.064 272.315 153.867 259.68 149.472 245.672C145.077 231.664 135.739 216.42 121.456 199.94C125.027 190.601 128.46 180.851 131.756 170.688C135.327 160.251 138.76 149.951 142.056 139.788C145.352 129.625 148.373 120.012 151.12 110.948C153.867 101.884 156.201 93.9187 158.124 87.052V78.4ZM241.76 155.032H365.36V179.752H241.76V155.032ZM222.808 232.488V286.872H266.892V232.488H222.808ZM198.912 210.24H291.2V309.532H198.912V210.24ZM341.052 232.488V286.872H386.784V232.488H341.052ZM317.156 210.24H411.916V309.532H317.156V210.24ZM234.344 319.008L261.948 324.776C253.983 350.045 242.447 372.705 227.34 392.756C212.233 412.532 195.067 429.012 175.84 442.196C174.741 440.273 172.819 437.939 170.072 435.192C167.6 432.72 164.991 430.248 162.244 427.776C159.497 425.579 157.025 423.656 154.828 422.008C173.78 410.747 189.985 396.327 203.444 378.748C217.177 361.169 227.477 341.256 234.344 319.008ZM228.988 370.508L245.056 351.968C254.12 357.461 263.596 363.916 273.484 371.332C283.647 378.748 291.337 385.34 296.556 391.108L280.076 412.12C274.857 406.077 267.304 399.073 257.416 391.108C247.803 383.143 238.327 376.276 228.988 370.508ZM349.292 318.596L377.72 322.716C372.227 348.535 363.3 371.469 350.94 391.52C338.58 411.296 323.473 427.639 305.62 440.548C304.247 439.175 302.324 437.115 299.852 434.368C297.38 431.896 294.771 429.424 292.024 426.952C289.277 424.48 286.805 422.42 284.608 420.772C301.637 409.785 315.508 395.64 326.22 378.336C336.932 360.757 344.623 340.844 349.292 318.596ZM340.228 371.744L358.356 353.204C367.695 358.697 377.445 365.152 387.608 372.568C397.771 379.709 407.384 386.851 416.448 393.992C425.512 401.133 432.928 407.588 438.696 413.356L419.744 435.192C414.251 429.149 406.972 422.283 397.908 414.592C389.119 407.176 379.643 399.76 369.48 392.344C359.592 384.653 349.841 377.787 340.228 371.744ZM294.496 58.624L324.16 68.924C310.152 91.7213 291.887 113.145 269.364 133.196C247.116 152.972 223.22 170.139 197.676 184.696C196.028 182.499 193.968 180.164 191.496 177.692C189.024 175.22 186.415 172.748 183.668 170.276C181.196 167.529 178.861 165.469 176.664 164.096C193.419 155.307 209.212 145.281 224.044 134.02C239.151 122.484 252.747 110.261 264.832 97.352C276.917 84.4426 286.805 71.5333 294.496 58.624ZM305.208 72.22C312.349 80.1853 321.139 88.1507 331.576 96.116C342.288 103.807 353.687 111.36 365.772 118.776C378.132 125.917 390.767 132.509 403.676 138.552C416.585 144.595 428.945 149.813 440.756 154.208C438.833 156.405 436.911 159.289 434.988 162.86C433.34 166.156 431.692 169.452 430.044 172.748C428.671 176.044 427.572 179.065 426.748 181.812C409.993 174.396 392.689 165.607 374.836 155.444C356.983 145.007 339.953 133.883 323.748 122.072C307.817 110.261 294.359 98.4506 283.372 86.64L305.208 72.22Z" fill="black"/>
</svg>
