<svg viewBox="0 0 500 500" fill="none" xmlns="http://www.w3.org/2000/svg">
<path d="M207.152 277.808L223.632 272.452C227.752 279.868 232.01 287.833 236.404 296.348C241.074 304.863 244.37 311.867 246.292 317.36L228.988 324.776C226.791 318.459 223.632 310.905 219.512 302.116C215.392 293.327 211.272 285.224 207.152 277.808ZM262.36 323.952H285.432V434.78H262.36V323.952ZM152.356 329.72H173.78V368.448H224.044V388.224H152.356V329.72ZM212.92 323.952H235.58V361.032C235.58 371.195 234.207 381.083 231.46 390.696C228.714 400.309 223.22 409.099 214.98 417.064C206.74 425.029 193.831 432.171 176.252 438.488C175.154 435.741 172.956 432.445 169.66 428.6C166.639 425.029 163.892 422.145 161.42 419.948C176.527 415.279 187.788 409.785 195.204 403.468C202.62 397.151 207.427 390.284 209.624 382.868C211.822 375.452 212.92 367.899 212.92 360.208V323.952ZM96.3242 132.784H211.684V153.796H96.3242V132.784ZM285.432 132.784H404.088V153.796H285.432V132.784ZM392.552 79.636H422.628V401.82C422.628 410.609 421.667 417.476 419.744 422.42C417.822 427.639 413.976 431.621 408.208 434.368C402.99 436.84 395.848 438.351 386.784 438.9C377.995 439.449 367.146 439.724 354.236 439.724C353.687 436.977 352.863 433.681 351.764 429.836C350.666 426.265 349.567 422.557 348.468 418.712C347.37 414.867 345.996 411.708 344.348 409.236C353.687 409.511 362.202 409.648 369.892 409.648C377.583 409.648 382.802 409.648 385.548 409.648C388.295 409.373 390.08 408.687 390.904 407.588C392.003 406.489 392.552 404.567 392.552 401.82V79.636ZM98.3842 79.636H231.048V206.12H98.3842V183.46H201.796V102.296H98.3842V79.636ZM407.796 79.636V102.296H297.38V183.46H407.796V206.12H267.716V79.636H407.796ZM79.8442 79.636H109.508V441.372H79.8442V79.636ZM144.528 272.452C143.979 270.255 143.018 266.959 141.644 262.564C140.271 257.895 138.898 254.187 137.524 251.44C139.722 250.891 141.919 250.067 144.116 248.968C146.314 247.595 148.648 245.947 151.12 244.024C152.494 242.651 155.103 239.904 158.948 235.784C162.794 231.389 166.776 226.445 170.896 220.952C175.291 215.184 178.999 209.279 182.02 203.236L202.208 213.536C195.616 222.875 188.612 231.664 181.196 239.904C173.78 247.869 166.502 254.599 159.36 260.092V260.504C159.36 260.504 158.124 261.191 155.652 262.564C153.18 263.663 150.708 265.173 148.236 267.096C145.764 269.019 144.528 270.804 144.528 272.452ZM144.528 272.864V257.62L155.652 251.852L210.86 249.38C209.762 251.852 208.663 254.736 207.564 258.032C206.74 261.328 206.054 263.937 205.504 265.86C189.848 266.684 177.9 267.508 169.66 268.332C161.42 269.156 155.515 269.98 151.944 270.804C148.648 271.353 146.176 272.04 144.528 272.864ZM142.468 321.068C141.919 318.871 140.958 315.712 139.584 311.592C138.486 307.197 137.25 303.627 135.876 300.88C138.898 300.331 142.194 299.095 145.764 297.172C149.61 295.249 153.73 292.503 158.124 288.932C161.146 286.735 166.09 282.615 172.956 276.572C180.098 270.529 187.788 263.388 196.028 255.148C204.268 246.633 211.822 237.844 218.688 228.78L236.404 240.728C224.044 254.187 210.998 266.959 197.264 279.044C183.806 290.855 170.347 301.017 156.888 309.532V310.356C156.888 310.356 155.652 310.905 153.18 312.004C150.983 313.103 148.648 314.476 146.176 316.124C143.704 317.772 142.468 319.42 142.468 321.068ZM142.468 321.48L142.056 305.824L153.18 299.232L227.34 293.464C227.615 295.936 228.027 298.82 228.576 302.116C229.4 305.412 229.95 308.021 230.224 309.944C212.371 311.592 197.951 313.103 186.964 314.476C175.978 315.575 167.463 316.536 161.42 317.36C155.652 318.184 151.395 318.871 148.648 319.42C145.902 319.969 143.842 320.656 142.468 321.48ZM319.628 278.22L335.696 272.452C340.091 279.593 344.486 287.421 348.88 295.936C353.55 304.451 357.12 311.592 359.592 317.36L342.7 325.188C340.228 318.871 336.795 311.317 332.4 302.528C328.006 293.464 323.748 285.361 319.628 278.22ZM257.416 272.864C256.867 270.392 255.906 266.959 254.532 262.564C253.159 258.169 251.648 254.461 250 251.44C252.472 251.165 254.807 250.479 257.004 249.38C259.476 248.007 261.674 246.359 263.596 244.436C265.244 242.788 267.854 239.904 271.424 235.784C275.27 231.664 279.39 226.857 283.784 221.364C288.179 215.596 291.887 209.691 294.908 203.648L315.096 213.948C308.504 223.287 301.363 232.076 293.672 240.316C286.256 248.281 279.115 254.873 272.248 260.092V260.916C272.248 260.916 271.012 261.603 268.54 262.976C266.068 264.075 263.596 265.585 261.124 267.508C258.652 269.156 257.416 270.941 257.416 272.864ZM257.416 272.864V258.032L268.54 251.852L323.748 249.38C322.924 252.127 321.963 255.148 320.864 258.444C319.766 261.465 318.942 264.075 318.392 266.272C302.736 267.096 290.788 267.92 282.548 268.744C274.308 269.293 268.403 269.98 264.832 270.804C261.536 271.353 259.064 272.04 257.416 272.864ZM255.356 321.48C255.082 319.283 254.258 316.124 252.884 312.004C251.511 307.609 250.275 303.901 249.176 300.88C252.198 300.605 255.494 299.507 259.064 297.584C262.91 295.387 266.892 292.64 271.012 289.344C274.034 287.147 278.978 283.027 285.844 276.984C292.986 270.667 300.676 263.251 308.916 254.736C317.431 246.221 325.122 237.432 331.988 228.368L349.704 240.316C337.344 254.049 324.298 266.959 310.564 279.044C296.831 291.129 283.372 301.429 270.188 309.944V310.768C270.188 310.768 268.952 311.317 266.48 312.416C264.008 313.24 261.536 314.613 259.064 316.536C256.592 318.184 255.356 319.832 255.356 321.48ZM255.356 321.48V306.236L266.068 299.644L341.052 293.464C341.052 295.936 341.327 298.82 341.876 302.116C342.426 305.412 342.975 308.021 343.524 309.944C325.671 311.867 311.251 313.377 300.264 314.476C289.552 315.575 281.175 316.536 275.132 317.36C269.09 318.184 264.695 319.008 261.948 319.832C259.202 320.381 257.004 320.931 255.356 321.48ZM278.428 368.448H337.344V388.224H278.428V368.448ZM325.396 330.132H346.82V400.996H325.396V330.132Z" fill="black"/>
</svg>
