<svg viewBox="0 0 500 500" fill="none" xmlns="http://www.w3.org/2000/svg">
<path d="M251.236 59.0359C207.564 111.36 129.696 161.624 59.6558 190.052C67.0718 196.644 75.3118 206.944 79.8438 214.36C103.328 203.648 127.636 190.876 151.532 176.456V193.348H233.52V234.136H84.7878V262.152H233.52V306.236H120.632V440.548H151.532V422.008H348.468V440.136H380.604V306.236H265.656V262.152H416.448V234.136H265.656V193.348H349.704V176.044C372.364 188.816 396.672 200.352 421.804 211.064C425.924 202 434.576 190.876 442.404 183.872C376.072 159.564 317.156 129.9 268.952 82.1079L276.78 73.0439L251.236 59.0359ZM167.6 166.156C197.264 146.38 225.692 124.544 250 101.06C276.368 127.016 303.56 148.028 333.224 166.156H167.6ZM151.532 393.992V333.84H348.468V393.992H151.532Z" fill="black"/>
</svg>
