<svg viewBox="0 0 500 500" fill="none" xmlns="http://www.w3.org/2000/svg">
<path d="M184.904 367.624C188.2 390.284 191.496 419.948 192.732 437.664L223.632 433.544C221.984 417.064 217.864 387.812 213.744 365.564L184.904 367.624ZM269.776 366.8C278.016 389.048 287.904 419.124 292.024 436.84L322.924 430.66C317.98 413.356 307.268 384.104 298.616 362.268L269.776 366.8ZM354.648 365.564C372.776 389.46 395.436 422.42 406.148 441.784L437.048 430.66C425.512 411.296 402.028 379.572 384.312 356.088L354.648 365.564ZM114.864 356.912C102.504 382.044 83.1402 411.708 66.2482 429.424L94.6762 443.432C112.804 422.42 131.756 390.284 144.528 364.74L114.864 356.912ZM305.62 58.2119C294.084 108.064 271.836 154.62 241.76 185.108C244.232 187.168 247.528 190.464 250.824 194.172H177.488V164.508H242.172V140.2H177.488V113.008H249.588V89.9359H177.488V61.9199H148.236V89.9359H79.0202V113.008H148.236V140.2H85.2002V164.508H148.236V194.172H65.8362V218.48H128.872C123.104 264.212 109.508 302.94 65.0122 324.776C71.6042 329.308 79.8442 339.608 83.5522 346.612C119.396 328.072 138.348 300.056 149.06 266.272H210.86C208.388 295.112 205.092 307.472 200.56 312.004C198.088 314.476 194.792 314.888 189.024 314.888C183.256 314.888 167.6 314.888 151.532 313.24C155.24 319.832 158.124 330.132 158.536 337.136C175.428 338.372 192.32 337.96 200.972 337.548C210.448 337.136 217.04 335.076 222.808 328.896C231.048 320.656 235.58 300.468 239.288 254.324C239.7 250.616 240.112 243.2 240.112 243.2H154.416C156.064 235.372 157.3 227.132 158.536 218.48H255.768V199.528L263.184 208.592C271.012 200.352 278.428 190.876 285.02 180.988C293.26 209.416 305.62 238.668 323.336 265.86C301.912 288.52 274.72 306.648 241.76 320.244C247.94 326.012 258.24 337.96 261.536 344.14C292.848 329.308 319.216 311.18 341.052 288.932C361.24 312.416 386.784 333.016 419.332 347.024C423.452 338.784 432.104 326.012 438.284 320.244C405.324 307.884 379.78 289.344 359.592 267.508C383.488 235.784 400.792 196.644 411.504 148.44H435.812V121.248H316.332C323.748 103.12 330.34 84.1679 335.284 64.8039L305.62 58.2119ZM303.972 148.44H381.428C372.776 185.932 359.592 217.656 341.052 244.024C321.688 215.596 309.74 183.048 301.912 152.148L303.972 148.44Z" fill="black"/>
</svg>
