<svg xmlns="http://www.w3.org/2000/svg" viewBox="0 0 500 500"><defs><style>.cls-1{fill:#4b4b4b;}</style></defs><title>字z</title><g id="_2017年" data-name="2017年"><g id="中国国内字-12" data-name="中国国内字"><path id="享" class="cls-1" d="M433.65,361H265.15v48.14c0,17-5,24.07-19.51,28.64-14.11,3.73-38.18,3.73-75.12,3.73-1.66-8.3-6.64-18.26-10.37-25.73,27.8.83,56,.83,63.08.42,7.89-.42,10-2.08,10-7.89V361H66.35V334H233.19v-24.9c27.81-5.81,58.52-14.52,84.25-24.9H105V258.92H366.42l6.64-1.66,20.75,17.43c-35.28,20.34-82.59,37.36-128.66,48.56V334h168.5Zm-5-236.57H70.09v-27H236.51A340.09,340.09,0,0,0,222,64.69l30.71-6.22a301.61,301.61,0,0,1,18.26,39H428.67ZM122.38,234V151H379.7v83Zm30.3-22.82H347.74V173.84H152.68Z"/></g></g></svg>