<svg xmlns="http://www.w3.org/2000/svg" viewBox="0 0 500 500"><defs><style>.cls-1{fill:#4b4b4b;}</style></defs><title>字z</title><g id="_2010年" data-name="2010年"><g id="日本-5" data-name="日本"><path id="暑" class="cls-1" d="M285.91,280.45c-18.9,8.82-38.64,16.8-58.8,24.36H398.47v128.1H367.39V420.73H174.61v12.6H144.37V332.11c-21.84,6.72-43.68,12.18-65.1,17.22-3.36-6.72-11.34-19.32-16.8-25.62a1106.91,1106.91,0,0,0,155.4-43.26H73.39V255.67H213.25V228.79h-110V204.85h110V185.53h30.66v19.32H346.39v13.86a336.77,336.77,0,0,0,55.44-42l23.94,15.54c-26,23.94-56.7,44.52-90.72,63.42H437.53v24.78Zm105.84-99.54h-278V66.67h278Zm-31.08-92.4H144v24.36H360.67Zm0,45.36H144v25.2H360.67Zm6.72,192.36H174.61v25.62H367.39Zm0,73.08V372H174.61v27.3ZM277.93,255.67C296,247.27,313.63,238,330,228.79h-86.1v26.88Z"/></g></g></svg>