<svg xmlns="http://www.w3.org/2000/svg" viewBox="0 0 500 500"><defs><style>.cls-1{fill:#4b4b4b;}</style></defs><title>字z</title><g id="_2018年" data-name="2018年"><g id="澳门-7" data-name="澳门"><path id="粉" class="cls-1" d="M405.84,224.27s0,10-.41,14.52c-5.81,123.68-11.21,167.68-23.24,182.62-7.47,9.13-15.36,12-26.15,13.28-10.38,1.24-28.64.83-46.9,0-.41-8.72-2.9-20.75-7.88-28.64,17.84,1.66,34,2.08,40.67,2.08s10.37-.83,14.11-5.4c8.71-9.55,14.11-47.73,19.09-149.41H313.29c-9.54,88-36.11,146.92-93,185.52-3.74-5.81-15-17.43-20.76-22.41,53.13-32,75.95-85.91,84.25-163.11H234v-22a175.25,175.25,0,0,1-13.28,11.62c-1.66-6.22-7.05-18.67-11.62-26.56v14.94H154.75v19.09c13.7,14.53,50.22,56,58.52,66.82l-19.09,24.08c-7.47-12.45-24.9-37.36-39.43-56.86v154.8h-29V281.13c-14.53,39-33.2,77.61-51.88,101.26-3.73-8.3-11.2-22-16.6-29.46,23.24-27.81,48.14-77.61,62.25-121.61H63V202.69H125.7V60.75h29.05V202.69h54.37v8.71c37.77-31.12,59.35-80.93,69.31-141.11l29.05,4.15c-11.62,61.43-31.54,112.89-66.4,149.83ZM86.69,184c-3.32-24.07-12-61-20.75-89.23l23.24-5c8.3,27.81,17.84,63.91,22,87.57ZM217.84,93.53c-10.38,30.72-23.25,68.07-34,91.31l-21.16-6.64c10-24.49,22-64.74,27.8-91.31ZM367.25,67.8c14.52,68.07,34.86,110,75.53,146.09-7.89,6.23-17.43,16.6-21.58,25.32-44-42.75-66-90.89-80.93-166.43Z"/></g></g></svg>