<svg xmlns="http://www.w3.org/2000/svg" viewBox="0 0 500 500"><defs><style>.cls-1{fill:#4b4b4b;}</style></defs><title>字z</title><g id="_2011年" data-name="2011年"><g id="马来西亚"><path id="转" class="cls-1" d="M229.84,336.52l-56.28,11.34v91.56H143.32V353.74L65.2,368.86,58.48,338.2c23.1-3.36,52.92-8.4,84.84-13.86V263.86h-37c-14.7,0-27.3,2.52-30.66,5.88C74,263.44,69.82,249.58,66,242c7.14-1.68,13.44-15.12,21-33.18,4.62-10.08,14.28-38.64,24.36-73.08H61v-29h57.54c3.78-16,7.14-32.34,9.66-48.72l30.24,6.3c-2.52,13.86-6.3,28.56-10.08,42.42h67.2v29h-76c-10.92,36.12-23.94,70.56-37.38,99.54h41.16V171.88h30.24V235.3H216.4v28.56H173.56V319.3l54.6-9.66ZM313,214.3c-5,17.22-9.66,33.6-14.28,48.3h100l5.46-1.68L426,272.26c-21,30.24-50,70.14-76.44,104.58,20.58,14.28,39.06,28.56,51.24,40.74l-21,24.36c-24.36-24.78-73.92-63-115.92-88.2l19.74-20.16c13.86,8.4,28.14,17.22,42.84,26.88,17.22-22.68,35.28-47.88,50-68.46H255.88c8-21.42,16.38-48.72,25.62-77.7H219.76v-29h69.72c5-16.38,9.66-33.18,14.28-49.56h-68V107.2h75.6q6.93-25.83,12.6-49.14l30.66,4.2c-3.78,13.86-7.14,29.4-11.76,44.94h84v28.56H335.26c-4.62,16.38-9.24,33.18-13.86,49.56H441.52v29Z"/></g></g></svg>