<svg xmlns="http://www.w3.org/2000/svg" viewBox="0 0 500 500"><defs><style>.cls-1{fill:#4b4b4b;}</style></defs><title>字z</title><g id="_2016年" data-name="2016年"><g id="马来西亚-6" data-name="马来西亚"><path id="貪-繁体" class="cls-1" d="M268.68,66.77c-2.91,3.32-6.23,6.64-9.13,10,38.59,28.63,112.88,61.84,181.78,78.44-7.06,5.39-16.19,16.6-21.17,24.07-66.82-18.68-138.62-55.62-179.29-85.91C199,129,143.34,158.9,81.08,180.48c-5-6.64-15.35-18.67-22.41-23.65,75.12-23.66,146.92-60.6,183-100.44Zm-54,328.7C180.69,413.73,128.4,432,86.89,442c-4.56-6.23-15.35-17.43-22-22.83,41.92-7.88,92.13-21.16,122-35.69Zm75.54-168.92c12-10.79,23.65-23.24,34-34H118V169.28H259.55c-10.8-12-27.81-28.22-42.75-39.43l22-14.11c17.85,12,37.36,29.47,46.9,41.92l-16.6,11.62H348l5-2.08,21.16,11.21c-13.28,15.35-29,32.37-44.82,48.14h55.61V382.19H116.78V226.55Zm63.91,19.92H146.66v25.32H354.17Zm0,44.41H146.66v25.73H354.17Zm0,44.82H146.66v26.56H354.17ZM303.54,383c45.24,12.45,93.79,29.46,123.68,41.91l-24.49,18.68c-26.56-12.45-72.63-29.47-118.28-43.16Z"/></g></g></svg>