<svg xmlns="http://www.w3.org/2000/svg" viewBox="0 0 500 500"><defs><style>.cls-1{fill:#4b4b4b;}</style></defs><title>字z</title><g id="_2019年" data-name="2019年"><g id="马来西亚-9" data-name="马来西亚"><path id="骗" class="cls-1" d="M163.67,343.3C130.89,352.84,98.1,361.56,70.29,369L64.48,343.3c24.9-5.4,60.6-14.11,96.7-23.66Zm44-86.74s0,9.13-.42,12.86C200.2,375.67,194,414.68,181.94,427.55c-7.06,8.3-13.7,10.79-24.91,11.62-8.71.83-24.48.83-40.25-.41-.42-7.48-3.32-17.85-7.47-24.49,16.6,1.24,31.12,1.66,38.18,1.66,5,0,9.13-.83,12.45-5,8.71-8.3,14.94-43.16,20.34-129.07H82.74c4.57-36.11,10-97.95,12.87-141.94l25.32,1.24c-2.49,36.11-6.23,80.93-10.38,115.38h44.82c5.4-40.26,10.38-98.36,13.7-148.17H76.52V81.83H196.88c-3.32,55.2-9.55,127.83-14.94,174.73Zm53.12-52.71c-.41,66-6.64,162.28-39.43,229.93-5-5.4-17.43-13.7-23.65-16.61,32.37-66,35.69-157.71,35.69-220.38V107.15h88c-5-12.45-11.2-27-17.84-38.6l27.81-8.3c8.71,14.53,17.43,33.2,22,46.9h76.37v96.7Zm0-70.55v44.4H403.14V133.3ZM435.52,238.71V411.78c0,10.79-1.66,17.84-9.13,22-7.06,4.15-17,4.15-31.13,4.15a119.18,119.18,0,0,0-7.47-22.42H407.3c2.9,0,4.15-.83,4.15-4.15V349.94H383.64v77.61H363.72V349.94H334.67v78H314.74v-78H284v88H260.79V239.13H411.45v-.42ZM314.74,325v-60.6H284V325Zm49,0v-60.6H334.67V325Zm47.73,0v-60.6H383.64V325Z"/></g></g></svg>