<svg xmlns="http://www.w3.org/2000/svg" viewBox="0 0 500 500"><defs><style>.cls-1{fill:#4b4b4b;}</style></defs><title>字z</title><g id="_2020年" data-name="2020年"><g id="马来西亚-10" data-name="马来西亚"><path id="疫" class="cls-1" d="M440.31,109v25.82H155.47v96.61c0,64.54-7.49,151.58-58.71,209.88-4.58-5.42-16.24-13.75-22.49-17.08,32.9-36.64,45.81-84.53,51.22-129.5-19.16,12.07-38.31,24.56-55.39,35l-10.41-25c17.91-8.75,42.48-23.32,67.88-37.89.83-12.5.83-24.16.83-35.4V109H275c-5-13.33-12.91-30.4-19.16-43.31l26.65-7.08c8.75,15.83,18.32,36.65,22.9,50l-1.24.42ZM103.84,221.47c-7.08-19.15-24.57-49.13-39.15-71.62l22.07-8.74c15.41,21.23,32.9,51.22,40.81,69.54Zm297.32,70c-17.07,43.31-46.64,74.54-83.28,97.86,32.89,13.75,71.21,22.49,115.35,27.07-5.42,5.41-12.5,16.66-15.83,24.15-49.14-6.24-91.61-17.9-127-36.22-36.64,17.9-78.7,29.14-122.43,36.64-2.08-7.08-7.07-17.91-12.07-23.74,38.73-5,76.2-14.15,109.52-27.9-30.4-20.4-52.89-47.05-68.71-80.37h-9.16V284.77h192l5-1.25Zm-36.23-66.62c0,11.66,1.25,15.4,7.92,15.4h33.73c5.83,0,14.15-.41,20-2.08.42,7.5,1.67,18.74,2.5,25.4-5,2.09-14.16,2.09-22.07,2.09H372.43c-27.9,0-34.15-10.41-34.15-41.23V185.66H247.09v14.16c0,30.4-12.08,61.63-65,82-2.5-5.83-11.66-16.66-16.65-21.24,47.47-16.24,55.8-39.15,55.8-61.63v-37.9H364.93ZM223.77,308.92c15,28.32,37.89,50.81,68.29,67.88,30.81-17.07,55.8-38.73,72.46-67.88Z"/></g></g></svg>