<svg viewBox="0 0 500 500" fill="none" xmlns="http://www.w3.org/2000/svg">
<path d="M111.98 208.592L121.456 232.9C148.236 227.544 179.548 221.364 211.684 214.36L210.448 194.996C173.78 200.352 138.348 205.708 111.98 208.592ZM122.692 166.156C149.884 171.1 185.316 180.988 204.268 188.816L212.92 169.452C193.968 162.036 158.536 152.972 131.344 149.264L122.692 166.156ZM364.536 146.792C344.348 153.796 309.74 165.332 285.844 169.864L296.968 185.52C320.864 181.4 354.648 174.396 378.132 164.92L364.536 146.792ZM280.9 212.3C313.036 216.832 355.06 226.72 377.72 234.548L384.724 213.536C362.064 205.708 320.04 197.056 288.316 193.348L280.9 212.3ZM75.724 124.132V194.584H104.976V144.732H233.52V232.076H264.008V144.732H394.2V194.584H424.276V124.132H264.008V101.06H400.38V77.576H99.208V101.06H233.52V124.132H75.724ZM154.828 440.548C162.656 436.428 176.252 433.956 285.432 416.24C285.432 410.472 286.256 399.76 287.904 392.756L191.908 406.352V345.376H253.296C285.02 394.816 345.172 423.244 424.688 433.956C428.396 426.128 434.988 415.416 441.168 409.648C408.208 406.764 378.544 400.584 352.588 391.108C371.54 382.456 392.552 372.156 409.444 360.208L386.784 347.024C372.364 356.912 348.056 370.92 328.692 380.808C309.74 370.92 294.084 359.384 282.136 345.376H434.988V323.54H128.048L128.872 303.352H395.024V282.752H128.872V265.036H419.744V242.376H99.62V300.88C99.62 338.372 94.676 386.988 57.596 423.656C64.188 426.952 75.724 437.252 80.256 443.02C107.86 415.828 120.632 379.572 125.576 345.376H161.008V388.224C161.008 404.704 149.884 411.708 142.468 415.004C147 421.184 153.18 433.544 154.828 440.548Z" fill="black"/>
</svg>
