<svg viewBox="0 0 500 500" fill="none" xmlns="http://www.w3.org/2000/svg">
<path d="M121.456 61.92C109.096 88.7 83.552 122.484 60.892 143.908C65.424 149.264 72.84 161.212 76.136 167.392C102.092 142.672 129.696 105.18 147.412 72.22L121.456 61.92ZM154.416 231.664V256.796H291.612V231.664H154.416ZM174.604 274.1C173.78 339.608 169.66 384.928 139.996 411.708C146.588 416.652 155.24 427.364 158.536 433.956C193.968 402.232 200.56 349.084 201.796 274.1H174.604ZM130.108 144.32C111.98 187.58 83.964 231.664 55.948 261.328C61.304 267.92 69.956 281.928 72.84 288.108C82.316 277.396 92.204 264.624 101.68 250.616V440.548H129.284V205.708C138.76 188.816 147.412 171.1 154.828 153.796L130.108 144.32ZM347.232 166.568H394.2C388.844 217.656 381.016 262.564 368.244 301.292C356.296 265.036 348.88 223.424 343.524 178.516L347.232 166.568ZM343.112 61.508C334.46 124.544 318.392 184.696 291.612 224.248C297.792 229.192 306.856 241.14 310.564 246.908C315.92 238.668 321.276 229.604 326.22 220.128C332.812 262.976 341.464 302.116 354.236 335.9C337.756 370.92 315.508 399.348 285.432 421.184C291.612 426.128 301.5 436.84 305.62 442.196C331.576 421.596 351.764 396.464 367.832 367.212C382.252 396.464 400.792 420.36 423.864 438.076C427.572 430.66 436.224 419.948 442.404 414.592C416.86 396.876 397.084 370.508 382.252 337.548C402.028 290.58 413.152 234.136 420.156 166.568H439.52V139.788H355.06C361.24 116.304 366.184 91.584 370.304 66.452L343.112 61.508ZM161.42 100.648V204.472H291.612V101.06H268.128V180.576H239.288V61.92H214.568V180.576H184.492V100.648H161.42ZM246.292 403.056C250.824 396.876 259.888 389.048 312.624 355.264C310.152 349.908 306.856 340.02 305.208 332.604L272.248 351.556V273.276H246.292V349.496C246.292 365.564 239.7 372.568 234.344 375.864C238.876 382.456 244.644 395.64 246.292 403.056Z" fill="black"/>
</svg>
