<svg viewBox="0 0 500 500" fill="none" xmlns="http://www.w3.org/2000/svg">
<path d="M78.196 76.34C96.736 96.528 119.396 124.956 130.932 142.26L154.416 125.368C143.292 108.888 120.632 82.52 101.68 62.332L78.196 76.34ZM234.756 222.6H307.268V265.036H234.756V222.6ZM234.756 197.88V155.856H307.268V197.88H234.756ZM234.756 290.168H307.268V334.252H234.756V290.168ZM295.732 75.516C305.62 91.996 315.92 113.42 322.1 129.9H240.936C250.412 110.948 258.652 91.584 265.656 71.808L239.288 64.392C220.748 118.364 190.672 172.748 157.3 208.18C162.656 213.948 171.72 226.72 174.604 232.488C185.728 220.128 196.44 206.12 206.74 190.464V360.62H433.34V334.252H334.46V290.168H412.74V265.036H334.46V222.6H412.328V197.88H334.46V155.856H423.864V129.9H352.176C346.82 113.008 333.636 87.052 321.688 67.688L295.732 75.516ZM69.132 290.992C72.428 287.696 83.14 284.812 93.852 284.812H138.76C125.164 349.496 95.5 395.228 55.536 420.772C61.716 424.892 72.016 435.604 76.136 441.784C97.148 427.776 116.1 407.588 131.344 382.044C163.892 426.54 215.392 434.78 297.792 434.78C343.112 434.78 395.024 433.956 433.34 431.484C434.988 422.832 439.108 408.412 443.64 401.82C401.616 405.528 341.052 407.588 297.792 407.588C222.808 407.176 170.896 401.408 143.704 358.148C155.652 331.78 164.716 300.88 170.484 265.036L155.24 259.268L149.884 259.68H102.916C126.4 231.664 157.712 188.816 175.016 164.508L154.828 155.032L149.884 157.092H63.364V183.048H129.696C111.98 208.18 87.672 241.14 77.784 250.204C70.368 258.444 63.776 261.328 57.596 262.976C60.892 269.156 67.072 283.576 69.132 290.992Z" fill="black"/>
</svg>
