<svg viewBox="0 0 500 500" fill="none" xmlns="http://www.w3.org/2000/svg">
<path d="M310.976 107.652V335.076H340.228V107.652H310.976ZM388.844 63.98V399.76C388.844 407.176 385.96 409.236 378.956 409.648C372.364 409.648 350.116 409.648 324.984 409.236C329.516 417.888 333.636 431.896 335.284 439.724C369.48 439.724 389.668 438.9 402.028 433.956C413.976 428.6 418.92 419.536 418.92 400.172V63.98H388.844ZM139.996 148.44V168.628H226.928V148.44H139.996ZM123.928 259.68H235.168V287.696H122.28L123.928 259.68ZM123.928 238.668V212.712H235.168V238.668H123.928ZM119.808 330.132V438.076H146.176V421.184H246.292V437.252H273.896V330.132H119.808ZM146.176 396.464V352.792H246.292V396.464H146.176ZM94.6761 189.64V245.26C94.6761 291.816 90.5561 360.208 58.0081 410.472C65.4241 412.944 78.6081 419.124 84.3761 423.656C104.976 391.108 115.276 349.908 120.22 310.768H264.008V189.64H94.6761ZM175.016 64.804C150.296 106.416 104.564 141.436 58.4201 163.272C64.1881 170.276 72.8401 185.108 75.7241 192.112C113.216 171.512 151.532 142.26 180.372 107.652C212.92 128.252 251.236 154.208 271.424 171.1L288.316 145.556C267.716 129.488 229.4 105.592 196.852 85.816L203.444 75.516L175.016 64.804Z" fill="black"/>
</svg>
