<svg viewBox="0 0 500 500" fill="none" xmlns="http://www.w3.org/2000/svg">
<path d="M136.288 69.336C141.644 80.048 147 93.232 151.12 105.18H62.9519V131.96H100.032V206.12C100.032 239.08 108.684 250.616 142.056 250.616C149.06 250.616 196.852 250.616 207.564 250.616C219.924 250.616 233.52 250.204 239.7 248.144C238.464 241.552 237.228 229.192 236.404 221.776C229.4 223.012 215.392 223.836 206.74 223.836C196.852 223.836 151.532 223.836 142.056 223.836C130.932 223.836 128.46 219.716 128.46 206.944V131.96H248.764V105.18H182.844C178.312 91.9961 170.896 74.6921 163.892 61.5081L136.288 69.336ZM389.668 261.328C320.04 274.924 196.44 283.164 94.6759 285.636C97.1479 292.228 100.856 303.352 101.268 310.768C143.292 309.944 189.024 308.296 233.932 305.412V341.256H92.6159V366.8H233.932V405.116H67.0719V431.484H433.34V405.116H265.244V366.8H409.856V341.256H265.244V303.352C317.568 299.232 367.008 293.876 405.324 286.048L389.668 261.328ZM293.672 133.196C318.804 149.264 347.232 169.04 365.772 183.46C355.884 194.172 344.76 203.236 332.4 211.064C317.98 194.172 296.144 170.688 276.78 151.736C282.548 145.556 288.316 139.376 293.672 133.196ZM306.444 117.54L308.092 114.656H404.5C398.32 134.432 390.08 151.736 379.78 166.568C360.004 151.736 330.752 132.372 306.444 117.54ZM306.856 62.332C292.024 93.232 264.008 131.136 224.044 159.152C231.048 163.272 240.524 172.336 245.88 178.928L261.124 166.568C278.84 184.696 298.616 206.532 311.388 222.6C292.848 231.664 272.248 237.844 250.412 242.376C255.768 248.556 261.948 259.268 265.244 266.684C351.764 245.672 417.272 200.764 439.932 95.292L421.804 88.7L416.036 89.524H324.984C329.104 82.1081 333.224 74.692 336.932 67.276L306.856 62.332Z" fill="black"/>
</svg>
