<svg viewBox="0 0 500 500" fill="none" xmlns="http://www.w3.org/2000/svg">
<path d="M203.444 245.672C228.988 258.444 259.064 279.044 273.896 293.876L293.26 273.276C278.016 258.032 247.116 239.08 221.984 227.544L203.444 245.672ZM302.736 298.82C323.748 325.6 344.348 361.444 350.94 385.34L375.248 372.156C368.244 347.848 347.232 313.24 324.984 287.696L302.736 298.82ZM203.444 285.636V384.516C203.444 414.592 210.448 423.656 240.112 423.656C246.292 423.656 276.78 423.656 282.96 423.656C307.68 423.656 315.92 411.296 318.392 360.208C310.564 358.148 298.616 353.616 292.848 348.672C291.612 390.696 289.964 395.64 279.664 395.64C273.484 395.64 248.352 395.64 243.82 395.64C232.696 395.64 231.048 393.992 231.048 384.104V285.636H203.444ZM156.476 291.404C151.944 325.188 142.056 361.856 123.516 383.28L146.176 397.288C166.364 373.392 175.428 333.428 180.372 297.996L156.476 291.404ZM201.796 158.74V194.584H111.156V158.74H201.796ZM201.796 136.904H111.156V103.12H201.796V136.904ZM390.904 158.74V194.996H296.968V158.74H390.904ZM390.904 136.904H296.968V103.12H390.904V136.904ZM405.736 79.636H267.716V218.892H390.904V402.232C390.904 408.824 388.844 410.472 383.076 410.884C376.484 411.296 355.884 411.296 334.048 410.472C338.58 419.124 342.288 432.72 343.524 440.96C374.012 440.96 393.788 440.548 405.736 435.604C417.684 430.248 421.392 420.772 421.392 402.644V79.636H405.736ZM80.668 79.636V441.372H111.156V218.48H231.048V79.636H80.668Z" fill="black"/>
</svg>
