<svg viewBox="0 0 500 500" fill="none" xmlns="http://www.w3.org/2000/svg">
<path d="M334.872 76.7519C346.408 95.2919 357.944 120.424 362.476 136.492L390.492 125.368C385.548 109.712 373.188 85.4039 361.652 67.2759L334.872 76.7519ZM296.144 61.9199C282.136 112.596 260.712 164.096 234.756 200.352V172.748H168.012V154.62H213.744V112.596H247.528V88.6999H213.744V62.7439H185.316V88.6999H127.636V62.7439H100.032V88.6999H63.364V112.596H100.032V154.62H142.056V172.748H75.312V251.852H141.232V276.16H75.312V299.232H141.232C141.232 307.06 140.82 315.712 139.172 324.776H62.128V349.084H132.992C123.104 374.628 102.916 400.172 60.48 419.536C67.072 424.892 75.724 433.956 79.844 439.724C117.748 421.184 139.584 398.936 152.768 375.452C177.488 392.756 204.268 415.004 218.276 429.836L235.58 408.824C219.512 393.168 188.612 369.684 162.656 352.792L163.48 349.084H248.764V324.776H168.424C169.66 316.124 170.072 307.472 170.072 299.232H238.052V276.16H170.072V251.852H234.756V216.008C240.524 220.54 247.116 226.308 250.412 230.016C256.592 221.776 262.36 212.712 268.128 203.236V440.136H296.556V419.536H438.284V391.108H378.956V333.84H431.692V307.06H378.956V250.616H431.28V224.248H378.956V168.628H435.812V140.612H299.44C308.916 117.54 317.568 93.2319 324.16 68.9239L296.144 61.9199ZM185.316 112.596V134.02H127.636V112.596H185.316ZM100.032 193.76H142.056V230.84H100.032V193.76ZM168.012 193.76H209.212V230.84H168.012V193.76ZM296.556 250.616H350.94V307.06H296.556V250.616ZM296.556 224.248V168.628H350.94V224.248H296.556ZM296.556 333.84H350.94V391.108H296.556V333.84Z" fill="black"/>
</svg>
