<svg viewBox="0 0 500 500" fill="none" xmlns="http://www.w3.org/2000/svg">
<path d="M232.696 188.816H264.42V401.82C264.42 411.708 262.909 419.124 259.888 424.068C257.141 429.012 251.923 432.857 244.232 435.604C237.091 437.801 227.203 439.037 214.568 439.312C201.933 439.861 186.003 440.136 166.776 440.136C165.952 436.016 164.304 430.935 161.832 424.892C159.635 419.124 157.3 414.18 154.828 410.06C164.991 410.335 174.604 410.472 183.668 410.472C193.007 410.747 201.109 410.747 207.976 410.472C214.843 410.472 219.649 410.472 222.396 410.472C226.241 410.197 228.851 409.511 230.224 408.412C231.872 407.313 232.696 404.979 232.696 401.408V188.816ZM108.272 181.4H388.844V346.2H357.944V207.356H108.272V181.4ZM60.48 250.616H440.344V276.16H60.48V250.616ZM101.268 321.068H370.716V346.2H101.268V321.068ZM384.312 60.272L405.736 84.168C385.685 88.0133 363.163 91.4467 338.168 94.468C313.173 97.4893 286.805 100.236 259.064 102.708C231.597 104.905 203.719 106.691 175.428 108.064C147.137 109.437 119.808 110.536 93.44 111.36C93.1653 107.789 92.0666 103.669 90.144 99C88.496 94.3306 86.848 90.2106 85.2 86.64C111.293 85.816 138.211 84.7173 165.952 83.344C193.693 81.696 220.885 79.7733 247.528 77.576C274.445 75.104 299.577 72.4946 322.924 69.748C346.545 67.0013 367.008 63.8426 384.312 60.272ZM121.456 124.132L149.884 114.656C155.927 122.072 161.557 130.449 166.776 139.788C172.269 149.127 176.115 157.092 178.312 163.684L148.236 174.808C146.039 167.667 142.468 159.427 137.524 150.088C132.58 140.475 127.224 131.823 121.456 124.132ZM220.336 117.952L248.352 110.124C253.571 118.639 258.24 127.977 262.36 138.14C266.755 148.303 269.776 157.229 271.424 164.92L241.348 173.572C239.975 165.881 237.228 156.817 233.108 146.38C229.263 135.943 225.005 126.467 220.336 117.952ZM364.536 100.236L396.672 110.948C388.157 123.308 378.819 135.943 368.656 148.852C358.768 161.761 349.567 172.885 341.052 182.224L314.684 172.336C320.177 166.019 325.945 158.603 331.988 150.088C338.305 141.573 344.211 132.921 349.704 124.132C355.472 115.343 360.416 107.377 364.536 100.236Z" fill="black"/>
</svg>
