<svg viewBox="0 0 500 500" fill="none" xmlns="http://www.w3.org/2000/svg">
<path d="M144.528 192.112H172.956V274.512L144.528 276.572V192.112ZM66.248 128.664H252.884V150.5H66.248V128.664ZM82.728 85.816H235.58V106.828H82.728V85.816ZM144.528 61.92H172.956V142.26H144.528V61.92ZM63.364 269.156C78.4707 268.057 95.7747 266.959 115.276 265.86C134.777 264.761 155.515 263.388 177.488 261.74C199.461 260.092 221.572 258.444 243.82 256.796L243.408 279.044C221.984 280.692 200.56 282.34 179.136 283.988C157.712 285.636 137.249 287.284 117.748 288.932C98.5213 290.305 81.08 291.679 65.424 293.052L63.364 269.156ZM118.984 143.908L143.292 144.732C140.82 161.761 133.679 175.495 121.868 185.932C110.057 196.095 95.088 203.785 76.96 209.004C75.8613 206.257 73.9387 202.961 71.192 199.116C68.72 194.996 66.3853 191.7 64.188 189.228C79.02 185.932 91.38 180.713 101.268 173.572C111.431 166.431 117.336 156.543 118.984 143.908ZM81.492 215.184H237.64V236.196H81.492V215.184ZM90.144 319.008H380.192V343.728H90.144V319.008ZM371.952 319.008H403.676C403.676 319.008 403.539 319.832 403.264 321.48C403.264 322.853 403.127 324.639 402.852 326.836C402.852 329.033 402.715 330.819 402.44 332.192C400.243 352.517 397.908 369.272 395.436 382.456C393.239 395.365 390.629 405.528 387.608 412.944C384.861 420.635 381.565 426.403 377.72 430.248C373.6 433.819 369.205 436.291 364.536 437.664C360.141 439.037 354.785 439.999 348.468 440.548C342.425 440.823 334.185 440.823 323.748 440.548C313.311 440.548 302.049 440.273 289.964 439.724C289.689 435.329 288.728 430.523 287.08 425.304C285.432 420.085 283.372 415.553 280.9 411.708C292.436 412.532 303.56 413.081 314.272 413.356C324.984 413.905 332.263 414.18 336.108 414.18C340.503 414.18 343.799 413.905 345.996 413.356C348.468 413.081 350.665 412.12 352.588 410.472C355.335 408 357.807 403.605 360.004 397.288C362.201 390.696 364.261 381.495 366.184 369.684C368.381 357.599 370.304 342.08 371.952 323.128V319.008ZM231.872 293.876H263.596C261.124 310.356 257.416 325.463 252.472 339.196C247.803 352.655 241.348 364.877 233.108 375.864C224.868 386.851 214.156 396.601 200.972 405.116C187.788 413.631 171.445 420.909 151.944 426.952C132.443 432.995 108.959 437.939 81.492 441.784C80.668 438.213 78.7453 433.819 75.724 428.6C72.7027 423.656 69.956 419.536 67.484 416.24C92.7533 412.944 114.315 408.824 132.168 403.88C150.021 398.936 164.991 393.031 177.076 386.164C189.161 379.297 198.775 371.332 205.916 362.268C213.332 353.204 218.963 343.041 222.808 331.78C226.653 320.244 229.675 307.609 231.872 293.876ZM255.356 183.048L269.364 163.684C280.076 170.001 291.475 177.005 303.56 184.696C315.92 192.387 327.731 199.94 338.992 207.356C350.528 214.497 360.004 220.952 367.42 226.72L353 249.38C345.859 243.337 336.657 236.471 325.396 228.78C314.135 221.089 302.324 213.261 289.964 205.296C277.604 197.056 266.068 189.64 255.356 183.048ZM262.36 110.948H387.196V136.904H262.36V110.948ZM375.248 110.948H403.264C403.264 134.02 403.264 155.307 403.264 174.808C403.539 194.309 404.088 211.339 404.912 225.896C406.011 240.179 407.659 251.303 409.856 259.268C412.328 267.233 415.624 271.216 419.744 271.216C422.491 271.491 424.276 266.684 425.1 256.796C426.199 246.908 426.885 234.685 427.16 220.128C429.907 223.149 433.065 226.171 436.636 229.192C440.207 232.213 443.365 234.685 446.112 236.608C444.739 258.856 442.267 274.787 438.696 284.4C435.125 293.739 427.984 298.408 417.272 298.408C407.109 298.408 399.144 293.876 393.376 284.812C387.608 275.473 383.488 262.564 381.016 246.084C378.544 229.329 376.896 209.553 376.072 186.756C375.523 163.684 375.248 138.415 375.248 110.948ZM309.328 61.92H336.52C335.971 90.2106 334.735 116.167 332.812 139.788C330.889 163.135 327.456 184.284 322.512 203.236C317.568 221.913 310.289 238.531 300.676 253.088C291.063 267.371 278.153 279.731 261.948 290.168C260.3 287.147 257.553 283.713 253.708 279.868C250.137 275.748 246.841 272.589 243.82 270.392C258.652 261.053 270.325 249.929 278.84 237.02C287.355 223.836 293.672 208.729 297.792 191.7C302.187 174.671 305.071 155.444 306.444 134.02C308.092 112.321 309.053 88.288 309.328 61.92ZM173.78 140.2H198.088V165.744C198.088 170.139 198.363 173.16 198.912 174.808C199.736 176.181 201.521 176.868 204.268 176.868C205.641 176.868 207.701 176.868 210.448 176.868C213.469 176.868 216.491 176.868 219.512 176.868C222.533 176.868 224.731 176.868 226.104 176.868C228.576 176.868 231.597 176.731 235.168 176.456C238.739 176.181 241.623 175.769 243.82 175.22C244.095 178.241 244.369 181.537 244.644 185.108C244.919 188.404 245.331 191.563 245.88 194.584C243.683 195.133 240.799 195.545 237.228 195.82C233.657 196.095 230.087 196.232 226.516 196.232C224.868 196.232 222.121 196.232 218.276 196.232C214.431 196.232 210.723 196.232 207.152 196.232C203.581 196.232 200.835 196.232 198.912 196.232C188.475 196.232 181.608 193.897 178.312 189.228C175.291 184.284 173.78 176.319 173.78 165.332V140.2Z" fill="black"/>
</svg>
