<svg xmlns="http://www.w3.org/2000/svg" viewBox="0 0 500 500"><defs><style>.cls-1{fill:#4b4b4b;}</style></defs><title>字z</title><g id="_2012年" data-name="2012年"><g id="澳门"><path id="貴-繁体" class="cls-1" d="M217,393.39c-34.87,19.51-88,37.35-130.32,47.31-4.57-6.22-14.53-18.26-21.17-24.07,43.16-7.88,93.8-21.16,124.09-36.1ZM434.48,176.75v24.48H68V176.75H236.1V155.17H123.62V83H236.1V59.3h30.29V83H384.68v72.22H266.39v21.58ZM388,376.38H119.89V221.16H388Zm-30.72-135.3H149.77v25.31H357.28Zm0,44.82H149.77v25.32H357.28Zm0,44.82H149.77v25.73H357.28ZM236.1,134.42V103.7H152.68v30.72Zm30.29-30.72v30.72h88V103.7Zm41.09,276C352.3,393,402.11,409.58,431.57,422l-30.29,17.84c-26.15-12.45-71-29.05-117-43.16Z"/></g></g></svg>