<svg xmlns="http://www.w3.org/2000/svg" viewBox="0 0 500 500"><defs><style>.cls-1{fill:#4b4b4b;}</style></defs><title>字z</title><g id="_2013年" data-name="2013年"><g id="澳门-2" data-name="澳门"><path id="爆" class="cls-1" d="M163.26,391.23c-7.06-14.53-23.66-41.5-37.77-62.67-8.3,38.6-23.24,75.95-49.8,108.32-4.15-6.22-13.28-14.94-19.51-19.09,48.56-61.84,54-139.45,54-215V61.7h25.73V203.22c0,31.13-.83,61.84-5,92.14,13.69,17.43,45.24,64.33,52.71,75.53ZM96,146.36C94.78,179.15,89,224,78.18,252.61l-19.92-8.3c10-25.32,16.18-68.48,18.26-100.85ZM188.58,143c-9.13,28.22-18.68,63.09-27.4,84.67l-17-7.89c7.47-22.82,17.43-60.18,21.58-85.49Zm186.34,140.7c17.85,19.5,45.24,38.18,68.9,47.73a107,107,0,0,0-17,19.09c-28.22-13.28-59.35-40.26-77.19-66.82H271.17c-19.51,24.48-53.54,50.63-82.18,63.5-3.73-6.23-11.2-14.94-17-19.1,24.08-9.13,51.05-26.56,70.14-44.4H179V260.5h67.23V231h-52.7V208.62h52.7V183.3h-41.5V71.66H412.69V183.3h-46.9v25.32h56.86V231H365.79V260.5h68.48v23.24Zm10,51.05c-10,12.45-21.16,25.31-31.54,36.1,27.39,11.62,53.54,24.07,71.39,34.86l-17,19.1c-20.75-13.7-53.95-30.3-86.33-44v29.47c0,14.11-2.49,19.92-13.28,24.07-9.54,4.15-24.48,4.15-49.38,3.74-1.66-6.64-6.64-15.77-10.38-22.41,17.85.41,34.45.41,38.6,0,5,0,6.64-1.25,6.64-5.81V380c-37.35,14.94-75.12,30.72-105,43.17l-10.79-22.42c29.46-10,73-26.56,115.79-43.16V295.77h27.8v62.67L333,362.59c11.2-12,24.48-28.22,32.37-39.84ZM256.64,364.67c-5-9.13-17-23.66-27.39-33.62l19.09-12.45c10.79,10,22.83,23.24,28.22,32.79ZM232.15,116.9h151.9V92.82H232.15Zm0,45.23h151.9V136.82H232.15Zm42.34,46.49h62.67V183.3H274.49Zm0,51.88h62.67V231H274.49Z"/></g></g></svg>