<svg xmlns="http://www.w3.org/2000/svg" viewBox="0 0 500 500"><defs><style>.cls-1{fill:#4b4b4b;}</style></defs><title>字z</title><g id="_2016年" data-name="2016年"><g id="澳门-5" data-name="澳门"><path id="地" class="cls-1" d="M144,313.71c15.36-6.64,31.13-13.7,47.31-19.92l6.23,27.39c-44,20.75-90.89,41.08-127.41,57.27l-12-30.71c15.36-5.4,35.28-13.28,56.86-22.41V193.76H61.79V164.3h53.12V70.09H144V164.3h48.56v29.46H144ZM383,407.09c24.07,0,28.22-11.21,31.12-58.94a78.65,78.65,0,0,0,27.81,12c-5,56.44-14.53,74.7-58.1,74.7H282.16c-46.89,0-61-11.2-61-55.61V248.55l-32.79,13.69-12-26.56,44.83-19.09V103.7h29.46V204.14l55.62-23.66V65.11H335.7V168.45l54.79-23.24,6.64-5.81,5.81-4.57,21.58,8.3-1.66,5.81c0,77.61-.83,139.45-4.15,155.22-2.08,17-10.38,24.49-22,27.39s-27.39,2.91-39,2.91c-1.25-8.3-3.74-19.92-7.47-26.56,10,.41,23.24.41,27.81.41,6.22,0,10.37-1.66,12.45-10.79,2.07-10,2.9-56,2.9-122L335.7,200V352.3H306.24V212.44L250.62,236.1V379.7c0,22,5.4,27.39,32.37,27.39Z"/></g></g></svg>