<svg xmlns="http://www.w3.org/2000/svg" viewBox="0 0 500 500"><defs><style>.cls-1{fill:#4b4b4b;}</style></defs><title>字z</title><g id="_2021年" data-name="2021年"><g id="澳门-10" data-name="澳门"><path id="党" class="cls-1" d="M390.75,410.53c16.66,0,19.57-7.08,21.24-52.47,6.25,4.58,17.49,8.75,25.4,10.83-3.75,54.55-12.08,67.46-44.14,67.46H322c-37.89,0-47.47-8.33-47.47-39.56V314.34H221.68C209.61,381,177.54,419.28,77.6,439.68c-2.5-7.08-10-18.74-15-24.57,91.2-16.24,119.1-47.05,130.34-100.77H137.57V199.4h223.2V314.34H301.64v82.45c0,11.24,3.74,13.74,22.48,13.74ZM100.92,227.72H74.27V139H235V60.32h27.9V139h55.8c13.74-19.57,32.06-51.22,42.06-72.87l27.9,9.58C376.59,97,361.6,120.7,347.86,139h77v88.7H397.41V164H100.92ZM137.15,67c16.66,17.91,34.56,41.64,42.47,57.88L155.06,139c-7.5-16.24-25.41-42.06-41.23-60Zm27.9,222.37H332v-65h-167Z"/></g></g></svg>