<svg xmlns="http://www.w3.org/2000/svg" viewBox="0 0 500 500"><defs><style>.cls-1{fill:#4b4b4b;}</style></defs><title>字z</title><g id="_2014年" data-name="2014年"><g id="中国国内字-9" data-name="中国国内字"><path id="法" class="cls-1" d="M141.68,244.19c-17-14.11-49.81-32.79-76.78-44.82L81.5,177c26.15,10.37,60.18,28.22,77.19,41.5ZM79,413.52c22-31.54,54.78-85.91,78.44-132.81l22.41,20.34c-21.58,43.58-50.63,95-75.12,133.22Zm24.9-348.21c27.39,11.21,61.42,29.88,78.86,43.17l-17.85,25.73c-16.6-14.11-50.22-34-77.61-46.49ZM408.13,439.25c-4.16-11.62-11.21-25.73-19.1-41.09-154,19.1-171.4,22-182.61,27.4a223.85,223.85,0,0,0-10.37-30.72c7.88-2.07,16.18-12,26.56-27,9.13-12.45,36.52-56.45,57.27-102.93H187.33V235.47H294V161.6h-88.4V132.13H294V60.75H324.7v71.38h91.73V161.6H324.7v73.87H433.44v29.47h-117c-21.58,44-47.31,88-73,122.85l131.15-14.53c-11.62-18.67-24.07-37.35-36.94-53.54l24.9-11.62c29,36.11,60.18,85.5,72.63,117.46Z"/></g></g></svg>