<svg viewBox="0 0 500 500" fill="none" xmlns="http://www.w3.org/2000/svg">
<path d="M77.372 271.216C80.668 267.92 93.44 265.448 107.448 265.448H144.116V325.188L60.48 339.196L67.072 369.272L144.116 354.44V439.312H173.78V348.672L229.4 337.548L228.164 310.768L173.78 320.244V265.448H216.216V237.432H173.78V174.396H144.116V237.432H103.74C116.924 208.592 129.696 174.396 140.408 138.964H215.804V110.124H149.06C152.768 96.116 156.064 82.108 159.36 68.1L128.872 61.92C126.4 77.988 123.104 94.056 119.396 110.124H62.952V138.964H111.98C102.504 172.748 92.616 200.764 88.084 211.064C80.668 228.78 74.9 242.376 67.896 244.024C71.604 251.44 75.724 265.448 77.372 271.216ZM219.512 187.58V216.832H280.076C271.424 245.672 262.772 272.452 255.356 293.464H374.012C359.592 314.064 341.876 338.784 324.984 360.62C310.564 351.144 296.144 342.08 282.548 334.252L262.772 354.028C304.796 379.16 353.824 417.064 377.72 441.372L398.32 417.476C385.96 405.528 368.244 391.52 348.056 376.688C374.424 342.904 402.852 303.764 423.452 273.276L401.616 262.564L396.672 264.624H297.792L311.8 216.832H439.108V187.58H320.452L333.636 138.964H424.276V110.124H341.464L353 66.04L322.1 61.92L310.152 110.124H235.58V138.964H302.324L288.728 187.58H219.512Z" fill="black"/>
</svg>
