<svg viewBox="0 0 500 500" fill="none" xmlns="http://www.w3.org/2000/svg">
<path d="M126.4 164.096C135.464 182.636 146.176 207.356 150.708 223.424L171.308 214.36C166.364 199.116 155.652 174.808 146.176 156.268L126.4 164.096ZM125.576 290.992C136.288 310.768 149.472 337.548 154.828 354.44L175.84 344.964C169.66 328.484 156.476 302.528 144.94 282.34L125.576 290.992ZM289.552 66.4519C299.852 86.2279 312.624 113.008 317.98 130.312L348.056 120.012C341.876 103.12 329.104 77.1639 317.98 57.3879L289.552 66.4519ZM224.868 130.312V158.328H434.988V130.312H224.868ZM261.124 198.704V288.52C261.124 331.368 256.18 386.576 215.804 425.716C223.22 429.012 235.168 437.664 239.7 442.608C282.548 400.584 289.964 337.136 289.964 288.932V226.308H360.828V387.812C360.828 416.24 362.476 423.244 368.656 429.012C374.424 434.368 382.664 436.428 390.492 436.428C395.024 436.428 404.5 436.428 409.032 436.428C416.448 436.428 423.864 435.192 428.808 431.484C433.752 427.776 437.048 422.42 439.108 414.18C440.756 405.94 442.404 382.456 442.816 363.504C435.4 361.444 427.16 356.912 421.804 352.38C421.392 372.98 420.98 389.048 420.156 396.464C419.332 403.056 418.096 406.764 416.448 408.412C414.8 409.648 411.504 410.06 408.208 410.06C405.324 410.06 400.38 410.06 398.32 410.06C395.436 410.06 393.376 409.648 391.728 408.412C390.492 406.764 389.668 400.584 389.668 389.872V198.704H261.124ZM186.552 136.492V241.552H116.512V136.492H186.552ZM60.4798 241.552V267.096H89.3198C89.3198 318.596 86.8478 383.28 58.0078 428.6C64.5998 431.484 76.9598 438.9 81.9038 443.844C111.98 396.464 116.512 322.716 116.512 267.096H186.552V404.292C186.552 409.236 184.492 410.884 179.548 410.884C174.604 411.296 158.948 411.296 141.232 410.884C145.352 417.888 149.472 430.248 150.296 437.664C175.84 437.664 190.672 437.252 200.972 432.308C210.448 427.776 213.744 419.124 213.744 404.292V110.948H153.18C158.536 97.3519 164.716 80.8719 170.072 65.2159L138.76 59.0359C135.876 73.8679 130.932 94.8799 125.988 110.948H89.3198V241.552H60.4798Z" fill="black"/>
</svg>
