<svg viewBox="0 0 500 500" fill="none" xmlns="http://www.w3.org/2000/svg">
<path d="M232.696 286.872V314.888C232.696 344.964 223.22 388.636 76.9601 417.888C84.3761 424.068 93.4401 435.604 97.5601 442.196C250 407.588 264.832 355.264 264.832 315.712V286.872H232.696ZM259.064 381.632C307.68 396.876 371.54 422.832 403.676 440.96L420.156 416.24C386.372 398.112 322.1 374.216 274.72 359.796L259.064 381.632ZM119.808 245.672V368.036H148.648V273.276H349.292V366.388H380.192V245.672H320.864C339.816 226.308 359.592 206.12 376.484 186.344L355.06 173.572L350.528 175.22H267.716L285.02 161.212C275.956 149.264 257.004 131.548 239.7 119.188L219.1 134.02C234.344 145.968 250.824 162.86 261.124 175.22H119.808V200.764H324.572C313.036 212.3 300.264 225.072 287.492 236.608L303.148 245.672H119.808ZM253.296 59.86C214.156 98.176 137.936 131.96 59.2441 153.384C65.8361 159.564 74.9001 171.924 79.0201 178.928C144.94 159.564 205.916 131.96 251.236 97.352C289.964 125.368 359.592 158.74 422.628 174.808C427.572 167.392 436.224 155.032 442.816 148.852C378.956 135.256 309.328 106.416 271.424 80.46L279.664 72.632L253.296 59.86Z" fill="black"/>
</svg>
