<svg viewBox="0 0 500 500" fill="none" xmlns="http://www.w3.org/2000/svg">
<path d="M55.124 342.904L61.716 368.86C89.32 361.444 122.28 352.38 154.828 343.316L152.356 319.42C116.1 328.896 80.668 337.548 55.124 342.904ZM306.032 263.8V324.776H275.544V263.8H306.032ZM326.22 263.8H355.06V324.776H326.22V263.8ZM252.06 238.256V437.664H275.544V349.084H306.032V427.364H326.22V349.084H355.06V426.952H374.836V349.084H402.852V410.884C402.852 413.768 401.616 414.592 398.732 415.004C395.848 415.004 388.432 415.004 379.368 414.592C382.664 421.184 385.548 431.072 386.372 438.076C401.204 438.076 410.68 437.252 418.096 433.544C425.512 429.424 427.16 422.42 427.16 411.296V237.844L402.852 238.256H252.06ZM374.836 263.8H402.852V324.776H374.836V263.8ZM294.908 67.688C301.5 79.224 308.092 94.056 312.624 106.416H224.456V195.82C224.456 258.444 221.16 350.32 189.024 416.652C195.204 419.536 207.564 428.188 212.508 433.132C245.468 365.564 251.648 269.156 252.06 202.824H420.98V106.416H344.76C340.228 92.82 331.576 73.456 322.512 59.448L294.908 67.688ZM252.06 132.784H394.2V176.868H252.06V132.784ZM86.848 138.964C83.964 183.46 78.608 244.848 73.252 281.104H171.308C165.952 367.624 159.36 401.82 151.12 410.472C147.824 414.592 143.704 415.004 138.348 415.004C131.344 415.004 116.924 415.004 100.444 413.356C104.564 420.36 107.448 431.072 108.272 438.488C123.516 439.312 139.172 439.312 148.236 438.9C159.36 437.664 166.364 435.192 173.368 426.952C185.316 414.18 191.496 375.04 198.5 268.744C198.912 264.624 198.912 255.972 198.912 255.972H172.956C178.724 209.004 184.904 136.08 188.2 81.284H67.484V108.064H160.184C157.3 157.504 151.944 216.008 146.588 255.972H102.092C106.212 221.364 109.508 176.456 111.98 140.612L86.848 138.964Z" fill="black"/>
</svg>
