<svg viewBox="0 0 500 500" fill="none" xmlns="http://www.w3.org/2000/svg">
<path d="M74.4878 84.9921V408H103.328V373.804H193.968V218.068C198.912 225.896 204.268 237.432 206.328 243.612C254.944 206.532 285.02 148.44 299.852 76.34L269.776 70.9841C257.828 130.724 233.108 179.34 193.968 210.652V84.9921H74.4878ZM367.832 68.9241L338.992 74.28C352.176 140.612 369.892 185.932 402.852 225.484H228.576V254.736H272.66C264.42 333.016 238.876 386.576 182.432 417.476C189.024 422.832 199.736 435.192 203.856 440.96C264.42 403.056 292.848 344.14 303.972 254.736H374.836C369.892 356.5 364.124 394.404 355.472 404.292C351.764 408.824 348.468 409.648 341.464 409.648C334.872 409.648 318.804 409.236 301.088 407.588C305.62 415.416 308.504 427.364 308.916 436.016C327.456 437.252 345.584 437.664 355.884 436.428C367.42 435.192 374.836 432.308 381.84 422.832C394.2 408.412 399.968 364.328 405.736 239.904L406.148 229.604L420.568 244.848C425.1 235.372 434.988 225.484 443.228 218.892C402.44 181.4 381.84 138.964 367.832 68.9241ZM164.716 198.292V258.444H103.328V198.292H164.716ZM164.716 171.512H103.328V112.184H164.716V171.512ZM164.716 285.224V346.2H103.328V285.224H164.716Z" fill="black"/>
</svg>
