<svg viewBox="0 0 500 500" fill="none" xmlns="http://www.w3.org/2000/svg">
<path d="M149.06 288.52V314.064H355.884V288.52H149.06ZM149.06 333.428V359.384H355.884V333.428H149.06ZM149.06 244.024V269.568H355.884V244.024H149.06ZM118.984 224.248H387.196V379.572H118.984V224.248ZM283.372 400.172L309.328 384.516C354.648 396.876 404.5 413.356 434.164 425.304L398.732 440.96C373.188 429.424 328.692 413.356 283.372 400.172ZM188.612 383.28L216.216 396.052C182.432 414.592 130.108 431.896 88.496 442.196C83.964 436.016 73.252 424.48 66.248 419.124C108.684 411.296 158.536 398.112 188.612 383.28ZM151.532 106.416V136.904H234.344V106.416H151.532ZM265.244 106.416V136.904H353V106.416H265.244ZM66.66 179.34H234.344V157.504H122.28V85.4039H234.344V61.9199H265.244V85.4039H383.488V157.504H265.244V179.34H434.164V203.648H66.66V179.34Z" fill="black"/>
</svg>
