<svg viewBox="0 0 500 500" fill="none" xmlns="http://www.w3.org/2000/svg">
<path d="M244.232 74.28L269.776 63.156C277.741 74.1427 285.157 86.228 292.024 99.412C299.165 112.321 304.247 123.583 307.268 133.196L279.664 145.968C276.917 136.355 272.111 124.819 265.244 111.36C258.652 97.6266 251.648 85.2666 244.232 74.28ZM376.072 61.92L407.384 72.632C400.792 87.7386 393.651 103.257 385.96 119.188C378.269 135.119 371.128 148.715 364.536 159.976L338.58 150.088C342.975 142.397 347.507 133.471 352.176 123.308C356.845 112.871 361.24 102.296 365.36 91.584C369.755 80.872 373.325 70.984 376.072 61.92ZM258.24 171.924V247.732H387.608V171.924H258.24ZM228.576 144.32H418.096V275.748H228.576V144.32ZM131.344 93.644H161.832V440.96H131.344V93.644ZM63.7759 180.164H216.628V209.004H63.7759V180.164ZM132.168 190.876L151.944 199.116C147.824 213.399 142.743 228.505 136.7 244.436C130.932 260.092 124.477 275.611 117.336 290.992C110.195 306.099 102.779 320.381 95.0879 333.84C87.3972 347.024 79.7066 358.285 72.0159 367.624C70.0932 363.504 67.4839 358.697 64.1879 353.204C60.8919 347.436 58.0079 342.629 55.5359 338.784C65.4239 327.797 75.3119 314.064 85.1999 297.584C95.0879 280.829 104.152 263.113 112.392 244.436C120.632 225.484 127.224 207.631 132.168 190.876ZM193.968 65.216L212.508 89.936C200.423 94.6053 186.552 99.1373 170.896 103.532C155.24 107.652 139.172 111.223 122.692 114.244C106.212 117.265 90.2812 119.875 74.8999 122.072C74.3506 118.776 73.1146 114.793 71.1919 110.124C69.2692 105.455 67.4839 101.472 65.8359 98.176C80.9426 95.4293 96.3239 92.408 111.98 89.112C127.911 85.816 143.017 82.108 157.3 77.988C171.583 73.868 183.805 69.6107 193.968 65.216ZM161.008 218.48C163.48 220.952 167.325 224.935 172.544 230.428C178.037 235.647 183.943 241.415 190.26 247.732C196.577 254.049 202.208 259.955 207.152 265.448C212.371 270.941 216.079 274.924 218.276 277.396L200.148 302.116C197.951 297.996 194.517 292.64 189.848 286.048C185.179 279.456 180.097 272.727 174.604 265.86C169.385 258.719 164.304 251.989 159.36 245.672C154.416 239.355 150.296 234.411 147 230.84L161.008 218.48ZM273.484 269.98H303.56C301.912 289.207 299.303 307.472 295.732 324.776C292.436 341.805 287.217 357.736 280.076 372.568C273.209 387.125 263.871 400.172 252.06 411.708C240.249 423.519 225.143 433.681 206.74 442.196C205.367 439.724 203.581 436.977 201.384 433.956C199.461 430.935 197.264 427.913 194.792 424.892C192.32 422.145 189.848 419.948 187.376 418.3C204.405 411.159 218.139 402.644 228.576 392.756C239.288 382.593 247.665 371.195 253.708 358.56C259.751 345.651 264.145 331.78 266.892 316.948C269.913 302.116 272.111 286.46 273.484 269.98ZM337.344 266.684H366.184V396.052C366.184 401.271 366.733 404.567 367.832 405.94C369.205 407.313 372.089 408 376.484 408C377.857 408 380.467 408 384.312 408C388.157 408 392.14 408 396.26 408C400.38 408 403.264 408 404.912 408C407.933 408 410.131 406.764 411.504 404.292C413.152 401.82 414.251 397.013 414.8 389.872C415.624 382.456 416.173 371.195 416.448 356.088C418.371 357.736 420.843 359.384 423.864 361.032C426.885 362.405 430.044 363.779 433.34 365.152C436.911 366.251 439.932 367.212 442.404 368.036C441.855 385.615 440.344 399.348 437.872 409.236C435.675 419.124 432.241 425.853 427.572 429.424C422.903 433.269 416.311 435.192 407.796 435.192C406.423 435.192 403.951 435.192 400.38 435.192C397.084 435.192 393.513 435.192 389.668 435.192C386.097 435.192 382.664 435.192 379.368 435.192C376.072 435.192 373.737 435.192 372.364 435.192C363.025 435.192 355.747 434.093 350.528 431.896C345.584 429.699 342.151 425.716 340.228 419.948C338.305 414.18 337.344 406.215 337.344 396.052V266.684Z" fill="black"/>
</svg>
