<svg viewBox="0 0 500 500" fill="none" xmlns="http://www.w3.org/2000/svg">
<path d="M125.576 61.92C110.744 89.112 81.4919 122.484 55.5359 143.908C60.4799 149.264 68.3079 160.8 72.0159 167.392C101.68 142.672 133.404 105.592 154.004 72.22L125.576 61.92ZM178.724 276.984V324.776C178.724 353.616 175.016 390.696 148.236 419.124C153.592 422.832 164.304 433.956 168.012 439.312C198.912 406.764 205.504 360.208 205.504 325.6V301.704H259.476V349.084C259.476 365.564 252.884 372.156 247.94 375.04C252.06 381.632 257.416 394.404 259.476 401.408C265.244 393.992 274.308 386.164 324.16 352.792C321.688 347.436 317.98 337.548 316.332 330.132L285.02 349.908V276.984H178.724ZM347.644 173.984H397.908C392.14 224.248 383.488 268.332 368.656 305.824C357.12 270.804 348.88 231.664 343.524 190.464L347.644 173.984ZM161.008 224.248V251.028H298.204V246.496C303.972 252.264 310.564 260.092 313.448 264.212C318.392 255.56 323.336 246.084 327.456 236.196C334.048 273.276 342.288 307.884 353.824 338.784C335.696 371.744 311.388 398.524 278.84 419.124C284.608 424.48 293.672 436.016 296.556 441.784C325.808 422.008 348.88 397.7 367.008 369.272C381.428 398.936 399.556 422.832 422.628 439.312C427.16 431.896 436.636 420.36 443.228 415.004C417.684 399.348 397.908 373.392 382.664 340.432C404.5 295.112 417.272 240.316 425.1 173.984H439.932V146.792H353.824C359.18 121.248 363.3 94.056 366.596 66.452L337.756 62.332C331.164 126.192 320.04 188.404 298.204 231.664V224.248H161.008ZM168.836 95.292V194.172H297.792V95.292H275.132V168.628H245.88V61.92H221.984V168.628H190.26V95.292H168.836ZM134.228 144.32C114.04 187.992 81.9039 231.664 51.0039 261.328C56.3599 267.92 65.4239 281.928 68.7199 288.108C80.6679 276.16 92.6159 262.152 104.564 246.496V440.136H132.992V205.296C143.704 188.404 153.592 171.1 161.832 153.796L134.228 144.32Z" fill="black"/>
</svg>
