<svg viewBox="0 0 500 500" fill="none" xmlns="http://www.w3.org/2000/svg">
<path d="M77.372 87.464C100.032 108.064 127.636 138.14 140.408 157.092L164.304 137.316C150.708 119.188 122.28 90.76 99.62 70.572L77.372 87.464ZM340.64 70.572V136.904H272.66V70.572H242.172V136.904H183.668V166.568H242.172V214.772L241.348 240.316H181.196V269.98H238.052C231.872 301.292 218.276 331.78 187.376 355.264C193.968 359.796 205.504 371.332 209.624 377.512C246.292 349.496 262.36 309.532 268.54 269.98H340.64V375.04H371.54V269.98H432.928V240.316H371.54V166.568H424.688V136.904H371.54V70.572H340.64ZM272.66 166.568H340.64V240.316H271.836L272.66 215.184V166.568ZM151.944 211.064H64.6V239.904H121.456V358.148C102.916 365.152 81.492 383.28 59.656 407.176L80.256 435.192C101.68 407.176 121.868 382.868 135.876 382.868C144.94 382.868 158.124 396.464 175.428 407.176C203.856 425.304 238.464 429.836 289.552 429.836C328.692 429.836 402.852 427.364 432.104 425.716C432.516 416.652 437.46 401.82 441.168 393.58C401.204 398.112 338.992 401.408 290.376 401.408C243.82 401.408 209.212 398.524 182.02 381.632C168.424 372.98 159.772 365.152 151.944 360.62V211.064Z" fill="black"/>
</svg>
