<svg viewBox="0 0 500 500" fill="none" xmlns="http://www.w3.org/2000/svg">
<path d="M135.876 148.852C123.516 178.104 102.916 207.768 80.2558 227.544C87.2598 231.252 98.7958 239.492 104.564 244.436C126.4 222.6 149.884 189.64 163.48 156.268L135.876 148.852ZM328.692 164.508C353.824 187.992 383.9 222.6 398.732 244.848L423.04 228.78C408.62 207.356 378.544 174.396 351.764 151.324L328.692 164.508ZM221.984 65.628C229.4 77.164 237.64 91.996 242.996 103.944H72.8398V131.548H186.964V256.796H217.864V131.548H281.312V256.384H312.212V131.548H427.16V103.944H277.604C272.248 91.172 261.124 71.808 251.648 58.212L221.984 65.628ZM98.7958 268.332V295.936H131.756C153.592 328.484 183.256 355.264 218.688 377.1C172.544 395.64 119.396 407.588 65.4238 414.592C70.7798 421.184 78.1958 433.956 80.6678 441.784C139.996 432.308 198.5 417.064 249.588 393.992C298.204 417.888 356.296 433.544 420.156 441.784C423.864 433.544 431.28 421.596 437.872 414.592C379.78 408.412 326.632 396.052 281.312 377.512C324.16 353.204 359.592 321.48 383.076 280.692L363.3 267.096L357.944 268.332H98.7958ZM165.952 295.936H336.108C315.096 323.128 285.02 345.376 250 363.092C215.392 344.964 186.964 322.716 165.952 295.936Z" fill="black"/>
</svg>
