<svg viewBox="0 0 500 500" fill="none" xmlns="http://www.w3.org/2000/svg">
<path d="M389.256 68.512V399.76C389.256 407.588 386.372 410.06 378.544 410.472C370.304 410.472 344.348 410.884 315.508 410.06C320.04 418.3 324.984 431.484 326.632 439.312C364.948 439.724 387.608 438.9 401.204 434.368C414.388 429.012 420.156 420.36 420.156 399.76V68.512H389.256ZM308.916 109.712V338.784H338.58V109.712H308.916ZM102.504 212.712V389.46C102.504 426.128 114.864 434.78 154.828 434.78C163.48 434.78 221.984 434.78 231.46 434.78C268.128 434.78 277.192 418.712 281.312 361.856C272.66 359.796 260.712 355.264 253.708 349.908C251.648 398.936 248.764 408 229.4 408C216.628 408 167.6 408 157.3 408C136.288 408 132.992 405.116 132.992 389.46V240.316H221.984C218.688 290.168 214.98 310.356 210.036 316.124C207.152 319.832 203.856 320.244 198.088 320.244C192.32 320.244 177.9 319.832 162.656 318.184C166.776 326.012 170.072 336.724 170.484 344.964C186.964 346.2 203.032 345.788 211.272 345.376C221.572 344.14 228.576 341.668 234.756 334.664C244.232 324.364 248.764 296.348 252.472 225.072C252.884 220.952 252.884 212.712 252.884 212.712H102.504ZM172.956 62.744C151.12 115.892 107.448 172.748 55.124 210.24C62.128 215.184 72.84 225.484 77.784 231.664C118.572 200.352 153.592 159.152 179.96 114.244C212.508 149.676 248.352 192.112 266.48 219.716L289.14 199.116C269.364 169.864 227.752 124.132 193.144 89.112L201.796 70.984L172.956 62.744Z" fill="black"/>
</svg>
