<svg viewBox="0 0 500 500" fill="none" xmlns="http://www.w3.org/2000/svg">
<path d="M67.0721 405.116V431.484H433.34V405.116H265.244V368.448H388.02V342.904H265.244V308.296H407.796V281.928H95.0882V308.296H234.344V342.904H112.804V368.448H234.344V405.116H67.0721ZM100.856 255.148C109.508 249.38 123.516 244.848 234.756 216.42C234.344 210.24 234.344 198.704 235.168 190.464L136.288 213.948V131.96H250V105.18H181.196C176.252 91.996 167.188 75.104 158.948 62.332L131.344 70.572C137.524 80.872 144.116 93.644 148.648 105.18H62.9521V131.96H106.624V203.648C106.624 220.952 95.9121 227.956 88.9081 231.252C93.4401 236.608 98.7961 248.144 100.856 255.148ZM270.188 76.34C270.188 185.52 269.776 224.66 223.22 250.616C229.4 255.56 238.052 266.684 240.936 274.1C268.952 258.444 283.372 238.256 291.2 206.532H389.668V236.608C389.668 241.552 387.608 243.2 381.84 243.2C376.072 243.612 355.884 243.612 334.46 243.2C338.58 250.204 343.112 261.74 344.76 269.568C373.6 269.568 392.14 269.568 403.676 265.036C415.624 260.504 419.332 252.264 419.332 236.608V76.34H270.188ZM299.44 99.412H389.668V129.9H299.028L299.44 99.412ZM298.204 151.736H389.668V184.284H295.32C296.556 174.396 297.38 163.684 298.204 151.736Z" fill="black"/>
</svg>
