<svg viewBox="0 0 500 500" fill="none" xmlns="http://www.w3.org/2000/svg">
<path d="M235.168 128.664V187.992H133.816V216.008H218.276C193.556 257.208 154.416 298.408 119.396 319.42C125.988 325.188 134.64 335.076 139.172 341.668C172.544 318.596 209.212 277.808 235.168 235.372V373.804H264.008V245.26C297.792 277.808 335.284 316.536 355.06 340.844L374.424 319.832C352.176 293.464 307.68 249.792 269.776 216.008H369.068V187.992H264.008V128.664H235.168ZM78.6079 81.2839V441.784H109.508V422.42H390.492V441.784H422.216V81.2839H78.6079ZM109.508 393.58V110.124H390.492V393.58H109.508Z" fill="black"/>
</svg>
