<svg viewBox="0 0 500 500" fill="none" xmlns="http://www.w3.org/2000/svg">
<path d="M97.5599 77.576C117.748 99 141.232 129.488 151.944 148.44L176.252 130.724C165.128 112.184 140.82 83.344 120.632 62.332L97.5599 77.576ZM82.3159 143.084V440.96H111.98V143.084H82.3159ZM196.44 191.7V338.372C196.44 368.86 204.68 377.512 234.756 377.512C241.76 377.512 276.368 377.512 283.372 377.512C313.036 377.512 319.628 359.796 322.512 292.64C315.508 290.992 304.384 286.46 298.204 281.516C296.968 342.904 294.908 352.792 281.312 352.792C273.484 352.792 244.232 352.792 238.464 352.792C225.692 352.792 222.808 350.732 222.808 338.372V191.7H196.44ZM154.004 204.884C148.648 243.2 137.936 294.288 121.868 326.836L147 335.9C162.244 303.352 172.132 249.792 178.312 210.652L154.004 204.884ZM221.984 145.968C241.348 178.104 260.712 221.364 268.54 247.32L292.436 235.372C285.02 209.416 264.42 167.804 245.056 136.08L221.984 145.968ZM314.272 199.116C329.516 241.552 344.76 297.584 348.468 330.544L374.012 322.716C369.48 290.168 354.236 235.372 337.756 193.348L314.272 199.116ZM191.084 76.752V105.18H389.256V401.408C389.256 408.412 387.196 410.884 379.78 410.884C372.364 411.296 346.408 411.708 320.452 410.472C324.984 418.3 329.516 430.66 331.164 438.488C365.772 438.488 388.844 438.076 402.028 433.544C414.8 428.6 419.744 419.948 419.744 400.996V76.752H191.084Z" fill="black"/>
</svg>
