<svg viewBox="0 0 500 500" fill="none" xmlns="http://www.w3.org/2000/svg">
<path d="M162.656 308.708V390.284C162.656 423.244 174.192 432.308 218.688 432.308C227.752 432.308 292.436 432.308 302.324 432.308C340.228 432.308 350.116 418.712 354.236 362.268C345.584 360.62 332.812 355.676 325.808 350.32C323.336 397.288 320.04 403.88 299.852 403.88C285.432 403.88 231.46 403.88 221.16 403.88C197.676 403.88 193.556 401.82 193.556 390.284V308.708H162.656ZM200.56 292.64C231.872 309.532 268.952 335.488 286.668 353.616L308.504 332.192C289.552 314.064 252.06 289.344 221.16 273.688L200.56 292.64ZM349.704 313.24C373.188 345.376 397.084 388.636 405.736 416.24L435.812 403.468C426.336 375.04 401.204 333.016 376.896 301.704L349.704 313.24ZM109.096 306.236C100.444 338.784 84.376 379.572 64.188 405.116L91.38 419.948C111.98 392.756 127.224 349.908 136.7 316.124L109.096 306.236ZM103.74 80.0479V266.272H392.964V80.0479H103.74ZM132.992 185.932H233.52V238.668H132.992V185.932ZM264.008 185.932H362.476V238.668H264.008V185.932ZM132.992 107.652H233.52V159.976H132.992V107.652ZM264.008 107.652H362.476V159.976H264.008V107.652Z" fill="black"/>
</svg>
