<svg viewBox="0 0 500 500" fill="none" xmlns="http://www.w3.org/2000/svg">
<path d="M112.804 152.972V191.7H212.508V152.972H112.804ZM86.0239 130.312H240.936V214.36H86.0239V130.312ZM65.8359 80.048H260.712V106.828H65.8359V80.048ZM114.452 276.984L132.58 270.804C142.468 285.636 152.356 305.824 156.476 318.596L137.524 326.012C134.228 312.828 124.34 292.228 114.452 276.984ZM274.72 143.908H336.108V64.804H363.712V143.908H423.864V300.056H363.712V388.224L403.676 381.632C397.908 363.504 391.316 344.552 384.724 328.484L406.972 323.128C422.628 358.56 437.46 405.94 441.58 433.956L417.684 440.96C416.448 431.484 413.976 419.948 410.68 407.176C362.476 416.24 312.624 424.892 275.544 431.484L267.716 402.644C286.668 400.172 310.152 396.464 336.108 392.756V300.056H274.72V143.908ZM298.204 170.688V272.452H338.168V170.688H298.204ZM361.652 170.688V272.452H399.556V170.688H361.652ZM193.144 268.332L213.744 277.396C205.092 293.876 195.616 312.416 186.552 328.072H214.98V349.084H175.016V429.424H151.532V349.084H108.684V328.072H165.128C175.016 310.768 186.964 285.636 193.144 268.332ZM72.0159 237.432H254.532V406.352C254.532 419.536 252.06 426.952 242.996 431.484C234.344 435.604 219.512 436.016 198.5 436.016C197.264 428.6 193.968 418.3 190.672 411.296C205.916 411.708 219.1 411.708 223.22 411.708C227.752 411.708 228.988 410.472 228.988 405.94V261.74H96.7359V439.724H72.0159V237.432Z" fill="black"/>
</svg>
