<svg viewBox="0 0 500 500" fill="none" xmlns="http://www.w3.org/2000/svg">
<path d="M231.46 184.696H263.184V402.232C263.184 411.845 261.673 419.124 258.652 424.068C255.905 429.012 250.961 432.72 243.82 435.192C236.404 437.664 226.653 439.175 214.568 439.724C202.757 440.273 187.513 440.411 168.836 440.136C168.012 436.016 166.364 431.072 163.892 425.304C161.42 419.536 158.948 414.592 156.476 410.472C166.639 410.747 176.115 411.021 184.904 411.296C193.968 411.571 201.659 411.571 207.976 411.296C214.293 411.296 218.688 411.159 221.16 410.884C225.28 410.609 228.027 409.785 229.4 408.412C230.773 407.313 231.46 405.253 231.46 402.232V184.696ZM118.984 169.04H384.312V347.024H353.824V197.056H118.984V169.04ZM61.7161 242.376H439.932V270.392H61.7161V242.376ZM102.504 319.008H375.248V347.024H102.504V319.008ZM189.024 61.096L222.808 67.688C209.075 90.2107 191.908 112.871 171.308 135.668C150.708 158.191 126.263 178.928 97.9721 197.88C96.0494 195.408 93.7147 192.799 90.9681 190.052C88.4961 187.305 85.7494 184.696 82.7281 182.224C79.9814 179.477 77.2347 177.417 74.4881 176.044C92.8907 165.332 109.371 153.384 123.928 140.2C138.485 127.016 151.257 113.695 162.244 100.236C173.231 86.5026 182.157 73.456 189.024 61.096ZM194.38 96.116H317.156V123.308H173.78L194.38 96.116ZM312.212 96.116H319.628L324.984 94.468L346.82 110.124C341.052 118.913 334.048 128.252 325.808 138.14C317.843 147.753 309.465 157.092 300.676 166.156C292.161 174.945 283.921 182.773 275.956 189.64C273.209 186.893 269.639 184.147 265.244 181.4C261.124 178.379 257.416 176.044 254.12 174.396C261.261 168.079 268.54 160.8 275.956 152.56C283.372 144.045 290.239 135.393 296.556 126.604C303.148 117.54 308.367 109.437 312.212 102.296V96.116Z" fill="black"/>
</svg>
