<svg viewBox="0 0 500 500" fill="none" xmlns="http://www.w3.org/2000/svg">
<path d="M64.1879 180.576C76.8226 178.653 91.2426 176.456 107.448 173.984C123.928 171.512 141.369 168.765 159.772 165.744C178.449 162.448 197.127 159.152 215.804 155.856L217.04 183.46C191.221 188.129 165.265 192.661 139.172 197.056C113.353 201.451 90.4186 205.433 70.3679 209.004L64.1879 180.576ZM70.3679 102.296H214.156V129.9H70.3679V102.296ZM132.168 61.92H160.596V234.96C160.596 242.651 159.635 248.556 157.712 252.676C155.789 256.796 152.081 259.955 146.588 262.152C141.369 264.349 134.365 265.723 125.576 266.272C116.787 266.821 105.663 266.959 92.2039 266.684C91.6546 263.113 90.5559 258.856 88.9079 253.912C87.2599 248.693 85.4746 244.299 83.5519 240.728C93.1653 241.003 101.817 241.14 109.508 241.14C117.473 241.14 122.692 241.14 125.164 241.14C129.833 241.14 132.168 239.08 132.168 234.96V61.92ZM223.22 102.296H380.604V128.664H223.22V102.296ZM221.16 169.864L237.64 148.852C250.275 155.993 263.733 164.096 278.016 173.16C292.299 181.949 306.032 190.739 319.216 199.528C332.4 208.317 343.112 216.145 351.352 223.012L334.46 247.32C326.22 240.179 315.645 232.076 302.736 223.012C290.101 213.673 276.505 204.472 261.948 195.408C247.665 186.069 234.069 177.555 221.16 169.864ZM361.24 102.296H389.668C389.119 131.96 388.981 156.817 389.256 176.868C389.531 196.919 390.904 211.888 393.376 221.776C396.123 231.664 400.38 236.608 406.148 236.608C409.719 236.608 412.191 233.999 413.564 228.78C415.212 223.287 416.311 213.811 416.86 200.352C420.156 202.824 423.864 205.159 427.984 207.356C432.379 209.279 436.499 210.789 440.344 211.888C439.245 225.347 437.323 235.921 434.576 243.612C431.829 251.303 428.121 256.659 423.452 259.68C418.783 262.701 412.603 264.212 404.912 264.212C393.376 264.212 384.449 260.504 378.132 253.088C372.089 245.397 367.832 234.548 365.36 220.54C362.888 206.257 361.515 189.228 361.24 169.452C360.965 149.676 360.965 127.291 361.24 102.296ZM285.02 61.92H313.86C313.311 88.5627 311.8 112.596 309.328 134.02C306.856 155.444 302.461 174.533 296.144 191.288C290.101 207.768 281.312 222.188 269.776 234.548C258.24 246.908 242.859 257.483 223.632 266.272C221.984 262.701 219.375 258.719 215.804 254.324C212.233 249.929 208.937 246.633 205.916 244.436C222.945 236.745 236.541 227.544 246.704 216.832C257.141 205.845 264.969 193.073 270.188 178.516C275.681 163.684 279.389 146.655 281.312 127.428C283.235 108.201 284.471 86.3653 285.02 61.92ZM81.4919 292.64H381.016V320.244H81.4919V292.64ZM367.832 292.64H399.556C399.556 292.64 399.419 293.464 399.144 295.112C399.144 296.76 399.007 298.683 398.732 300.88C398.732 303.077 398.595 304.863 398.32 306.236C395.848 331.231 393.239 351.693 390.492 367.624C388.02 383.555 385.136 396.052 381.84 405.116C378.544 413.905 374.561 420.36 369.892 424.48C365.772 428.6 361.103 431.347 355.884 432.72C350.94 434.368 344.76 435.467 337.344 436.016C330.752 436.565 321.551 436.703 309.74 436.428C298.204 436.153 285.844 435.604 272.66 434.78C272.385 430.385 271.287 425.579 269.364 420.36C267.716 415.141 265.519 410.609 262.772 406.764C276.231 407.863 289.003 408.549 301.088 408.824C313.173 409.099 321.688 409.236 326.632 409.236C331.027 409.236 334.46 408.961 336.932 408.412C339.679 408.137 342.151 407.039 344.348 405.116C347.644 402.369 350.665 397.013 353.412 389.048C356.433 380.808 359.043 369.272 361.24 354.44C363.437 339.608 365.635 320.519 367.832 297.172V292.64ZM219.1 263.8H251.236C247.94 285.224 243.133 305.137 236.816 323.54C230.773 341.943 221.572 358.697 209.212 373.804C196.852 388.911 180.097 402.095 158.948 413.356C138.073 424.617 111.293 433.956 78.6079 441.372C77.2346 437.252 74.8999 432.583 71.6039 427.364C68.5826 422.145 65.4239 417.888 62.1279 414.592C86.5733 409.923 107.311 404.017 124.34 396.876C141.644 389.46 155.927 381.083 167.188 371.744C178.449 362.405 187.513 352.243 194.38 341.256C201.521 329.995 206.877 317.909 210.448 305C214.293 292.091 217.177 278.357 219.1 263.8Z" fill="black"/>
</svg>
