<svg viewBox="0 0 500 500" fill="none" xmlns="http://www.w3.org/2000/svg">
<path d="M298.204 116.716H388.02V205.708H298.204V116.716ZM268.128 88.7V318.596C268.128 357.736 279.664 367.212 317.98 367.212C327.044 367.212 383.9 367.212 392.964 367.212C426.748 367.212 435.812 351.556 439.52 302.116C430.868 300.056 418.92 295.112 411.916 289.756C409.856 330.132 406.972 338.784 391.316 338.784C378.956 338.784 330.34 338.784 321.276 338.784C301.5 338.784 298.204 335.076 298.204 318.596V233.724H418.096V88.7H268.128ZM84.788 248.556C83.552 321.892 79.02 388.224 54.712 429.836C62.128 433.132 75.724 440.548 81.08 444.256C93.028 421.596 100.856 392.756 105.8 360.208C135.464 416.652 184.904 430.248 272.66 430.248H431.28C433.34 421.184 438.696 406.764 444.052 399.76C418.096 400.996 292.436 400.996 272.248 400.584C233.52 400.584 203.032 397.7 179.136 388.636V304.588H246.292V277.396H179.136V216.008H250.412V187.992H172.544V136.08H240.112V108.476H172.544V62.332H143.292V108.476H74.488V136.08H143.292V187.992H63.776V216.008H150.708V372.98C132.992 358.972 120.632 337.96 111.156 307.472C112.392 289.344 113.628 270.392 114.04 250.616L84.788 248.556Z" fill="black"/>
</svg>
