<svg viewBox="0 0 500 500" fill="none" xmlns="http://www.w3.org/2000/svg">
<path d="M387.196 145.144C374.424 181.4 350.528 231.664 331.576 262.564L357.532 274.512C377.308 244.436 402.028 197.056 420.156 157.916L387.196 145.144ZM88.908 150.088C104.564 190.464 122.692 244.436 130.932 275.748L162.656 262.152C154.004 232.076 134.64 179.752 118.572 139.788L88.908 150.088ZM236.404 66.452C235.58 212.3 240.524 353.616 64.6 416.24C72.84 422.42 81.904 433.544 86.024 441.372C179.96 406.764 225.692 349.084 247.94 280.28C278.84 360.208 330.752 413.768 416.448 438.488C420.568 430.248 429.632 417.064 436.636 410.472C339.404 386.164 285.844 321.892 260.712 227.544C269.364 176.456 269.776 121.248 270.188 66.452H236.404Z" fill="black"/>
</svg>
