<svg viewBox="0 0 500 500" fill="none" xmlns="http://www.w3.org/2000/svg">
<path d="M110.744 374.628C101.268 390.696 86.4359 413.356 72.4279 427.364L98.3839 441.372C111.98 426.54 125.576 403.88 135.464 386.576L110.744 374.628ZM163.892 386.164C169.248 402.232 173.78 423.656 174.604 437.664L201.796 432.308C200.148 418.712 195.204 397.7 189.436 381.632L163.892 386.164ZM232.696 386.576C241.348 400.584 250 419.536 253.296 432.308L278.428 424.48C274.308 412.12 265.656 393.992 256.18 379.984L232.696 386.576ZM114.864 141.024H224.044C221.984 178.104 219.512 192.936 215.392 197.468C213.332 200.352 210.448 200.764 205.916 200.764H194.792V154.208H104.976L114.864 141.024ZM307.68 62.744C295.32 90.76 274.308 118.364 250.412 136.904L250.824 132.784C251.236 129.076 251.236 122.484 251.236 122.484H125.576L130.108 113.008L105.8 109.3C97.1479 128.252 82.3159 149.264 59.2439 165.332C65.0119 168.216 73.2519 176.044 76.9599 181.4C83.9639 175.632 90.5559 169.864 96.3239 164.096V216.008H118.984V204.06H181.608C183.668 209.416 184.904 215.596 185.316 220.54C198.5 221.364 211.684 221.364 218.276 220.952C226.928 220.128 233.108 218.068 238.052 212.3C244.644 204.884 247.528 186.756 250.412 142.672C256.18 147.616 263.596 155.444 266.892 159.976C274.308 153.796 281.724 146.38 289.14 138.552C298.204 150.912 309.328 162.86 321.688 173.16C301.088 185.108 276.78 194.172 250.412 200.764C256.18 205.708 264.42 216.832 267.716 222.6C295.32 213.948 320.864 203.236 343.112 189.228C366.184 204.884 393.376 217.244 421.804 225.072C425.512 217.656 433.34 206.944 439.52 201.588C412.74 195.82 387.608 185.932 365.36 172.748C383.076 157.916 397.084 139.788 406.56 117.952H430.456V94.468H321.688C326.632 86.64 330.752 78.4 334.46 70.16L307.68 62.744ZM306.032 117.952H376.896C369.068 133.608 357.532 147.204 343.524 158.328C327.868 146.792 315.096 133.196 305.208 118.776L306.032 117.952ZM118.984 170.276H171.72V188.404H118.984V170.276ZM148.236 288.932H244.644V309.532H148.236V288.932ZM148.236 270.804V250.204H244.644V270.804H148.236ZM299.852 384.104C310.564 394.816 322.1 409.648 327.044 419.948L331.576 417.888C335.284 424.068 337.756 433.956 337.756 440.136C355.472 441.372 371.952 441.372 380.604 440.96C390.08 440.136 396.26 438.076 402.44 432.308C411.092 424.48 416.036 404.704 421.392 360.208C421.804 356.088 422.628 348.672 422.628 348.672H274.308V327.66H379.78V309.532H274.308V288.932H378.956V270.804H274.308V250.204H394.2V229.604H118.16V368.86H390.492C387.196 397.7 383.488 410.472 378.544 415.004C375.66 417.888 372.364 418.3 367.008 418.3C361.652 418.712 348.056 418.3 333.224 417.064L349.704 408.824C343.936 398.936 331.988 385.34 321.276 374.628L299.852 384.104ZM148.236 327.66H244.644V348.672H148.236V327.66ZM125.988 62.332V77.576H69.9559V97.352H125.988V110.124H151.12V62.332H125.988ZM181.196 62.332V114.656H206.74V97.764H263.184V77.576H206.74V62.332H181.196Z" fill="black"/>
</svg>
