<svg viewBox="0 0 500 500" fill="none" xmlns="http://www.w3.org/2000/svg">
<path d="M241.76 151.736H366.184V193.76H241.76V151.736ZM212.508 129.9V215.184H396.672V129.9H212.508ZM181.196 80.872V106.416H428.396V80.872H181.196ZM192.32 239.08V372.98H417.272V239.08H192.32ZM78.196 76.34C96.736 96.528 119.396 124.956 130.932 142.26L154.416 125.368C143.292 108.888 120.632 82.52 101.68 62.332L78.196 76.34ZM221.16 316.124H289.14V351.556H221.16V316.124ZM317.156 316.124H387.608V351.556H317.156V316.124ZM221.16 260.504H289.14V295.112H221.16V260.504ZM317.156 260.504H387.608V295.112H317.156V260.504ZM69.132 290.992C72.428 287.696 83.14 284.812 93.852 284.812H138.76C125.164 349.496 95.5 395.228 55.536 420.772C61.716 424.892 72.016 435.604 76.136 441.784C97.148 427.776 116.1 407.588 131.344 382.044C163.892 426.54 215.392 434.78 297.792 434.78C343.112 434.78 395.024 433.956 433.34 431.484C434.988 422.832 439.108 408.412 443.64 401.82C401.616 405.528 341.052 407.588 297.792 407.588C222.808 407.176 170.896 401.408 143.704 358.148C155.652 331.78 164.716 300.88 170.484 265.036L155.24 259.268L149.884 259.68H102.916C126.4 231.664 157.712 188.816 175.016 164.508L154.828 155.032L149.884 157.092H63.364V183.048H129.696C111.98 208.18 87.672 241.14 77.784 250.204C70.368 258.444 63.776 261.328 57.596 262.976C60.892 269.156 67.072 283.576 69.132 290.992Z" fill="black"/>
</svg>
