<svg viewBox="0 0 500 500" fill="none" xmlns="http://www.w3.org/2000/svg">
<path d="M365.36 143.084C345.172 150.5 310.564 162.86 287.08 168.216L296.968 182.224C320.864 177.28 354.236 169.04 377.72 158.74L365.36 143.084ZM284.196 199.116C316.744 202.824 357.944 211.476 380.604 218.48L385.548 200.764C362.888 193.348 321.276 185.932 289.552 183.048L284.196 199.116ZM190.672 213.948C162.656 226.308 109.096 237.02 62.952 244.024C66.248 248.968 69.544 257.208 70.78 262.152C118.984 255.56 175.016 244.848 211.684 230.016L190.672 213.948ZM70.78 121.66V197.88H97.56V142.26H233.52V213.124H264.008V142.26H401.204V197.88H429.22V121.66H264.008V98.5879H411.504V77.5759H89.732V98.5879H233.52V121.66H70.78ZM126.812 159.564C151.944 165.332 182.432 175.22 200.56 183.46C168.424 187.992 138.76 192.524 115.688 194.996L123.104 214.772C150.708 209.828 181.608 204.06 214.156 197.468L213.332 181.4L202.208 183.048L209.624 167.392C192.32 159.152 159.772 150.088 135.052 145.144L126.812 159.564ZM234.756 229.604V340.432H310.152V363.504H237.64V384.928H310.152V412.12H219.1V434.78H438.696V412.12H338.992V384.928H416.448V363.504H338.992V340.432H417.684V229.604H234.756ZM260.3 294.7H312.212V317.772H310.152V320.244H260.3V294.7ZM336.932 294.7H390.904V320.244H338.992V317.772H336.932V294.7ZM260.3 250.204H312.212V274.924H260.3V250.204ZM336.932 250.204H390.904V274.924H336.932V250.204ZM144.94 255.56C150.296 262.152 156.064 270.804 159.772 278.22C149.472 282.752 138.348 287.284 126.812 290.992C122.692 282.34 115.688 271.216 107.86 262.976L88.496 271.216C95.088 279.044 102.092 289.756 105.8 298.408C91.38 303.352 76.96 307.472 62.952 311.592C65.836 316.536 69.956 323.952 71.192 329.308C98.384 321.892 126.812 313.24 154.004 303.352C158.948 307.884 163.068 312.416 166.776 317.36C140.408 334.252 96.324 350.32 62.54 357.736C66.66 362.68 72.016 371.744 74.076 377.512C107.036 367.212 147.824 349.496 176.252 332.192C179.136 337.96 181.608 343.728 183.668 349.496C154.004 372.98 103.328 395.64 61.716 406.352C66.248 411.296 71.192 419.948 73.252 425.716C110.744 413.768 156.064 391.932 187.788 369.272C189.848 388.636 185.316 404.704 177.076 410.472C172.132 415.416 166.364 415.828 158.536 415.828C152.768 415.828 143.292 415.416 132.168 414.592C136.288 421.184 138.76 432.308 139.584 439.312C147.824 439.724 157.3 439.724 163.892 439.724C178.312 439.312 187.376 437.252 196.852 428.188C222.808 408 222.808 340.02 177.076 294.288C198.912 285.224 218.688 275.336 234.756 265.036L213.332 250.204C204.268 256.796 192.732 263.388 179.548 269.568C175.428 262.152 169.66 253.912 163.48 247.732L144.94 255.56Z" fill="black"/>
</svg>
