<svg viewBox="0 0 500 500" fill="none" xmlns="http://www.w3.org/2000/svg">
<path d="M295.732 123.72H378.544C367.42 145.144 351.352 163.684 332.812 179.752C319.216 166.568 298.204 150.912 279.252 138.964L295.732 123.72ZM308.504 61.9199C290.376 93.6439 254.944 130.724 203.444 156.268C209.624 161.212 219.1 171.1 223.22 177.692C235.992 170.688 247.94 162.86 259.064 155.032C277.604 166.568 298.204 183.048 311.388 196.232C281.312 216.832 245.88 231.664 210.448 240.316C216.216 246.084 223.632 257.62 226.516 265.036C309.328 241.552 386.784 192.524 418.92 106.004L399.556 96.5279L393.788 97.7639H318.804C326.632 87.8759 333.636 77.9879 339.404 67.6879L308.504 61.9199ZM315.096 282.34H400.38C388.432 307.884 371.54 329.308 350.94 347.436C335.696 333.016 312.212 316.124 291.2 303.352C299.852 296.76 307.68 289.756 315.096 282.34ZM330.752 217.244C310.564 253.5 269.364 294.7 208.8 322.716C214.98 327.248 224.044 337.548 228.164 344.14C242.584 336.724 256.18 328.896 268.54 320.244C289.964 333.016 312.624 350.732 327.868 365.564C291.612 389.872 247.94 405.94 201.796 414.592C207.564 421.184 214.568 433.544 217.452 440.96C317.156 418.712 405.324 368.036 440.344 263.388L420.568 254.736L414.8 255.972H338.58C347.644 244.848 355.06 233.724 361.652 222.6L330.752 217.244ZM192.732 67.6879C162.244 81.6959 107.86 93.6439 61.7159 101.472C65.4239 108.064 69.5439 118.364 70.7799 124.956C90.1439 122.484 110.744 118.776 131.344 114.656V178.104H64.1879V206.944H127.224C110.744 254.324 82.3159 307.884 55.5359 337.136C60.8919 344.552 68.3079 356.912 71.6039 365.564C92.6159 340.02 114.452 299.232 131.344 257.62V440.136H161.832V262.564C175.84 279.868 192.32 302.116 199.324 313.652L217.864 289.344C209.624 279.868 173.78 242.788 161.832 232.488V206.944H213.332V178.104H161.832V107.652C181.196 103.12 199.324 97.7639 214.156 91.5839L192.732 67.6879Z" fill="black"/>
</svg>
