<svg viewBox="0 0 500 500" fill="none" xmlns="http://www.w3.org/2000/svg">
<path d="M65.424 83.7559V112.184H115.688C104.152 175.22 85.2 233.724 55.536 272.864C60.48 280.692 67.896 298.408 69.956 306.236C77.784 295.936 85.2 284.812 92.204 272.452V422.008H119.396V389.048H193.556V210.652H119.808C130.52 179.752 139.584 146.38 146.176 112.184H203.856V83.7559H65.424ZM119.396 238.668H166.364V361.444H119.396V238.668ZM224.456 125.78V231.664C224.456 289.756 220.748 368.86 184.08 425.304C190.672 428.188 202.62 436.016 207.564 440.136C241.348 388.636 250 314.476 251.648 255.972C266.48 297.172 287.08 333.428 313.036 363.504C288.728 386.988 260.712 405.116 231.872 416.24C237.64 422.008 245.468 433.132 249.176 440.136C278.84 426.952 307.268 408.412 332.4 384.104C357.532 408 386.784 427.364 419.744 440.548C424.276 432.72 432.928 421.184 439.52 415.416C406.56 403.88 376.896 385.752 352.176 363.092C382.252 328.072 405.736 283.164 418.92 228.78L400.792 221.776L395.848 223.012H337.344V153.384H399.144C394.612 172.336 389.256 191.7 384.312 204.884L408.62 211.064C416.86 190.464 426.336 157.916 433.34 129.488L413.564 124.544L408.62 125.78H337.344V61.9199H309.74V125.78H224.456ZM309.74 153.384V223.012H252.06V153.384H309.74ZM384.312 250.204C372.364 285.636 354.648 316.948 332.4 342.904C308.916 316.536 290.376 285.224 277.604 250.204H384.312Z" fill="black"/>
</svg>
