<svg viewBox="0 0 500 500" fill="none" xmlns="http://www.w3.org/2000/svg">
<path d="M166.364 134.844C162.656 163.272 154.004 205.708 147.412 231.252L165.952 239.08C173.78 214.772 182.844 175.22 191.084 143.908L166.364 134.844ZM294.496 298.408V412.532C294.496 416.652 293.26 417.888 288.316 418.3C283.372 418.712 266.892 418.712 248.764 418.3C252.06 424.48 256.592 433.956 258.24 440.548C283.372 440.548 298.616 440.548 307.68 436.428C317.98 432.72 320.452 426.128 320.452 412.944V298.408H294.496ZM327.044 384.516C357.12 398.524 389.668 417.064 409.032 431.896L425.924 412.532C405.736 398.112 372.364 379.984 341.464 366.8L327.044 384.516ZM367.008 317.772C358.356 328.072 341.876 344.552 330.34 353.616L346.408 368.036C357.532 359.796 373.6 346.612 384.724 333.428L367.008 317.772ZM182.02 410.472L193.968 433.132C220.336 419.124 252.06 401.408 282.548 384.516L276.78 364.328C241.76 382.044 206.328 399.76 182.02 410.472ZM226.516 333.428C237.228 343.728 250.412 358.148 256.592 367.624L277.604 354.44C271.012 344.964 257.828 331.368 246.704 321.892L226.516 333.428ZM233.52 139.376H385.136V164.508H233.52V139.376ZM233.52 94.88H385.136V119.6H233.52V94.88ZM58.8319 138.14C66.6599 173.16 74.4879 220.128 77.3719 247.32L101.268 240.316C97.972 214.36 89.32 168.628 81.0799 133.196L58.8319 138.14ZM112.392 63.98V206.532C112.392 282.34 107.036 360.62 57.5959 422.832C63.7759 426.54 73.2519 435.604 77.3719 441.784C103.328 409.648 118.572 373.392 127.224 335.076C140.82 356.088 158.124 383.692 165.54 398.112L185.728 377.512C178.312 365.976 145.764 319.008 132.992 302.528C137.112 270.804 137.936 238.668 137.936 206.532V63.98H112.392ZM338.58 233.724V263.388H275.132V233.724H338.58ZM338.58 210.652H275.132V185.932H338.58V210.652ZM205.916 73.868V185.932H247.116V210.652H194.38V233.724H247.116V263.388H179.96V286.46H244.644C225.28 305.824 196.852 324.776 172.544 334.252C178.312 338.784 185.728 347.848 189.848 354.028C218.688 340.02 253.296 312.828 273.072 286.46H345.996C365.36 314.064 398.32 342.492 427.984 356.5C432.104 350.32 439.932 341.256 445.7 336.312C419.744 326.836 391.316 307.06 372.364 286.46H436.636V263.388H367.008V233.724H425.1V210.652H367.008V185.932H413.564V73.868H205.916Z" fill="black"/>
</svg>
