<svg viewBox="0 0 500 500" fill="none" xmlns="http://www.w3.org/2000/svg">
<path d="M114.04 241.552V284.4H200.148V241.552H114.04ZM289.552 241.964V283.988H385.136V241.964H289.552ZM310.152 66.452L336.52 61.096C341.876 70.572 347.232 83.344 350.94 93.232H420.98V117.952H254.944V93.232H320.864C317.568 84.168 313.86 74.692 310.152 66.452ZM369.068 128.252L396.672 134.432L380.604 172.336H430.456V197.88H250.824V172.336H290.376C286.668 160.388 281.312 146.792 276.368 135.668L301.5 129.9C307.268 143.496 314.272 159.564 317.98 172.336H354.236C359.592 158.328 365.772 140.612 369.068 128.252ZM262.772 220.128H412.328V305.824H374.424V396.464C374.424 403.88 374.836 408 376.896 410.06C378.956 411.296 381.84 411.708 385.96 411.708C389.668 411.708 396.672 411.708 401.204 411.708C405.324 411.708 410.268 411.296 412.328 410.06C414.8 408.824 416.86 406.352 418.096 401.408C418.92 395.228 419.332 382.456 419.744 365.976C425.1 370.92 434.988 375.452 442.404 377.512C441.992 394.404 440.756 412.12 438.284 418.3C435.4 425.304 430.868 429.836 424.688 431.896C419.744 434.78 410.268 435.604 403.264 435.604C397.908 435.604 384.724 435.604 380.192 435.604C371.54 435.604 361.24 433.544 355.472 428.6C348.88 423.244 346.408 416.652 346.408 393.58V305.824H320.864C314.272 369.272 296.968 415.828 236.816 442.608C233.52 435.604 225.28 425.304 219.1 420.772C273.484 398.524 287.904 358.972 292.848 305.824H262.772V220.128ZM130.932 66.452L157.712 60.272C163.48 70.572 168.836 83.756 172.544 93.644H238.876V118.364H75.312V93.644H142.056C138.76 84.58 134.64 74.692 130.932 66.452ZM189.848 128.664L217.864 135.256L202.208 173.984H241.348V199.116H68.72V173.984H111.568C107.036 161.624 101.268 147.616 95.912 136.08L120.632 130.312C127.224 143.908 134.64 160.8 139.584 173.984H175.428C180.784 159.564 186.552 141.436 189.848 128.664ZM87.672 219.716H227.752V306.236H200.972V375.04L245.056 352.38C246.292 360.208 249.176 370.508 251.236 376.276C188.2 411.296 178.312 417.888 173.368 423.244C171.72 415.828 166.364 401.82 161.832 394.404C167.6 391.52 173.78 385.34 173.78 369.684V306.236H144.116C139.584 365.152 127.224 412.532 81.492 440.548C77.784 433.956 69.544 423.656 63.364 419.124C102.916 395.64 112.392 355.264 116.512 306.236H87.672V219.716Z" fill="black"/>
</svg>
