<svg viewBox="0 0 500 500" fill="none" xmlns="http://www.w3.org/2000/svg">
<path d="M240.112 102.296H407.796V131.548H240.112V102.296ZM394.612 102.296H425.512C425.512 102.296 425.512 103.395 425.512 105.592C425.512 107.789 425.512 110.261 425.512 113.008C425.512 115.755 425.512 117.815 425.512 119.188C424.139 169.452 422.628 211.888 420.98 246.496C419.607 281.104 417.821 309.532 415.624 331.78C413.701 353.753 411.229 370.783 408.208 382.868C405.461 394.953 401.891 403.605 397.496 408.824C393.101 415.141 388.295 419.536 383.076 422.008C377.857 424.48 371.54 426.128 364.124 426.952C356.708 427.776 347.095 428.051 335.284 427.776C323.473 427.501 311.388 426.952 299.028 426.128C298.753 421.733 297.655 416.652 295.732 410.884C294.084 405.116 291.887 400.035 289.14 395.64C302.873 396.739 315.508 397.425 327.044 397.7C338.58 397.975 346.957 398.112 352.176 398.112C356.021 398.112 359.317 397.7 362.064 396.876C364.811 395.777 367.283 393.855 369.48 391.108C373.051 387.263 376.072 379.572 378.544 368.036C381.291 356.225 383.625 339.471 385.548 317.772C387.471 295.799 389.119 267.783 390.492 233.724C391.865 199.665 393.239 158.328 394.612 109.712V102.296ZM193.556 298.408L219.512 288.52C226.379 301.704 233.108 315.849 239.7 330.956C246.567 345.788 252.609 360.345 257.828 374.628C263.321 388.636 267.441 401.133 270.188 412.12L242.172 424.068C239.975 413.356 236.267 400.859 231.048 386.576C225.829 372.019 219.924 357.049 213.332 341.668C207.015 326.287 200.423 311.867 193.556 298.408ZM76.1361 253.912C75.5867 251.715 74.6254 248.831 73.2521 245.26C72.1534 241.415 70.9174 237.569 69.5441 233.724C68.1707 229.604 66.7974 226.171 65.4241 223.424C69.5441 222.325 73.6641 219.304 77.7841 214.36C81.9041 209.141 86.4361 202.549 91.3801 194.584C93.8521 190.739 97.6974 184.421 102.916 175.632C108.135 166.843 113.765 156.405 119.808 144.32C126.125 131.96 132.305 118.913 138.348 105.18C144.665 91.172 150.159 77.164 154.828 63.156L186.14 75.516C178.175 94.7426 169.248 114.107 159.36 133.608C149.747 152.835 139.584 171.237 128.872 188.816C118.435 206.12 107.86 221.913 97.1481 236.196V237.02C97.1481 237.02 96.0494 237.569 93.8521 238.668C91.9294 239.767 89.5947 241.277 86.8481 243.2C84.1014 244.848 81.6294 246.633 79.4321 248.556C77.2347 250.479 76.1361 252.264 76.1361 253.912ZM76.1361 253.912L75.7241 229.604L92.2041 219.716L196.44 212.712C195.616 217.107 194.929 221.913 194.38 227.132C193.831 232.351 193.556 236.745 193.556 240.316C169.66 242.239 150.433 243.887 135.876 245.26C121.319 246.633 110.057 247.869 102.092 248.968C94.1267 249.792 88.3587 250.616 84.7881 251.44C81.2174 252.264 78.3334 253.088 76.1361 253.912ZM79.4321 408.412C78.8827 406.215 77.9214 403.331 76.5481 399.76C75.4494 395.915 74.0761 392.069 72.4281 388.224C71.0547 384.379 69.6814 381.083 68.3081 378.336C73.2521 376.688 78.6081 372.705 84.3761 366.388C90.4187 360.071 97.4227 351.693 105.388 341.256C109.783 336.037 116.1 327.523 124.34 315.712C132.58 303.901 141.919 290.031 152.356 274.1C162.793 257.895 173.231 240.453 183.668 221.776C194.105 202.824 203.581 183.872 212.096 164.92L242.996 178.928C229.263 205.296 214.568 231.252 198.912 256.796C183.256 282.065 167.051 306.099 150.296 328.896C133.816 351.419 117.473 372.019 101.268 390.696V391.52C101.268 391.52 100.169 392.069 97.9721 393.168C95.7747 394.267 93.1654 395.777 90.1441 397.7C87.3974 399.348 84.9254 401.133 82.7281 403.056C80.5307 404.979 79.4321 406.764 79.4321 408.412ZM79.4321 408.412L77.7841 382.044L95.0881 370.508L236.816 347.024C236.267 351.419 235.855 356.5 235.58 362.268C235.58 367.761 235.717 372.156 235.992 375.452C209.899 380.121 188.063 384.104 170.484 387.4C153.18 390.696 138.897 393.443 127.636 395.64C116.649 397.837 107.997 399.76 101.68 401.408C95.3627 402.781 90.5561 404.017 87.2601 405.116C83.9641 406.215 81.3547 407.313 79.4321 408.412Z" fill="black"/>
</svg>
