<svg viewBox="0 0 500 500" fill="none" xmlns="http://www.w3.org/2000/svg">
<path d="M65.012 99.8239C73.252 129.488 82.728 169.04 86.024 194.172L108.684 188.816C104.976 163.272 95.912 124.956 86.436 94.8799L65.012 99.8239ZM184.08 92.8199C177.9 121.248 166.364 164.096 156.476 189.228L175.84 194.584C186.552 169.864 198.5 130.312 208.388 98.5879L184.08 92.8199ZM213.332 179.752L226.516 199.116C245.468 188.404 266.068 175.632 286.668 163.684L281.312 146.38C255.356 159.152 231.048 171.924 213.332 179.752ZM219.512 120.836C234.344 129.076 253.296 141.024 263.596 148.852L276.368 132.372C266.48 125.368 247.116 114.244 232.284 106.828L219.512 120.836ZM324.572 181.812L338.168 201.176C357.532 189.64 378.132 176.456 399.144 163.272L393.376 146.38C367.008 159.976 342.288 173.984 324.572 181.812ZM330.752 121.248C345.996 129.076 365.772 140.612 376.484 148.028L388.02 131.136C378.132 123.72 357.944 113.008 342.7 106.416L330.752 121.248ZM145.352 409.236C151.532 402.232 161.42 395.64 221.572 361.856C219.512 356.5 215.804 345.376 214.156 337.548L170.896 360.62V236.608H207.976V207.768H147V69.3359H120.632V207.768H60.068V236.608H95.088C93.852 316.124 88.908 378.336 58.832 415.004C65.836 419.536 74.488 429.012 78.608 435.604C112.804 393.58 119.396 324.364 121.044 236.608H145.352V361.444C145.352 377.512 139.172 383.28 133.816 386.164C137.936 391.932 143.292 402.644 145.352 409.236ZM328.692 319.42V349.084H257.828V319.42H328.692ZM314.272 218.48C318.392 226.72 322.924 236.608 326.22 245.672H263.596C267.304 238.256 270.6 230.84 273.484 223.424L247.94 216.42C235.168 248.556 213.744 280.28 189.848 301.704C195.616 306.236 205.504 316.948 208.8 321.892C216.216 314.888 223.22 307.06 230.224 297.996V440.548H257.828V424.892H440.344V401.82H355.472V371.332H424.276V349.084H355.472V319.42H424.276V297.172H355.472V268.332H433.752V245.672H354.236C350.528 235.372 343.524 221.776 338.168 211.064L314.272 218.48ZM328.692 297.172H257.828V268.332H328.692V297.172ZM328.692 371.332V401.82H257.828V371.332H328.692ZM214.568 77.9879V101.06H293.26V193.76C293.26 197.88 292.436 198.704 287.904 199.116C283.372 199.528 269.364 199.528 252.472 198.704C254.944 204.884 257.416 211.476 258.24 217.244C280.9 217.244 297.38 217.244 306.032 213.948C315.508 211.064 317.568 205.708 317.568 193.76V77.9879H214.568ZM325.396 78.3999V101.06H404.912V194.172C404.912 197.88 403.676 199.116 399.144 199.116C394.612 199.528 380.604 199.528 363.712 199.116C366.184 205.296 368.244 213.124 369.48 218.892C392.14 218.892 408.208 218.892 417.272 215.596C426.336 212.3 428.396 206.532 428.396 194.172V78.3999H325.396Z" fill="black"/>
</svg>
