<svg viewBox="0 0 500 500" fill="none" xmlns="http://www.w3.org/2000/svg">
<path d="M235.992 338.372C247.116 361.856 257.004 393.168 260.3 412.532L286.256 405.116C282.96 386.164 271.836 355.676 260.3 332.604L235.992 338.372ZM302.736 332.192C316.744 349.496 331.576 373.804 337.756 389.46L361.652 378.748C355.472 363.504 339.816 340.02 324.984 323.128L302.736 332.192ZM165.128 340.844C171.72 367.212 177.076 400.996 177.488 423.244L205.504 418.712C204.68 396.464 198.912 362.68 191.084 336.724L165.128 340.844ZM105.8 326.424C99.208 362.68 84.788 399.348 58.832 421.184L84.376 437.252C111.98 413.356 125.164 372.568 132.992 333.84L105.8 326.424ZM239.288 241.14V281.928H142.88V241.14H239.288ZM112.392 82.108V309.12H395.848C390.904 375.04 385.96 401.408 378.132 409.236C374.836 412.944 371.128 413.356 363.3 413.356C355.884 413.768 336.52 413.356 316.332 411.296C320.864 419.536 324.572 431.484 324.984 439.724C345.996 441.372 366.596 441.372 377.308 440.136C389.256 439.312 397.084 436.84 404.5 428.6C416.036 416.24 421.804 382.044 427.572 295.524C427.984 290.58 428.396 281.928 428.396 281.928H269.776V241.14H388.02V215.596H269.776V175.632H388.02V150.088H269.776V109.3H402.44V82.108H112.392ZM239.288 215.596H142.88V175.632H239.288V215.596ZM239.288 150.088H142.88V109.3H239.288V150.088Z" fill="black"/>
</svg>
