<svg viewBox="0 0 500 500" fill="none" xmlns="http://www.w3.org/2000/svg">
<path d="M310.976 101.472H380.192V140.612H310.976V101.472ZM214.156 101.472H282.136V140.612H214.156V101.472ZM119.808 101.472H185.728V140.612H119.808V101.472ZM136.7 298.408H362.888V324.776H136.7V298.408ZM136.7 251.44H362.888V276.984H136.7V251.44ZM66.66 371.744V396.464H233.52V440.548H264.832V396.464H433.34V371.744H264.832V346.612H393.788V229.192H260.712V207.356H415.212V185.108H260.712V164.096H411.092V77.988H90.144V164.096H229.812V229.192H106.624V346.612H233.52V371.744H66.66Z" fill="black"/>
</svg>
