<svg viewBox="0 0 500 500" fill="none" xmlns="http://www.w3.org/2000/svg">
<path d="M261.536 232.488C265.107 260.229 270.875 284.675 278.84 305.824C286.805 326.699 297.655 344.552 311.388 359.384C325.121 374.216 342.563 386.164 363.712 395.228C385.136 404.017 411.229 410.197 441.992 413.768C439.795 415.965 437.46 418.712 434.988 422.008C432.791 425.579 430.731 429.149 428.808 432.72C426.885 436.291 425.237 439.587 423.864 442.608C391.728 437.389 364.399 429.561 341.876 419.124C319.628 408.961 301.225 395.503 286.668 378.748C272.385 361.993 260.987 341.805 252.472 318.184C243.957 294.288 237.365 266.547 232.696 234.96L261.536 232.488ZM230.636 218.892H264.42C262.772 241.689 260.025 262.976 256.18 282.752C252.609 302.253 246.979 320.381 239.288 337.136C231.872 353.616 221.435 368.448 207.976 381.632C194.792 394.816 177.625 406.352 156.476 416.24C135.601 426.403 109.783 434.78 79.0201 441.372C78.1961 438.625 76.6854 435.467 74.4881 431.896C72.5654 428.6 70.5054 425.304 68.3081 422.008C66.1107 418.712 63.9134 415.965 61.7161 413.768C90.5561 408 114.727 400.859 134.228 392.344C153.729 383.555 169.523 373.392 181.608 361.856C193.693 350.32 203.032 337.273 209.624 322.716C216.216 308.159 220.885 292.228 223.632 274.924C226.653 257.62 228.988 238.943 230.636 218.892ZM141.232 61.92L172.132 70.984C164.441 81.696 155.515 92.82 145.352 104.356C135.464 115.617 125.851 126.329 116.512 136.492C124.477 143.908 132.305 151.873 139.996 160.388C147.687 168.628 154.828 176.731 161.42 184.696C168.012 192.387 173.231 199.391 177.076 205.708L148.236 218.48C141.644 207.493 132.168 194.721 119.808 180.164C107.448 165.332 94.1267 150.912 79.8441 136.904C87.5347 128.664 95.2254 120.012 102.916 110.948C110.607 101.884 117.748 93.0947 124.34 84.58C131.207 75.7907 136.837 68.2373 141.232 61.92ZM259.476 61.92L290.376 71.396C282.411 81.5587 273.209 92.1333 262.772 103.12C252.609 114.107 242.859 124.407 233.52 134.02C241.485 141.436 249.313 149.264 257.004 157.504C264.969 165.469 272.385 173.16 279.252 180.576C286.119 187.992 291.612 194.721 295.732 200.764L266.892 213.948C260.025 203.236 250.137 190.739 237.228 176.456C224.319 161.899 210.448 147.891 195.616 134.432C203.581 126.467 211.547 118.089 219.512 109.3C227.752 100.511 235.305 91.996 242.172 83.756C249.039 75.2413 254.807 67.9627 259.476 61.92ZM380.192 61.92L411.092 71.808C405.599 78.6747 399.281 85.9533 392.14 93.644C384.999 101.335 377.857 108.888 370.716 116.304C363.575 123.445 356.571 130.449 349.704 137.316C358.493 144.732 367.145 152.697 375.66 161.212C384.449 169.452 392.552 177.555 399.968 185.52C407.659 193.485 413.976 200.627 418.92 206.944L389.668 220.54C384.724 213.124 378.132 204.747 369.892 195.408C361.652 186.069 352.451 176.456 342.288 166.568C332.125 156.68 321.688 147.067 310.976 137.728C319.491 129.488 328.143 120.836 336.932 111.772C345.721 102.433 353.824 93.3693 361.24 84.58C368.931 75.7907 375.248 68.2373 380.192 61.92ZM380.604 240.728L412.74 250.204C403.676 265.311 393.651 280.692 382.664 296.348C371.952 311.729 361.927 324.913 352.588 335.9L326.22 326.424C332.263 319.008 338.58 310.356 345.172 300.468C352.039 290.305 358.493 280.005 364.536 269.568C370.853 259.131 376.209 249.517 380.604 240.728ZM97.5601 250.204L125.164 238.256C130.657 247.595 136.425 257.757 142.468 268.744C148.785 279.731 154.691 290.305 160.184 300.468C165.677 310.631 169.935 319.557 172.956 327.248L143.704 341.256C140.683 333.565 136.563 324.501 131.344 314.064C126.125 303.627 120.495 292.777 114.452 281.516C108.684 269.98 103.053 259.543 97.5601 250.204Z" fill="black"/>
</svg>
