<svg viewBox="0 0 500 500" fill="none" xmlns="http://www.w3.org/2000/svg">
<path d="M67.8961 88.288H240.936V115.068H67.8961V88.288ZM163.48 277.396H434.988V300.056H163.48V277.396ZM209.624 322.304H395.436V344.964H209.624V322.304ZM157.3 61.92H187.788V144.732H157.3V61.92ZM312.624 61.92H343.112V141.848H312.624V61.92ZM83.1401 164.92L101.268 144.732C108.409 148.577 116.1 153.109 124.34 158.328C132.58 163.272 140.545 168.216 148.236 173.16C156.201 178.104 162.656 182.361 167.6 185.932L149.06 208.592C144.391 204.747 138.211 200.352 130.52 195.408C123.104 190.189 115.139 184.833 106.624 179.34C98.3841 173.847 90.5561 169.04 83.1401 164.92ZM61.7161 244.436L79.4321 224.248C86.5734 228.093 94.4014 232.488 102.916 237.432C111.431 242.101 119.533 246.908 127.224 251.852C135.189 256.521 141.644 260.779 146.588 264.624L128.46 287.696C123.791 283.851 117.473 279.456 109.508 274.512C101.817 269.293 93.7147 264.075 85.2001 258.856C76.9601 253.637 69.1321 248.831 61.7161 244.436ZM69.9561 419.948C76.2734 411.433 83.1401 401.408 90.5561 389.872C97.9721 378.336 105.663 366.251 113.628 353.616C121.593 340.707 129.009 328.072 135.876 315.712L156.476 334.252C150.433 345.788 143.841 357.736 136.7 370.096C129.833 382.456 122.692 394.541 115.276 406.352C108.135 418.163 101.131 429.149 94.2641 439.312L69.9561 419.948ZM233.932 213.124V239.904H369.48V213.124H233.932ZM233.932 167.804V194.172H369.48V167.804H233.932ZM206.328 148.44H397.908V259.268H206.328V148.44ZM389.256 322.304H418.508C418.508 322.304 418.371 323.815 418.096 326.836C417.821 329.857 417.547 332.467 417.272 334.664C415.624 354.989 413.839 371.607 411.916 384.516C410.268 397.425 408.208 407.451 405.736 414.592C403.539 421.733 400.929 426.952 397.908 430.248C394.887 433.544 391.591 435.741 388.02 436.84C384.724 438.213 380.604 439.175 375.66 439.724C371.54 439.999 365.909 439.999 358.768 439.724C351.627 439.724 344.073 439.587 336.108 439.312C335.833 435.741 335.009 431.621 333.636 426.952C332.537 422.283 331.027 418.163 329.104 414.592C336.52 415.416 343.249 415.965 349.292 416.24C355.609 416.515 360.004 416.515 362.476 416.24C365.497 416.24 367.832 415.965 369.48 415.416C371.128 415.141 372.639 414.317 374.012 412.944C376.209 410.747 378.132 406.627 379.78 400.584C381.428 394.267 383.076 385.203 384.724 373.392C386.372 361.581 387.883 345.925 389.256 326.424V322.304ZM236.816 283.988L261.948 291.404C251.785 308.708 238.601 324.913 222.396 340.02C206.191 354.852 189.848 367.349 173.368 377.512C171.995 375.864 170.072 373.941 167.6 371.744C165.128 369.547 162.519 367.349 159.772 365.152C157.025 362.955 154.691 361.169 152.768 359.796C169.248 350.732 185.041 339.608 200.148 326.424C215.529 313.24 227.752 299.095 236.816 283.988ZM268.952 330.132L292.436 337.136C281.449 355.813 267.029 372.843 249.176 388.224C231.597 403.605 213.469 416.515 194.792 426.952C192.869 424.755 189.848 421.871 185.728 418.3C181.883 415.004 178.587 412.257 175.84 410.06C194.517 400.996 212.233 389.597 228.988 375.864C246.017 361.856 259.339 346.612 268.952 330.132ZM332.812 330.956L357.532 336.724C348.193 358.423 335.971 378.473 320.864 396.876C305.757 415.004 289.689 430.111 272.66 442.196C271.287 440.548 269.364 438.763 266.892 436.84C264.42 434.917 261.811 432.857 259.064 430.66C256.592 428.737 254.257 427.227 252.06 426.128C269.639 415.141 285.432 401.408 299.44 384.928C313.723 368.448 324.847 350.457 332.812 330.956ZM259.476 87.876H432.928V114.656H259.476V87.876Z" fill="black"/>
</svg>
