<svg xmlns="http://www.w3.org/2000/svg" viewBox="0 0 500 500"><defs><style>.cls-1{fill:#4b4b4b;}</style></defs><title>字z</title><g id="_2015年" data-name="2015年"><g id="中国国内字-10" data-name="中国国内字"><path id="廉" class="cls-1" d="M121.76,225.51c0,62.67-5,154-38.6,215.4-5-5.39-17.85-14.11-24.49-17.43,31.13-57.69,33.62-139,33.62-198V97.27H256.64c-4.15-10.38-9.13-22.41-13.7-31.54l30.3-6.64a303.18,303.18,0,0,1,16.6,38.18H436.76v27.39h-315Zm281,116.63H338.4c23.24,28.22,59.76,54.36,93,67.65-6.64,5.39-15.77,15.77-20.34,23.65-29.88-15.77-62.67-43.58-85.91-73.87v76.78H297.31V342.14h-46.9v94.21h-27.8V363.72c-23.66,28.63-54.79,53.95-83.84,68.89-4.56-7.05-12.86-16.6-19.09-21.58,32.79-13.7,69.73-40.26,92.55-68.89H152.47V320.55h70.14V289.43H135V267.85h87.57V239.62H155.79V218h66.82V190.65H140.85V167h72.63a318.39,318.39,0,0,0-18.68-30.71l27-6.64c8.3,11.21,17,26.15,23.24,37.35h66.82c8.71-12,17.85-27.39,22.41-38.18l29.88,7.06c-7.05,10.79-13.69,21.58-20.75,31.12h87.16v23.66H325.12V218h77.61v48.15h38.6v23.65h-38.6ZM250.41,218h46.9V190.65h-46.9Zm0,49.81h46.9V239.62h-46.9Zm46.9,52.7V289.43h-46.9v31.12Zm27.81-80.93v28.23h50.22V239.62Zm50.22,80.93V289.43H325.12v31.12Z"/></g></g></svg>